<svg xmlns="http://www.w3.org/2000/svg" xmlns:xlink="http://www.w3.org/1999/xlink" width="1080" zoomAndPan="magnify" viewBox="0 0 810 120.749998" height="161" preserveAspectRatio="xMidYMid meet" version="1.0"><defs><clipPath id="3a0c6187b2"><path d="M 723 1 L 809.164062 1 L 809.164062 84 L 723 84 Z M 723 1 " clip-rule="nonzero"/></clipPath></defs><path fill="#000000" d="M 196.894531 83.566406 C 190.390625 83.566406 183.882812 83.539062 177.378906 83.589844 C 176.046875 83.597656 175.527344 83.140625 175.480469 81.800781 C 175.355469 78.496094 175.339844 78.46875 178.679688 77.894531 C 179.429688 77.761719 180.167969 77.566406 180.902344 77.375 C 184.789062 76.375 184.800781 76.371094 184.800781 72.238281 C 184.800781 52.582031 184.765625 32.921875 184.832031 13.261719 C 184.839844 11.332031 184.164062 10.5 182.355469 10.203125 C 180.515625 9.898438 178.679688 9.511719 176.878906 9.019531 C 174.378906 8.335938 175.738281 6.257812 175.578125 4.8125 C 175.429688 3.433594 176.628906 3.53125 177.648438 3.53125 C 190.59375 3.550781 203.539062 3.550781 216.480469 3.527344 C 217.652344 3.523438 218.925781 3.433594 218.886719 5.007812 C 218.851562 6.480469 219.894531 8.515625 217.339844 9.074219 C 215.378906 9.5 213.417969 9.933594 211.457031 10.347656 C 210.105469 10.628906 209.542969 11.339844 209.554688 12.8125 C 209.617188 20.910156 209.605469 29.011719 209.542969 37.109375 C 209.53125 38.769531 210.199219 39.28125 211.765625 39.273438 C 220.625 39.238281 229.488281 39.234375 238.34375 39.292969 C 239.734375 39.304688 240.203125 38.78125 240.199219 37.488281 C 240.1875 29.179688 240.1875 20.875 240.21875 12.570312 C 240.222656 11.308594 239.703125 10.648438 238.496094 10.398438 C 236.460938 9.976562 234.429688 9.539062 232.417969 9.050781 C 229.726562 8.398438 231.121094 6.226562 230.988281 4.734375 C 230.863281 3.324219 232.125 3.542969 233.109375 3.542969 C 245.988281 3.558594 258.863281 3.558594 271.734375 3.542969 C 272.929688 3.542969 274.308594 3.296875 274.328125 5.046875 C 274.34375 6.625 275.171875 8.664062 272.507812 9.148438 C 270.605469 9.496094 268.722656 9.96875 266.832031 10.378906 C 265.503906 10.667969 264.957031 11.34375 264.960938 12.847656 C 265.011719 33.402344 265.007812 53.957031 264.953125 74.515625 C 264.945312 75.988281 265.421875 76.695312 266.824219 76.941406 C 268.664062 77.265625 270.476562 77.742188 272.320312 78.015625 C 274.804688 78.382812 274.339844 80.238281 274.367188 81.84375 C 274.398438 83.570312 273.179688 83.570312 271.925781 83.570312 C 258.914062 83.558594 245.902344 83.550781 232.890625 83.566406 C 231.664062 83.570312 230.53125 83.480469 230.679688 81.886719 C 230.816406 80.464844 229.910156 78.519531 232.40625 78.097656 C 234.382812 77.769531 236.328125 77.257812 238.304688 76.941406 C 239.621094 76.734375 240.21875 76.191406 240.210938 74.78125 C 240.171875 65.992188 240.171875 57.199219 240.210938 48.40625 C 240.21875 46.722656 239.65625 46.183594 237.882812 46.203125 C 229.296875 46.3125 220.714844 46.304688 212.132812 46.214844 C 210.109375 46.191406 209.53125 46.851562 209.554688 48.855469 C 209.652344 57.300781 209.636719 65.746094 209.550781 74.191406 C 209.53125 75.890625 209.984375 76.769531 211.722656 77.011719 C 213.429688 77.25 215.109375 77.691406 216.808594 78.023438 C 218.777344 78.410156 219.230469 79.308594 218.972656 81.945312 C 218.804688 83.691406 217.621094 83.5625 216.410156 83.558594 C 209.902344 83.550781 203.398438 83.554688 196.890625 83.554688 C 196.894531 83.554688 196.894531 83.558594 196.894531 83.566406 Z M 196.894531 83.566406 " fill-opacity="1" fill-rule="nonzero"/><path fill="#000000" d="M 392.847656 3.898438 C 399.972656 3.898438 407.117188 3.589844 414.21875 3.988281 C 420.984375 4.367188 427.691406 5.671875 433.804688 8.828125 C 437.261719 10.613281 440.460938 12.921875 442.277344 16.527344 C 446.074219 24.070312 444.121094 32.933594 436.828125 38.539062 C 434.332031 40.457031 431.476562 41.957031 428.660156 43.398438 C 427.269531 44.109375 426.871094 44.667969 427.695312 46.050781 C 432.644531 54.371094 437.550781 62.714844 442.484375 71.046875 C 444.027344 73.65625 444.230469 73.699219 446.746094 71.988281 C 448.578125 70.742188 450.359375 69.425781 452.222656 68.230469 C 452.796875 67.859375 453.894531 67.425781 454.175781 67.671875 C 454.707031 68.144531 455.171875 69.152344 455.046875 69.824219 C 454.714844 71.570312 454.09375 73.273438 453.515625 74.964844 C 452.773438 77.125 451.929688 79.246094 451.183594 81.398438 C 450.644531 82.953125 449.773438 83.632812 447.960938 83.601562 C 440.628906 83.472656 433.292969 83.5 425.957031 83.574219 C 424.179688 83.59375 423.066406 83.128906 422.113281 81.488281 C 416.144531 71.199219 410.054688 60.980469 404 50.742188 C 403.792969 50.386719 403.628906 49.933594 403.3125 49.722656 C 402.777344 49.363281 402.136719 49.15625 401.542969 48.886719 C 401.285156 49.46875 400.808594 50.046875 400.808594 50.628906 C 400.785156 57.753906 400.832031 64.882812 400.859375 72.007812 C 400.875 76.460938 400.871094 76.460938 405.238281 77.597656 C 405.707031 77.71875 406.183594 77.804688 406.660156 77.886719 C 409.304688 78.359375 410.34375 79.894531 409.425781 82.402344 C 409.222656 82.964844 408.082031 83.503906 407.371094 83.507812 C 398.097656 83.5625 388.824219 83.511719 379.550781 83.5 C 376.019531 83.5 372.492188 83.484375 368.964844 83.582031 C 367.574219 83.621094 367.121094 83.097656 367.140625 81.777344 C 367.195312 77.710938 367.140625 78.398438 370.355469 77.882812 C 371.171875 77.75 371.96875 77.496094 372.773438 77.292969 C 376.429688 76.355469 376.476562 76.355469 376.476562 72.664062 C 376.480469 52.871094 376.4375 33.078125 376.488281 13.289062 C 376.492188 11.28125 375.78125 10.398438 373.839844 10.144531 C 372.132812 9.925781 370.464844 9.398438 368.761719 9.097656 C 367.5 8.875 367.050781 8.265625 367.132812 6.964844 C 367.347656 3.316406 366.628906 3.519531 370.636719 3.558594 C 378.039062 3.628906 385.445312 3.578125 392.851562 3.578125 C 392.847656 3.683594 392.847656 3.792969 392.847656 3.898438 Z M 400.753906 25.972656 C 400.746094 25.972656 400.738281 25.972656 400.730469 25.972656 C 400.730469 31.226562 400.703125 36.476562 400.773438 41.730469 C 400.78125 42.246094 401.410156 43.207031 401.726562 43.199219 C 405.003906 43.097656 408.613281 43.648438 411.488281 42.46875 C 419.589844 39.136719 423.238281 28.746094 419.660156 20.730469 C 416.3125 13.238281 409.820312 10.285156 402.292969 8.890625 C 401.109375 8.667969 400.722656 9.25 400.730469 10.417969 C 400.777344 15.605469 400.753906 20.789062 400.753906 25.972656 Z M 400.753906 25.972656 " fill-opacity="1" fill-rule="nonzero"/><path fill="#000000" d="M 653.460938 3.367188 C 661.484375 3.613281 669.519531 3.636719 677.523438 4.164062 C 685.992188 4.722656 693.988281 7.199219 701.128906 11.894531 C 709.96875 17.703125 715.242188 25.816406 716.886719 36.382812 C 718.9375 49.53125 714.976562 60.625 705.632812 69.75 C 700.28125 74.976562 693.65625 78.230469 686.480469 80.53125 C 678.21875 83.179688 669.808594 83.609375 661.257812 83.527344 C 650.390625 83.425781 639.519531 83.523438 628.652344 83.570312 C 627.453125 83.574219 626.464844 83.386719 626.621094 81.953125 C 626.777344 80.550781 625.734375 78.578125 628.238281 78.109375 C 630.070312 77.769531 631.875 77.238281 633.722656 77.003906 C 635.433594 76.785156 636.015625 76.054688 636.011719 74.296875 C 635.941406 54.777344 635.949219 35.257812 635.945312 15.738281 C 635.941406 10.59375 635.957031 10.59375 630.847656 9.671875 C 630.304688 9.574219 629.765625 9.445312 629.226562 9.3125 C 626.664062 8.6875 625.691406 6.917969 626.75 4.453125 C 626.953125 3.980469 627.917969 3.574219 628.539062 3.570312 C 636.84375 3.511719 645.148438 3.53125 653.457031 3.53125 C 653.457031 3.476562 653.460938 3.421875 653.460938 3.367188 Z M 660.328125 41.375 C 660.324219 41.375 660.320312 41.375 660.316406 41.375 C 660.316406 51.820312 660.386719 62.261719 660.253906 72.699219 C 660.226562 74.789062 661 76.035156 662.695312 76.785156 C 666.9375 78.667969 671.335938 79.332031 675.742188 77.46875 C 681.371094 75.089844 684.890625 70.535156 687.046875 65.074219 C 692.21875 51.988281 691.902344 38.796875 686.398438 25.921875 C 681.929688 15.476562 673.8125 9.394531 662.476562 7.722656 C 660.828125 7.476562 660.28125 7.898438 660.292969 9.632812 C 660.359375 20.21875 660.328125 30.796875 660.328125 41.375 Z M 660.328125 41.375 " fill-opacity="1" fill-rule="nonzero"/><path fill="#000000" d="M 37.160156 3.519531 C 48.441406 3.519531 59.71875 3.535156 71 3.492188 C 72.382812 3.488281 72.859375 4.054688 72.859375 5.328125 C 72.855469 12.59375 72.894531 19.863281 72.820312 27.128906 C 72.8125 27.765625 72.164062 28.855469 71.671875 28.941406 C 70.054688 29.230469 68.292969 29.390625 67.453125 27.351562 C 66.238281 24.417969 65.003906 21.484375 63.757812 18.5625 C 62.539062 15.699219 61.363281 12.816406 59.988281 10.03125 C 59.679688 9.40625 58.636719 8.792969 57.921875 8.78125 C 51.003906 8.695312 44.082031 8.738281 37.164062 8.734375 C 35.9375 8.734375 35.511719 9.257812 35.519531 10.519531 C 35.574219 19.101562 35.589844 27.679688 35.527344 36.261719 C 35.515625 38.003906 36.148438 38.671875 37.828125 38.542969 C 38.515625 38.488281 39.214844 38.523438 39.902344 38.582031 C 43.304688 38.875 46.425781 38.636719 48.894531 35.695312 C 49.863281 34.542969 51.488281 33.859375 52.929688 33.222656 C 53.5 32.96875 54.738281 33.179688 55.039062 33.617188 C 55.4375 34.191406 55.582031 35.507812 55.195312 35.964844 C 52.402344 39.265625 51.617188 43.257812 51.136719 47.316406 C 50.945312 48.917969 50.328125 49.230469 48.90625 49.195312 C 45.097656 49.105469 41.292969 49.164062 37.488281 49.117188 C 36.144531 49.101562 35.5 49.46875 35.519531 51.015625 C 35.59375 58.351562 35.597656 65.6875 35.511719 73.019531 C 35.492188 74.621094 35.984375 75.847656 37.378906 76.375 C 39.65625 77.246094 41.996094 78.210938 44.382812 78.464844 C 47.738281 78.816406 51.15625 78.449219 54.542969 78.59375 C 56.113281 78.660156 56.984375 78.050781 57.699219 76.792969 C 61.636719 69.882812 65.699219 63.042969 69.488281 56.054688 C 70.628906 53.953125 72.199219 53.664062 74.078125 53.925781 C 74.523438 53.988281 75.171875 55.226562 75.109375 55.867188 C 74.871094 58.480469 74.40625 61.066406 74.003906 63.664062 C 73.136719 69.269531 72.285156 74.878906 71.367188 80.472656 C 70.851562 83.601562 70.792969 83.542969 67.710938 83.539062 C 46.398438 83.527344 25.085938 83.535156 3.769531 83.542969 C 2.667969 83.542969 1.523438 83.859375 1.382812 82.113281 C 1.144531 79.15625 1.429688 78.445312 3.265625 78.085938 C 4.890625 77.769531 6.492188 77.230469 8.132812 77.082031 C 10.132812 76.894531 10.75 76.050781 10.746094 74.023438 C 10.667969 54.71875 10.730469 35.410156 10.675781 16.101562 C 10.65625 10.207031 11.90625 10.921875 5.347656 9.632812 C 4.941406 9.554688 4.539062 9.449219 4.136719 9.351562 C 1.453125 8.679688 0.503906 6.980469 1.53125 4.390625 C 1.703125 3.957031 2.570312 3.554688 3.113281 3.554688 C 14.464844 3.503906 25.8125 3.519531 37.160156 3.519531 Z M 37.160156 3.519531 " fill-opacity="1" fill-rule="nonzero"/><path fill="#000000" d="M 319.441406 3.53125 C 330.585938 3.53125 341.726562 3.550781 352.867188 3.507812 C 354.386719 3.503906 355.03125 4.074219 355.027344 5.5625 C 355.007812 12.6875 355.058594 19.816406 354.945312 26.945312 C 354.933594 27.648438 354.085938 28.808594 353.460938 28.933594 C 352.136719 29.207031 350.546875 29.507812 349.761719 27.648438 C 347.9375 23.316406 345.917969 19.0625 344.203125 14.691406 C 341.878906 8.777344 341.96875 8.742188 335.625 8.742188 C 330.367188 8.746094 325.105469 8.796875 319.847656 8.722656 C 318.203125 8.699219 317.542969 9.054688 317.566406 10.910156 C 317.675781 19.285156 317.667969 27.660156 317.570312 36.03125 C 317.546875 37.945312 318.117188 38.757812 320.042969 38.535156 C 320.515625 38.480469 321.007812 38.550781 321.492188 38.578125 C 325.039062 38.773438 328.460938 38.882812 331.0625 35.605469 C 331.980469 34.445312 333.695312 33.851562 335.136719 33.203125 C 335.671875 32.960938 336.847656 33.082031 337.070312 33.441406 C 337.46875 34.089844 337.769531 35.378906 337.410156 35.816406 C 334.609375 39.191406 333.800781 43.21875 333.339844 47.371094 C 333.175781 48.820312 332.394531 49.199219 331.105469 49.1875 C 327.230469 49.144531 323.351562 49.1875 319.480469 49.113281 C 318.046875 49.082031 317.550781 49.550781 317.566406 51.03125 C 317.636719 58.367188 317.640625 65.703125 317.566406 73.039062 C 317.550781 74.457031 317.996094 75.382812 319.125 76.164062 C 321.34375 77.703125 323.707031 78.640625 326.472656 78.574219 C 329.792969 78.496094 333.117188 78.488281 336.4375 78.589844 C 338.070312 78.640625 339.121094 78.160156 339.949219 76.675781 C 343.910156 69.617188 347.964844 62.613281 351.988281 55.59375 C 352.859375 54.074219 355.09375 53.246094 356.566406 54.082031 C 356.976562 54.3125 357.28125 55.21875 357.203125 55.753906 C 355.957031 64.378906 354.609375 72.988281 353.371094 81.613281 C 353.132812 83.265625 352.28125 83.574219 350.828125 83.570312 C 334.496094 83.519531 318.164062 83.507812 301.832031 83.5 C 296.503906 83.5 291.175781 83.527344 285.847656 83.554688 C 284.679688 83.558594 283.476562 83.570312 283.542969 81.945312 C 283.601562 80.414062 282.859375 78.460938 285.433594 78.058594 C 287.34375 77.761719 289.222656 77.257812 291.125 76.90625 C 292.421875 76.667969 292.96875 76.03125 292.96875 74.644531 C 292.941406 54.023438 292.945312 33.398438 292.984375 12.777344 C 292.988281 11.28125 292.296875 10.632812 291 10.339844 C 288.976562 9.886719 286.9375 9.5 284.929688 8.980469 C 282.546875 8.367188 283.65625 6.394531 283.585938 4.988281 C 283.515625 3.546875 284.695312 3.539062 285.8125 3.539062 C 297.023438 3.558594 308.234375 3.550781 319.445312 3.550781 C 319.441406 3.546875 319.441406 3.539062 319.441406 3.53125 Z M 319.441406 3.53125 " fill-opacity="1" fill-rule="nonzero"/><g clip-path="url(#3a0c6187b2)"><path fill="#000000" d="M 766.136719 1.855469 C 767.246094 1.855469 768.359375 1.945312 769.457031 1.839844 C 777.75 1.050781 784.765625 4.382812 791.292969 8.863281 C 799.125 14.242188 804.582031 21.519531 807.257812 30.703125 C 809.769531 39.316406 809.734375 47.902344 806.445312 56.347656 C 801.109375 70.03125 790.8125 78.394531 777.058594 82.195312 C 766.480469 85.121094 756.042969 83.726562 746.0625 78.621094 C 731.019531 70.921875 721.84375 55.046875 723.464844 38.214844 C 724.664062 25.734375 731.003906 16.1875 740.980469 8.875 C 745.398438 5.640625 750.359375 3.390625 755.605469 2.222656 C 758.960938 1.476562 762.617188 2.082031 766.136719 2.082031 C 766.136719 2.007812 766.136719 1.933594 766.136719 1.855469 Z M 785.855469 43.769531 C 785.855469 41.554688 785.996094 39.335938 785.832031 37.132812 C 785.277344 29.679688 784.453125 22.296875 781.261719 15.359375 C 775.300781 2.402344 759.757812 2.28125 753.011719 11.136719 C 750.308594 14.683594 748.820312 18.734375 747.890625 23.023438 C 745.816406 32.601562 746.027344 42.277344 746.984375 51.933594 C 747.660156 58.757812 748.96875 65.457031 752.644531 71.46875 C 754.949219 75.238281 758.007812 78.046875 762.3125 79.097656 C 771.824219 81.425781 779.296875 76.367188 782.636719 67.433594 C 785.488281 59.792969 786.105469 51.828125 785.855469 43.769531 Z M 785.855469 43.769531 " fill-opacity="1" fill-rule="nonzero"/></g><path fill="#000000" d="M 520.183594 83.53125 C 513.46875 83.53125 506.753906 83.523438 500.039062 83.539062 C 498.789062 83.542969 497.683594 83.558594 497.613281 81.808594 C 497.507812 79.132812 497.847656 78.449219 499.820312 78.167969 C 501.667969 77.898438 503.519531 77.640625 505.371094 77.378906 C 506.734375 77.183594 507.089844 76.460938 506.625 75.175781 C 505.023438 70.761719 503.4375 66.34375 501.894531 61.90625 C 501.351562 60.351562 500.589844 59.859375 499.171875 60.984375 C 498.746094 61.320312 498.238281 61.710938 497.734375 61.769531 C 492.433594 62.375 487.203125 62.488281 482.632812 59.03125 C 480.625 57.511719 476.875 58.46875 475.957031 60.847656 C 474.265625 65.226562 472.714844 69.664062 471.015625 74.042969 C 470.371094 75.703125 470.730469 76.433594 472.546875 76.671875 C 475.425781 77.050781 478.269531 77.722656 481.152344 78.050781 C 483.671875 78.34375 483.304688 80.09375 483.355469 81.730469 C 483.410156 83.601562 482.15625 83.5625 480.824219 83.558594 C 473.210938 83.539062 465.59375 83.542969 457.984375 83.550781 C 456.769531 83.550781 455.441406 83.652344 455.503906 81.890625 C 455.558594 80.355469 454.832031 78.226562 457.398438 78.027344 C 461.695312 77.699219 463.6875 75.230469 465.183594 71.351562 C 469.558594 60.011719 474.335938 48.824219 478.945312 37.574219 C 483.375 26.769531 487.886719 15.996094 492.167969 5.132812 C 493.265625 2.335938 495.5625 2.292969 497.683594 1.964844 C 499.917969 1.617188 502.253906 1.6875 504.515625 1.886719 C 505.199219 1.945312 506.078125 2.929688 506.386719 3.6875 C 508.847656 9.695312 511.183594 15.757812 513.574219 21.796875 C 517.667969 32.144531 521.769531 42.488281 525.859375 52.835938 C 528.707031 60.03125 531.605469 67.210938 534.316406 74.453125 C 535.078125 76.480469 536.21875 77.566406 538.320312 77.742188 C 539.007812 77.800781 539.691406 77.933594 540.375 78.046875 C 542.28125 78.371094 543.53125 81.601562 542.210938 83.046875 C 541.84375 83.449219 540.96875 83.527344 540.324219 83.53125 C 533.613281 83.5625 526.898438 83.550781 520.183594 83.550781 C 520.183594 83.546875 520.183594 83.539062 520.183594 83.53125 Z M 489.601562 27.066406 C 489.320312 27.136719 489.039062 27.207031 488.757812 27.28125 C 488.347656 28.4375 487.964844 29.601562 487.527344 30.746094 C 485.570312 35.832031 483.601562 40.917969 481.625 46.003906 C 481.292969 46.867188 481.078125 47.824219 482.410156 47.730469 C 486.347656 47.457031 489.628906 49.210938 493.042969 50.757812 C 494.410156 51.375 496.101562 51.273438 498.210938 51.582031 C 495.160156 42.894531 492.382812 34.980469 489.601562 27.066406 Z M 489.601562 27.066406 " fill-opacity="1" fill-rule="nonzero"/><path fill="#000000" d="M 115.183594 83.558594 C 104.875 83.558594 94.566406 83.546875 84.257812 83.574219 C 83.105469 83.578125 82.023438 83.542969 82.15625 82.0625 C 82.277344 80.648438 81.246094 78.683594 83.675781 78.160156 C 85.703125 77.726562 87.726562 77.269531 89.769531 76.925781 C 91.023438 76.714844 91.503906 76.132812 91.503906 74.84375 C 91.46875 54.15625 91.464844 33.472656 91.496094 12.785156 C 91.496094 11.347656 91 10.585938 89.605469 10.3125 C 87.640625 9.925781 85.683594 9.46875 83.722656 9.054688 C 80.96875 8.46875 82.300781 6.300781 82.191406 4.8125 C 82.078125 3.253906 83.410156 3.550781 84.453125 3.550781 C 97.320312 3.5625 110.1875 3.558594 123.058594 3.542969 C 124.246094 3.542969 125.476562 3.296875 125.742188 5.011719 C 126.160156 7.714844 125.84375 8.5625 123.882812 9.082031 C 122.011719 9.578125 120.113281 9.964844 118.21875 10.355469 C 116.84375 10.636719 116.300781 11.375 116.304688 12.820312 C 116.351562 32.46875 116.355469 52.117188 116.367188 71.769531 C 116.371094 75.257812 117.390625 77.128906 120.75 77.664062 C 124.957031 78.332031 129.269531 78.355469 133.542969 78.464844 C 134.175781 78.480469 135.046875 77.546875 135.445312 76.847656 C 140.054688 68.730469 144.5625 60.558594 149.191406 52.449219 C 149.671875 51.605469 150.660156 50.65625 151.542969 50.511719 C 154.503906 50.019531 154.714844 50.464844 154.164062 53.394531 C 152.441406 62.566406 150.753906 71.746094 149.183594 80.945312 C 148.851562 82.890625 148.160156 83.601562 146.109375 83.582031 C 135.804688 83.480469 125.492188 83.535156 115.183594 83.535156 C 115.183594 83.539062 115.183594 83.550781 115.183594 83.558594 Z M 115.183594 83.558594 " fill-opacity="1" fill-rule="nonzero"/><path fill="#000000" d="M 582.550781 83.570312 C 572.101562 83.570312 561.652344 83.550781 551.199219 83.589844 C 549.839844 83.59375 549.371094 83.089844 549.324219 81.777344 C 549.21875 78.5 549.207031 78.464844 552.359375 77.933594 C 558.632812 76.867188 558.640625 76.867188 558.640625 70.5625 C 558.636719 51.460938 558.597656 32.359375 558.664062 13.257812 C 558.671875 11.320312 558.011719 10.492188 556.191406 10.199219 C 554.351562 9.898438 552.515625 9.496094 550.722656 8.992188 C 548.242188 8.300781 549.566406 6.226562 549.429688 4.777344 C 549.300781 3.398438 550.523438 3.539062 551.53125 3.539062 C 564.472656 3.554688 577.414062 3.554688 590.359375 3.535156 C 591.511719 3.53125 592.792969 3.410156 592.777344 5.003906 C 592.761719 6.488281 593.765625 8.496094 591.222656 9.0625 C 589.199219 9.515625 587.175781 9.976562 585.152344 10.433594 C 583.886719 10.71875 583.421875 11.425781 583.421875 12.800781 C 583.476562 32.871094 583.472656 52.9375 583.464844 73.007812 C 583.464844 75.222656 584.863281 77.199219 587.871094 77.648438 C 592.085938 78.277344 596.394531 78.34375 600.667969 78.480469 C 601.269531 78.5 602.128906 77.707031 602.488281 77.074219 C 607.160156 68.832031 611.773438 60.558594 616.386719 52.28125 C 617.304688 50.636719 618.976562 49.839844 620.671875 50.554688 C 621.105469 50.738281 621.511719 51.753906 621.417969 52.292969 C 620.046875 60.195312 618.578125 68.078125 617.148438 75.96875 C 616.828125 77.738281 616.519531 79.511719 616.289062 81.292969 C 616.070312 82.988281 615.183594 83.59375 613.484375 83.582031 C 603.171875 83.53125 592.859375 83.554688 582.546875 83.554688 C 582.550781 83.5625 582.550781 83.5625 582.550781 83.570312 Z M 582.550781 83.570312 " fill-opacity="1" fill-rule="nonzero"/><path fill="#000000" d="M 342.667969 101.550781 C 340.714844 106.394531 338.761719 111.238281 336.8125 116.082031 C 336.585938 116.136719 336.355469 116.1875 336.128906 116.246094 C 334 111.367188 331.871094 106.492188 329.574219 101.234375 C 329.21875 101.941406 328.898438 102.304688 328.871094 102.6875 C 328.636719 106.265625 328.382812 109.847656 328.335938 113.429688 C 328.324219 114.054688 329.1875 114.773438 329.777344 115.300781 C 330.269531 115.738281 330.960938 115.953125 331.5625 116.261719 C 331.511719 116.457031 331.460938 116.652344 331.40625 116.84375 C 329.117188 116.84375 326.824219 116.84375 324.542969 116.84375 C 324.503906 116.542969 324.4375 116.3125 324.480469 116.292969 C 326.78125 115.128906 326.761719 113.078125 326.796875 110.875 C 326.839844 107.566406 327.027344 104.238281 327.457031 100.960938 C 327.683594 99.222656 327.464844 98.140625 325.683594 97.667969 C 325.425781 97.601562 325.199219 97.410156 324.957031 97.28125 C 325 97.109375 325.042969 96.9375 325.085938 96.765625 C 325.539062 96.628906 325.984375 96.417969 326.449219 96.371094 C 330.816406 95.882812 334.472656 96.476562 335.449219 101.789062 C 335.726562 103.3125 336.609375 104.738281 337.273438 106.183594 C 337.480469 106.632812 337.894531 106.992188 338.214844 107.390625 C 338.546875 107.019531 339.007812 106.703125 339.191406 106.265625 C 340.414062 103.40625 341.519531 100.5 342.816406 97.675781 C 343.082031 97.101562 343.960938 96.539062 344.617188 96.464844 C 346.253906 96.265625 347.925781 96.304688 349.585938 96.347656 C 350.035156 96.359375 350.480469 96.714844 350.929688 96.914062 C 350.621094 97.226562 350.355469 97.730469 349.996094 97.808594 C 348.640625 98.109375 348.746094 99.097656 348.777344 100.074219 C 348.929688 104.5625 349.046875 109.054688 349.289062 113.542969 C 349.320312 114.167969 349.910156 114.824219 350.378906 115.34375 C 350.75 115.757812 351.335938 115.980469 352.242188 116.546875 C 351.335938 116.839844 350.929688 117.074219 350.519531 117.082031 C 348.097656 117.121094 345.679688 117.132812 343.261719 117.078125 C 342.808594 117.066406 342.367188 116.691406 341.921875 116.484375 C 342.226562 116.164062 342.542969 115.855469 342.839844 115.527344 C 343.269531 115.050781 344.066406 114.546875 344.058594 114.074219 C 343.957031 109.960938 343.710938 105.851562 343.503906 101.742188 C 343.222656 101.679688 342.945312 101.613281 342.667969 101.550781 Z M 342.667969 101.550781 " fill-opacity="1" fill-rule="nonzero"/><path fill="#000000" d="M 177.359375 96.453125 C 179.265625 96.453125 180.675781 96.371094 182.074219 96.46875 C 185.773438 96.734375 189.53125 96.734375 193.136719 97.472656 C 197.113281 98.292969 199.644531 101.5625 199.960938 105.148438 C 200.347656 109.515625 198.421875 113.195312 194.628906 115.0625 C 191.828125 116.441406 188.949219 117.414062 185.683594 117.066406 C 183.136719 116.800781 180.542969 117.015625 177.980469 117.015625 C 177.980469 116.484375 177.933594 116.257812 177.988281 116.226562 C 180.246094 115.089844 180.148438 113.0625 180.085938 110.972656 C 180.003906 108.140625 180.074219 105.304688 180.066406 102.472656 C 180.0625 99.589844 180.054688 99.589844 177.359375 96.453125 Z M 185.105469 106.050781 C 185.097656 106.050781 185.085938 106.050781 185.078125 106.050781 C 185.078125 108.253906 185.085938 110.464844 185.078125 112.667969 C 185.066406 114.664062 186.03125 115.757812 188.039062 115.746094 C 190.589844 115.726562 192.601562 114.320312 193.25 112.046875 C 193.941406 109.609375 194.136719 106.898438 193.914062 104.363281 C 193.617188 101.027344 190.449219 98.167969 187.359375 97.75 C 185.917969 97.554688 184.945312 97.761719 185.074219 99.636719 C 185.214844 101.765625 185.105469 103.910156 185.105469 106.050781 Z M 185.105469 106.050781 " fill-opacity="1" fill-rule="nonzero"/><path fill="#000000" d="M 602.402344 117.28125 C 595.222656 117.691406 591.097656 111.378906 591.164062 107.011719 C 591.253906 100.992188 596.109375 95.71875 602.75 95.914062 C 609.332031 96.109375 613.863281 100.007812 613.929688 106.757812 C 613.988281 112.316406 608.542969 117.875 602.402344 117.28125 Z M 596.789062 106.46875 C 597.441406 108.574219 598.011719 111.066406 598.996094 113.378906 C 599.820312 115.304688 601.5625 116.246094 603.75 115.902344 C 605.796875 115.582031 606.796875 114.105469 607.257812 112.273438 C 607.609375 110.875 607.941406 109.414062 607.910156 107.992188 C 607.851562 104.960938 607.664062 101.910156 605.765625 99.308594 C 604.640625 97.765625 603.125 97.152344 601.242188 97.484375 C 599.386719 97.8125 598.351562 99.03125 597.933594 100.769531 C 597.515625 102.503906 597.222656 104.269531 596.789062 106.46875 Z M 596.789062 106.46875 " fill-opacity="1" fill-rule="nonzero"/><path fill="#000000" d="M 385.457031 116.429688 C 389.140625 114.980469 387.722656 111.976562 387.878906 109.496094 C 388.03125 107.082031 387.941406 104.652344 387.898438 102.234375 C 387.859375 100.195312 388.679688 97.773438 384.898438 97.269531 C 385.148438 97.109375 385.398438 96.949219 385.644531 96.792969 C 385.984375 96.640625 386.328125 96.355469 386.667969 96.355469 C 391.433594 96.332031 396.203125 96.386719 400.972656 96.324219 C 402.503906 96.304688 403.144531 96.8125 402.980469 98.378906 C 402.886719 99.265625 403.078125 100.179688 403.007812 101.070312 C 402.976562 101.484375 402.640625 101.878906 402.441406 102.277344 C 402.0625 102.042969 401.671875 101.820312 401.308594 101.5625 C 401.210938 101.496094 401.175781 101.324219 401.117188 101.203125 C 399.308594 97.417969 399.3125 97.441406 395.183594 97.65625 C 393.992188 97.714844 393.402344 98.097656 393.492188 99.40625 C 393.585938 100.851562 393.402344 102.320312 393.566406 103.753906 C 393.640625 104.390625 394.40625 105.519531 394.632812 105.46875 C 395.433594 105.28125 396.179688 104.726562 396.863281 104.203125 C 397.0625 104.054688 396.890625 103.488281 397.0625 103.222656 C 397.289062 102.875 397.6875 102.636719 398.007812 102.351562 C 398.246094 102.652344 398.679688 102.945312 398.691406 103.253906 C 398.765625 105.257812 398.785156 107.257812 398.734375 109.257812 C 398.730469 109.554688 398.300781 110.03125 398.015625 110.070312 C 397.734375 110.109375 397.292969 109.765625 397.101562 109.472656 C 396.890625 109.144531 397.019531 108.511719 396.761719 108.316406 C 396.117188 107.824219 395.371094 107.324219 394.609375 107.21875 C 394.332031 107.179688 393.660156 108.214844 393.585938 108.808594 C 393.429688 110.105469 393.617188 111.4375 393.53125 112.746094 C 393.445312 114.023438 393.507812 115.277344 394.972656 115.542969 C 396.527344 115.820312 398.324219 116.558594 399.582031 114.898438 C 400.40625 113.804688 400.964844 112.511719 401.707031 111.351562 C 402.0625 110.792969 402.566406 110.332031 403.003906 109.824219 C 403.234375 109.925781 403.460938 110.023438 403.691406 110.125 C 403.304688 112.167969 402.976562 114.226562 402.484375 116.246094 C 402.402344 116.585938 401.613281 116.957031 401.144531 116.964844 C 396.242188 117.046875 391.332031 117.058594 386.425781 117.066406 C 386.207031 117.0625 385.992188 116.792969 385.457031 116.429688 Z M 385.457031 116.429688 " fill-opacity="1" fill-rule="nonzero"/><path fill="#000000" d="M 437.058594 96.628906 C 441.09375 96.628906 444.589844 96.628906 448.082031 96.628906 C 448.121094 96.785156 448.164062 96.9375 448.199219 97.09375 C 447.648438 97.542969 447.09375 97.996094 446.335938 98.617188 C 447.300781 100.277344 448.28125 101.960938 449.539062 104.125 C 451.011719 102.078125 452.21875 100.398438 453.507812 98.605469 C 452.480469 98.007812 451.769531 97.59375 451.058594 97.179688 C 451.101562 97 451.148438 96.816406 451.195312 96.636719 C 453.457031 96.636719 455.714844 96.636719 458.101562 96.636719 C 457.964844 97.042969 457.949219 97.347656 457.832031 97.394531 C 454.59375 98.644531 453.535156 101.933594 451.417969 104.222656 C 450.582031 105.125 450.550781 105.964844 451.292969 106.984375 C 452.265625 108.328125 453.019531 109.824219 454 111.160156 C 455.378906 113.042969 456.875 114.84375 458.410156 116.792969 C 455.125 116.792969 451.628906 116.792969 448.109375 116.792969 C 448.140625 116.464844 448.113281 116.238281 448.175781 116.210938 C 450.492188 115.195312 449.738281 113.851562 448.660156 112.378906 C 447.90625 111.34375 447.28125 110.214844 446.367188 108.761719 C 444.933594 110.769531 443.59375 112.410156 442.59375 114.238281 C 442.378906 114.625 443.402344 115.691406 444.027344 116.734375 C 441.886719 116.734375 439.78125 116.734375 437.597656 116.734375 C 437.632812 116.503906 437.597656 116.1875 437.699219 116.136719 C 441.089844 114.421875 442.574219 110.96875 444.820312 108.226562 C 445.152344 107.824219 445.121094 106.777344 444.832031 106.277344 C 443.488281 103.941406 442.101562 101.613281 440.507812 99.445312 C 439.761719 98.433594 438.511719 97.789062 437.058594 96.628906 Z M 437.058594 96.628906 " fill-opacity="1" fill-rule="nonzero"/><path fill="#000000" d="M 234.035156 116.308594 C 237.617188 114.863281 236.46875 111.972656 236.550781 109.503906 C 236.644531 106.742188 236.511719 103.96875 236.589844 101.203125 C 236.632812 99.585938 236.558594 98.15625 234.679688 97.582031 C 234.492188 97.523438 234.398438 97.167969 234.140625 96.753906 C 234.710938 96.59375 235.132812 96.375 235.554688 96.375 C 239.976562 96.371094 244.40625 96.453125 248.832031 96.386719 C 250.628906 96.363281 251.648438 96.765625 251.28125 98.828125 C 251.164062 99.492188 251.40625 100.214844 251.328125 100.890625 C 251.277344 101.296875 250.925781 101.664062 250.707031 102.050781 C 250.332031 101.808594 249.957031 101.570312 249.585938 101.324219 C 249.535156 101.292969 249.527344 101.199219 249.5 101.136719 C 247.628906 97.410156 247.269531 97.238281 243.132812 97.691406 C 242.03125 97.8125 241.535156 98.242188 241.601562 99.40625 C 241.683594 100.855469 241.5 102.324219 241.671875 103.753906 C 241.75 104.386719 242.421875 105.425781 242.835938 105.429688 C 243.636719 105.4375 244.507812 104.941406 245.21875 104.460938 C 245.519531 104.257812 245.398438 103.519531 245.625 103.109375 C 245.832031 102.734375 246.246094 102.476562 246.570312 102.167969 C 246.8125 102.59375 247.25 103.015625 247.265625 103.449219 C 247.332031 105.105469 247.304688 106.765625 247.214844 108.417969 C 247.179688 109.023438 246.863281 109.609375 246.671875 110.203125 C 246.226562 109.761719 245.574219 109.394531 245.375 108.859375 C 244.976562 107.792969 244.597656 106.980469 243.226562 107.097656 C 242.128906 107.195312 241.582031 107.617188 241.625 108.769531 C 241.675781 110.011719 241.746094 111.269531 241.621094 112.5 C 241.472656 113.992188 241.796875 115.085938 243.335938 115.605469 C 245.378906 116.289062 247.472656 115.847656 248.359375 114.4375 C 248.984375 113.445312 249.480469 112.371094 250.078125 111.359375 C 250.398438 110.8125 250.8125 110.320312 251.183594 109.804688 C 251.433594 109.875 251.6875 109.941406 251.9375 110.011719 C 251.753906 111.558594 251.523438 113.101562 251.390625 114.648438 C 251.199219 116.941406 249.683594 117.109375 247.859375 117.085938 C 243.714844 117.027344 239.566406 117.074219 235.417969 117.054688 C 235.109375 117.050781 234.800781 116.859375 234.492188 116.757812 C 234.339844 116.609375 234.191406 116.460938 234.035156 116.308594 Z M 234.035156 116.308594 " fill-opacity="1" fill-rule="nonzero"/><path fill="#000000" d="M 555.910156 109.484375 C 556.785156 111.65625 556.042969 115.121094 554.820312 116.015625 C 550.359375 119.28125 540.433594 117 537.777344 112.097656 C 534.371094 105.8125 537.929688 98.457031 545.273438 96.429688 C 548.109375 95.648438 550.859375 95.839844 553.625 96.578125 C 555.539062 97.09375 556.949219 100.914062 555.800781 102.597656 C 555.65625 102.8125 554.515625 102.71875 554.269531 102.414062 C 553.769531 101.792969 553.566406 100.933594 553.246094 100.171875 C 552.378906 98.128906 550.671875 97.308594 548.617188 97.238281 C 546.503906 97.167969 544.78125 98.152344 543.921875 100.082031 C 541.878906 104.683594 542.226562 109.210938 544.71875 113.582031 C 546.304688 116.371094 551.773438 117.257812 553.441406 113.40625 C 554 112.125 554.9375 111.007812 555.910156 109.484375 Z M 555.910156 109.484375 " fill-opacity="1" fill-rule="nonzero"/><path fill="#000000" d="M 491.628906 96.519531 C 492.867188 96.464844 493.578125 96.417969 494.289062 96.402344 C 496.5 96.363281 498.710938 96.300781 500.921875 96.324219 C 501.316406 96.332031 501.703125 96.699219 502.09375 96.894531 C 501.871094 97.203125 501.6875 97.726562 501.417969 97.777344 C 499.804688 98.074219 499.835938 99.21875 499.84375 100.453125 C 499.875 104.46875 499.910156 108.484375 499.839844 112.496094 C 499.8125 113.984375 499.855469 115.265625 501.546875 115.835938 C 501.769531 115.914062 501.867188 116.363281 502.164062 116.894531 C 498.707031 116.894531 495.492188 116.894531 492.269531 116.894531 C 492.269531 116.515625 492.230469 116.285156 492.273438 116.269531 C 494.886719 115.234375 494.757812 113.070312 494.667969 110.8125 C 494.558594 108.046875 494.640625 105.273438 494.644531 102.507812 C 494.652344 99.277344 494.652344 99.277344 491.628906 96.519531 Z M 491.628906 96.519531 " fill-opacity="1" fill-rule="nonzero"/><path fill="#000000" d="M 395.085938 94.292969 C 395.65625 91.039062 397.324219 89.316406 400.925781 91.03125 C 399.003906 92.429688 397.292969 93.675781 395.585938 94.917969 C 395.417969 94.710938 395.25 94.503906 395.085938 94.292969 Z M 395.085938 94.292969 " fill-opacity="1" fill-rule="nonzero"/></svg>