<svg xmlns="http://www.w3.org/2000/svg" xmlns:xlink="http://www.w3.org/1999/xlink" width="1080" zoomAndPan="magnify" viewBox="0 0 810 1075.499973" height="1434" preserveAspectRatio="xMidYMid meet" version="1.0"><defs><clipPath id="7d566ddede"><path d="M 515 0.125 L 653 0.125 L 653 201 L 515 201 Z M 515 0.125 " clip-rule="nonzero"/></clipPath><clipPath id="f3191438e1"><path d="M 672 52 L 809.8125 52 L 809.8125 254 L 672 254 Z M 672 52 " clip-rule="nonzero"/></clipPath><clipPath id="6a78bdbfee"><path d="M 350 901 L 461 901 L 461 1075 L 350 1075 Z M 350 901 " clip-rule="nonzero"/></clipPath><clipPath id="c76579bfd0"><path d="M 0.1875 556 L 172 556 L 172 665 L 0.1875 665 Z M 0.1875 556 " clip-rule="nonzero"/></clipPath><clipPath id="1de4f10a8d"><path d="M 638 664 L 809.8125 664 L 809.8125 773 L 638 773 Z M 638 664 " clip-rule="nonzero"/></clipPath><clipPath id="4613aab5f5"><path d="M 0.1875 664 L 172 664 L 172 773 L 0.1875 773 Z M 0.1875 664 " clip-rule="nonzero"/></clipPath><clipPath id="596925ba28"><path d="M 638 556 L 809.8125 556 L 809.8125 665 L 638 665 Z M 638 556 " clip-rule="nonzero"/></clipPath></defs><g clip-path="url(#7d566ddede)"><path fill="#000000" d="M 624.421875 125.0625 C 624.421875 148.476562 616.140625 181.027344 583.019531 181.027344 C 543.046875 181.027344 543.046875 136.199219 543.046875 126.777344 C 543.046875 117.355469 543.046875 69.386719 584.164062 69.386719 C 621.566406 69.386719 624.421875 110.789062 624.421875 125.0625 Z M 543.335938 -0.277344 L 516.496094 -0.277344 L 516.496094 172.460938 L 515.925781 198.15625 L 541.90625 198.15625 L 542.476562 176.457031 C 546.046875 182.359375 550.710938 187.214844 556.46875 191.019531 C 561.21875 194.109375 566.320312 196.429688 571.769531 197.988281 C 577.222656 199.546875 582.777344 200.269531 588.445312 200.15625 C 590.878906 200.210938 593.308594 200.121094 595.730469 199.886719 C 598.15625 199.652344 600.554688 199.277344 602.933594 198.757812 C 605.3125 198.238281 607.652344 197.582031 609.953125 196.785156 C 612.25 195.988281 614.496094 195.058594 616.6875 193.992188 C 618.875 192.929688 620.992188 191.738281 623.042969 190.421875 C 625.089844 189.109375 627.054688 187.675781 628.929688 186.125 C 630.808594 184.578125 632.589844 182.921875 634.269531 181.164062 C 635.949219 179.402344 637.523438 177.546875 638.984375 175.601562 C 646.121094 166.179688 652.6875 151.046875 652.6875 123.066406 C 652.6875 91.65625 642.980469 77.382812 635.84375 69.101562 C 622.707031 54.253906 604.722656 50.828125 590.160156 50.828125 C 557.609375 50.828125 547.046875 68.816406 543.335938 75.382812 Z M 543.335938 -0.277344 " fill-opacity="1" fill-rule="nonzero"/></g><g clip-path="url(#f3191438e1)"><path fill="#000000" d="M 699.226562 130.773438 C 699.226562 117.925781 699.226562 72.242188 742.054688 72.242188 C 773.746094 72.242188 781.457031 99.082031 781.457031 125.0625 C 781.457031 135.34375 780.03125 155.898438 769.75 169.890625 C 760.613281 182.453125 746.339844 183.878906 739.484375 183.878906 C 701.796875 184.167969 699.226562 148.476562 699.226562 130.773438 Z M 673.246094 253.832031 L 699.796875 253.832031 L 699.796875 182.453125 C 707.507812 195.015625 722.925781 203.867188 743.769531 203.867188 C 778.03125 203.867188 809.152344 180.453125 809.152344 126.777344 C 809.152344 73.097656 779.742188 52.257812 748.90625 52.257812 C 737.203125 52.257812 713.503906 55.683594 699.796875 78.238281 L 699.226562 54.539062 L 672.101562 54.539062 C 672.675781 68.246094 672.960938 71.671875 672.960938 77.953125 L 672.960938 253.832031 Z M 673.246094 253.832031 " fill-opacity="1" fill-rule="nonzero"/></g><path fill="#000000" d="M 459.960938 352.90625 C 444.941406 318.019531 426.574219 284.996094 404.855469 253.832031 C 383.273438 285.070312 364.90625 318.09375 349.753906 352.90625 C 371.230469 375.65625 389.597656 400.6875 404.855469 428 C 419.980469 400.585938 438.347656 375.554688 459.960938 352.90625 Z M 459.960938 352.90625 " fill-opacity="1" fill-rule="evenodd"/><g clip-path="url(#6a78bdbfee)"><path fill="#000000" d="M 350.039062 976.195312 C 365.058594 1011.085938 383.425781 1044.109375 405.144531 1075.273438 C 414.851562 1060.425781 439.976562 1023.878906 460.246094 976.195312 C 438.863281 953.378906 420.496094 928.347656 405.144531 901.105469 C 389.789062 928.347656 371.421875 953.378906 350.039062 976.195312 Z M 350.039062 976.195312 " fill-opacity="1" fill-rule="evenodd"/></g><path fill="#000000" d="M 350.039062 352.90625 C 323.84375 325.355469 295.292969 300.515625 264.382812 278.386719 C 254.757812 315.105469 248.859375 352.414062 246.679688 390.3125 C 274.613281 404.328125 300.40625 421.554688 324.054688 441.988281 C 328.941406 411.195312 337.605469 381.5 350.039062 352.90625 Z M 350.039062 352.90625 " fill-opacity="1" fill-rule="evenodd"/><path fill="#000000" d="M 459.960938 976.195312 C 486.09375 1003.820312 514.644531 1028.660156 545.617188 1050.71875 C 555.214844 1013.992188 561.113281 976.6875 563.320312 938.792969 C 535.453125 924.675781 509.660156 907.449219 485.945312 887.113281 C 480.882812 917.859375 472.222656 947.550781 459.960938 976.195312 Z M 459.960938 976.195312 " fill-opacity="1" fill-rule="evenodd"/><path fill="#000000" d="M 246.679688 390.3125 C 212.726562 373.253906 177.417969 359.738281 140.753906 349.765625 C 144.332031 387.597656 151.5625 424.714844 162.453125 461.121094 C 193.441406 464.6875 223.519531 472.015625 252.675781 483.105469 C 246.90625 452.417969 244.90625 421.484375 246.679688 390.3125 Z M 246.679688 390.3125 " fill-opacity="1" fill-rule="evenodd"/><path fill="#000000" d="M 563.035156 938.792969 C 596.988281 955.851562 632.296875 969.367188 668.960938 979.335938 C 665.382812 941.507812 658.152344 904.390625 647.261719 867.984375 C 616.261719 864.316406 586.1875 856.890625 557.039062 845.714844 C 563.089844 876.480469 565.085938 907.507812 563.035156 938.792969 Z M 563.035156 938.792969 " fill-opacity="1" fill-rule="evenodd"/><path fill="#000000" d="M 199.855469 546.203125 C 183.902344 519.375 171.433594 491.011719 162.453125 461.121094 C 124.734375 456.699219 86.949219 456.035156 49.101562 459.121094 C 65.460938 493.3125 84.875 525.671875 107.347656 556.199219 C 137.761719 548.964844 168.597656 545.636719 199.855469 546.203125 Z M 199.855469 546.203125 " fill-opacity="1" fill-rule="evenodd"/><path fill="#000000" d="M 609.859375 782.898438 C 625.933594 809.675781 638.402344 838.039062 647.261719 867.984375 C 684.980469 872.402344 722.765625 873.070312 760.613281 869.984375 C 744.191406 835.671875 724.679688 803.21875 702.082031 772.621094 C 671.78125 779.984375 641.039062 783.410156 609.859375 782.898438 Z M 609.859375 782.898438 " fill-opacity="1" fill-rule="evenodd"/><g clip-path="url(#c76579bfd0)"><path fill="#000000" d="M 107.347656 556.199219 C 70.484375 565.070312 34.796875 577.347656 0.277344 593.03125 C 27.371094 619.679688 56.78125 643.472656 88.503906 664.410156 C 114.566406 647.203125 142.355469 633.5 171.875 623.292969 C 147.636719 603.550781 126.128906 581.1875 107.347656 556.199219 Z M 107.347656 556.199219 " fill-opacity="1" fill-rule="evenodd"/></g><g clip-path="url(#1de4f10a8d)"><path fill="#000000" d="M 721.496094 664.410156 C 695.433594 681.617188 667.644531 695.320312 638.125 705.523438 C 662.351562 725.199219 683.765625 747.5625 702.367188 772.621094 C 739.265625 763.847656 774.953125 751.570312 809.4375 735.789062 C 782.523438 709.042969 753.207031 685.25 721.5 664.410156 Z M 721.496094 664.410156 " fill-opacity="1" fill-rule="evenodd"/></g><g clip-path="url(#4613aab5f5)"><path fill="#000000" d="M 171.875 705.523438 C 142.355469 695.320312 114.566406 681.613281 88.503906 664.410156 C 56.78125 685.34375 27.371094 709.136719 0.277344 735.789062 C 34.75 751.605469 70.4375 763.882812 107.347656 772.621094 C 126.199219 747.703125 147.707031 725.335938 171.875 705.523438 Z M 171.875 705.523438 " fill-opacity="1" fill-rule="evenodd"/></g><g clip-path="url(#596925ba28)"><path fill="#000000" d="M 638.125 623.292969 C 667.613281 633.558594 695.40625 647.261719 721.496094 664.410156 C 753.21875 643.472656 782.628906 619.679688 809.722656 593.03125 C 775.25 577.210938 739.5625 564.933594 702.652344 556.199219 C 683.871094 581.1875 662.363281 603.550781 638.125 623.292969 Z M 638.125 623.292969 " fill-opacity="1" fill-rule="evenodd"/></g><path fill="#000000" d="M 107.347656 772.90625 C 84.628906 803.386719 65.214844 835.839844 49.101562 870.269531 C 86.949219 873.203125 124.730469 872.539062 162.453125 868.269531 C 171.433594 838.375 183.902344 810.015625 199.855469 783.183594 C 168.617188 783.378906 137.78125 779.953125 107.347656 772.90625 Z M 107.347656 772.90625 " fill-opacity="1" fill-rule="evenodd"/><path fill="#000000" d="M 702.367188 556.199219 C 725.03125 525.640625 744.542969 493.183594 760.898438 458.835938 C 723.050781 455.902344 685.269531 456.566406 647.546875 460.835938 C 638.566406 490.726562 626.097656 519.089844 610.144531 545.917969 C 641.304688 545.582031 672.046875 549.011719 702.367188 556.199219 Z M 702.367188 556.199219 " fill-opacity="1" fill-rule="evenodd"/><path fill="#000000" d="M 252.675781 845.714844 C 223.492188 856.753906 193.417969 864.179688 162.453125 867.984375 C 151.5625 904.390625 144.332031 941.507812 140.753906 979.335938 C 177.417969 969.367188 212.726562 955.851562 246.679688 938.792969 C 244.914062 907.523438 246.914062 876.496094 252.675781 845.714844 Z M 252.675781 845.714844 " fill-opacity="1" fill-rule="evenodd"/><path fill="#000000" d="M 557.039062 483.105469 C 586.195312 472.015625 616.273438 464.6875 647.261719 461.121094 C 658.152344 424.714844 665.382812 387.597656 668.960938 349.765625 C 632.296875 359.738281 596.988281 373.253906 563.035156 390.3125 C 565.085938 421.503906 563.089844 452.433594 557.039062 483.105469 Z M 557.039062 483.105469 " fill-opacity="1" fill-rule="evenodd"/><path fill="#000000" d="M 246.679688 938.792969 C 248.859375 976.691406 254.757812 1013.996094 264.382812 1050.71875 C 295.367188 1028.675781 323.921875 1003.835938 350.039062 976.195312 C 337.605469 947.503906 328.945312 917.714844 324.054688 886.828125 C 300.410156 907.347656 274.621094 924.671875 246.679688 938.792969 Z M 246.679688 938.792969 " fill-opacity="1" fill-rule="evenodd"/><path fill="#000000" d="M 563.035156 390.3125 C 560.855469 352.414062 554.953125 315.105469 545.332031 278.386719 C 514.347656 300.429688 485.792969 325.269531 459.675781 352.90625 C 471.9375 381.550781 480.597656 411.246094 485.660156 441.988281 C 509.421875 421.722656 535.210938 404.496094 563.035156 390.3125 Z M 563.035156 390.3125 " fill-opacity="1" fill-rule="evenodd"/><path fill="#7b7b7b" d="M 376.589844 504.804688 C 379.226562 491.289062 382.914062 478.0625 387.65625 465.132812 C 392.398438 452.203125 398.128906 439.730469 404.855469 427.714844 C 389.597656 400.402344 371.230469 375.371094 349.753906 352.621094 C 337.359375 381.226562 328.695312 410.921875 323.769531 441.703125 C 334.171875 450.769531 343.804688 460.59375 352.660156 471.175781 C 361.519531 481.757812 369.496094 492.96875 376.589844 504.804688 Z M 376.589844 504.804688 " fill-opacity="1" fill-rule="evenodd"/><path fill="#7b7b7b" d="M 433.125 824.300781 C 430.464844 837.8125 426.765625 851.03125 422.023438 863.957031 C 417.285156 876.886719 411.5625 889.363281 404.855469 901.390625 C 420.023438 928.769531 438.390625 953.800781 459.960938 976.480469 C 472.261719 947.75 480.921875 917.960938 485.945312 887.113281 C 475.511719 878.132812 465.863281 868.371094 457.003906 857.835938 C 448.144531 847.296875 440.183594 836.121094 433.125 824.300781 Z M 433.125 824.300781 " fill-opacity="1" fill-rule="evenodd"/><path fill="#7b7b7b" d="M 252.675781 483.105469 C 265.523438 488.003906 277.90625 493.875 289.828125 500.722656 C 301.75 507.570312 313.066406 515.304688 323.769531 523.933594 C 321.628906 510.359375 320.558594 496.703125 320.558594 482.960938 C 320.558594 469.222656 321.628906 455.5625 323.769531 441.988281 C 300.097656 421.589844 274.304688 404.363281 246.394531 390.3125 C 244.863281 421.488281 246.957031 452.417969 252.675781 483.105469 Z M 252.675781 483.105469 " fill-opacity="1" fill-rule="evenodd"/><path fill="#7b7b7b" d="M 557.039062 845.714844 C 544.191406 840.816406 531.808594 834.945312 519.886719 828.097656 C 507.960938 821.25 496.648438 813.511719 485.945312 804.886719 C 488.113281 818.460938 489.171875 832.121094 489.121094 845.867188 C 489.074219 859.617188 487.921875 873.269531 485.660156 886.828125 C 509.332031 907.230469 535.125 924.457031 563.035156 938.507812 C 565.078125 907.316406 563.078125 876.382812 557.039062 845.714844 Z M 557.039062 845.714844 " fill-opacity="1" fill-rule="evenodd"/><path fill="#7b7b7b" d="M 280.65625 560.195312 C 273.992188 548.164062 268.3125 535.683594 263.621094 522.753906 C 258.929688 509.828125 255.28125 496.609375 252.675781 483.105469 C 223.519531 472.015625 193.441406 464.6875 162.453125 461.121094 C 171.433594 491.011719 183.902344 519.375 199.855469 546.203125 C 213.609375 546.359375 227.261719 547.613281 240.816406 549.957031 C 254.371094 552.304688 267.648438 555.71875 280.65625 560.195312 Z M 280.65625 560.195312 " fill-opacity="1" fill-rule="evenodd"/><path fill="#7b7b7b" d="M 529.058594 768.910156 C 535.722656 780.941406 541.402344 793.421875 546.09375 806.351562 C 550.785156 819.277344 554.433594 832.496094 557.039062 846 C 586.222656 857.039062 616.296875 864.464844 647.261719 868.269531 C 638.28125 838.375 625.8125 810.015625 609.859375 783.183594 C 596.113281 782.816406 582.472656 781.433594 568.929688 779.042969 C 555.390625 776.648438 542.097656 773.269531 529.058594 768.910156 Z M 529.058594 768.910156 " fill-opacity="1" fill-rule="evenodd"/><path fill="#7b7b7b" d="M 171.875 623.292969 C 184.878906 618.800781 198.160156 615.355469 211.710938 612.960938 C 225.261719 610.566406 238.917969 609.253906 252.675781 609.019531 C 242.28125 600.039062 232.675781 590.277344 223.863281 579.738281 C 215.050781 569.203125 207.140625 558.023438 200.140625 546.203125 C 168.898438 545.777344 138.0625 549.109375 107.632812 556.199219 C 126.234375 581.253906 147.648438 603.621094 171.875 623.292969 Z M 171.875 623.292969 " fill-opacity="1" fill-rule="evenodd"/><path fill="#7b7b7b" d="M 638.125 705.523438 C 625.121094 710.019531 611.839844 713.464844 598.289062 715.855469 C 584.738281 718.25 571.082031 719.566406 557.324219 719.800781 C 567.71875 728.78125 577.324219 738.542969 586.136719 749.078125 C 594.949219 759.617188 602.859375 770.796875 609.859375 782.613281 C 641.132812 783.109375 671.96875 779.683594 702.367188 772.335938 C 683.613281 747.507812 662.199219 725.238281 638.125 705.523438 Z M 638.125 705.523438 " fill-opacity="1" fill-rule="evenodd"/><path fill="#7b7b7b" d="M 242.683594 664.410156 C 229.851562 659.503906 217.5 653.601562 205.621094 646.703125 C 193.742188 639.808594 182.496094 632.003906 171.875 623.292969 C 142.355469 633.5 114.566406 647.203125 88.503906 664.410156 C 114.566406 681.617188 142.355469 695.320312 171.875 705.523438 C 182.53125 696.867188 193.792969 689.089844 205.667969 682.195312 C 217.542969 675.300781 229.878906 669.371094 242.683594 664.410156 Z M 242.683594 664.410156 " fill-opacity="1" fill-rule="evenodd"/><path fill="#7b7b7b" d="M 567.03125 664.410156 C 579.890625 669.347656 592.28125 675.265625 604.203125 682.160156 C 616.125 689.054688 627.433594 696.84375 638.125 705.523438 C 667.613281 695.261719 695.40625 681.558594 721.496094 664.410156 C 695.433594 647.203125 667.644531 633.5 638.125 623.292969 C 627.488281 632.058594 616.207031 639.886719 604.277344 646.785156 C 592.347656 653.6875 579.933594 659.558594 567.03125 664.410156 Z M 567.03125 664.410156 " fill-opacity="1" fill-rule="evenodd"/><path fill="#7b7b7b" d="M 199.855469 782.898438 C 206.902344 771.113281 214.832031 759.953125 223.640625 749.417969 C 232.453125 738.882812 242.035156 729.105469 252.390625 720.085938 C 238.632812 719.851562 224.976562 718.535156 211.425781 716.144531 C 197.875 713.75 184.59375 710.304688 171.589844 705.808594 C 147.363281 725.484375 125.949219 747.847656 107.347656 772.90625 C 137.777344 779.996094 168.613281 783.328125 199.855469 782.898438 Z M 199.855469 782.898438 " fill-opacity="1" fill-rule="evenodd"/><path fill="#7b7b7b" d="M 609.859375 546.203125 C 602.8125 557.992188 594.882812 569.152344 586.074219 579.6875 C 577.261719 590.222656 567.679688 600 557.324219 609.019531 C 571.082031 609.253906 584.738281 610.566406 598.289062 612.960938 C 611.839844 615.355469 625.121094 618.800781 638.125 623.292969 C 662.351562 603.621094 683.765625 581.253906 702.367188 556.199219 C 671.957031 548.949219 641.121094 545.621094 609.859375 546.203125 Z M 609.859375 546.203125 " fill-opacity="1" fill-rule="evenodd"/><path fill="#7b7b7b" d="M 280.65625 768.910156 C 267.648438 773.386719 254.371094 776.800781 240.816406 779.144531 C 227.261719 781.492188 213.609375 782.742188 199.855469 782.898438 C 183.902344 809.730469 171.433594 838.089844 162.453125 867.984375 C 193.453125 864.316406 223.527344 856.890625 252.675781 845.714844 C 255.304688 832.261719 258.964844 819.09375 263.65625 806.214844 C 268.347656 793.335938 274.015625 780.902344 280.65625 768.910156 Z M 280.65625 768.910156 " fill-opacity="1" fill-rule="evenodd"/><path fill="#7b7b7b" d="M 529.058594 560.195312 C 542.0625 555.71875 555.34375 552.304688 568.898438 549.957031 C 582.453125 547.613281 596.105469 546.359375 609.859375 546.203125 C 625.933594 519.429688 638.402344 491.066406 647.261719 461.121094 C 616.273438 464.6875 586.195312 472.015625 557.039062 483.105469 C 554.5 496.628906 550.882812 509.855469 546.1875 522.789062 C 541.492188 535.722656 535.785156 548.191406 529.058594 560.195312 Z M 529.058594 560.195312 " fill-opacity="1" fill-rule="evenodd"/><path fill="#7b7b7b" d="M 376.589844 824.300781 C 369.53125 836.121094 361.570312 847.296875 352.710938 857.835938 C 343.851562 868.371094 334.203125 878.132812 323.769531 887.113281 C 328.695312 917.988281 337.359375 947.777344 349.753906 976.480469 C 371.230469 953.730469 389.597656 928.703125 404.855469 901.390625 C 398.214844 889.335938 392.523438 876.847656 387.785156 863.921875 C 383.046875 851 379.316406 837.792969 376.589844 824.300781 Z M 376.589844 824.300781 " fill-opacity="1" fill-rule="evenodd"/><path fill="#7b7b7b" d="M 323.769531 805.171875 C 313.085938 813.828125 301.78125 821.582031 289.855469 828.429688 C 277.929688 835.277344 265.539062 841.132812 252.675781 846 C 246.769531 876.679688 244.769531 907.609375 246.679688 938.792969 C 274.546875 924.675781 300.339844 907.449219 324.054688 887.113281 C 321.792969 873.554688 320.640625 859.902344 320.589844 846.152344 C 320.542969 832.40625 321.601562 818.746094 323.769531 805.171875 Z M 323.769531 805.171875 " fill-opacity="1" fill-rule="evenodd"/><path fill="#7b7b7b" d="M 433.125 504.804688 C 440.226562 493.015625 448.207031 481.855469 457.066406 471.320312 C 465.921875 460.789062 475.550781 451.011719 485.945312 441.988281 C 481.058594 411.195312 472.394531 381.5 459.960938 352.90625 C 438.578125 375.726562 420.210938 400.757812 404.855469 428 C 411.605469 439.957031 417.351562 452.375 422.09375 465.261719 C 426.835938 478.144531 430.511719 491.324219 433.125 504.804688 Z M 433.125 504.804688 " fill-opacity="1" fill-rule="evenodd"/><path fill="#7b7b7b" d="M 485.945312 523.933594 C 496.609375 515.246094 507.90625 507.480469 519.832031 500.628906 C 531.757812 493.78125 544.160156 487.9375 557.039062 483.105469 C 562.945312 452.425781 564.941406 421.496094 563.035156 390.3125 C 535.167969 404.429688 509.375 421.65625 485.660156 441.988281 C 487.921875 455.550781 489.074219 469.203125 489.121094 482.949219 C 489.171875 496.699219 488.113281 510.359375 485.945312 523.933594 Z M 485.945312 523.933594 " fill-opacity="1" fill-rule="evenodd"/><path fill="#ffffff" d="M 376.875 587.605469 C 370.148438 575.429688 362.320312 564.007812 353.386719 553.347656 C 344.453125 542.683594 334.582031 532.972656 323.769531 524.21875 C 326.0625 537.921875 329.582031 551.296875 334.332031 564.347656 C 339.085938 577.402344 344.984375 589.914062 352.035156 601.878906 C 341.535156 592.816406 330.285156 584.800781 318.28125 577.839844 C 306.28125 570.882812 293.738281 565.09375 280.65625 560.480469 C 287.46875 572.597656 295.339844 583.984375 304.265625 594.636719 C 313.195312 605.292969 323.027344 615.035156 333.761719 623.867188 C 320.78125 618.890625 307.449219 615.179688 293.765625 612.730469 C 280.082031 610.285156 266.289062 609.140625 252.390625 609.304688 C 262.929688 618.355469 274.226562 626.339844 286.277344 633.253906 C 298.328125 640.167969 310.921875 645.890625 324.054688 650.417969 C 310.164062 650.203125 296.375 651.292969 282.691406 653.695312 C 269.007812 656.09375 255.671875 659.761719 242.683594 664.695312 C 255.695312 669.535156 269.039062 673.15625 282.714844 675.554688 C 296.390625 677.953125 310.171875 679.09375 324.054688 678.972656 C 310.921875 683.5 298.328125 689.222656 286.277344 696.136719 C 274.226562 703.050781 262.929688 711.035156 252.390625 720.085938 C 266.289062 720.25 280.082031 719.105469 293.765625 716.65625 C 307.449219 714.210938 320.78125 710.496094 333.761719 705.523438 C 322.996094 714.320312 313.144531 724.050781 304.214844 734.707031 C 295.285156 745.367188 287.433594 756.765625 280.65625 768.910156 C 293.730469 764.273438 306.265625 758.472656 318.261719 751.515625 C 330.261719 744.554688 341.519531 736.554688 352.035156 727.507812 C 344.925781 739.449219 338.992188 751.945312 334.238281 765.007812 C 329.484375 778.066406 325.996094 791.453125 323.769531 805.171875 C 334.476562 796.3125 344.292969 786.554688 353.21875 775.902344 C 362.140625 765.25 370.027344 753.878906 376.875 741.785156 C 374.304688 755.464844 373.019531 769.265625 373.019531 783.183594 C 373.019531 797.105469 374.304688 810.90625 376.875 824.585938 C 383.945312 812.625 389.855469 800.117188 394.605469 787.0625 C 399.355469 774.007812 402.871094 760.628906 405.144531 746.925781 C 407.390625 760.636719 410.894531 774.019531 415.644531 787.078125 C 420.398438 800.132812 426.320312 812.636719 433.410156 824.585938 C 435.980469 810.90625 437.265625 797.105469 437.265625 783.183594 C 437.265625 769.265625 435.980469 755.464844 433.410156 741.785156 C 440.21875 753.902344 448.085938 765.292969 457.015625 775.945312 C 465.941406 786.601562 475.777344 796.34375 486.515625 805.171875 C 484.238281 791.445312 480.695312 778.054688 475.894531 764.996094 C 471.09375 751.9375 465.117188 739.441406 457.964844 727.507812 C 468.515625 736.578125 479.816406 744.59375 491.863281 751.554688 C 503.914062 758.515625 516.5 764.300781 529.628906 768.910156 C 522.851562 756.765625 515 745.367188 506.070312 734.707031 C 497.140625 724.050781 487.289062 714.320312 476.523438 705.523438 C 489.503906 710.496094 502.835938 714.210938 516.519531 716.65625 C 530.203125 719.105469 543.996094 720.25 557.894531 720.085938 C 547.328125 711.039062 536.019531 703.035156 523.972656 696.078125 C 511.929688 689.117188 499.347656 683.320312 486.230469 678.683594 C 500.121094 678.902344 513.910156 677.8125 527.59375 675.410156 C 541.277344 673.011719 554.613281 669.34375 567.601562 664.410156 C 554.59375 659.554688 541.25 655.929688 527.574219 653.53125 C 513.894531 651.132812 500.113281 650 486.230469 650.132812 C 499.363281 645.601562 511.957031 639.882812 524.007812 632.96875 C 536.058594 626.054688 547.355469 618.070312 557.894531 609.019531 C 543.996094 608.855469 530.203125 609.996094 516.519531 612.445312 C 502.835938 614.894531 489.503906 618.605469 476.523438 623.582031 C 487.332031 614.785156 497.226562 605.0625 506.203125 594.402344 C 515.183594 583.746094 523.085938 572.34375 529.914062 560.195312 C 516.785156 564.804688 504.199219 570.589844 492.148438 577.550781 C 480.101562 584.511719 468.800781 592.527344 458.25 601.59375 C 465.402344 589.664062 471.382812 577.167969 476.183594 564.109375 C 480.984375 551.050781 484.523438 537.660156 486.800781 523.933594 C 476.09375 532.792969 466.277344 542.550781 457.351562 553.203125 C 448.429688 563.855469 440.542969 575.226562 433.695312 587.320312 C 436.265625 573.640625 437.550781 559.839844 437.550781 545.917969 C 437.550781 532 436.265625 518.199219 433.695312 504.519531 C 426.605469 516.46875 420.683594 528.972656 415.929688 542.027344 C 411.179688 555.085938 407.675781 568.46875 405.429688 582.179688 C 403.179688 568.46875 399.679688 555.085938 394.925781 542.027344 C 390.171875 528.972656 384.253906 516.46875 377.160156 504.519531 C 374.46875 518.230469 373.097656 532.074219 373.050781 546.046875 C 373.003906 560.023438 374.277344 573.875 376.875 587.605469 Z M 376.875 587.605469 " fill-opacity="1" fill-rule="evenodd"/><path fill="#c2c2c2" d="M 376.875 587.605469 C 374.304688 573.925781 373.019531 560.125 373.019531 546.203125 C 373.019531 532.285156 374.304688 518.484375 376.875 504.804688 C 369.816406 492.984375 361.855469 481.804688 352.996094 471.269531 C 344.136719 460.730469 334.488281 450.972656 324.054688 441.988281 C 321.84375 455.558594 320.734375 469.214844 320.734375 482.960938 C 320.734375 496.710938 321.84375 510.367188 324.054688 523.933594 C 334.714844 532.859375 344.480469 542.671875 353.355469 553.371094 C 362.234375 564.070312 370.074219 575.480469 376.875 587.605469 Z M 376.875 587.605469 " fill-opacity="1" fill-rule="evenodd"/><path fill="#c2c2c2" d="M 432.839844 741.5 C 435.410156 755.179688 436.695312 768.980469 436.695312 782.898438 C 436.695312 796.820312 435.410156 810.621094 432.839844 824.300781 C 439.941406 836.089844 447.921875 847.25 456.78125 857.78125 C 465.636719 868.316406 475.265625 878.09375 485.660156 887.113281 C 487.851562 873.546875 488.96875 859.894531 489.015625 846.152344 C 489.066406 832.414062 488.039062 818.75 485.945312 805.171875 C 475.203125 796.289062 465.367188 786.5 456.441406 775.796875 C 447.515625 765.09375 439.644531 753.660156 432.839844 741.5 Z M 432.839844 741.5 " fill-opacity="1" fill-rule="evenodd"/><path fill="#c2c2c2" d="M 323.769531 523.933594 C 313.085938 515.277344 301.78125 507.523438 289.855469 500.675781 C 277.929688 493.828125 265.539062 487.96875 252.675781 483.105469 C 255.214844 496.628906 258.832031 509.855469 263.527344 522.789062 C 268.222656 535.722656 273.929688 548.191406 280.65625 560.195312 C 293.753906 564.777344 306.304688 570.546875 318.308594 577.511719 C 330.3125 584.472656 341.554688 592.5 352.035156 601.59375 C 344.964844 589.636719 339.050781 577.132812 334.300781 564.078125 C 329.546875 551.019531 326.039062 537.640625 323.769531 523.933594 Z M 323.769531 523.933594 " fill-opacity="1" fill-rule="evenodd"/><path fill="#c2c2c2" d="M 485.945312 805.171875 C 496.609375 813.855469 507.90625 821.625 519.832031 828.476562 C 531.757812 835.324219 544.160156 841.167969 557.039062 846 C 554.5 832.476562 550.882812 819.25 546.1875 806.316406 C 541.492188 793.382812 535.785156 780.914062 529.058594 768.910156 C 515.957031 764.242188 503.382812 758.429688 491.339844 751.472656 C 479.296875 744.515625 467.980469 736.527344 457.394531 727.507812 C 464.628906 739.402344 470.652344 751.882812 475.457031 764.949219 C 480.257812 778.015625 483.753906 791.421875 485.945312 805.171875 Z M 485.945312 805.171875 " fill-opacity="1" fill-rule="evenodd"/><path fill="#c2c2c2" d="M 334.046875 623.582031 C 323.28125 614.78125 313.429688 605.054688 304.5 594.398438 C 295.570312 583.738281 287.71875 572.335938 280.941406 560.195312 C 267.9375 555.71875 254.65625 552.304688 241.101562 549.957031 C 227.546875 547.613281 213.894531 546.359375 200.140625 546.203125 C 207.1875 557.992188 215.117188 569.152344 223.925781 579.6875 C 232.738281 590.222656 242.320312 600 252.675781 609.019531 C 266.574219 608.867188 280.367188 610.015625 294.046875 612.464844 C 307.730469 614.914062 321.0625 618.617188 334.046875 623.582031 Z M 334.046875 623.582031 " fill-opacity="1" fill-rule="evenodd"/><path fill="#c2c2c2" d="M 475.953125 705.523438 C 486.71875 714.320312 496.570312 724.050781 505.5 734.707031 C 514.429688 745.367188 522.28125 756.765625 529.058594 768.910156 C 542.0625 773.386719 555.34375 776.800781 568.898438 779.144531 C 582.453125 781.492188 596.105469 782.742188 609.859375 782.898438 C 602.8125 771.113281 594.882812 759.953125 586.074219 749.417969 C 577.261719 738.882812 567.679688 729.105469 557.324219 720.085938 C 543.425781 720.25 529.632812 719.105469 515.949219 716.65625 C 502.265625 714.210938 488.933594 710.496094 475.953125 705.523438 Z M 475.953125 705.523438 " fill-opacity="1" fill-rule="evenodd"/><path fill="#c2c2c2" d="M 324.054688 650.417969 C 310.921875 645.890625 298.328125 640.167969 286.277344 633.253906 C 274.226562 626.339844 262.929688 618.355469 252.390625 609.304688 C 238.632812 609.539062 224.976562 610.851562 211.425781 613.246094 C 197.875 615.640625 184.59375 619.085938 171.589844 623.582031 C 182.230469 632.261719 193.488281 640.050781 205.363281 646.945312 C 217.238281 653.839844 229.582031 659.757812 242.398438 664.695312 C 255.425781 659.730469 268.808594 656.046875 282.542969 653.648438 C 296.277344 651.246094 310.113281 650.167969 324.054688 650.417969 Z M 324.054688 650.417969 " fill-opacity="1" fill-rule="evenodd"/><path fill="#c2c2c2" d="M 485.660156 678.683594 C 498.777344 683.320312 511.355469 689.117188 523.402344 696.078125 C 535.449219 703.035156 546.757812 711.039062 557.324219 720.085938 C 571.082031 719.851562 584.738281 718.535156 598.289062 716.144531 C 611.839844 713.75 625.121094 710.304688 638.125 705.808594 C 627.453125 697.097656 616.15625 689.296875 604.230469 682.398438 C 592.304688 675.5 579.90625 669.601562 567.03125 664.695312 C 554.035156 669.582031 540.695312 673.199219 527.007812 675.550781 C 513.324219 677.90625 499.542969 678.949219 485.660156 678.683594 Z M 485.660156 678.683594 " fill-opacity="1" fill-rule="evenodd"/><path fill="#c2c2c2" d="M 242.683594 664.410156 C 229.851562 669.316406 217.5 675.21875 205.621094 682.113281 C 193.742188 689.011719 182.496094 696.816406 171.875 705.523438 C 184.878906 710.019531 198.160156 713.464844 211.710938 715.855469 C 225.261719 718.25 238.917969 719.566406 252.675781 719.800781 C 263.214844 710.75 274.511719 702.765625 286.5625 695.851562 C 298.613281 688.9375 311.207031 683.214844 324.339844 678.683594 C 310.398438 678.960938 296.558594 677.898438 282.820312 675.496094 C 269.085938 673.09375 255.703125 669.398438 242.683594 664.410156 Z M 242.683594 664.410156 " fill-opacity="1" fill-rule="evenodd"/><path fill="#c2c2c2" d="M 567.03125 664.410156 C 579.890625 659.472656 592.28125 653.554688 604.203125 646.660156 C 616.125 639.765625 627.433594 631.976562 638.125 623.292969 C 625.121094 618.800781 611.839844 615.355469 598.289062 612.960938 C 584.738281 610.566406 571.082031 609.253906 557.324219 609.019531 C 546.785156 618.070312 535.488281 626.054688 523.4375 632.96875 C 511.386719 639.882812 498.792969 645.601562 485.660156 650.132812 C 499.546875 649.988281 513.328125 651.113281 527.003906 653.515625 C 540.683594 655.914062 554.023438 659.546875 567.03125 664.410156 Z M 567.03125 664.410156 " fill-opacity="1" fill-rule="evenodd"/><path fill="#c2c2c2" d="M 334.046875 705.523438 C 321.066406 710.5 307.734375 714.210938 294.050781 716.65625 C 280.367188 719.105469 266.574219 720.25 252.675781 720.085938 C 242.28125 729.066406 232.675781 738.828125 223.863281 749.363281 C 215.050781 759.902344 207.140625 771.082031 200.140625 782.898438 C 213.886719 782.675781 227.535156 781.386719 241.085938 779.042969 C 254.632812 776.695312 267.917969 773.320312 280.941406 768.910156 C 287.625 756.703125 295.4375 745.269531 304.375 734.601562 C 313.3125 723.933594 323.203125 714.242188 334.046875 705.523438 Z M 334.046875 705.523438 " fill-opacity="1" fill-rule="evenodd"/><path fill="#c2c2c2" d="M 475.953125 623.582031 C 488.933594 618.605469 502.265625 614.894531 515.949219 612.445312 C 529.632812 609.996094 543.425781 608.855469 557.324219 609.019531 C 567.71875 600.039062 577.324219 590.277344 586.136719 579.738281 C 594.949219 569.203125 602.859375 558.023438 609.859375 546.203125 C 596.113281 546.429688 582.464844 547.714844 568.914062 550.0625 C 555.367188 552.40625 542.082031 555.785156 529.058594 560.195312 C 522.28125 572.335938 514.429688 583.738281 505.5 594.398438 C 496.570312 605.054688 486.71875 614.78125 475.953125 623.582031 Z M 475.953125 623.582031 " fill-opacity="1" fill-rule="evenodd"/><path fill="#c2c2c2" d="M 376.589844 824.300781 C 379.25 837.808594 382.949219 851.03125 387.691406 863.957031 C 392.429688 876.886719 398.152344 889.363281 404.855469 901.390625 C 411.523438 889.34375 417.226562 876.859375 421.964844 863.933594 C 426.703125 851.011719 430.421875 837.800781 433.125 824.300781 C 426.054688 812.339844 420.144531 799.832031 415.394531 786.777344 C 410.644531 773.722656 407.128906 760.34375 404.855469 746.640625 C 402.648438 760.359375 399.167969 773.753906 394.414062 786.8125 C 389.660156 799.875 383.71875 812.371094 376.589844 824.300781 Z M 376.589844 824.300781 " fill-opacity="1" fill-rule="evenodd"/><path fill="#c2c2c2" d="M 376.875 741.5 C 370.113281 753.648438 362.265625 765.054688 353.332031 775.714844 C 344.402344 786.375 334.546875 796.097656 323.769531 804.886719 C 321.628906 818.457031 320.558594 832.117188 320.558594 845.855469 C 320.558594 859.597656 321.628906 873.253906 323.769531 886.828125 C 334.164062 877.808594 343.789062 868.03125 352.648438 857.496094 C 361.507812 846.964844 369.488281 835.804688 376.589844 824.015625 C 374.140625 810.367188 372.9375 796.609375 372.988281 782.746094 C 373.035156 768.878906 374.332031 755.128906 376.875 741.5 Z M 376.875 741.5 " fill-opacity="1" fill-rule="evenodd"/><path fill="#c2c2c2" d="M 280.65625 768.910156 C 273.992188 780.941406 268.3125 793.421875 263.621094 806.351562 C 258.929688 819.277344 255.28125 832.496094 252.675781 846 C 265.523438 841.101562 277.90625 835.230469 289.828125 828.382812 C 301.75 821.535156 313.066406 813.796875 323.769531 805.171875 C 326.0625 791.46875 329.582031 778.09375 334.332031 765.039062 C 339.085938 751.988281 344.984375 739.476562 352.035156 727.507812 C 341.519531 736.554688 330.261719 744.554688 318.261719 751.515625 C 306.265625 758.472656 293.730469 764.273438 280.65625 768.910156 Z M 280.65625 768.910156 " fill-opacity="1" fill-rule="evenodd"/><path fill="#c2c2c2" d="M 433.125 504.804688 C 430.488281 491.289062 426.800781 478.0625 422.058594 465.132812 C 417.316406 452.203125 411.582031 439.730469 404.855469 427.714844 C 398.167969 439.75 392.457031 452.230469 387.714844 465.15625 C 382.976562 478.082031 379.269531 491.300781 376.589844 504.804688 C 383.679688 516.753906 389.601562 529.257812 394.355469 542.3125 C 399.105469 555.371094 402.609375 568.753906 404.855469 582.464844 C 407.105469 568.753906 410.609375 555.371094 415.359375 542.3125 C 420.113281 529.257812 426.035156 516.753906 433.125 504.804688 Z M 433.125 504.804688 " fill-opacity="1" fill-rule="evenodd"/><path fill="#c2c2c2" d="M 432.839844 587.605469 C 439.609375 575.460938 447.460938 564.058594 456.390625 553.398438 C 465.320312 542.738281 475.171875 533.011719 485.945312 524.21875 C 488.113281 510.644531 489.171875 496.984375 489.125 483.234375 C 489.074219 469.488281 487.921875 455.835938 485.660156 442.277344 C 475.265625 451.296875 465.636719 461.074219 456.78125 471.605469 C 447.921875 482.140625 439.941406 493.300781 432.839844 505.089844 C 435.554688 518.707031 436.910156 532.460938 436.910156 546.347656 C 436.910156 560.234375 435.554688 573.988281 432.839844 587.605469 Z M 432.839844 587.605469 " fill-opacity="1" fill-rule="evenodd"/><path fill="#c2c2c2" d="M 529.058594 560.195312 C 535.722656 548.164062 541.402344 535.683594 546.09375 522.753906 C 550.785156 509.828125 554.433594 496.609375 557.039062 483.105469 C 544.191406 488.003906 531.808594 493.875 519.886719 500.722656 C 507.960938 507.570312 496.648438 515.304688 485.945312 523.933594 C 483.664062 537.660156 480.125 551.050781 475.324219 564.109375 C 470.523438 577.167969 464.546875 589.664062 457.394531 601.59375 C 467.980469 592.578125 479.296875 584.589844 491.339844 577.632812 C 503.382812 570.675781 515.957031 564.863281 529.058594 560.195312 Z M 529.058594 560.195312 " fill-opacity="1" fill-rule="evenodd"/></svg>