<svg xmlns="http://www.w3.org/2000/svg" xmlns:xlink="http://www.w3.org/1999/xlink" width="1080" zoomAndPan="magnify" viewBox="0 0 810 453.749989" height="605" preserveAspectRatio="xMidYMid meet" version="1.0"><defs><clipPath id="e474da37c4"><path d="M 359 44 L 377 44 L 377 453.5 L 359 453.5 Z M 359 44 " clip-rule="nonzero"/></clipPath></defs><path stroke-linecap="butt" transform="matrix(0.749587, 0, 0, 0.749587, 0.357546, 0)" fill="none" stroke-linejoin="miter" d="M 71.786761 2.527433 L 71.786761 417.672705 " stroke="#776e82" stroke-width="2" stroke-opacity="1" stroke-miterlimit="4"/><path stroke-linecap="butt" transform="matrix(0.749587, 0, 0, 0.749587, 0.357546, 0)" fill="none" stroke-linejoin="miter" d="M 71.786761 417.672705 L 72.109856 419.548739 C 72.219291 420.226195 72.620554 420.564923 73.313644 420.564923 L 419.691882 420.627458 C 420.614264 420.627458 421.078062 420.16366 421.078062 419.241278 L 421.11454 352.36591 " stroke="#f67b28" stroke-width="2" stroke-opacity="1" stroke-miterlimit="4"/><path stroke-linecap="butt" transform="matrix(0.749587, 0, 0, 0.749587, 0.357546, 0)" fill="none" stroke-linejoin="miter" d="M 139.902395 139.066162 L 139.516766 71.601929 C 139.516766 71.424748 139.553244 71.252778 139.62099 71.086019 C 139.688736 70.924472 139.782537 70.778559 139.912817 70.65349 C 140.037886 70.52321 140.1838 70.429408 140.345347 70.361662 C 140.512106 70.293917 140.684075 70.257438 140.861256 70.257438 L 489.766928 70.257438 " stroke="#776e82" stroke-width="2" stroke-opacity="1" stroke-miterlimit="4"/><g clip-path="url(#e474da37c4)"><path stroke-linecap="butt" transform="matrix(0.749587, 0, 0, 0.749587, 0.357546, 0)" fill="none" stroke-linejoin="miter" d="M 489.766928 70.257438 C 489.980587 72.237695 490.090022 75.473852 490.090022 79.955487 C 490.105656 252.420249 490.126501 424.890222 490.152557 597.360195 C 490.152557 597.698923 490.47044 597.954272 491.111418 598.115819 " stroke="#f67b28" stroke-width="2" stroke-opacity="1" stroke-miterlimit="4"/></g><path stroke-linecap="butt" transform="matrix(0.749587, 0, 0, 0.749587, 0.357546, 0)" fill="none" stroke-linejoin="miter" d="M 558.064954 2.506589 L 489.766928 70.257438 " stroke="#80d15a" stroke-width="2" stroke-opacity="1" stroke-miterlimit="4"/><path stroke-linecap="butt" transform="matrix(0.749587, 0, 0, 0.749587, 0.357546, 0)" fill="none" stroke-linejoin="miter" d="M 139.88155 352.303376 C 117.546334 374.086204 95.30492 396.140015 73.172941 418.47002 C 72.709144 418.928605 72.245347 418.668045 71.786761 417.672705 " stroke="#80d15a" stroke-width="2" stroke-opacity="1" stroke-miterlimit="4"/><path fill="#000000" d="M 484.304688 89.722656 C 490.167969 89.671875 496.144531 89.691406 502.230469 89.785156 C 529.609375 90.210938 534.464844 64.039062 529.289062 42.875 C 526.03125 29.570312 517.167969 22.679688 502.703125 22.203125 C 496.363281 22 490.070312 22.007812 483.832031 22.230469 C 483.667969 22.238281 483.53125 22.296875 483.421875 22.417969 C 483.308594 22.535156 483.25 22.675781 483.25 22.84375 L 483.25 45.242188 C 483.25 45.875 482.929688 46.191406 482.289062 46.191406 L 460.347656 46.191406 C 459.582031 46.191406 459.203125 45.808594 459.203125 45.042969 L 459.203125 2.351562 C 459.203125 1.8125 459.472656 1.542969 460.011719 1.542969 C 474.292969 1.5 488.539062 1.515625 502.75 1.589844 C 505.917969 1.609375 509.171875 1.769531 512.523438 2.078125 C 533.242188 4.015625 547.933594 17.023438 553 37.316406 C 557.109375 53.71875 555.597656 75.566406 546.191406 89.980469 C 537.570312 103.183594 524.417969 109.910156 506.734375 110.152344 C 492.035156 110.355469 476.324219 110.398438 459.597656 110.273438 C 459.488281 110.273438 459.394531 110.238281 459.316406 110.160156 C 459.242188 110.082031 459.203125 109.988281 459.203125 109.878906 L 459.203125 66.421875 C 459.203125 66.210938 459.277344 66.03125 459.425781 65.882812 C 459.574219 65.734375 459.753906 65.660156 459.964844 65.660156 L 482.488281 65.660156 C 482.996094 65.660156 483.25 65.914062 483.25 66.421875 L 483.234375 88.667969 C 483.234375 89.382812 483.59375 89.734375 484.304688 89.722656 Z M 484.304688 89.722656 " fill-opacity="1" fill-rule="nonzero"/><path fill="#000000" d="M 571.554688 1.527344 L 594.976562 1.527344 C 595.117188 1.527344 595.234375 1.574219 595.332031 1.675781 C 595.433594 1.773438 595.480469 1.890625 595.480469 2.03125 L 595.480469 109.800781 C 595.480469 109.941406 595.433594 110.058594 595.332031 110.160156 C 595.234375 110.257812 595.117188 110.304688 594.976562 110.304688 L 571.554688 110.304688 C 571.414062 110.304688 571.296875 110.257812 571.199219 110.160156 C 571.097656 110.058594 571.050781 109.941406 571.050781 109.800781 L 571.050781 2.03125 C 571.050781 1.890625 571.097656 1.773438 571.199219 1.675781 C 571.296875 1.574219 571.414062 1.527344 571.554688 1.527344 Z M 571.554688 1.527344 " fill-opacity="1" fill-rule="nonzero"/><path fill="#000000" d="M 644.816406 62.390625 C 627.609375 57.871094 613.542969 50.34375 614.980469 30.523438 C 616.125 14.675781 629.53125 4.902344 644.328125 2.488281 C 651.535156 1.308594 659.027344 1.464844 666.804688 2.960938 C 683.433594 6.136719 694.929688 16.84375 695.175781 34.601562 C 695.183594 35.199219 694.890625 35.5 694.289062 35.5 L 673.339844 35.5 C 673.167969 35.496094 673.019531 35.433594 672.894531 35.316406 C 672.773438 35.195312 672.707031 35.046875 672.699219 34.875 C 672.011719 21.347656 659.964844 18.8125 648.832031 20.003906 C 643.289062 20.582031 637.136719 25.332031 637.136719 31.164062 C 637.136719 35.808594 639.738281 38.773438 644.9375 40.066406 C 645.558594 40.21875 645.871094 40.617188 645.871094 41.257812 L 645.871094 61.566406 C 645.871094 62.300781 645.519531 62.574219 644.816406 62.390625 Z M 644.816406 62.390625 " fill-opacity="1" fill-rule="nonzero"/><path fill="#000000" d="M 54.167969 1.894531 L 54.167969 313.082031 L 54.410156 314.488281 C 54.492188 314.996094 54.792969 315.25 55.3125 315.25 L 314.953125 315.296875 C 315.644531 315.296875 315.992188 314.949219 315.992188 314.257812 L 316.019531 264.128906 L 315.945312 105.097656 C 315.945312 104.578125 315.691406 104.320312 315.179688 104.320312 L 105.226562 104.242188 L 104.9375 53.671875 C 104.9375 53.539062 104.964844 53.410156 105.015625 53.285156 C 105.066406 53.164062 105.136719 53.054688 105.234375 52.960938 C 105.328125 52.863281 105.4375 52.792969 105.558594 52.742188 C 105.683594 52.691406 105.8125 52.664062 105.945312 52.664062 L 367.480469 52.664062 C 367.640625 54.148438 367.722656 56.574219 367.722656 59.933594 C 367.734375 189.214844 367.75 318.492188 367.769531 447.773438 C 367.769531 448.027344 368.007812 448.21875 368.488281 448.339844 L 368.011719 449.53125 C 367.769531 450.121094 367.417969 450.195312 366.960938 449.757812 L 282.304688 367.839844 C 281.625 367.175781 280.808594 366.847656 279.863281 366.847656 L 3.03125 366.847656 C 2.925781 366.847656 2.835938 366.808594 2.757812 366.734375 C 2.683594 366.660156 2.648438 366.570312 2.648438 366.464844 L 2.648438 38.234375 C 2.648438 37.601562 2.902344 37.109375 3.410156 36.753906 L 52.304688 2.65625 C 52.730469 2.363281 53.191406 2.152344 53.679688 2.03125 C 53.808594 2 53.972656 1.953125 54.167969 1.894531 Z M 54.167969 1.894531 " fill-opacity="1" fill-rule="nonzero"/><path fill="#595959" d="M 54.167969 1.894531 L 418.675781 1.878906 L 367.480469 52.664062 L 105.945312 52.664062 C 105.8125 52.664062 105.683594 52.691406 105.558594 52.742188 C 105.4375 52.792969 105.328125 52.863281 105.234375 52.960938 C 105.136719 53.054688 105.066406 53.164062 105.015625 53.285156 C 104.964844 53.410156 104.9375 53.539062 104.9375 53.671875 L 105.226562 104.242188 L 105.210938 264.082031 C 88.46875 280.410156 71.796875 296.941406 55.207031 313.679688 C 54.859375 314.023438 54.511719 313.828125 54.167969 313.082031 Z M 54.167969 1.894531 " fill-opacity="1" fill-rule="nonzero"/><path fill="#999999" d="M 418.675781 1.878906 C 418.75 110.667969 418.769531 219.335938 418.738281 327.878906 C 418.738281 330.453125 418.230469 332.917969 417.210938 335.269531 C 400.996094 372.972656 384.753906 410.664062 368.488281 448.339844 C 368.007812 448.21875 367.769531 448.027344 367.769531 447.773438 C 367.75 318.492188 367.734375 189.214844 367.722656 59.933594 C 367.722656 56.574219 367.640625 54.148438 367.480469 52.664062 Z M 418.675781 1.878906 " fill-opacity="1" fill-rule="nonzero"/><path fill="#000000" d="M 633.882812 106.289062 C 620.078125 101.21875 610.855469 88.59375 611.515625 73.71875 C 611.542969 73.179688 611.824219 72.910156 612.355469 72.910156 L 632.601562 72.910156 C 633.34375 72.910156 633.726562 73.28125 633.746094 74.027344 C 634.035156 83.570312 640.25 89.738281 649.335938 91.417969 C 657.078125 92.851562 670.117188 92.578125 674.714844 84.929688 C 679.769531 76.53125 672.636719 70.285156 665.109375 67.980469 C 664.5 67.796875 664.191406 67.382812 664.191406 66.742188 L 664.191406 46.875 C 664.191406 46.277344 664.492188 46.023438 665.09375 46.113281 C 686.089844 49.367188 702.273438 60.726562 697.785156 84.242188 C 695.570312 95.832031 685.449219 104.488281 674.332031 107.542969 C 660.183594 111.421875 646.699219 111.003906 633.882812 106.289062 Z M 633.882812 106.289062 " fill-opacity="1" fill-rule="nonzero"/><path fill="#000000" d="M 483.25 148.9375 L 483.25 237.058594 C 483.25 237.566406 482.996094 237.820312 482.488281 237.820312 L 459.964844 237.820312 C 459.457031 237.820312 459.203125 237.566406 459.203125 237.058594 L 459.203125 130.230469 C 459.203125 130 459.285156 129.800781 459.453125 129.636719 C 459.621094 129.472656 459.820312 129.394531 460.058594 129.394531 C 476.730469 129.421875 493.027344 129.421875 508.949219 129.394531 C 534.570312 129.332031 550.558594 148.523438 544.449219 173.660156 C 541.449219 186.027344 533.914062 193.921875 521.851562 197.339844 C 521.75 197.371094 521.660156 197.417969 521.582031 197.492188 C 521.5 197.5625 521.445312 197.648438 521.40625 197.75 C 521.371094 197.851562 521.359375 197.953125 521.375 198.058594 C 521.386719 198.164062 521.425781 198.261719 521.484375 198.347656 L 548.496094 237.085938 C 548.609375 237.238281 548.621094 237.394531 548.53125 237.5625 C 548.445312 237.730469 548.308594 237.816406 548.117188 237.820312 L 522.476562 237.820312 C 521.929688 237.820312 521.496094 237.597656 521.179688 237.148438 L 503.347656 211.679688 C 502.929688 211.078125 502.71875 210.417969 502.71875 209.695312 L 502.71875 180.988281 C 502.71875 180.367188 503.03125 180.078125 503.652344 180.117188 C 515.515625 180.882812 523.441406 173.980469 521.804688 161.105469 C 520.449219 150.3125 511.730469 148.144531 502.535156 148.128906 C 496.203125 148.128906 490.0625 148.113281 484.105469 148.082031 C 483.535156 148.082031 483.25 148.367188 483.25 148.9375 Z M 483.25 148.9375 " fill-opacity="1" fill-rule="nonzero"/><path fill="#000000" d="M 586 196.59375 C 586.03125 205.511719 588.808594 213.238281 597.757812 216.75 C 598.273438 216.953125 598.535156 217.328125 598.535156 217.878906 L 598.519531 237.011719 C 598.519531 237.132812 598.496094 237.25 598.445312 237.359375 C 598.398438 237.46875 598.328125 237.566406 598.238281 237.644531 C 598.144531 237.726562 598.042969 237.785156 597.925781 237.820312 C 597.8125 237.855469 597.691406 237.867188 597.574219 237.851562 C 582.378906 235.882812 569.25 228.140625 564.421875 213.070312 C 562.804688 208.03125 561.984375 203.300781 561.964844 198.882812 C 561.851562 176.894531 561.832031 154 561.902344 130.203125 C 561.902344 129.671875 562.167969 129.40625 562.699219 129.40625 L 584.898438 129.40625 C 585.613281 129.40625 585.96875 129.769531 585.96875 130.492188 C 585.90625 153.863281 585.917969 175.898438 586 196.59375 Z M 586 196.59375 " fill-opacity="1" fill-rule="nonzero"/><path fill="#000000" d="M 654.253906 197.539062 C 654.207031 219.925781 641.015625 234.707031 618.917969 237.789062 C 618.308594 237.871094 618.003906 237.605469 618.003906 236.996094 L 618.003906 217.984375 C 618.003906 217.230469 618.359375 216.742188 619.070312 216.519531 C 627.242188 213.953125 630.128906 205.371094 630.15625 197.722656 C 630.238281 174.421875 630.25 151.941406 630.1875 130.277344 C 630.183594 130.039062 630.265625 129.835938 630.433594 129.664062 C 630.601562 129.492188 630.804688 129.40625 631.042969 129.40625 L 653.429688 129.40625 C 653.988281 129.40625 654.269531 129.683594 654.269531 130.230469 C 654.296875 151.976562 654.292969 174.410156 654.253906 197.539062 Z M 654.253906 197.539062 " fill-opacity="1" fill-rule="nonzero"/><path fill="#000000" d="M 694.730469 149.5625 L 694.730469 237.058594 C 694.730469 237.566406 694.476562 237.820312 693.96875 237.820312 L 671.0625 237.820312 C 670.554688 237.820312 670.300781 237.566406 670.300781 237.058594 L 670.300781 130.230469 C 670.300781 129.996094 670.382812 129.792969 670.550781 129.628906 C 670.71875 129.460938 670.917969 129.378906 671.15625 129.378906 C 686.445312 129.4375 702.046875 129.4375 717.957031 129.378906 C 735.226562 129.300781 750.054688 135.578125 755.289062 152.695312 C 756.886719 157.925781 757.335938 163.5 756.632812 169.414062 C 753.976562 191.84375 735.988281 200.289062 715.164062 199.21875 C 714.519531 199.1875 714.199219 198.851562 714.199219 198.210938 L 714.199219 181.21875 C 714.199219 180.472656 714.570312 180.117188 715.316406 180.148438 C 722.246094 180.421875 730.492188 177.886719 732.691406 170.375 C 735.960938 159.214844 730.753906 149.257812 718.460938 148.707031 C 711.984375 148.421875 704.417969 148.363281 695.753906 148.523438 C 695.074219 148.535156 694.730469 148.882812 694.730469 149.5625 Z M 694.730469 149.5625 " fill-opacity="1" fill-rule="nonzero"/><path fill="#000000" d="M 459.78125 257.289062 L 551 257.289062 C 551.160156 257.289062 551.296875 257.34375 551.410156 257.457031 C 551.523438 257.570312 551.582031 257.707031 551.582031 257.867188 L 551.582031 276.925781 C 551.582031 277.085938 551.523438 277.222656 551.410156 277.335938 C 551.296875 277.449219 551.160156 277.503906 551 277.503906 L 459.78125 277.503906 C 459.621094 277.503906 459.484375 277.449219 459.371094 277.335938 C 459.257812 277.222656 459.203125 277.085938 459.203125 276.925781 L 459.203125 257.867188 C 459.203125 257.707031 459.257812 257.570312 459.371094 257.457031 C 459.484375 257.34375 459.621094 257.289062 459.78125 257.289062 Z M 459.78125 257.289062 " fill-opacity="1" fill-rule="nonzero"/><path fill="#000000" d="M 565.539062 257.289062 L 588.378906 257.289062 C 588.546875 257.289062 588.6875 257.347656 588.800781 257.464844 C 588.917969 257.578125 588.976562 257.71875 588.976562 257.882812 L 588.976562 365.105469 C 588.976562 365.269531 588.917969 365.410156 588.800781 365.527344 C 588.6875 365.644531 588.546875 365.703125 588.378906 365.703125 L 565.539062 365.703125 C 565.375 365.703125 565.234375 365.644531 565.117188 365.527344 C 565 365.410156 564.941406 365.269531 564.941406 365.105469 L 564.941406 257.882812 C 564.941406 257.71875 565 257.578125 565.117188 257.464844 C 565.234375 257.347656 565.375 257.289062 565.539062 257.289062 Z M 565.539062 257.289062 " fill-opacity="1" fill-rule="nonzero"/><path fill="#000000" d="M 671.492188 257.289062 L 695.3125 257.304688 C 695.398438 257.304688 695.476562 257.324219 695.554688 257.363281 C 695.628906 257.402344 695.691406 257.457031 695.742188 257.527344 C 695.792969 257.597656 695.824219 257.671875 695.835938 257.757812 C 695.851562 257.84375 695.84375 257.925781 695.816406 258.007812 L 660.175781 365.335938 C 660.097656 365.578125 659.929688 365.699219 659.671875 365.703125 L 633.410156 365.703125 C 633.15625 365.699219 632.988281 365.578125 632.90625 365.335938 L 598.015625 257.976562 C 597.988281 257.894531 597.980469 257.8125 597.996094 257.726562 C 598.007812 257.644531 598.039062 257.566406 598.089844 257.496094 C 598.136719 257.425781 598.203125 257.371094 598.277344 257.332031 C 598.351562 257.292969 598.433594 257.273438 598.519531 257.273438 L 622.355469 257.304688 C 622.617188 257.296875 622.792969 257.421875 622.875 257.671875 L 646.28125 331.574219 C 646.359375 331.828125 646.527344 331.953125 646.792969 331.953125 C 647.058594 331.953125 647.230469 331.828125 647.304688 331.574219 L 670.972656 257.65625 C 671.054688 257.40625 671.230469 257.28125 671.492188 257.289062 Z M 671.492188 257.289062 " fill-opacity="1" fill-rule="nonzero"/><path fill="#000000" d="M 743.121094 280.695312 C 718.535156 289.84375 713.421875 321.023438 734.964844 336.902344 C 745.792969 344.90625 760.4375 344.949219 771.398438 337.011719 C 792.945312 321.40625 787.460938 290.148438 763.535156 280.773438 C 763.277344 280.671875 763.070312 280.507812 762.914062 280.28125 C 762.757812 280.058594 762.679688 279.808594 762.679688 279.535156 L 762.679688 258.097656 C 762.679688 257.589844 762.933594 257.34375 763.445312 257.363281 C 765.03125 257.417969 766.609375 257.707031 768.175781 258.234375 C 790.828125 265.972656 803.933594 281.328125 807.496094 304.304688 C 808.515625 310.839844 808.003906 317.886719 805.96875 325.453125 C 801.097656 343.53125 787.003906 357.824219 769.15625 363.210938 C 746.371094 370.082031 722.460938 361.808594 708.703125 342.554688 C 695.554688 324.152344 695.328125 299.097656 708.03125 280.332031 C 716.144531 268.339844 727.734375 260.621094 742.800781 257.183594 C 743.582031 257 743.976562 257.308594 743.976562 258.113281 L 743.976562 279.492188 C 743.976562 280.089844 743.691406 280.492188 743.121094 280.695312 Z M 743.121094 280.695312 " fill-opacity="1" fill-rule="nonzero"/><path fill="#999999" d="M 105.210938 264.082031 L 316.019531 264.128906 L 315.992188 314.257812 C 315.992188 314.949219 315.644531 315.296875 314.953125 315.296875 L 55.3125 315.25 C 54.792969 315.25 54.492188 314.996094 54.410156 314.488281 L 54.167969 313.082031 C 54.511719 313.828125 54.859375 314.023438 55.207031 313.679688 C 71.796875 296.941406 88.46875 280.410156 105.210938 264.082031 Z M 105.210938 264.082031 " fill-opacity="1" fill-rule="nonzero"/><path fill="#000000" d="M 494.199219 296.988281 L 516.980469 296.988281 C 517.152344 296.988281 517.300781 297.050781 517.425781 297.171875 C 517.546875 297.292969 517.605469 297.441406 517.605469 297.613281 L 517.605469 365.074219 C 517.605469 365.25 517.546875 365.394531 517.425781 365.519531 C 517.300781 365.640625 517.152344 365.703125 516.980469 365.703125 L 494.199219 365.703125 C 494.027344 365.703125 493.878906 365.640625 493.757812 365.519531 C 493.632812 365.394531 493.574219 365.25 493.574219 365.074219 L 493.574219 297.613281 C 493.574219 297.441406 493.632812 297.292969 493.757812 297.171875 C 493.878906 297.050781 494.027344 296.988281 494.199219 296.988281 Z M 494.199219 296.988281 " fill-opacity="1" fill-rule="nonzero"/><path fill="#595959" d="M 551.78125 427.433594 L 566.757812 380.558594 C 566.832031 380.328125 566.992188 380.210938 567.234375 380.207031 L 582.320312 380.207031 C 582.398438 380.207031 582.476562 380.222656 582.550781 380.257812 C 582.621094 380.292969 582.683594 380.34375 582.730469 380.410156 C 582.78125 380.476562 582.8125 380.546875 582.824219 380.628906 C 582.835938 380.707031 582.832031 380.785156 582.808594 380.863281 L 559.902344 449.714844 C 559.828125 449.953125 559.664062 450.070312 559.414062 450.066406 L 542.847656 450.066406 C 542.605469 450.0625 542.449219 449.945312 542.375 449.714844 L 524.1875 393.917969 C 524.113281 393.6875 523.957031 393.570312 523.714844 393.566406 L 497.878906 393.550781 C 497.738281 393.550781 497.621094 393.601562 497.523438 393.699219 C 497.425781 393.796875 497.375 393.917969 497.375 394.054688 L 497.375 449.5625 C 497.375 449.699219 497.324219 449.820312 497.226562 449.917969 C 497.128906 450.015625 497.011719 450.066406 496.871094 450.066406 L 482.226562 450.066406 C 482.089844 450.066406 481.96875 450.015625 481.871094 449.917969 C 481.773438 449.820312 481.722656 449.699219 481.722656 449.5625 L 481.722656 394.070312 C 481.722656 393.933594 481.675781 393.8125 481.578125 393.714844 C 481.476562 393.617188 481.359375 393.566406 481.21875 393.566406 L 460.085938 393.566406 C 459.949219 393.566406 459.828125 393.519531 459.730469 393.421875 C 459.632812 393.320312 459.582031 393.203125 459.582031 393.0625 L 459.582031 380.710938 C 459.582031 380.570312 459.632812 380.453125 459.730469 380.355469 C 459.828125 380.257812 459.949219 380.207031 460.085938 380.207031 L 535.546875 380.207031 C 535.789062 380.210938 535.949219 380.328125 536.023438 380.558594 L 550.816406 427.433594 C 550.890625 427.671875 551.050781 427.789062 551.300781 427.789062 C 551.546875 427.789062 551.707031 427.671875 551.78125 427.433594 Z M 551.78125 427.433594 " fill-opacity="1" fill-rule="nonzero"/><path fill="#595959" d="M 475.585938 441.222656 C 475.585938 441.796875 475.53125 442.363281 475.417969 442.925781 C 475.304688 443.488281 475.140625 444.035156 474.921875 444.566406 C 474.703125 445.097656 474.433594 445.597656 474.113281 446.074219 C 473.796875 446.554688 473.433594 446.992188 473.027344 447.398438 C 472.621094 447.804688 472.179688 448.167969 471.703125 448.484375 C 471.226562 448.804688 470.722656 449.074219 470.195312 449.292969 C 469.664062 449.511719 469.117188 449.679688 468.554688 449.789062 C 467.992188 449.902344 467.425781 449.957031 466.851562 449.957031 C 466.277344 449.957031 465.710938 449.902344 465.148438 449.789062 C 464.585938 449.679688 464.039062 449.511719 463.507812 449.292969 C 462.980469 449.074219 462.476562 448.804688 462 448.484375 C 461.523438 448.167969 461.082031 447.804688 460.675781 447.398438 C 460.269531 446.992188 459.910156 446.550781 459.589844 446.074219 C 459.269531 445.597656 459.003906 445.09375 458.78125 444.566406 C 458.5625 444.035156 458.398438 443.488281 458.285156 442.925781 C 458.171875 442.363281 458.117188 441.796875 458.117188 441.222656 C 458.117188 440.648438 458.171875 440.082031 458.285156 439.519531 C 458.398438 438.957031 458.5625 438.410156 458.78125 437.882812 C 459.003906 437.351562 459.269531 436.847656 459.589844 436.371094 C 459.910156 435.894531 460.269531 435.453125 460.675781 435.046875 C 461.082031 434.640625 461.523438 434.28125 462 433.960938 C 462.476562 433.644531 462.980469 433.375 463.507812 433.15625 C 464.039062 432.933594 464.585938 432.769531 465.148438 432.65625 C 465.710938 432.546875 466.277344 432.488281 466.851562 432.488281 C 467.425781 432.488281 467.992188 432.546875 468.554688 432.65625 C 469.117188 432.769531 469.664062 432.933594 470.195312 433.15625 C 470.722656 433.375 471.226562 433.644531 471.703125 433.960938 C 472.179688 434.28125 472.621094 434.640625 473.027344 435.046875 C 473.433594 435.453125 473.796875 435.894531 474.113281 436.371094 C 474.433594 436.847656 474.703125 437.351562 474.921875 437.882812 C 475.140625 438.410156 475.304688 438.957031 475.417969 439.519531 C 475.53125 440.082031 475.585938 440.648438 475.585938 441.222656 Z M 475.585938 441.222656 " fill-opacity="1" fill-rule="nonzero"/></svg>