<svg xmlns="http://www.w3.org/2000/svg" xmlns:xlink="http://www.w3.org/1999/xlink" width="1080" zoomAndPan="magnify" viewBox="0 0 810 145.500001" height="194" preserveAspectRatio="xMidYMid meet" version="1.0"><defs><clipPath id="fecf25fca9"><path d="M 1.386719 36 L 96 36 L 96 143 L 1.386719 143 Z M 1.386719 36 " clip-rule="nonzero"/></clipPath><clipPath id="44cebe8007"><path d="M 775 38 L 808.613281 38 L 808.613281 72 L 775 72 Z M 775 38 " clip-rule="nonzero"/></clipPath></defs><path fill="#000000" d="M 373.226562 19.78125 C 373.25 21.871094 371.464844 23.328125 369.46875 23.316406 C 362.929688 23.289062 356.339844 23.292969 349.707031 23.328125 C 348.664062 23.332031 347.875 23.214844 347.34375 22.96875 C 345.980469 22.34375 345.273438 21.019531 345.285156 19.535156 C 345.320312 14.542969 345.320312 9.476562 345.277344 4.34375 C 345.269531 3.4375 345.398438 2.742188 345.664062 2.257812 C 346.507812 0.699219 347.800781 0.269531 349.585938 0.304688 C 351.96875 0.34375 354.25 0.34375 356.425781 0.304688 C 358.683594 0.257812 360.460938 0.382812 361.761719 0.675781 C 367.847656 2.050781 372.335938 7.070312 373.097656 13.210938 C 373.355469 15.308594 373.203125 17.644531 373.226562 19.78125 Z M 373.226562 19.78125 " fill-opacity="1" fill-rule="nonzero"/><path fill="#000000" d="M 512.160156 140.453125 C 510.035156 140.457031 508.660156 138.820312 508.660156 136.777344 C 508.683594 90.726562 508.679688 46.847656 508.65625 5.144531 C 508.652344 3.714844 508.757812 2.777344 508.964844 2.332031 C 509.667969 0.839844 510.972656 0.257812 512.613281 0.296875 C 514.402344 0.339844 516.15625 0.34375 517.875 0.304688 C 519.910156 0.253906 521.59375 0.367188 522.933594 0.636719 C 529.832031 2.023438 535.171875 7.457031 536.339844 14.3125 C 536.523438 15.398438 536.617188 16.914062 536.617188 18.859375 C 536.605469 58.097656 536.597656 97.417969 536.59375 136.820312 C 536.59375 137.550781 536.492188 138.113281 536.289062 138.511719 C 535.492188 140.054688 534.234375 140.46875 532.527344 140.460938 C 526.128906 140.4375 519.339844 140.433594 512.160156 140.453125 Z M 512.160156 140.453125 " fill-opacity="1" fill-rule="nonzero"/><path fill="#000000" d="M 699.289062 51.339844 C 699.433594 51.394531 699.546875 51.355469 699.636719 51.222656 C 702.808594 46.390625 707.25 42.550781 712.519531 40.246094 C 718.476562 37.632812 724.578125 36.296875 730.820312 36.234375 C 745.875 36.078125 758.699219 44.0625 766.050781 57.152344 C 769.714844 63.683594 772.015625 70.777344 772.949219 78.4375 C 774.191406 88.636719 773.753906 98.472656 771.636719 107.953125 C 771.117188 110.289062 770.371094 112.5625 769.398438 114.773438 C 766.035156 122.410156 761.375 128.933594 754.835938 133.957031 C 748.707031 138.664062 741.019531 142.003906 733.132812 143.332031 C 725.378906 144.640625 717.757812 144.574219 710.269531 143.140625 C 702.371094 141.625 694.527344 138.121094 688.261719 132.890625 C 683.25 128.703125 679.226562 123.527344 676.195312 117.359375 C 674.636719 114.1875 673.5 111.078125 672.789062 108.03125 C 671.667969 103.25 671.277344 98.617188 671.28125 93.75 C 671.3125 64.382812 671.3125 34.53125 671.277344 4.199219 C 671.277344 1.96875 672.609375 0.304688 674.945312 0.3125 C 682.460938 0.324219 689.371094 0.324219 695.671875 0.3125 C 697.699219 0.308594 699.191406 1.90625 699.191406 3.910156 C 699.1875 19.804688 699.1875 35.570312 699.191406 51.199219 C 699.191406 51.269531 699.222656 51.3125 699.289062 51.339844 Z M 708.429688 61.960938 C 702.886719 66.566406 700.066406 73.632812 698.914062 80.914062 C 698.234375 85.1875 698.054688 89.5 698.371094 93.839844 C 698.894531 101.015625 700.703125 108.332031 704.984375 113.847656 C 709.824219 120.089844 716.367188 122.820312 724.617188 122.042969 C 735.222656 121.039062 741.800781 112.386719 744.214844 102.4375 C 746.105469 94.640625 746.222656 86.640625 744.5625 78.4375 C 742.585938 68.683594 736.433594 59.097656 725.917969 57.535156 C 719.546875 56.589844 713.449219 57.789062 708.429688 61.960938 Z M 708.429688 61.960938 " fill-opacity="1" fill-rule="nonzero"/><g clip-path="url(#fecf25fca9)"><path fill="#000000" d="M 40.816406 55.375 C 37.757812 55.835938 34.730469 57.269531 32.941406 59.765625 C 32.222656 60.765625 31.816406 62.097656 31.71875 63.761719 C 31.542969 66.839844 32.808594 69.320312 35.511719 71.199219 C 37.417969 72.523438 39.667969 73.589844 42.257812 74.402344 C 46.652344 75.785156 50.839844 76.664062 55.277344 77.59375 C 62.394531 79.085938 68.78125 80.558594 75.425781 82.804688 C 80.863281 84.640625 86.183594 87.640625 90.007812 92.015625 C 93.296875 95.789062 95.113281 100.210938 95.445312 105.28125 C 95.84375 111.316406 95.046875 117.996094 92.234375 123.324219 C 89.492188 128.519531 85.632812 132.660156 80.660156 135.75 C 75.089844 139.214844 69.003906 141.015625 62.351562 142.003906 C 52.257812 143.507812 42.335938 143.296875 32.582031 141.378906 C 22.351562 139.363281 13.144531 134.625 7.097656 126.050781 C 4.324219 122.113281 2.5625 117.449219 1.820312 112.066406 C 1.671875 111.007812 1.746094 110.144531 2.035156 109.484375 C 2.65625 108.089844 3.957031 107.433594 5.441406 107.4375 C 11.636719 107.453125 17.996094 107.453125 24.515625 107.4375 C 26.546875 107.433594 27.921875 108.691406 28.257812 110.671875 C 29.09375 115.640625 32.554688 119.703125 37.113281 121.949219 C 41.863281 124.289062 47.867188 124.941406 53.078125 124.265625 C 56.046875 123.882812 58.679688 123.101562 60.988281 121.921875 C 63.59375 120.589844 66.140625 118.214844 67.058594 115.371094 C 67.371094 114.398438 67.558594 113.375 67.617188 112.292969 C 67.914062 106.816406 63.742188 103.746094 59.027344 102.078125 C 53.324219 100.058594 47.210938 98.34375 40.683594 96.933594 C 34.171875 95.519531 28.707031 94.230469 22.898438 92.246094 C 13.761719 89.128906 5.535156 82.921875 4.089844 72.964844 C 3.75 70.609375 3.710938 67.835938 3.980469 64.644531 C 4.6875 56.269531 8.359375 49.589844 15.003906 44.601562 C 16.363281 43.582031 17.882812 42.648438 19.570312 41.804688 C 24.410156 39.378906 29.289062 38.011719 34.644531 37.214844 C 44.296875 35.785156 53.664062 35.894531 62.75 37.539062 C 71.128906 39.054688 78.671875 42.390625 84.410156 48.425781 C 88.496094 52.726562 91.09375 57.957031 92.207031 64.109375 C 92.359375 64.957031 92.335938 65.679688 92.144531 66.28125 C 91.664062 67.765625 90.328125 68.628906 88.789062 68.628906 C 82.175781 68.625 75.683594 68.625 69.308594 68.628906 C 67.582031 68.628906 66.167969 67.40625 65.835938 65.730469 C 65.070312 61.886719 62.910156 58.917969 59.375 57.335938 C 53.539062 54.722656 47.117188 54.421875 40.816406 55.375 Z M 40.816406 55.375 " fill-opacity="1" fill-rule="nonzero"/></g><path fill="#000000" d="M 138.816406 138.992188 C 128.203125 134.6875 120.238281 127.503906 114.921875 117.441406 C 108.875 105.988281 107.605469 92.289062 109.386719 79.574219 C 111.332031 65.667969 118.210938 53.117188 129.75 45.207031 C 141.027344 37.476562 155.003906 35.144531 168.542969 36.609375 C 182.0625 38.074219 194.496094 44.078125 202.84375 54.738281 C 207.769531 61.03125 211.039062 68.773438 212.515625 76.558594 C 214.316406 86.0625 214.191406 95.464844 212.144531 104.765625 C 210.003906 114.5 204.882812 123.800781 197.324219 130.5625 C 184.664062 141.882812 166.527344 144.6875 150.167969 142.132812 C 146.253906 141.519531 142.46875 140.476562 138.816406 138.992188 Z M 147.117188 61.597656 C 141.699219 65.769531 138.796875 71.992188 137.582031 78.726562 C 136.1875 86.484375 136.246094 94.128906 137.757812 101.65625 C 139.128906 108.492188 142.46875 115 148.414062 118.851562 C 153.101562 121.890625 158.671875 122.484375 164.132812 122.027344 C 175.785156 121.046875 182.660156 112.296875 184.730469 101.367188 C 186.332031 92.890625 186.214844 84.628906 184.375 76.585938 C 183.660156 73.46875 182.601562 70.734375 181.199219 68.375 C 176.867188 61.113281 170.386719 57.398438 161.757812 57.238281 C 156.332031 57.132812 151.449219 58.265625 147.117188 61.597656 Z M 147.117188 61.597656 " fill-opacity="1" fill-rule="nonzero"/><path fill="#000000" d="M 328.082031 106.09375 C 326.027344 115.90625 321.765625 124.769531 314.351562 131.347656 C 303.105469 141.332031 287.464844 144.199219 272.761719 142.589844 C 268.34375 142.105469 264.125 141.109375 260.109375 139.597656 C 249.164062 135.484375 240.914062 128.421875 235.359375 118.421875 C 231.671875 111.78125 229.515625 104.539062 228.890625 96.703125 C 227.414062 78.175781 232.769531 58.042969 248.152344 46.355469 C 254.394531 41.617188 261.414062 38.558594 269.210938 37.1875 C 277.636719 35.707031 286.136719 35.898438 294.707031 37.769531 C 311.511719 41.433594 325.5 53.082031 327.832031 70.695312 C 328.117188 72.839844 326.457031 74.710938 324.296875 74.710938 C 317.375 74.710938 310.5625 74.710938 303.859375 74.710938 C 301.984375 74.707031 300.707031 73.542969 300.296875 71.773438 C 298.585938 64.445312 293.757812 59.3125 286.109375 57.789062 C 283.050781 57.179688 279.902344 57.085938 276.761719 57.480469 C 266.902344 58.726562 260.566406 67.648438 258.21875 76.722656 C 256.199219 84.527344 256.070312 92.867188 257.621094 100.800781 C 258.757812 106.59375 261.101562 112.355469 265.289062 116.46875 C 268.699219 119.824219 272.714844 121.683594 277.335938 122.054688 C 281.554688 122.390625 285.355469 121.941406 288.730469 120.707031 C 293.128906 119.097656 296.332031 115.949219 298.628906 111.800781 C 299.820312 109.652344 300.6875 107.34375 301.234375 104.871094 C 301.417969 104.054688 301.699219 103.378906 302.078125 102.847656 C 302.859375 101.761719 304.148438 101.550781 305.523438 101.550781 C 311.734375 101.546875 318.167969 101.558594 324.824219 101.578125 C 327.160156 101.585938 328.542969 103.894531 328.082031 106.09375 Z M 328.082031 106.09375 " fill-opacity="1" fill-rule="nonzero"/><path fill="#000000" d="M 486.347656 103.945312 C 486.355469 110.933594 485.292969 117.988281 481.765625 123.96875 C 478.148438 130.101562 473.089844 134.839844 466.59375 138.175781 C 462.761719 140.140625 458.667969 141.601562 454.308594 142.558594 C 447.410156 144.066406 440.402344 144.753906 433.285156 144.613281 C 432.082031 144.589844 429.828125 144.484375 426.519531 144.296875 C 422.703125 144.078125 418.847656 143.476562 414.953125 142.492188 C 410.773438 141.429688 406.613281 139.414062 402.929688 137.152344 C 397.234375 133.65625 393.347656 127.773438 391.792969 121.308594 C 390.988281 117.957031 390.703125 114.199219 390.945312 110.03125 C 391.152344 106.34375 391.886719 102.539062 393.523438 99.273438 C 395.476562 95.363281 398.117188 92.214844 401.4375 89.828125 C 404.953125 87.300781 408.972656 85.582031 413.230469 84.457031 C 416.574219 83.566406 419.925781 82.839844 423.285156 82.269531 C 427.570312 81.542969 431.238281 81.023438 434.285156 80.71875 C 438.578125 80.285156 442.671875 79.871094 446.949219 78.949219 C 449.578125 78.386719 451.792969 77.628906 453.601562 76.671875 C 456.332031 75.226562 458.203125 73.261719 458.386719 70.035156 C 458.5 68.058594 458.378906 66.207031 458.023438 64.476562 C 456.898438 59.019531 452.425781 56.085938 447.117188 55.351562 C 443.070312 54.796875 439.355469 54.738281 435.960938 55.175781 C 432.617188 55.609375 429.226562 56.820312 426.726562 58.980469 C 424.46875 60.933594 423.011719 63.976562 422.421875 67 C 422.039062 68.96875 420.636719 70.222656 418.597656 70.207031 C 411.457031 70.160156 404.886719 70.164062 398.875 70.214844 C 397.605469 70.226562 396.734375 70.101562 396.257812 69.84375 C 394.585938 68.941406 394.191406 67.375 394.5 65.550781 C 395.429688 60.035156 397.507812 55.3125 400.730469 51.386719 C 402.449219 49.292969 404.261719 47.503906 406.171875 46.019531 C 411.484375 41.890625 418.128906 39.253906 424.886719 37.898438 C 435.375 35.796875 445.777344 35.816406 456.59375 37.203125 C 466.511719 38.476562 476.589844 42.25 482.453125 50.609375 C 485.15625 54.460938 486.320312 59.582031 486.320312 64.191406 C 486.316406 77.488281 486.328125 90.738281 486.347656 103.945312 Z M 458.390625 101.765625 C 458.433594 99.851562 458.449219 97.785156 458.429688 95.566406 C 458.417969 94.453125 458.183594 93.589844 457.207031 93.007812 C 456.019531 92.304688 455.316406 92.839844 454.199219 93.199219 C 451.101562 94.199219 447.84375 94.921875 444.421875 95.375 C 442.242188 95.660156 440.085938 95.949219 437.957031 96.242188 C 434.46875 96.714844 431.1875 97.503906 428.113281 98.601562 C 423.746094 100.15625 419.96875 103.457031 419.078125 108.21875 C 418.6875 110.3125 418.664062 112.386719 419.011719 114.445312 C 420.039062 120.550781 424.9375 123.34375 430.640625 124.152344 C 433.929688 124.613281 437.355469 124.636719 440.910156 124.226562 C 442.75 124.007812 444.710938 123.441406 446.792969 122.527344 C 452.46875 120.03125 455.996094 115.78125 457.363281 109.777344 C 457.988281 107.046875 458.328125 104.375 458.390625 101.765625 Z M 458.390625 101.765625 " fill-opacity="1" fill-rule="nonzero"/><path fill="#000000" d="M 559.296875 59.4375 C 561.476562 53.472656 565.886719 48.316406 571.085938 44.765625 C 577.074219 40.675781 584.078125 38.417969 591.472656 37.28125 C 601.933594 35.671875 612.71875 35.960938 622.761719 37.675781 C 626.445312 38.304688 630.117188 39.425781 633.777344 41.046875 C 638.328125 43.0625 642.078125 45.96875 645.03125 49.769531 C 648.207031 53.859375 649.492188 59.171875 649.492188 64.289062 C 649.503906 80.550781 649.507812 94.28125 649.5 105.472656 C 649.496094 110.613281 648.625 115.453125 646.890625 119.988281 C 646.109375 122.027344 644.957031 124.140625 643.4375 126.335938 C 637.476562 134.9375 628.117188 140.171875 617.902344 142.464844 C 611.332031 143.941406 604.691406 144.660156 597.988281 144.621094 C 594.945312 144.601562 591.558594 144.445312 587.832031 144.148438 C 585.308594 143.945312 582.441406 143.484375 579.226562 142.765625 C 574.871094 141.789062 570.730469 139.875 566.847656 137.601562 C 559.929688 133.550781 555.609375 126.578125 554.464844 118.667969 C 553.957031 115.167969 553.90625 111.574219 554.3125 107.886719 C 555.300781 98.875 560.3125 91.71875 568.355469 87.535156 C 573.375 84.917969 579.097656 83.632812 584.691406 82.597656 C 589.28125 81.746094 593.523438 81.125 597.417969 80.734375 C 603.582031 80.117188 609.347656 79.578125 614.589844 77.664062 C 618.296875 76.308594 621.421875 74.0625 621.589844 69.773438 C 621.789062 64.738281 620.753906 60.257812 616.355469 57.449219 C 614.753906 56.425781 612.804688 55.738281 610.511719 55.390625 C 607.390625 54.921875 604.238281 54.78125 601.058594 54.980469 C 598.527344 55.136719 596.171875 55.648438 593.988281 56.515625 C 589.304688 58.378906 586.527344 62.121094 585.574219 67.160156 C 585.257812 68.839844 583.835938 70.183594 582.074219 70.183594 C 575.132812 70.1875 568.113281 70.183594 561.015625 70.175781 C 558.761719 70.167969 557.300781 68.300781 557.621094 66.105469 C 557.957031 63.796875 558.515625 61.574219 559.296875 59.4375 Z M 583.140625 105.519531 C 582.398438 107.058594 582.003906 108.929688 581.957031 111.128906 C 581.785156 119.625 587.058594 123.359375 594.636719 124.257812 C 597.453125 124.589844 600.378906 124.605469 603.40625 124.300781 C 606.835938 123.960938 609.800781 122.835938 612.691406 121.089844 C 616.167969 118.992188 618.839844 115.507812 620.007812 111.730469 C 620.96875 108.609375 621.496094 105.164062 621.585938 101.394531 C 621.609375 100.433594 621.621094 98.546875 621.621094 95.730469 C 621.621094 94.90625 621.5 94.285156 621.257812 93.875 C 620.558594 92.707031 619.335938 92.421875 618.070312 92.917969 C 616.667969 93.460938 615.285156 93.886719 613.917969 94.199219 C 610.742188 94.921875 607.144531 95.511719 603.117188 95.96875 C 599.175781 96.417969 595.480469 97.207031 592.035156 98.335938 C 588.222656 99.582031 584.90625 101.859375 583.140625 105.519531 Z M 583.140625 105.519531 " fill-opacity="1" fill-rule="nonzero"/><path fill="#000000" d="M 359.382812 38.972656 C 366.015625 38.980469 371.671875 43.808594 372.9375 50.183594 C 373.152344 51.261719 373.257812 52.90625 373.253906 55.121094 C 373.214844 82.1875 373.21875 109.144531 373.257812 136 C 373.257812 137.097656 373.125 137.929688 372.851562 138.496094 C 372.25 139.742188 370.984375 140.445312 369.578125 140.445312 C 362.988281 140.4375 356.1875 140.445312 349.179688 140.464844 C 348.4375 140.46875 347.84375 140.367188 347.402344 140.15625 C 346.15625 139.574219 345.308594 138.371094 345.308594 136.996094 C 345.308594 105.542969 345.308594 74.03125 345.308594 42.460938 C 345.308594 41.0625 346.140625 39.808594 347.410156 39.261719 C 347.921875 39.042969 348.589844 38.9375 349.421875 38.941406 C 352.582031 38.960938 355.902344 38.972656 359.382812 38.972656 Z M 359.382812 38.972656 " fill-opacity="1" fill-rule="nonzero"/><g clip-path="url(#44cebe8007)"><path fill="#000000" d="M 808.132812 55.125 C 808.132812 55.652344 808.109375 56.183594 808.054688 56.707031 C 808.003906 57.234375 807.925781 57.757812 807.824219 58.277344 C 807.71875 58.796875 807.589844 59.308594 807.4375 59.816406 C 807.285156 60.320312 807.105469 60.820312 806.902344 61.308594 C 806.699219 61.796875 806.472656 62.273438 806.222656 62.742188 C 805.972656 63.207031 805.703125 63.660156 805.40625 64.101562 C 805.113281 64.542969 804.796875 64.964844 804.460938 65.375 C 804.125 65.785156 803.773438 66.175781 803.398438 66.550781 C 803.023438 66.925781 802.628906 67.277344 802.222656 67.613281 C 801.8125 67.949219 801.386719 68.265625 800.945312 68.558594 C 800.507812 68.855469 800.050781 69.125 799.585938 69.375 C 799.117188 69.625 798.640625 69.851562 798.152344 70.054688 C 797.660156 70.253906 797.164062 70.433594 796.65625 70.585938 C 796.148438 70.742188 795.636719 70.867188 795.117188 70.972656 C 794.597656 71.074219 794.074219 71.152344 793.546875 71.203125 C 793.019531 71.257812 792.492188 71.28125 791.960938 71.28125 C 791.433594 71.28125 790.90625 71.257812 790.378906 71.203125 C 789.851562 71.152344 789.328125 71.074219 788.808594 70.972656 C 788.289062 70.867188 787.773438 70.742188 787.269531 70.585938 C 786.761719 70.433594 786.261719 70.253906 785.773438 70.054688 C 785.285156 69.851562 784.804688 69.625 784.339844 69.375 C 783.871094 69.125 783.417969 68.855469 782.976562 68.558594 C 782.539062 68.265625 782.113281 67.949219 781.703125 67.613281 C 781.292969 67.277344 780.902344 66.925781 780.527344 66.550781 C 780.152344 66.175781 779.796875 65.785156 779.460938 65.375 C 779.125 64.964844 778.8125 64.542969 778.515625 64.101562 C 778.222656 63.660156 777.949219 63.207031 777.699219 62.742188 C 777.449219 62.273438 777.226562 61.796875 777.023438 61.308594 C 776.820312 60.820312 776.640625 60.320312 776.488281 59.816406 C 776.332031 59.308594 776.207031 58.796875 776.101562 58.277344 C 776 57.757812 775.921875 57.234375 775.871094 56.707031 C 775.816406 56.183594 775.792969 55.652344 775.792969 55.125 C 775.792969 54.59375 775.816406 54.066406 775.871094 53.539062 C 775.921875 53.015625 776 52.492188 776.101562 51.972656 C 776.207031 51.453125 776.335938 50.941406 776.488281 50.433594 C 776.640625 49.929688 776.820312 49.429688 777.023438 48.941406 C 777.226562 48.453125 777.453125 47.972656 777.699219 47.507812 C 777.949219 47.042969 778.222656 46.585938 778.515625 46.148438 C 778.8125 45.707031 779.125 45.28125 779.460938 44.875 C 779.796875 44.464844 780.152344 44.074219 780.527344 43.699219 C 780.902344 43.324219 781.292969 42.96875 781.703125 42.632812 C 782.113281 42.296875 782.539062 41.984375 782.976562 41.691406 C 783.417969 41.394531 783.871094 41.125 784.339844 40.875 C 784.804688 40.625 785.285156 40.398438 785.773438 40.195312 C 786.261719 39.992188 786.761719 39.816406 787.269531 39.664062 C 787.773438 39.507812 788.289062 39.378906 788.808594 39.277344 C 789.328125 39.171875 789.851562 39.097656 790.378906 39.042969 C 790.90625 38.992188 791.433594 38.964844 791.960938 38.964844 C 792.492188 38.964844 793.019531 38.992188 793.546875 39.042969 C 794.074219 39.097656 794.597656 39.171875 795.117188 39.277344 C 795.636719 39.378906 796.148438 39.507812 796.65625 39.664062 C 797.164062 39.816406 797.660156 39.992188 798.152344 40.195312 C 798.640625 40.398438 799.117188 40.625 799.585938 40.875 C 800.050781 41.125 800.507812 41.394531 800.945312 41.691406 C 801.386719 41.984375 801.8125 42.296875 802.222656 42.632812 C 802.628906 42.96875 803.023438 43.324219 803.398438 43.699219 C 803.773438 44.074219 804.125 44.464844 804.460938 44.875 C 804.796875 45.28125 805.113281 45.707031 805.40625 46.148438 C 805.703125 46.585938 805.972656 47.042969 806.222656 47.507812 C 806.472656 47.972656 806.699219 48.453125 806.902344 48.941406 C 807.105469 49.429688 807.285156 49.929688 807.4375 50.433594 C 807.589844 50.941406 807.71875 51.453125 807.824219 51.972656 C 807.925781 52.492188 808.003906 53.015625 808.054688 53.539062 C 808.109375 54.066406 808.132812 54.59375 808.132812 55.125 Z M 805.398438 55.125 C 805.398438 54.242188 805.3125 53.371094 805.140625 52.503906 C 804.96875 51.640625 804.714844 50.800781 804.378906 49.984375 C 804.039062 49.171875 803.625 48.398438 803.136719 47.664062 C 802.644531 46.933594 802.089844 46.253906 801.464844 45.628906 C 800.839844 45.007812 800.160156 44.449219 799.429688 43.960938 C 798.695312 43.46875 797.921875 43.058594 797.105469 42.71875 C 796.289062 42.382812 795.449219 42.128906 794.582031 41.957031 C 793.71875 41.785156 792.84375 41.699219 791.960938 41.699219 C 791.082031 41.699219 790.207031 41.785156 789.339844 41.957031 C 788.476562 42.128906 787.636719 42.382812 786.820312 42.71875 C 786.003906 43.058594 785.230469 43.46875 784.496094 43.960938 C 783.761719 44.449219 783.085938 45.007812 782.460938 45.628906 C 781.835938 46.253906 781.28125 46.933594 780.789062 47.664062 C 780.300781 48.398438 779.886719 49.171875 779.546875 49.984375 C 779.210938 50.800781 778.953125 51.640625 778.78125 52.503906 C 778.609375 53.371094 778.523438 54.242188 778.523438 55.125 C 778.523438 56.007812 778.609375 56.878906 778.78125 57.742188 C 778.953125 58.609375 779.210938 59.449219 779.546875 60.261719 C 779.886719 61.078125 780.300781 61.851562 780.789062 62.585938 C 781.28125 63.316406 781.835938 63.996094 782.460938 64.617188 C 783.085938 65.242188 783.761719 65.800781 784.496094 66.289062 C 785.230469 66.777344 786.003906 67.191406 786.820312 67.53125 C 787.636719 67.867188 788.476562 68.121094 789.339844 68.292969 C 790.207031 68.464844 791.078125 68.550781 791.960938 68.550781 C 792.84375 68.550781 793.71875 68.464844 794.585938 68.292969 C 795.449219 68.121094 796.289062 67.867188 797.105469 67.53125 C 797.921875 67.191406 798.695312 66.777344 799.429688 66.289062 C 800.160156 65.800781 800.839844 65.242188 801.464844 64.617188 C 802.089844 63.996094 802.644531 63.316406 803.136719 62.585938 C 803.625 61.851562 804.039062 61.078125 804.378906 60.261719 C 804.714844 59.449219 804.96875 58.609375 805.140625 57.742188 C 805.3125 56.878906 805.398438 56.007812 805.398438 55.125 Z M 805.398438 55.125 " fill-opacity="1" fill-rule="nonzero"/></g><path fill="#000000" d="M 794.769531 56.925781 C 794.6875 56.945312 794.667969 56.992188 794.710938 57.0625 L 798.566406 63.679688 C 798.617188 63.773438 798.589844 63.820312 798.484375 63.820312 L 795.421875 63.820312 C 795.308594 63.820312 795.222656 63.769531 795.167969 63.671875 L 791.679688 57.582031 C 791.617188 57.476562 791.527344 57.421875 791.40625 57.421875 L 790.25 57.421875 C 790.132812 57.421875 790.074219 57.480469 790.074219 57.597656 L 790.074219 63.679688 C 790.074219 63.773438 790.027344 63.820312 789.933594 63.820312 L 787.179688 63.820312 C 787.074219 63.820312 787.019531 63.765625 787.019531 63.65625 L 787.019531 47.921875 C 787.019531 47.828125 787.066406 47.78125 787.15625 47.78125 C 790.5 47.730469 792.78125 47.746094 793.996094 47.828125 C 797.011719 48.03125 798.277344 50.429688 797.976562 53.195312 C 797.75 55.253906 796.683594 56.496094 794.769531 56.925781 Z M 790.089844 50.46875 L 790.066406 54.679688 C 790.066406 54.761719 790.105469 54.800781 790.1875 54.800781 L 792.667969 54.8125 C 792.953125 54.8125 793.226562 54.765625 793.492188 54.667969 C 793.757812 54.570312 793.988281 54.429688 794.191406 54.246094 C 794.394531 54.0625 794.550781 53.851562 794.664062 53.613281 C 794.773438 53.375 794.828125 53.125 794.832031 52.867188 L 794.835938 52.335938 C 794.839844 52.074219 794.785156 51.824219 794.675781 51.582031 C 794.570312 51.34375 794.414062 51.128906 794.210938 50.945312 C 794.011719 50.757812 793.777344 50.617188 793.515625 50.515625 C 793.25 50.414062 792.976562 50.363281 792.691406 50.363281 L 790.207031 50.351562 C 790.128906 50.351562 790.089844 50.390625 790.089844 50.46875 Z M 790.089844 50.46875 " fill-opacity="1" fill-rule="nonzero"/></svg>