<svg xmlns="http://www.w3.org/2000/svg" xmlns:xlink="http://www.w3.org/1999/xlink" width="1080" zoomAndPan="magnify" viewBox="0 0 810 213.75" height="285" preserveAspectRatio="xMidYMid meet" version="1.0"><defs><clipPath id="cac7fb8e13"><path d="M 0.472656 0.0546875 L 203 0.0546875 L 203 201 L 0.472656 201 Z M 0.472656 0.0546875 " clip-rule="nonzero"/></clipPath></defs><g clip-path="url(#cac7fb8e13)"><path fill="#000000" d="M 0.480469 103.441406 L 0.480469 95.867188 C 3.695312 48 38.007812 9.703125 85.214844 1.796875 C 131.089844 -5.898438 175.867188 19.292969 194.183594 61.441406 C 204.640625 85.511719 205.207031 113.808594 194.972656 138.453125 C 180.945312 172.257812 151.042969 195.1875 114.644531 200.324219 C 114.234375 200.382812 114.027344 200.203125 114.027344 199.785156 L 114.019531 186.863281 C 114.019531 186.390625 114.253906 186.121094 114.726562 186.054688 C 131.632812 183.726562 147.550781 177.203125 157.957031 163.441406 C 158.015625 163.359375 158.023438 163.273438 157.976562 163.1875 C 157.929688 163.097656 157.855469 163.054688 157.757812 163.058594 L 44.996094 163.058594 C 44.925781 163.054688 44.875 163.085938 44.84375 163.148438 C 44.808594 163.210938 44.8125 163.273438 44.855469 163.328125 C 55.058594 177.398438 71.421875 183.515625 88.167969 186.105469 C 88.59375 186.171875 88.804688 186.421875 88.804688 186.851562 L 88.804688 200.007812 C 88.808594 200.105469 88.769531 200.1875 88.695312 200.253906 C 88.621094 200.320312 88.53125 200.34375 88.433594 200.332031 C 64.101562 197.078125 42.113281 185.558594 25.832031 167.203125 C 10.050781 149.417969 1.597656 128.164062 0.480469 103.441406 Z M 100.902344 5.566406 C 101.648438 16.125 94.742188 25.066406 87.625 31.953125 C 74.097656 45.066406 60.371094 58.507812 46.441406 72.28125 C 30.101562 88.453125 28.078125 108.273438 44.886719 125.566406 C 45.289062 125.992188 45.417969 125.917969 45.269531 125.34375 C 43.976562 120.324219 43.300781 115.964844 43.246094 112.269531 C 43.097656 101.621094 48.484375 91.609375 55.890625 84.328125 C 71.21875 69.238281 86.761719 53.90625 102.519531 38.332031 C 113.441406 27.542969 114.058594 14.902344 101.386719 5.316406 C 101.035156 5.046875 100.875 5.128906 100.902344 5.566406 Z M 128.894531 12.433594 C 127.476562 23.488281 118.640625 33.136719 110.710938 40.691406 C 95.863281 54.816406 81.160156 69.460938 65.972656 84.257812 C 53.421875 96.484375 45.382812 113.644531 57.101562 129.480469 C 57.453125 129.945312 57.625 129.890625 57.617188 129.308594 C 57.578125 117.101562 66.882812 104.472656 75.660156 96.128906 C 93.957031 78.734375 111.339844 61.683594 127.800781 44.976562 C 137.1875 35.460938 139.390625 22.597656 129.511719 12.230469 C 129.167969 11.867188 128.960938 11.933594 128.894531 12.433594 Z M 76.398438 158.089844 C 76.40625 158.125 76.421875 158.15625 76.449219 158.183594 C 76.480469 158.222656 76.5 158.214844 76.5 158.160156 C 76.570312 156.808594 75.890625 155.480469 75.691406 154.117188 C 72.371094 131.3125 88.433594 115.375 103.246094 101.15625 C 113.5625 91.246094 124.0625 80.949219 134.75 70.269531 C 144.125 60.894531 147.664062 50.042969 142.304688 36.917969 C 142.082031 36.371094 141.886719 36.382812 141.71875 36.949219 C 141.070312 39.152344 140.144531 41.085938 138.945312 42.753906 C 134.71875 48.632812 129.9375 54.164062 124.597656 59.347656 C 110.503906 73.027344 95.945312 87.238281 80.917969 101.972656 C 66.367188 116.242188 57.585938 142.648438 76.316406 157.949219 C 76.363281 157.984375 76.390625 158.03125 76.398438 158.089844 Z M 165.28125 46.960938 C 165.113281 46.554688 164.941406 46.550781 164.765625 46.949219 C 161.042969 55.496094 152.902344 63.636719 146.207031 70.109375 C 132.15625 83.699219 118.089844 97.425781 104.007812 111.289062 C 89.566406 125.507812 84.710938 140.382812 98.574219 157.523438 C 98.960938 158.011719 99.125 157.941406 99.070312 157.324219 C 98.484375 150.648438 99.785156 144.382812 102.972656 138.523438 C 106.960938 131.179688 112.003906 124.542969 118.105469 118.609375 C 130.644531 106.394531 143.878906 93.488281 157.808594 79.886719 C 167.28125 70.632812 170.792969 60.308594 165.28125 46.960938 Z M 164.523438 83.335938 C 162.769531 86.269531 160.621094 88.941406 158.078125 91.355469 C 148.609375 100.355469 139.191406 109.3125 129.835938 118.226562 C 119.46875 128.097656 111.703125 145.195312 121.390625 157.847656 C 121.480469 157.96875 121.597656 158.007812 121.746094 157.96875 C 121.890625 157.929688 121.980469 157.835938 122.007812 157.6875 C 123.382812 149.210938 129.480469 140.414062 135.273438 134.355469 C 141.289062 128.066406 147.855469 121.53125 154.976562 114.746094 C 163.933594 106.210938 167.910156 95.816406 164.652344 83.355469 C 164.648438 83.324219 164.628906 83.304688 164.59375 83.300781 C 164.5625 83.296875 164.539062 83.308594 164.523438 83.335938 Z M 164.523438 83.335938 " fill-opacity="1" fill-rule="nonzero"/></g><path fill="#000000" d="M 490.3125 29.210938 C 490.21875 25.207031 487.601562 24.601562 483.96875 24.609375 C 483.882812 24.609375 483.839844 24.566406 483.839844 24.480469 L 483.828125 21.859375 C 483.828125 21.730469 483.890625 21.660156 484.019531 21.648438 C 490.054688 20.90625 495.882812 19.738281 501.503906 18.148438 C 501.898438 18.039062 502.09375 18.1875 502.09375 18.59375 C 502.140625 40.605469 502.125 61.261719 502.050781 80.566406 C 502.046875 82.472656 502.234375 84.238281 502.617188 85.855469 C 502.734375 86.328125 502.949219 86.75 503.273438 87.113281 C 503.59375 87.480469 503.984375 87.746094 504.4375 87.917969 C 505.855469 88.457031 507.347656 88.746094 508.917969 88.789062 C 509.242188 88.800781 509.40625 88.96875 509.414062 89.292969 L 509.414062 91.558594 C 509.414062 91.691406 509.367188 91.804688 509.273438 91.902344 C 509.175781 91.996094 509.0625 92.042969 508.929688 92.042969 L 483.847656 92.042969 C 483.519531 92.042969 483.351562 91.878906 483.351562 91.546875 L 483.382812 89.109375 C 483.382812 88.910156 483.484375 88.804688 483.6875 88.796875 C 487.570312 88.574219 490.433594 87.734375 490.460938 83.144531 C 490.652344 59.191406 490.601562 41.210938 490.3125 29.210938 Z M 490.3125 29.210938 " fill-opacity="1" fill-rule="nonzero"/><path fill="#000000" d="M 550.089844 22.527344 L 537.183594 39.941406 C 537.039062 40.136719 536.851562 40.265625 536.617188 40.328125 C 536.382812 40.390625 536.152344 40.371094 535.929688 40.277344 L 534.445312 39.636719 C 534.191406 39.53125 534.007812 39.351562 533.898438 39.101562 C 533.785156 38.847656 533.777344 38.59375 533.867188 38.332031 L 539.367188 22.496094 C 539.511719 22.082031 539.800781 21.847656 540.238281 21.800781 L 549.136719 20.867188 C 549.34375 20.84375 549.539062 20.882812 549.726562 20.976562 C 549.910156 21.070312 550.054688 21.207031 550.15625 21.386719 C 550.261719 21.566406 550.304688 21.757812 550.292969 21.96875 C 550.28125 22.175781 550.210938 22.359375 550.089844 22.527344 Z M 550.089844 22.527344 " fill-opacity="1" fill-rule="nonzero"/><path fill="#000000" d="M 268.847656 27.835938 C 268.921875 45.414062 268.921875 62.945312 268.847656 80.433594 C 268.816406 87.804688 272.710938 87.957031 278.71875 88.566406 C 278.886719 88.582031 279.03125 88.65625 279.144531 88.785156 C 279.257812 88.910156 279.316406 89.0625 279.3125 89.230469 L 279.324219 91.4375 C 279.324219 91.839844 279.125 92.042969 278.726562 92.042969 L 247.207031 92.042969 C 246.875 92.042969 246.714844 91.878906 246.71875 91.546875 L 246.730469 89.058594 C 246.730469 88.898438 246.789062 88.761719 246.902344 88.644531 C 247.015625 88.53125 247.15625 88.472656 247.316406 88.472656 C 254.75 88.433594 256.742188 86.15625 256.753906 79.816406 C 256.785156 61.378906 256.789062 43.964844 256.761719 27.574219 C 256.761719 27.457031 256.722656 27.359375 256.640625 27.277344 C 256.5625 27.195312 256.464844 27.152344 256.347656 27.148438 C 253.039062 27.121094 249.546875 27.214844 245.871094 27.433594 C 239.035156 27.828125 237.496094 34.5625 236.210938 40.03125 C 236.179688 40.171875 236.105469 40.285156 235.992188 40.375 C 235.878906 40.464844 235.75 40.507812 235.605469 40.507812 L 233.058594 40.496094 C 232.714844 40.496094 232.550781 40.324219 232.570312 39.980469 L 233.644531 22.992188 C 233.664062 22.660156 233.839844 22.496094 234.167969 22.496094 L 291.410156 22.496094 C 291.746094 22.496094 291.925781 22.664062 291.945312 23.003906 L 292.894531 39.757812 C 292.902344 39.878906 292.863281 39.984375 292.78125 40.074219 C 292.703125 40.160156 292.601562 40.210938 292.480469 40.214844 L 289.902344 40.347656 C 289.671875 40.359375 289.527344 40.253906 289.46875 40.03125 C 288.050781 34.582031 286.707031 27.9375 279.921875 27.433594 C 276.3125 27.164062 272.835938 27.078125 269.484375 27.179688 C 269.054688 27.191406 268.839844 27.410156 268.847656 27.835938 Z M 268.847656 27.835938 " fill-opacity="1" fill-rule="nonzero"/><path fill="#000000" d="M 635.734375 30.425781 C 635.734375 30.859375 635.691406 31.289062 635.609375 31.714844 C 635.523438 32.140625 635.398438 32.554688 635.230469 32.957031 C 635.066406 33.359375 634.863281 33.738281 634.621094 34.101562 C 634.378906 34.460938 634.105469 34.796875 633.796875 35.101562 C 633.492188 35.410156 633.15625 35.683594 632.796875 35.925781 C 632.433594 36.164062 632.054688 36.371094 631.652344 36.535156 C 631.25 36.703125 630.835938 36.828125 630.410156 36.914062 C 629.984375 36.996094 629.554688 37.039062 629.121094 37.039062 C 628.6875 37.039062 628.257812 36.996094 627.832031 36.914062 C 627.40625 36.828125 626.992188 36.703125 626.589844 36.535156 C 626.1875 36.371094 625.808594 36.164062 625.445312 35.925781 C 625.085938 35.683594 624.75 35.410156 624.445312 35.101562 C 624.136719 34.796875 623.863281 34.460938 623.621094 34.101562 C 623.378906 33.738281 623.175781 33.359375 623.011719 32.957031 C 622.84375 32.554688 622.71875 32.140625 622.632812 31.714844 C 622.550781 31.289062 622.507812 30.859375 622.507812 30.425781 C 622.507812 29.992188 622.550781 29.5625 622.632812 29.136719 C 622.71875 28.710938 622.84375 28.296875 623.011719 27.894531 C 623.175781 27.492188 623.378906 27.113281 623.621094 26.75 C 623.863281 26.390625 624.136719 26.054688 624.445312 25.75 C 624.75 25.441406 625.085938 25.167969 625.445312 24.925781 C 625.808594 24.683594 626.1875 24.480469 626.589844 24.316406 C 626.992188 24.148438 627.40625 24.023438 627.832031 23.9375 C 628.257812 23.855469 628.6875 23.8125 629.121094 23.8125 C 629.554688 23.8125 629.984375 23.855469 630.410156 23.9375 C 630.835938 24.023438 631.25 24.148438 631.652344 24.316406 C 632.054688 24.480469 632.433594 24.683594 632.796875 24.925781 C 633.15625 25.167969 633.492188 25.441406 633.796875 25.75 C 634.105469 26.054688 634.378906 26.390625 634.621094 26.75 C 634.863281 27.113281 635.066406 27.492188 635.230469 27.894531 C 635.398438 28.296875 635.523438 28.710938 635.609375 29.136719 C 635.691406 29.5625 635.734375 29.992188 635.734375 30.425781 Z M 635.734375 30.425781 " fill-opacity="1" fill-rule="nonzero"/><path fill="#000000" d="M 297.183594 66.679688 C 297.246094 71.714844 298.550781 75.894531 301.097656 79.210938 C 306.699219 86.523438 316.5 85.792969 323.113281 80.140625 C 323.457031 79.851562 323.757812 79.886719 324.011719 80.25 L 325.085938 81.777344 C 325.292969 82.082031 325.289062 82.382812 325.074219 82.679688 C 319.714844 89.992188 311.300781 94.886719 302.109375 92.722656 C 285.484375 88.816406 281.710938 68.863281 290.195312 56.113281 C 294.34375 49.871094 301.785156 44.503906 309.398438 44.695312 C 318.550781 44.9375 325.984375 52.511719 325.78125 61.605469 C 325.742188 63.519531 324.738281 64.570312 322.769531 64.757812 C 314.417969 65.546875 305.980469 66.085938 297.46875 66.375 C 297.386719 66.378906 297.316406 66.410156 297.261719 66.46875 C 297.207031 66.527344 297.179688 66.597656 297.183594 66.679688 Z M 298.378906 61.734375 L 314.457031 61.390625 C 314.589844 61.390625 314.660156 61.324219 314.660156 61.1875 L 314.636719 60.308594 C 314.621094 59.546875 314.554688 58.792969 314.433594 58.046875 C 314.3125 57.300781 314.140625 56.574219 313.917969 55.875 C 313.699219 55.175781 313.429688 54.511719 313.117188 53.882812 C 312.804688 53.253906 312.449219 52.675781 312.054688 52.140625 C 311.664062 51.609375 311.238281 51.136719 310.777344 50.722656 C 310.320312 50.308594 309.839844 49.960938 309.332031 49.679688 C 308.828125 49.398438 308.308594 49.1875 307.773438 49.050781 C 307.242188 48.914062 306.703125 48.851562 306.164062 48.859375 L 306.144531 48.859375 C 305.601562 48.871094 305.070312 48.957031 304.542969 49.117188 C 304.015625 49.277344 303.503906 49.507812 303.011719 49.8125 C 302.519531 50.113281 302.050781 50.480469 301.609375 50.914062 C 301.171875 51.347656 300.765625 51.835938 300.394531 52.386719 C 300.023438 52.933594 299.695312 53.527344 299.40625 54.167969 C 299.121094 54.808594 298.878906 55.484375 298.6875 56.191406 C 298.496094 56.902344 298.355469 57.632812 298.265625 58.382812 C 298.175781 59.132812 298.136719 59.890625 298.15625 60.652344 L 298.175781 61.53125 C 298.175781 61.667969 298.242188 61.734375 298.378906 61.734375 Z M 298.378906 61.734375 " fill-opacity="1" fill-rule="nonzero"/><path fill="#000000" d="M 343.175781 60.792969 C 342.367188 65.910156 342.792969 70.542969 344.453125 74.691406 C 348.667969 85.246094 360.742188 87.523438 369.054688 80.140625 C 369.199219 80.015625 369.363281 79.957031 369.550781 79.976562 C 369.742188 79.992188 369.890625 80.074219 370.007812 80.222656 L 371.128906 81.6875 C 371.359375 81.984375 371.359375 82.28125 371.128906 82.578125 C 365.464844 89.777344 358.0625 94.875 348.515625 92.761719 C 332.921875 89.304688 327.007812 72.191406 334.582031 59.054688 C 340.316406 49.09375 355.566406 41.09375 366.792969 46.414062 C 373.859375 49.761719 367.628906 58.308594 364.304688 55.476562 C 362.980469 54.355469 361.585938 53.308594 360.117188 52.328125 C 351.613281 46.71875 344.574219 51.945312 343.175781 60.792969 Z M 343.175781 60.792969 " fill-opacity="1" fill-rule="nonzero"/><path fill="#000000" d="M 392.902344 51.886719 C 392.90625 51.992188 392.953125 52.070312 393.050781 52.121094 C 393.144531 52.171875 393.238281 52.167969 393.328125 52.109375 C 398.28125 48.589844 403.117188 44.199219 409.546875 44.734375 C 418.589844 45.492188 421.824219 53.554688 421.785156 61.472656 C 421.75 68.375 421.765625 75.949219 421.824219 84.195312 C 421.855469 87.695312 424.433594 88.574219 427.679688 88.796875 C 427.972656 88.816406 428.121094 88.976562 428.125 89.273438 L 428.144531 91.617188 C 428.144531 91.902344 428 92.042969 427.710938 92.042969 L 404.976562 92.042969 C 404.648438 92.042969 404.484375 91.882812 404.492188 91.558594 L 404.503906 89.292969 C 404.503906 88.960938 404.667969 88.789062 404.996094 88.777344 C 406.40625 88.714844 407.660156 88.34375 408.761719 87.664062 C 409.097656 87.460938 409.328125 87.171875 409.449219 86.796875 C 409.917969 85.34375 410.164062 83.734375 410.1875 81.960938 C 410.320312 72.375 410.253906 65 409.984375 59.84375 C 409.730469 55.183594 406.292969 51.640625 401.398438 52.15625 C 398.605469 52.449219 395.917969 53.65625 393.328125 55.789062 C 393.023438 56.039062 392.871094 56.359375 392.871094 56.75 C 392.914062 64.460938 392.910156 72.902344 392.863281 82.070312 C 392.847656 83.859375 393.097656 85.460938 393.609375 86.875 C 393.726562 87.199219 393.925781 87.457031 394.21875 87.644531 C 395.296875 88.34375 396.527344 88.714844 397.910156 88.757812 C 398.265625 88.769531 398.449219 88.953125 398.453125 89.304688 L 398.515625 91.445312 C 398.523438 91.84375 398.328125 92.042969 397.929688 92.042969 L 374.457031 92.042969 C 374.34375 92.042969 374.246094 92.003906 374.164062 91.921875 C 374.082031 91.839844 374.042969 91.742188 374.042969 91.628906 L 374.042969 89.464844 C 374.042969 89.148438 374.199219 88.957031 374.515625 88.886719 L 378.703125 88.070312 C 379.222656 87.964844 379.671875 87.726562 380.054688 87.359375 C 380.4375 86.992188 380.691406 86.550781 380.816406 86.035156 C 381.1875 84.484375 381.371094 82.730469 381.363281 80.769531 C 381.308594 71.855469 381.277344 63.578125 381.261719 55.941406 C 381.253906 52.917969 378.867188 51.640625 376.144531 51.449219 C 375.660156 51.417969 375.417969 51.15625 375.417969 50.671875 L 375.40625 49.105469 C 375.40625 48.660156 375.625 48.40625 376.066406 48.34375 C 381.574219 47.507812 386.957031 46.25 392.214844 44.5625 C 392.660156 44.421875 392.882812 44.585938 392.882812 45.058594 Z M 392.902344 51.886719 " fill-opacity="1" fill-rule="nonzero"/><path fill="#000000" d="M 443.957031 90.144531 C 443.28125 89.746094 442.625 89.3125 441.992188 88.847656 C 441.359375 88.378906 440.75 87.882812 440.167969 87.355469 C 439.582031 86.828125 439.027344 86.273438 438.496094 85.6875 C 437.96875 85.105469 437.46875 84.496094 437 83.863281 C 436.53125 83.226562 436.09375 82.570312 435.691406 81.890625 C 435.289062 81.214844 434.917969 80.515625 434.582031 79.796875 C 434.246094 79.082031 433.945312 78.347656 433.683594 77.601562 C 433.417969 76.851562 433.191406 76.09375 433.003906 75.320312 C 432.8125 74.550781 432.660156 73.769531 432.546875 72.980469 C 432.433594 72.191406 432.359375 71.398438 432.324219 70.601562 C 432.289062 69.804688 432.292969 69.007812 432.332031 68.210938 C 432.375 67.410156 432.453125 66.617188 432.574219 65.824219 C 432.691406 65.03125 432.847656 64.246094 433.042969 63.46875 C 433.238281 62.691406 433.46875 61.925781 433.738281 61.167969 C 434.007812 60.414062 434.3125 59.671875 434.652344 58.945312 C 434.992188 58.214844 435.367188 57.507812 435.777344 56.816406 C 436.1875 56.125 436.628906 55.453125 437.101562 54.804688 C 437.574219 54.15625 438.078125 53.53125 438.609375 52.933594 C 439.144531 52.332031 439.703125 51.757812 440.292969 51.214844 C 440.878906 50.667969 441.492188 50.152344 442.128906 49.667969 C 442.765625 49.183594 443.421875 48.730469 444.101562 48.308594 C 444.78125 47.886719 445.480469 47.5 446.195312 47.148438 C 446.910156 46.796875 447.640625 46.480469 448.386719 46.199219 C 449.132812 45.917969 449.890625 45.675781 450.65625 45.46875 C 451.425781 45.261719 452.199219 45.09375 452.984375 44.964844 C 453.765625 44.835938 454.550781 44.746094 455.339844 44.695312 C 456.132812 44.644531 456.921875 44.632812 457.710938 44.660156 C 458.5 44.6875 459.285156 44.753906 460.066406 44.859375 C 460.847656 44.964844 461.625 45.105469 462.390625 45.289062 C 463.15625 45.472656 463.910156 45.691406 464.65625 45.949219 C 465.398438 46.207031 466.125 46.5 466.839844 46.832031 C 467.554688 47.164062 468.25 47.527344 468.925781 47.929688 C 469.601562 48.328125 470.257812 48.761719 470.890625 49.226562 C 471.523438 49.695312 472.132812 50.191406 472.71875 50.71875 C 473.300781 51.246094 473.859375 51.800781 474.386719 52.382812 C 474.917969 52.96875 475.414062 53.578125 475.882812 54.210938 C 476.351562 54.847656 476.789062 55.503906 477.191406 56.179688 C 477.597656 56.859375 477.96875 57.558594 478.304688 58.273438 C 478.636719 58.992188 478.9375 59.722656 479.203125 60.472656 C 479.464844 61.21875 479.691406 61.980469 479.882812 62.753906 C 480.070312 63.523438 480.222656 64.304688 480.335938 65.09375 C 480.449219 65.878906 480.523438 66.671875 480.558594 67.472656 C 480.597656 68.269531 480.59375 69.066406 480.550781 69.863281 C 480.511719 70.664062 480.429688 71.457031 480.3125 72.25 C 480.191406 73.042969 480.035156 73.828125 479.839844 74.605469 C 479.644531 75.382812 479.414062 76.148438 479.144531 76.90625 C 478.875 77.660156 478.570312 78.402344 478.230469 79.128906 C 477.890625 79.855469 477.515625 80.566406 477.105469 81.257812 C 476.699219 81.949219 476.257812 82.617188 475.785156 83.269531 C 475.3125 83.917969 474.808594 84.542969 474.273438 85.140625 C 473.742188 85.742188 473.179688 86.3125 472.59375 86.859375 C 472.003906 87.40625 471.394531 87.917969 470.757812 88.40625 C 470.121094 88.890625 469.460938 89.34375 468.78125 89.765625 C 468.101562 90.1875 467.40625 90.574219 466.6875 90.925781 C 465.972656 91.277344 465.242188 91.59375 464.496094 91.875 C 463.75 92.15625 462.996094 92.398438 462.226562 92.605469 C 461.460938 92.808594 460.683594 92.976562 459.902344 93.105469 C 459.121094 93.234375 458.332031 93.328125 457.542969 93.378906 C 456.753906 93.429688 455.964844 93.441406 455.175781 93.414062 C 454.382812 93.386719 453.597656 93.320312 452.816406 93.214844 C 452.035156 93.109375 451.261719 92.964844 450.496094 92.785156 C 449.730469 92.601562 448.972656 92.382812 448.230469 92.125 C 447.488281 91.867188 446.757812 91.570312 446.042969 91.242188 C 445.332031 90.910156 444.636719 90.546875 443.957031 90.144531 Z M 465.230469 57.273438 C 463.90625 52.785156 460.285156 48.476562 455.28125 48.589844 C 449.058594 48.738281 446.378906 56.292969 445.824219 61.613281 C 445.015625 69.429688 445.84375 79.058594 450.484375 85.328125 C 455.167969 91.648438 463.59375 90.355469 465.726562 82.636719 C 467.984375 74.460938 467.820312 66.007812 465.230469 57.273438 Z M 465.230469 57.273438 " fill-opacity="1" fill-rule="nonzero"/><path fill="#000000" d="M 524.785156 90.125 C 524.109375 89.722656 523.453125 89.289062 522.820312 88.820312 C 522.1875 88.351562 521.582031 87.855469 521 87.328125 C 520.414062 86.796875 519.859375 86.242188 519.332031 85.65625 C 518.804688 85.074219 518.304688 84.464844 517.839844 83.828125 C 517.371094 83.191406 516.933594 82.535156 516.53125 81.855469 C 516.128906 81.175781 515.761719 80.476562 515.425781 79.761719 C 515.09375 79.042969 514.792969 78.308594 514.53125 77.5625 C 514.269531 76.8125 514.042969 76.050781 513.855469 75.28125 C 513.667969 74.507812 513.515625 73.726562 513.40625 72.9375 C 513.292969 72.152344 513.21875 71.359375 513.183594 70.558594 C 513.152344 69.761719 513.15625 68.964844 513.199219 68.167969 C 513.242188 67.367188 513.320312 66.574219 513.441406 65.78125 C 513.5625 64.992188 513.71875 64.207031 513.917969 63.429688 C 514.113281 62.652344 514.347656 61.882812 514.617188 61.128906 C 514.886719 60.375 515.191406 59.632812 515.535156 58.90625 C 515.875 58.179688 516.253906 57.46875 516.660156 56.78125 C 517.070312 56.089844 517.515625 55.417969 517.988281 54.773438 C 518.464844 54.125 518.96875 53.5 519.5 52.902344 C 520.035156 52.300781 520.597656 51.730469 521.183594 51.1875 C 521.773438 50.640625 522.386719 50.128906 523.023438 49.644531 C 523.664062 49.160156 524.320312 48.707031 525 48.285156 C 525.683594 47.867188 526.378906 47.480469 527.097656 47.128906 C 527.8125 46.777344 528.546875 46.464844 529.289062 46.183594 C 530.035156 45.90625 530.792969 45.664062 531.5625 45.457031 C 532.328125 45.253906 533.105469 45.089844 533.886719 44.960938 C 534.671875 44.832031 535.457031 44.742188 536.246094 44.695312 C 537.035156 44.644531 537.828125 44.632812 538.617188 44.660156 C 539.40625 44.691406 540.191406 44.757812 540.972656 44.863281 C 541.753906 44.972656 542.527344 45.117188 543.292969 45.300781 C 544.058594 45.484375 544.816406 45.703125 545.558594 45.964844 C 546.300781 46.222656 547.03125 46.519531 547.742188 46.851562 C 548.457031 47.183594 549.148438 47.546875 549.824219 47.949219 C 550.503906 48.351562 551.15625 48.785156 551.789062 49.253906 C 552.421875 49.71875 553.03125 50.21875 553.613281 50.746094 C 554.195312 51.273438 554.75 51.832031 555.28125 52.414062 C 555.808594 53 556.304688 53.609375 556.773438 54.246094 C 557.242188 54.878906 557.675781 55.539062 558.078125 56.21875 C 558.480469 56.898438 558.851562 57.597656 559.183594 58.3125 C 559.519531 59.03125 559.816406 59.761719 560.082031 60.511719 C 560.34375 61.261719 560.566406 62.019531 560.757812 62.792969 C 560.945312 63.566406 561.09375 64.34375 561.207031 65.132812 C 561.316406 65.921875 561.390625 66.714844 561.425781 67.511719 C 561.460938 68.308594 561.457031 69.109375 561.414062 69.90625 C 561.371094 70.703125 561.289062 71.5 561.167969 72.292969 C 561.050781 73.082031 560.890625 73.867188 560.695312 74.644531 C 560.5 75.421875 560.265625 76.1875 559.996094 76.945312 C 559.726562 77.699219 559.417969 78.441406 559.078125 79.167969 C 558.734375 79.894531 558.359375 80.601562 557.949219 81.292969 C 557.539062 81.984375 557.097656 82.652344 556.621094 83.300781 C 556.148438 83.949219 555.644531 84.574219 555.109375 85.171875 C 554.574219 85.769531 554.015625 86.34375 553.425781 86.886719 C 552.835938 87.429688 552.222656 87.945312 551.585938 88.429688 C 550.949219 88.914062 550.289062 89.367188 549.609375 89.785156 C 548.929688 90.207031 548.230469 90.59375 547.515625 90.945312 C 546.796875 91.292969 546.066406 91.609375 545.320312 91.890625 C 544.574219 92.167969 543.816406 92.410156 543.050781 92.613281 C 542.28125 92.820312 541.507812 92.984375 540.722656 93.113281 C 539.941406 93.242188 539.152344 93.328125 538.363281 93.378906 C 537.574219 93.429688 536.785156 93.441406 535.996094 93.410156 C 535.207031 93.382812 534.417969 93.316406 533.636719 93.210938 C 532.855469 93.101562 532.082031 92.957031 531.316406 92.773438 C 530.550781 92.589844 529.796875 92.367188 529.054688 92.109375 C 528.308594 91.851562 527.582031 91.554688 526.867188 91.222656 C 526.15625 90.890625 525.460938 90.523438 524.785156 90.125 Z M 546.234375 83.660156 C 549.230469 75.558594 548.671875 62.917969 545.386719 55.414062 C 541.25 45.980469 531.097656 46.445312 527.929688 56.144531 C 525.109375 64.738281 525.878906 79.078125 532.097656 86.21875 C 536.507812 91.273438 543.859375 90.113281 546.234375 83.660156 Z M 546.234375 83.660156 " fill-opacity="1" fill-rule="nonzero"/><path fill="#000000" d="M 576.746094 93.117188 C 572.183594 91.546875 568.796875 87.867188 568.320312 83.132812 C 568.28125 82.75 568.441406 82.488281 568.796875 82.34375 C 572.316406 80.984375 575.40625 79.011719 578.0625 76.429688 C 578.382812 76.117188 578.34375 75.871094 577.9375 75.679688 C 563.710938 68.925781 566.644531 50.722656 580.882812 45.96875 C 587.105469 43.890625 593.148438 44.296875 599.015625 47.183594 C 599.351562 47.351562 599.707031 47.417969 600.078125 47.386719 L 613.609375 46.160156 C 614.671875 46.066406 614.964844 46.496094 614.476562 47.445312 C 613.75 48.882812 612.800781 50.289062 611.636719 51.671875 C 610.980469 52.449219 610.148438 52.796875 609.136719 52.722656 L 604.949219 52.441406 C 604.457031 52.414062 604.355469 52.601562 604.636719 53.007812 C 607.011719 56.4375 607.667969 60.347656 606.609375 64.738281 C 604.089844 75.125 592.625 78.683594 582.957031 76.964844 C 582.644531 76.910156 582.371094 76.980469 582.125 77.175781 C 577.574219 80.796875 582.207031 84.316406 586.070312 84.246094 C 590.6875 84.160156 595.203125 84.175781 599.613281 84.296875 C 607.015625 84.5 612.871094 88.695312 612.992188 96.421875 C 613.09375 102.894531 609.007812 108.679688 603.96875 112.160156 C 596.035156 117.632812 587.425781 119.296875 578.140625 117.152344 C 572.773438 115.921875 566.976562 111.722656 566.542969 105.785156 C 566.15625 100.449219 572.921875 96.714844 576.867188 94.027344 C 577.425781 93.640625 577.386719 93.339844 576.746094 93.117188 Z M 588.890625 73.9375 C 589.402344 73.914062 589.90625 73.808594 590.398438 73.617188 C 590.890625 73.429688 591.367188 73.164062 591.820312 72.816406 C 592.277344 72.472656 592.707031 72.054688 593.109375 71.566406 C 593.511719 71.074219 593.882812 70.523438 594.214844 69.910156 C 594.546875 69.292969 594.839844 68.628906 595.089844 67.914062 C 595.339844 67.195312 595.542969 66.445312 595.703125 65.652344 C 595.863281 64.863281 595.972656 64.050781 596.03125 63.21875 C 596.09375 62.386719 596.101562 61.546875 596.0625 60.699219 C 596.023438 59.855469 595.933594 59.019531 595.796875 58.195312 C 595.65625 57.371094 595.472656 56.574219 595.238281 55.804688 C 595.007812 55.03125 594.730469 54.300781 594.414062 53.613281 C 594.097656 52.921875 593.746094 52.289062 593.355469 51.707031 C 592.964844 51.128906 592.546875 50.613281 592.101562 50.164062 C 591.65625 49.714844 591.1875 49.339844 590.699219 49.039062 C 590.214844 48.734375 589.714844 48.515625 589.207031 48.375 C 588.699219 48.234375 588.1875 48.175781 587.679688 48.199219 C 587.167969 48.222656 586.664062 48.328125 586.171875 48.515625 C 585.679688 48.707031 585.203125 48.972656 584.746094 49.316406 C 584.289062 49.664062 583.863281 50.082031 583.457031 50.570312 C 583.054688 51.058594 582.6875 51.613281 582.355469 52.226562 C 582.023438 52.839844 581.730469 53.507812 581.480469 54.222656 C 581.230469 54.9375 581.023438 55.691406 580.867188 56.480469 C 580.707031 57.269531 580.597656 58.082031 580.539062 58.917969 C 580.476562 59.75 580.464844 60.589844 580.507812 61.433594 C 580.546875 62.28125 580.636719 63.113281 580.773438 63.9375 C 580.914062 64.761719 581.097656 65.558594 581.332031 66.332031 C 581.5625 67.101562 581.835938 67.832031 582.15625 68.523438 C 582.472656 69.210938 582.824219 69.847656 583.214844 70.425781 C 583.601562 71.007812 584.019531 71.523438 584.46875 71.972656 C 584.914062 72.421875 585.382812 72.796875 585.867188 73.097656 C 586.355469 73.398438 586.855469 73.621094 587.363281 73.761719 C 587.871094 73.902344 588.382812 73.960938 588.890625 73.9375 Z M 580.195312 95.898438 C 576.636719 98.871094 575.601562 103.390625 578.515625 107.285156 C 583.855469 114.433594 600.644531 114.738281 603.515625 104.683594 C 605.316406 98.414062 600.988281 94.816406 595.3125 94.148438 C 590.894531 93.621094 583.582031 93.054688 580.195312 95.898438 Z M 580.195312 95.898438 " fill-opacity="1" fill-rule="nonzero"/><path fill="#000000" d="M 623.894531 56.253906 C 623.832031 52.59375 621.605469 51.671875 618.382812 51.441406 C 618.042969 51.417969 617.875 51.238281 617.875 50.894531 L 617.886719 48.859375 C 617.886719 48.503906 618.0625 48.300781 618.410156 48.253906 C 624.324219 47.519531 629.828125 46.34375 634.925781 44.726562 C 635.351562 44.589844 635.5625 44.746094 635.5625 45.191406 C 635.601562 57.609375 635.597656 69.597656 635.542969 81.152344 C 635.511719 87.015625 636.5625 88.097656 642.246094 88.828125 C 642.515625 88.863281 642.652344 89.015625 642.652344 89.292969 L 642.652344 91.558594 C 642.652344 91.882812 642.492188 92.042969 642.167969 92.042969 L 617.328125 92.042969 C 617.152344 92.042969 617.066406 91.960938 617.066406 91.789062 L 617.066406 89.261719 C 617.066406 88.945312 617.226562 88.785156 617.550781 88.777344 C 620.597656 88.714844 623.792969 87.988281 623.871094 84.175781 C 624.039062 75.390625 624.046875 66.082031 623.894531 56.253906 Z M 623.894531 56.253906 " fill-opacity="1" fill-rule="nonzero"/><path fill="#000000" d="M 679.59375 55.476562 C 664.40625 41.832031 655.726562 56.578125 658.640625 70.957031 C 661.109375 83.132812 674.546875 89.453125 684.335938 80.109375 C 684.660156 79.800781 684.960938 79.816406 685.238281 80.160156 L 686.371094 81.535156 C 686.632812 81.859375 686.644531 82.191406 686.402344 82.527344 C 683.71875 86.269531 680.402344 89.167969 676.460938 91.222656 C 668.492188 95.371094 658.429688 92.699219 652.632812 86.542969 C 648.65625 82.316406 646.664062 77.171875 646.65625 71.109375 C 646.625 57.507812 658.0625 47.222656 670.929688 44.976562 C 675.519531 44.175781 679.644531 44.878906 683.304688 47.089844 C 686.886719 49.253906 685.398438 53.675781 682.609375 55.648438 C 682.382812 55.804688 682.140625 55.921875 681.878906 55.996094 C 681.613281 56.074219 681.34375 56.101562 681.070312 56.085938 C 680.796875 56.070312 680.535156 56.011719 680.28125 55.90625 C 680.027344 55.800781 679.800781 55.65625 679.59375 55.476562 Z M 679.59375 55.476562 " fill-opacity="1" fill-rule="nonzero"/><path fill="#000000" d="M 701.441406 90.101562 C 700.765625 89.699219 700.113281 89.261719 699.480469 88.796875 C 698.847656 88.328125 698.242188 87.828125 697.660156 87.296875 C 697.078125 86.769531 696.523438 86.210938 695.996094 85.625 C 695.46875 85.039062 694.972656 84.429688 694.503906 83.792969 C 694.039062 83.15625 693.605469 82.5 693.203125 81.820312 C 692.800781 81.140625 692.433594 80.441406 692.101562 79.722656 C 691.769531 79.003906 691.472656 78.269531 691.210938 77.519531 C 690.949219 76.773438 690.722656 76.011719 690.539062 75.238281 C 690.351562 74.464844 690.203125 73.6875 690.089844 72.898438 C 689.980469 72.109375 689.910156 71.316406 689.875 70.519531 C 689.84375 69.722656 689.847656 68.921875 689.890625 68.125 C 689.9375 67.328125 690.019531 66.53125 690.140625 65.742188 C 690.261719 64.949219 690.421875 64.164062 690.621094 63.386719 C 690.816406 62.609375 691.050781 61.84375 691.324219 61.089844 C 691.59375 60.335938 691.902344 59.59375 692.246094 58.867188 C 692.589844 58.140625 692.964844 57.433594 693.378906 56.742188 C 693.789062 56.054688 694.230469 55.386719 694.707031 54.738281 C 695.183594 54.089844 695.6875 53.46875 696.222656 52.871094 C 696.757812 52.273438 697.320312 51.703125 697.910156 51.15625 C 698.5 50.613281 699.113281 50.101562 699.753906 49.617188 C 700.390625 49.132812 701.050781 48.683594 701.730469 48.265625 C 702.414062 47.847656 703.113281 47.460938 703.828125 47.113281 C 704.546875 46.761719 705.277344 46.449219 706.023438 46.171875 C 706.769531 45.890625 707.527344 45.652344 708.296875 45.449219 C 709.066406 45.246094 709.839844 45.082031 710.625 44.953125 C 711.40625 44.828125 712.191406 44.742188 712.984375 44.691406 C 713.773438 44.644531 714.5625 44.632812 715.351562 44.664062 C 716.140625 44.695312 716.925781 44.761719 717.707031 44.871094 C 718.488281 44.980469 719.265625 45.125 720.03125 45.308594 C 720.796875 45.496094 721.550781 45.71875 722.292969 45.976562 C 723.035156 46.238281 723.761719 46.535156 724.472656 46.867188 C 725.1875 47.199219 725.882812 47.570312 726.554688 47.972656 C 727.230469 48.375 727.886719 48.808594 728.515625 49.277344 C 729.148438 49.746094 729.757812 50.246094 730.339844 50.773438 C 730.921875 51.304688 731.476562 51.863281 732 52.445312 C 732.527344 53.03125 733.027344 53.644531 733.492188 54.28125 C 733.957031 54.914062 734.394531 55.574219 734.792969 56.253906 C 735.195312 56.933594 735.5625 57.632812 735.898438 58.351562 C 736.230469 59.070312 736.527344 59.804688 736.789062 60.550781 C 737.050781 61.300781 737.273438 62.0625 737.460938 62.832031 C 737.648438 63.605469 737.796875 64.386719 737.90625 65.175781 C 738.015625 65.964844 738.089844 66.757812 738.121094 67.554688 C 738.15625 68.351562 738.148438 69.148438 738.105469 69.949219 C 738.0625 70.746094 737.976562 71.542969 737.855469 72.332031 C 737.734375 73.125 737.574219 73.910156 737.378906 74.6875 C 737.179688 75.460938 736.945312 76.230469 736.675781 76.984375 C 736.402344 77.738281 736.09375 78.480469 735.753906 79.207031 C 735.410156 79.933594 735.03125 80.640625 734.621094 81.328125 C 734.210938 82.019531 733.765625 82.6875 733.289062 83.335938 C 732.816406 83.984375 732.308594 84.605469 731.773438 85.203125 C 731.238281 85.800781 730.675781 86.371094 730.089844 86.914062 C 729.5 87.457031 728.882812 87.972656 728.246094 88.457031 C 727.609375 88.9375 726.949219 89.390625 726.265625 89.808594 C 725.585938 90.226562 724.886719 90.609375 724.167969 90.960938 C 723.453125 91.3125 722.71875 91.625 721.972656 91.902344 C 721.226562 92.179688 720.46875 92.421875 719.703125 92.625 C 718.933594 92.828125 718.15625 92.992188 717.375 93.117188 C 716.589844 93.246094 715.804688 93.332031 715.015625 93.382812 C 714.226562 93.429688 713.433594 93.4375 712.644531 93.410156 C 711.855469 93.378906 711.070312 93.3125 710.289062 93.203125 C 709.507812 93.09375 708.734375 92.949219 707.96875 92.761719 C 707.203125 92.578125 706.449219 92.355469 705.707031 92.09375 C 704.964844 91.835938 704.234375 91.539062 703.523438 91.207031 C 702.8125 90.871094 702.117188 90.503906 701.441406 90.101562 Z M 708.617188 50.105469 C 701.09375 56.144531 702.570312 72.082031 705.191406 79.878906 C 706.503906 83.820312 709.214844 88.128906 713.523438 89.121094 C 718.207031 90.203125 721.9375 87.25 723.203125 82.902344 C 725.578125 74.730469 726.085938 59.21875 719.710938 51.753906 C 717.023438 48.609375 712.085938 47.3125 708.617188 50.105469 Z M 708.617188 50.105469 " fill-opacity="1" fill-rule="nonzero"/><path fill="#000000" d="M 268.097656 181.65625 C 264.871094 183.585938 260.867188 186.699219 257.289062 187.277344 C 255.082031 187.628906 252.648438 187.328125 249.988281 186.378906 C 235.078125 181.027344 230.984375 162.976562 239.8125 150.730469 C 245.921875 142.265625 257.5 137.054688 268.097656 139.464844 C 268.542969 139.5625 268.765625 139.386719 268.765625 138.925781 C 268.820312 133.324219 268.800781 128.109375 268.707031 123.28125 C 268.625 119.660156 264.964844 119.054688 261.828125 119.054688 C 261.511719 119.054688 261.351562 118.898438 261.351562 118.578125 L 261.351562 116.335938 C 261.351562 116.011719 261.507812 115.832031 261.820312 115.800781 C 267.8125 115.109375 273.808594 113.980469 279.808594 112.410156 C 280.195312 112.308594 280.386719 112.457031 280.386719 112.855469 C 280.386719 133.074219 280.382812 153.570312 280.375 174.34375 C 280.375 179.863281 282.539062 180.105469 287.292969 180.351562 C 287.746094 180.375 287.972656 180.617188 287.972656 181.066406 L 287.972656 183.082031 C 287.972656 183.398438 287.808594 183.578125 287.484375 183.625 C 281.351562 184.457031 275.335938 185.726562 269.445312 187.4375 C 269.367188 187.460938 269.289062 187.464844 269.210938 187.449219 C 269.132812 187.4375 269.0625 187.40625 269 187.359375 C 268.933594 187.308594 268.886719 187.25 268.851562 187.179688 C 268.8125 187.109375 268.796875 187.03125 268.796875 186.953125 L 268.765625 182.027344 C 268.765625 181.507812 268.542969 181.382812 268.097656 181.65625 Z M 255.328125 144.660156 C 247.652344 149.71875 247.15625 162.097656 249.519531 169.871094 C 252.03125 178.125 260.140625 182.886719 268.230469 177.972656 C 268.609375 177.742188 268.796875 177.40625 268.796875 176.960938 C 268.769531 168.421875 268.773438 159.394531 268.808594 149.890625 C 268.8125 148.703125 268.390625 147.632812 267.53125 146.671875 C 264.429688 143.15625 259.371094 142 255.328125 144.660156 Z M 255.328125 144.660156 " fill-opacity="1" fill-rule="nonzero"/><path fill="#000000" d="M 377.054688 131.828125 C 376.105469 146.539062 375.523438 160.488281 375.316406 173.675781 C 375.195312 181.382812 377.996094 181.957031 384.722656 182.738281 C 384.972656 182.769531 385.09375 182.910156 385.09375 183.160156 L 385.144531 185.597656 C 385.152344 186.007812 384.953125 186.214844 384.550781 186.214844 L 360.550781 186.214844 C 360.402344 186.214844 360.277344 186.164062 360.171875 186.058594 C 360.066406 185.953125 360.015625 185.828125 360.015625 185.679688 L 360.015625 183.292969 C 360.023438 182.910156 360.214844 182.707031 360.59375 182.6875 C 364.414062 182.472656 367.953125 181.199219 368.722656 176.902344 C 369.585938 172.0625 370.203125 167.039062 370.574219 161.832031 C 371.21875 152.871094 371.890625 143.628906 372.585938 134.101562 C 372.734375 132.121094 372.789062 130.15625 372.746094 128.207031 C 372.625 122.078125 368.511719 122.261719 363.828125 121.453125 C 363.632812 121.417969 363.535156 121.300781 363.535156 121.097656 L 363.535156 118.621094 C 363.535156 118.277344 363.707031 118.105469 364.050781 118.105469 L 383.226562 118.105469 C 383.519531 118.105469 383.730469 118.238281 383.851562 118.507812 L 404.957031 165.625 C 405.019531 165.761719 405.121094 165.828125 405.269531 165.828125 C 405.417969 165.828125 405.523438 165.761719 405.585938 165.625 L 427.074219 118.578125 C 427.222656 118.261719 427.46875 118.105469 427.8125 118.105469 L 446.886719 118.105469 C 447.183594 118.105469 447.332031 118.253906 447.332031 118.550781 L 447.351562 121.078125 C 447.351562 121.335938 447.226562 121.46875 446.976562 121.480469 C 440.707031 121.917969 438.167969 122.765625 438.320312 129.753906 C 438.648438 144.585938 439.019531 159.417969 439.433594 174.25 C 439.613281 180.988281 441.75 182.394531 448.097656 182.808594 C 448.421875 182.828125 448.585938 182.996094 448.585938 183.3125 L 448.59375 185.871094 C 448.59375 186.101562 448.480469 186.214844 448.25 186.214844 L 419.074219 186.214844 C 418.792969 186.214844 418.648438 186.078125 418.648438 185.800781 L 418.648438 183.292969 C 418.648438 183.179688 418.6875 183.078125 418.765625 182.992188 C 418.84375 182.902344 418.9375 182.851562 419.054688 182.835938 C 425.0625 182.140625 427.277344 181.261719 427.246094 174.503906 C 427.164062 159.632812 427.070312 145.199219 426.964844 131.210938 C 426.957031 129.601562 426.628906 129.53125 425.980469 131.007812 L 402.710938 184.597656 C 402.5625 184.9375 402.332031 185.207031 402.019531 185.410156 C 401.707031 185.613281 401.367188 185.710938 400.996094 185.707031 C 400.625 185.703125 400.285156 185.59375 399.976562 185.386719 C 399.667969 185.175781 399.445312 184.902344 399.304688 184.558594 L 377.703125 131.726562 C 377.332031 130.816406 377.117188 130.851562 377.054688 131.828125 Z M 377.054688 131.828125 " fill-opacity="1" fill-rule="nonzero"/><path fill="#000000" d="M 576.511719 145.519531 C 576.539062 154.035156 576.535156 162.238281 576.503906 170.125 C 576.464844 177.972656 579.253906 182.886719 587.851562 179.257812 C 587.984375 179.199219 588.121094 179.199219 588.253906 179.265625 C 588.390625 179.332031 588.476562 179.4375 588.515625 179.582031 L 589.125 181.875 C 589.210938 182.199219 589.105469 182.441406 588.800781 182.59375 C 584.796875 184.585938 579.316406 188.027344 574.683594 187.359375 C 568.257812 186.433594 565.027344 182.304688 564.996094 174.96875 C 564.949219 165.585938 564.941406 155.773438 564.972656 145.53125 C 564.972656 145.074219 564.75 144.84375 564.296875 144.84375 L 558.441406 144.84375 C 558.078125 144.839844 557.820312 144.671875 557.664062 144.34375 C 557.507812 144.015625 557.546875 143.710938 557.773438 143.425781 L 559.957031 140.757812 C 560.308594 140.328125 560.765625 140.109375 561.324219 140.109375 L 564.246094 140.109375 C 564.726562 140.105469 564.964844 139.859375 564.964844 139.382812 L 564.945312 133.011719 C 564.945312 132.632812 565.097656 132.332031 565.398438 132.101562 L 574.664062 125 C 575.019531 124.726562 575.410156 124.671875 575.835938 124.839844 C 576.292969 125.023438 576.523438 125.367188 576.523438 125.871094 C 576.523438 130.523438 576.527344 135.0625 576.535156 139.492188 C 576.535156 139.90625 576.742188 140.109375 577.160156 140.109375 L 586.242188 140.109375 C 587.578125 140.109375 588.191406 140.777344 588.082031 142.113281 L 588.03125 142.699219 C 587.917969 144.128906 587.144531 144.84375 585.714844 144.84375 L 577.171875 144.851562 C 576.726562 144.851562 576.507812 145.074219 576.511719 145.519531 Z M 576.511719 145.519531 " fill-opacity="1" fill-rule="nonzero"/><path fill="#000000" d="M 303.707031 161.265625 C 303.941406 166.640625 305.4375 170.910156 308.1875 174.078125 C 313.890625 180.664062 323.386719 179.855469 329.59375 174.382812 C 329.671875 174.316406 329.757812 174.269531 329.855469 174.238281 C 329.953125 174.210938 330.054688 174.203125 330.152344 174.21875 C 330.253906 174.230469 330.347656 174.265625 330.433594 174.316406 C 330.519531 174.371094 330.589844 174.441406 330.648438 174.523438 L 331.648438 176.03125 C 331.863281 176.347656 331.855469 176.65625 331.617188 176.953125 C 325.023438 185.597656 315.507812 190.097656 305.082031 185.78125 C 299.695312 183.554688 295.960938 179.527344 293.875 173.695312 C 288.808594 159.476562 297 143.832031 310.898438 139.605469 C 321.757812 136.296875 331.851562 144.417969 332.425781 155.542969 C 332.527344 157.453125 331.164062 158.828125 329.3125 159 C 320.972656 159.75 312.640625 160.28125 304.3125 160.597656 C 303.886719 160.621094 303.6875 160.84375 303.707031 161.265625 Z M 305.03125 155.917969 L 320.949219 155.582031 C 321.023438 155.582031 321.089844 155.550781 321.144531 155.496094 C 321.195312 155.441406 321.222656 155.375 321.222656 155.300781 L 321.210938 154.53125 C 321.195312 153.765625 321.128906 153.007812 321.007812 152.257812 C 320.886719 151.507812 320.714844 150.78125 320.492188 150.078125 C 320.269531 149.375 320.003906 148.707031 319.691406 148.078125 C 319.375 147.445312 319.023438 146.863281 318.628906 146.328125 C 318.234375 145.796875 317.808594 145.320312 317.351562 144.902344 C 316.894531 144.488281 316.410156 144.136719 315.90625 143.855469 C 315.402344 143.574219 314.882812 143.363281 314.347656 143.222656 C 313.816406 143.085938 313.277344 143.023438 312.738281 143.03125 L 312.71875 143.03125 C 312.175781 143.042969 311.644531 143.128906 311.117188 143.289062 C 310.589844 143.449219 310.078125 143.683594 309.585938 143.984375 C 309.089844 144.289062 308.625 144.660156 308.183594 145.09375 C 307.742188 145.527344 307.335938 146.023438 306.964844 146.570312 C 306.59375 147.121094 306.265625 147.71875 305.980469 148.363281 C 305.691406 149.003906 305.453125 149.683594 305.261719 150.394531 C 305.070312 151.109375 304.929688 151.839844 304.839844 152.59375 C 304.75 153.347656 304.710938 154.109375 304.726562 154.875 L 304.75 155.644531 C 304.75 155.71875 304.78125 155.785156 304.835938 155.835938 C 304.890625 155.890625 304.953125 155.917969 305.03125 155.917969 Z M 305.03125 155.917969 " fill-opacity="1" fill-rule="nonzero"/><path fill="#000000" d="M 463.695312 184.378906 C 463.019531 183.980469 462.363281 183.546875 461.726562 183.082031 C 461.09375 182.617188 460.484375 182.121094 459.898438 181.597656 C 459.3125 181.070312 458.757812 180.515625 458.226562 179.933594 C 457.695312 179.347656 457.195312 178.742188 456.726562 178.109375 C 456.257812 177.472656 455.820312 176.820312 455.414062 176.140625 C 455.007812 175.460938 454.636719 174.765625 454.300781 174.046875 C 453.964844 173.332031 453.664062 172.601562 453.398438 171.851562 C 453.132812 171.105469 452.90625 170.347656 452.714844 169.574219 C 452.523438 168.800781 452.371094 168.023438 452.253906 167.234375 C 452.140625 166.445312 452.066406 165.652344 452.027344 164.855469 C 451.988281 164.058594 451.992188 163.261719 452.03125 162.464844 C 452.070312 161.664062 452.152344 160.871094 452.269531 160.078125 C 452.386719 159.285156 452.539062 158.5 452.734375 157.722656 C 452.925781 156.945312 453.15625 156.175781 453.425781 155.421875 C 453.691406 154.664062 453.996094 153.921875 454.335938 153.195312 C 454.675781 152.464844 455.046875 151.753906 455.457031 151.0625 C 455.863281 150.371094 456.304688 149.699219 456.777344 149.050781 C 457.246094 148.402344 457.75 147.777344 458.28125 147.175781 C 458.8125 146.574219 459.375 146 459.960938 145.453125 C 460.546875 144.90625 461.160156 144.390625 461.792969 143.90625 C 462.429688 143.417969 463.085938 142.964844 463.765625 142.542969 C 464.445312 142.121094 465.140625 141.730469 465.859375 141.378906 C 466.574219 141.023438 467.304688 140.707031 468.046875 140.425781 C 468.792969 140.144531 469.550781 139.898438 470.316406 139.691406 C 471.082031 139.484375 471.859375 139.316406 472.640625 139.183594 C 473.421875 139.054688 474.210938 138.960938 475 138.910156 C 475.789062 138.855469 476.578125 138.84375 477.367188 138.871094 C 478.15625 138.894531 478.945312 138.960938 479.726562 139.0625 C 480.507812 139.167969 481.28125 139.308594 482.046875 139.492188 C 482.816406 139.671875 483.570312 139.890625 484.316406 140.148438 C 485.058594 140.402344 485.789062 140.695312 486.5 141.027344 C 487.214844 141.355469 487.910156 141.71875 488.589844 142.117188 C 489.265625 142.515625 489.921875 142.949219 490.558594 143.414062 C 491.191406 143.878906 491.800781 144.375 492.386719 144.902344 C 492.972656 145.429688 493.527344 145.984375 494.058594 146.566406 C 494.589844 147.148438 495.089844 147.757812 495.558594 148.390625 C 496.027344 149.023438 496.464844 149.679688 496.871094 150.359375 C 497.277344 151.035156 497.648438 151.734375 497.984375 152.449219 C 498.320312 153.164062 498.621094 153.898438 498.886719 154.644531 C 499.152344 155.390625 499.378906 156.152344 499.570312 156.921875 C 499.761719 157.695312 499.914062 158.476562 500.03125 159.261719 C 500.144531 160.050781 500.21875 160.84375 500.257812 161.640625 C 500.296875 162.4375 500.292969 163.234375 500.253906 164.035156 C 500.214844 164.832031 500.132812 165.628906 500.015625 166.421875 C 499.898438 167.210938 499.746094 167.996094 499.550781 168.777344 C 499.359375 169.554688 499.128906 170.320312 498.859375 171.078125 C 498.589844 171.835938 498.289062 172.578125 497.949219 173.304688 C 497.609375 174.03125 497.234375 174.742188 496.828125 175.433594 C 496.421875 176.125 495.980469 176.796875 495.507812 177.445312 C 495.035156 178.097656 494.535156 178.722656 494.003906 179.320312 C 493.472656 179.921875 492.910156 180.496094 492.324219 181.042969 C 491.738281 181.589844 491.125 182.105469 490.492188 182.59375 C 489.855469 183.078125 489.199219 183.535156 488.519531 183.957031 C 487.839844 184.378906 487.140625 184.765625 486.425781 185.121094 C 485.710938 185.472656 484.980469 185.792969 484.238281 186.074219 C 483.492188 186.355469 482.734375 186.597656 481.96875 186.804688 C 481.203125 187.015625 480.425781 187.183594 479.644531 187.3125 C 478.863281 187.445312 478.074219 187.535156 477.285156 187.585938 C 476.496094 187.640625 475.707031 187.652344 474.917969 187.628906 C 474.128906 187.601562 473.339844 187.539062 472.558594 187.433594 C 471.777344 187.328125 471.003906 187.1875 470.238281 187.007812 C 469.46875 186.824219 468.714844 186.605469 467.96875 186.351562 C 467.226562 186.09375 466.496094 185.800781 465.78125 185.472656 C 465.070312 185.144531 464.375 184.777344 463.695312 184.378906 Z M 476.242188 142.871094 C 468.859375 141.808594 465.957031 150.902344 465.464844 156.382812 C 464.765625 163.996094 465.636719 173.957031 470.507812 179.933594 C 474.160156 184.394531 480.894531 185.214844 484.0625 179.84375 C 488.792969 171.835938 488.886719 144.691406 476.242188 142.871094 Z M 476.242188 142.871094 " fill-opacity="1" fill-rule="nonzero"/><path fill="#000000" d="M 523.054688 146.207031 C 529.4375 141.101562 535.726562 136.480469 543.789062 140.34375 C 549.351562 143.003906 551.242188 149.605469 551.199219 155.523438 C 551.132812 164.617188 551.167969 172.335938 551.300781 178.679688 C 551.371094 182.320312 554.347656 182.6875 557.117188 183.050781 C 557.421875 183.089844 557.570312 183.261719 557.5625 183.566406 L 557.511719 185.648438 C 557.496094 186.027344 557.300781 186.214844 556.925781 186.214844 L 534.484375 186.214844 C 534.121094 186.214844 533.9375 186.035156 533.9375 185.667969 L 533.917969 183.402344 C 533.910156 183.15625 534.03125 183.023438 534.28125 183.007812 C 536.871094 182.898438 539.347656 181.957031 539.4375 178.894531 C 539.722656 169.378906 539.710938 161.332031 539.410156 154.742188 C 539.167969 149.484375 536.660156 146.695312 531.886719 146.371094 C 528.648438 146.148438 525.320312 147.976562 522.773438 149.929688 C 522.484375 150.152344 522.339844 150.445312 522.339844 150.808594 C 522.285156 159.121094 522.3125 168.34375 522.417969 178.46875 C 522.449219 182 524.441406 182.644531 527.445312 183.03125 C 527.75 183.070312 527.902344 183.246094 527.902344 183.554688 L 527.902344 185.660156 C 527.894531 186.03125 527.703125 186.214844 527.335938 186.214844 L 503.953125 186.214844 C 503.636719 186.214844 503.472656 186.058594 503.46875 185.738281 L 503.417969 183.554688 C 503.417969 183.277344 503.550781 183.117188 503.820312 183.070312 C 507.066406 182.542969 510.597656 182.585938 510.648438 178.113281 C 510.75 168.492188 510.746094 159.171875 510.636719 150.152344 C 510.597656 146.835938 508.097656 145.984375 505.390625 145.582031 C 505.039062 145.527344 504.859375 145.324219 504.851562 144.976562 L 504.824219 143.328125 C 504.816406 143.140625 504.871094 142.976562 504.992188 142.835938 C 505.113281 142.691406 505.265625 142.605469 505.449219 142.578125 C 511.171875 141.675781 516.558594 140.414062 521.609375 138.796875 C 522.074219 138.648438 522.308594 138.820312 522.308594 139.3125 L 522.328125 145.863281 C 522.328125 146.484375 522.570312 146.597656 523.054688 146.207031 Z M 523.054688 146.207031 " fill-opacity="1" fill-rule="nonzero"/><path fill="#000000" d="M 602.886719 161.335938 C 603.28125 170.023438 607.660156 178.265625 616.894531 178.722656 C 621.15625 178.929688 625.082031 177.515625 628.675781 174.472656 C 629.128906 174.097656 629.523438 174.148438 629.859375 174.625 L 630.800781 175.972656 C 631.042969 176.320312 631.03125 176.664062 630.769531 177.003906 C 622.789062 187.226562 610.816406 191.210938 599.984375 183.332031 C 594 178.972656 591.125 170.875 591.613281 163.652344 C 592.320312 153.277344 597.421875 145.660156 606.914062 140.796875 C 612.160156 138.109375 617.476562 138.1875 622.871094 141.03125 C 628.109375 143.792969 631.863281 149.960938 631.507812 155.96875 C 631.398438 157.800781 630.382812 158.808594 628.453125 158.992188 C 619.90625 159.773438 611.613281 160.304688 603.574219 160.589844 C 603.097656 160.609375 602.867188 160.859375 602.886719 161.335938 Z M 604.261719 155.90625 L 620.078125 155.625 C 620.160156 155.621094 620.230469 155.589844 620.289062 155.53125 C 620.34375 155.472656 620.375 155.402344 620.375 155.320312 L 620.363281 154.570312 C 620.351562 153.804688 620.285156 153.046875 620.167969 152.296875 C 620.046875 151.546875 619.878906 150.820312 619.660156 150.117188 C 619.445312 149.410156 619.179688 148.742188 618.867188 148.113281 C 618.558594 147.480469 618.207031 146.894531 617.816406 146.359375 C 617.429688 145.824219 617.003906 145.347656 616.550781 144.929688 C 616.09375 144.511719 615.617188 144.160156 615.113281 143.875 C 614.609375 143.59375 614.09375 143.378906 613.5625 143.238281 C 613.03125 143.097656 612.496094 143.035156 611.960938 143.042969 L 611.9375 143.042969 C 611.402344 143.050781 610.867188 143.136719 610.34375 143.292969 C 609.816406 143.453125 609.308594 143.683594 608.816406 143.984375 C 608.324219 144.285156 607.855469 144.65625 607.417969 145.089844 C 606.976562 145.519531 606.570312 146.011719 606.199219 146.5625 C 605.828125 147.109375 605.496094 147.703125 605.210938 148.347656 C 604.921875 148.988281 604.679688 149.667969 604.484375 150.378906 C 604.292969 151.089844 604.148438 151.820312 604.058594 152.574219 C 603.964844 153.328125 603.925781 154.089844 603.941406 154.855469 L 603.960938 155.601562 C 603.960938 155.6875 603.988281 155.757812 604.046875 155.816406 C 604.109375 155.878906 604.179688 155.90625 604.261719 155.90625 Z M 604.261719 155.90625 " fill-opacity="1" fill-rule="nonzero"/><path fill="#000000" d="M 653.90625 149.433594 C 656.285156 145.519531 660.167969 139.492188 665.222656 138.9375 C 667.558594 138.679688 669.53125 139.503906 671.152344 141.40625 C 674.09375 144.863281 671.886719 149.726562 668.175781 151.546875 C 665.375 152.921875 663.929688 149.859375 661.382812 149.375 C 657.042969 148.554688 653.191406 153.863281 653.261719 157.796875 C 653.367188 163.648438 653.375 169.664062 653.28125 175.839844 C 653.191406 182.371094 655.878906 182.714844 661.460938 183.03125 C 661.613281 183.039062 661.738281 183.097656 661.839844 183.207031 C 661.941406 183.316406 661.992188 183.445312 661.988281 183.597656 L 661.957031 185.628906 C 661.957031 186.019531 661.757812 186.214844 661.359375 186.214844 L 635.097656 186.214844 C 634.894531 186.214844 634.792969 186.113281 634.792969 185.910156 L 634.785156 183.523438 C 634.785156 183.179688 634.960938 183.003906 635.308594 182.988281 C 638.445312 182.929688 641.539062 182.089844 641.601562 178.296875 C 641.75 169.085938 641.769531 159.734375 641.660156 150.234375 C 641.628906 146.84375 639.171875 146.027344 636.382812 145.613281 C 635.996094 145.558594 635.800781 145.339844 635.785156 144.953125 L 635.695312 143.347656 C 635.683594 143.167969 635.738281 143.007812 635.855469 142.871094 C 635.972656 142.734375 636.121094 142.652344 636.300781 142.628906 C 641.714844 141.960938 647.164062 140.703125 652.652344 138.855469 C 653.097656 138.707031 653.320312 138.871094 653.320312 139.34375 L 653.300781 149.273438 C 653.300781 150.046875 653.503906 150.101562 653.90625 149.433594 Z M 653.90625 149.433594 " fill-opacity="1" fill-rule="nonzero"/><path fill="#000000" d="M 695.320312 149.433594 C 697.121094 146.421875 699.0625 143.578125 701.730469 141.242188 C 705.179688 138.230469 709.832031 137.804688 712.816406 141.757812 C 715.464844 145.289062 712.996094 149.980469 709.335938 151.660156 C 706.859375 152.800781 704.988281 149.699219 702.539062 149.34375 C 698.65625 148.789062 694.742188 153.511719 694.734375 157.191406 C 694.714844 163.917969 694.730469 170.855469 694.785156 177.992188 C 694.816406 182.765625 699.355469 182.859375 702.84375 183.03125 C 703.195312 183.050781 703.371094 183.230469 703.371094 183.574219 L 703.359375 185.648438 C 703.359375 186.027344 703.171875 186.214844 702.792969 186.214844 L 676.550781 186.214844 C 676.328125 186.214844 676.214844 186.105469 676.207031 185.882812 C 676.167969 184.277344 676.144531 183.46875 676.144531 183.453125 C 676.144531 183.285156 676.226562 183.179688 676.390625 183.140625 C 679.746094 182.371094 682.941406 182.726562 683.023438 178.09375 C 683.179688 169.695312 683.1875 160.398438 683.054688 150.203125 C 683.003906 146.796875 680.554688 146.027344 677.753906 145.613281 C 677.34375 145.558594 677.128906 145.320312 677.117188 144.902344 L 677.078125 143.40625 C 677.070312 142.933594 677.296875 142.671875 677.753906 142.617188 C 683.472656 141.890625 688.894531 140.632812 694.027344 138.847656 C 694.109375 138.816406 694.191406 138.808594 694.28125 138.820312 C 694.367188 138.832031 694.445312 138.863281 694.515625 138.914062 C 694.589844 138.960938 694.644531 139.027344 694.683594 139.105469 C 694.722656 139.183594 694.746094 139.265625 694.742188 139.351562 L 694.734375 149.273438 C 694.734375 150.035156 694.929688 150.089844 695.320312 149.433594 Z M 695.320312 149.433594 " fill-opacity="1" fill-rule="nonzero"/><path fill="#000000" d="M 726.8125 161.285156 C 726.921875 163.742188 727.320312 166.058594 728.015625 168.234375 C 731.695312 179.773438 744.074219 181.777344 752.773438 174.351562 C 752.917969 174.226562 753.089844 174.175781 753.28125 174.203125 C 753.476562 174.226562 753.625 174.324219 753.734375 174.484375 L 754.722656 176 C 754.941406 176.332031 754.925781 176.652344 754.683594 176.960938 C 746.96875 187.066406 734.964844 191.179688 724.242188 183.554688 C 719.523438 180.203125 716.703125 175.257812 715.777344 168.71875 C 714.152344 157.140625 719.8125 146.683594 730.019531 141.152344 C 740.242188 135.609375 752.46875 140.808594 755.109375 152.144531 C 755.644531 154.449219 756.179688 158.585938 752.660156 158.941406 C 744.773438 159.730469 736.371094 160.277344 727.460938 160.589844 C 727.007812 160.601562 726.792969 160.835938 726.8125 161.285156 Z M 728.105469 155.898438 L 744.066406 155.613281 C 744.234375 155.605469 744.316406 155.519531 744.316406 155.351562 L 744.308594 154.765625 C 744.292969 153.984375 744.226562 153.214844 744.109375 152.449219 C 743.992188 151.6875 743.824219 150.949219 743.605469 150.230469 C 743.382812 149.515625 743.121094 148.835938 742.808594 148.191406 C 742.496094 147.550781 742.148438 146.957031 741.753906 146.410156 C 741.363281 145.867188 740.941406 145.382812 740.484375 144.957031 C 740.027344 144.53125 739.546875 144.171875 739.042969 143.882812 C 738.539062 143.59375 738.023438 143.378906 737.492188 143.234375 C 736.957031 143.089844 736.421875 143.023438 735.882812 143.03125 L 735.84375 143.03125 C 735.304688 143.042969 734.769531 143.128906 734.242188 143.289062 C 733.71875 143.453125 733.207031 143.6875 732.714844 143.992188 C 732.222656 144.300781 731.753906 144.675781 731.3125 145.117188 C 730.871094 145.554688 730.464844 146.054688 730.09375 146.613281 C 729.722656 147.171875 729.390625 147.777344 729.101562 148.429688 C 728.816406 149.082031 728.574219 149.769531 728.378906 150.496094 C 728.1875 151.21875 728.042969 151.964844 727.949219 152.730469 C 727.859375 153.496094 727.820312 154.269531 727.832031 155.046875 L 727.84375 155.632812 C 727.84375 155.707031 727.871094 155.769531 727.921875 155.820312 C 727.972656 155.871094 728.035156 155.898438 728.105469 155.898438 Z M 728.105469 155.898438 " fill-opacity="1" fill-rule="nonzero"/><path fill="#000000" d="M 785.113281 172.167969 C 785.273438 172.632812 785.445312 172.636719 785.628906 172.179688 C 788.832031 163.933594 791.675781 155.898438 794.164062 148.070312 C 795.277344 144.570312 791.625 143.527344 789.097656 143.246094 C 788.867188 143.21875 788.75 143.085938 788.742188 142.851562 L 788.742188 140.523438 C 788.738281 140.25 788.871094 140.109375 789.148438 140.109375 L 807.230469 140.121094 C 807.5625 140.121094 807.726562 140.285156 807.726562 140.617188 L 807.714844 142.648438 C 807.714844 142.816406 807.660156 142.964844 807.550781 143.089844 C 807.4375 143.214844 807.296875 143.289062 807.128906 143.304688 C 803.648438 143.648438 801.167969 145.46875 799.6875 148.765625 C 795.308594 158.53125 790.421875 170.027344 785.023438 183.261719 C 780.613281 194.0625 777.222656 203.058594 774.847656 210.253906 C 772.683594 216.808594 758.242188 207.128906 767.679688 202.152344 C 772.160156 199.792969 775.582031 195.570312 777.933594 189.480469 C 778.582031 187.816406 778.59375 186.105469 777.972656 184.34375 C 773.503906 171.703125 768.945312 159.742188 764.300781 148.464844 C 762.984375 145.269531 760.550781 143.542969 756.988281 143.285156 C 756.71875 143.265625 756.585938 143.121094 756.585938 142.851562 L 756.59375 140.414062 C 756.59375 140.210938 756.691406 140.109375 756.886719 140.109375 L 780.429688 140.121094 C 780.769531 140.121094 780.9375 140.285156 780.9375 140.617188 L 780.9375 142.597656 C 780.9375 142.914062 780.789062 143.117188 780.492188 143.203125 L 777.75 144.003906 C 777.460938 144.089844 777.199219 144.226562 776.964844 144.417969 C 776.730469 144.609375 776.546875 144.839844 776.40625 145.109375 C 776.269531 145.378906 776.1875 145.664062 776.167969 145.964844 C 776.144531 146.265625 776.183594 146.558594 776.285156 146.84375 Z M 785.113281 172.167969 " fill-opacity="1" fill-rule="nonzero"/></svg>