<svg xmlns="http://www.w3.org/2000/svg" xmlns:xlink="http://www.w3.org/1999/xlink" width="1080" zoomAndPan="magnify" viewBox="0 0 810 123.750003" height="165" preserveAspectRatio="xMidYMid meet" version="1.0"><defs><clipPath id="4c11828fc0"><path d="M 0.960938 0 L 809.183594 0 L 809.183594 123.363281 L 0.960938 123.363281 Z M 0.960938 0 " clip-rule="nonzero"/></clipPath></defs><g clip-path="url(#4c11828fc0)"><path fill="#000000" d="M 768.171875 54.222656 L 768.171875 71.074219 L 780.011719 71.074219 L 780.011719 87.789062 C 780.046875 89.28125 779.964844 90.894531 779.710938 92.183594 C 779.238281 95.300781 776.277344 100.609375 767.871094 100.609375 C 759.519531 100.609375 756.609375 95.300781 756.105469 92.183594 C 755.894531 90.894531 755.804688 89.28125 755.804688 87.789062 L 755.804688 34.992188 C 755.804688 33.125 755.929688 31.078125 756.324219 29.53125 C 756.898438 26.71875 759.394531 21.167969 767.8125 21.167969 C 776.648438 21.167969 778.851562 27.019531 779.359375 29.53125 C 779.691406 31.195312 779.710938 33.988281 779.710938 33.988281 L 779.710938 40.398438 L 808.804688 40.398438 L 808.804688 36.609375 C 808.804688 36.609375 808.933594 32.65625 808.582031 28.964844 C 806.394531 7.292969 788.539062 0.4375 768.066406 0.4375 C 747.558594 0.4375 730.0625 7.359375 727.515625 28.964844 C 727.285156 30.941406 726.933594 34.496094 726.933594 36.609375 L 726.933594 85.175781 C 726.933594 87.292969 727.003906 88.929688 727.394531 92.796875 C 729.292969 113.871094 747.558594 121.339844 767.984375 121.339844 C 788.539062 121.339844 806.679688 113.871094 808.609375 92.796875 C 808.953125 88.929688 808.988281 87.292969 809.035156 85.175781 L 809.035156 54.222656 Z M 567.570312 3.546875 L 538.351562 3.546875 L 538.351562 89.007812 C 538.398438 90.496094 538.351562 92.167969 538.097656 93.394531 C 537.488281 96.265625 535.054688 101.785156 526.996094 101.785156 C 519.039062 101.785156 516.542969 96.265625 515.980469 93.394531 C 515.6875 92.167969 515.648438 90.496094 515.6875 89.007812 L 515.6875 3.546875 L 486.480469 3.546875 L 486.480469 86.355469 C 486.441406 88.488281 486.609375 92.847656 486.738281 93.992188 C 488.753906 115.570312 505.757812 122.574219 526.996094 122.574219 C 548.273438 122.574219 565.269531 115.570312 567.320312 93.992188 C 567.484375 92.847656 567.695312 88.488281 567.570312 86.355469 Z M 299.125 3.546875 L 284.550781 93.847656 L 269.988281 3.546875 L 222.859375 3.546875 L 220.359375 119.066406 L 249.230469 119.066406 L 250.011719 12.125 L 269.878906 119.066406 L 299.171875 119.066406 L 319.054688 12.125 L 319.839844 119.066406 L 348.785156 119.066406 L 346.199219 3.546875 Z M 124.636719 3.546875 L 103.238281 119.066406 L 134.441406 119.066406 L 150.570312 12.125 L 166.308594 119.066406 L 197.296875 119.066406 L 175.984375 3.546875 Z M 669.675781 96.554688 L 642.46875 3.546875 L 599.601562 3.546875 L 599.601562 117.863281 L 627.960938 117.863281 L 626.3125 21.878906 L 655.53125 117.863281 L 696.644531 117.863281 L 696.644531 3.546875 L 668.097656 3.546875 Z M 407.359375 33.609375 C 406.847656 31.328125 406.996094 28.90625 407.261719 27.636719 C 408.085938 23.941406 410.570312 19.90625 417.730469 19.90625 C 424.402344 19.90625 428.3125 24.066406 428.3125 30.308594 L 428.3125 37.371094 L 456.792969 37.371094 L 456.792969 29.320312 C 456.792969 4.429688 434.480469 0.519531 418.324219 0.519531 C 397.972656 0.519531 381.355469 7.226562 378.320312 25.957031 C 377.519531 31.054688 377.320312 35.578125 378.597656 41.351562 C 383.546875 64.703125 424.199219 71.476562 430.101562 86.246094 C 431.140625 89.042969 430.84375 92.609375 430.3125 94.710938 C 429.429688 98.554688 426.84375 102.421875 419.179688 102.421875 C 411.988281 102.421875 407.664062 98.289062 407.664062 92.058594 L 407.652344 80.972656 L 377 80.972656 L 377 89.785156 C 377 115.324219 397 123.027344 418.542969 123.027344 C 439.175781 123.027344 456.214844 115.976562 458.949219 96.863281 C 460.253906 86.992188 459.269531 80.558594 458.746094 78.136719 C 453.96875 54.183594 410.640625 46.980469 407.359375 33.609375 M 31.664062 33.328125 C 31.105469 30.996094 31.238281 28.539062 31.546875 27.257812 C 32.335938 23.578125 34.835938 19.472656 42.121094 19.472656 C 48.878906 19.472656 52.855469 23.671875 52.855469 29.964844 L 52.855469 37.117188 L 81.671875 37.117188 L 81.671875 29 C 81.671875 3.871094 59.015625 -0.136719 42.679688 -0.136719 C 22.160156 -0.136719 5.394531 6.675781 2.328125 25.539062 C 1.488281 30.71875 1.34375 35.273438 2.558594 41.113281 C 7.558594 64.730469 48.617188 71.558594 54.589844 86.503906 C 55.707031 89.28125 55.371094 92.847656 54.816406 95.03125 C 53.867188 98.917969 51.261719 102.835938 43.53125 102.835938 C 36.316406 102.835938 32 98.632812 32 92.320312 L 31.960938 81.203125 L 0.960938 81.203125 L 0.960938 90.035156 C 0.960938 115.863281 21.246094 123.628906 42.957031 123.628906 C 63.828125 123.628906 80.96875 116.519531 83.765625 97.183594 C 85.15625 87.21875 84.113281 80.734375 83.644531 78.277344 C 78.765625 54.03125 34.953125 46.847656 31.664062 33.328125 " fill-opacity="1" fill-rule="nonzero"/></g></svg>