<svg xmlns="http://www.w3.org/2000/svg" xmlns:xlink="http://www.w3.org/1999/xlink" width="1080" zoomAndPan="magnify" viewBox="0 0 810 197.999996" height="264" preserveAspectRatio="xMidYMid meet" version="1.0"><path fill="#000000" d="M 697.378906 1.539062 C 655.300781 1.539062 620.648438 35.570312 620.648438 78.269531 C 620.648438 120.347656 654.683594 155 697.378906 155 C 739.457031 155 774.109375 120.964844 774.109375 78.269531 C 774.109375 35.570312 739.457031 1.539062 697.378906 1.539062 M 756.785156 35.570312 C 753.070312 38.046875 748.738281 40.523438 744.40625 42.996094 C 741.933594 38.046875 738.839844 33.097656 735.125 28.765625 C 738.21875 26.910156 741.3125 24.433594 743.789062 22.578125 C 749.359375 25.671875 753.691406 30.621094 756.785156 35.570312 M 724.605469 10.203125 C 730.792969 12.675781 736.363281 15.769531 741.933594 20.101562 C 739.457031 22.578125 736.363281 24.433594 733.269531 26.289062 C 729.558594 21.957031 725.226562 18.246094 720.894531 14.53125 C 722.132812 12.675781 723.367188 11.4375 724.605469 10.203125 M 730.792969 27.527344 C 726.464844 30.003906 722.132812 31.242188 717.800781 33.097656 C 715.945312 28.765625 714.085938 24.433594 711.613281 20.722656 C 714.085938 19.484375 716.5625 18.246094 718.417969 16.390625 C 722.75 19.484375 727.082031 23.195312 730.792969 27.527344 M 721.511719 8.964844 C 720.273438 10.203125 719.039062 11.4375 718.417969 12.675781 C 714.085938 10.203125 710.375 7.726562 705.425781 5.871094 C 710.992188 5.871094 716.5625 7.109375 721.511719 8.964844 M 715.945312 14.53125 C 714.085938 15.769531 712.230469 17.007812 710.375 17.628906 C 707.898438 13.914062 705.425781 10.820312 702.949219 7.109375 C 707.28125 8.964844 711.613281 11.4375 715.945312 14.53125 M 698.617188 7.726562 C 701.710938 10.820312 704.1875 14.53125 706.660156 18.863281 C 704.1875 19.484375 701.710938 20.101562 698.617188 20.101562 Z M 698.617188 23.195312 C 701.710938 23.195312 705.425781 22.578125 708.519531 21.339844 C 710.992188 25.050781 712.847656 29.382812 714.707031 33.714844 C 709.753906 34.953125 704.1875 35.570312 698.617188 36.191406 Z M 695.523438 7.726562 L 695.523438 20.101562 C 693.046875 20.101562 690.574219 19.484375 687.480469 18.863281 C 690.574219 15.152344 693.046875 11.4375 695.523438 7.726562 M 685.003906 17.628906 C 683.148438 17.007812 680.671875 15.769531 679.433594 14.53125 C 683.765625 12.058594 688.097656 9.582031 692.429688 7.726562 C 689.335938 10.820312 686.859375 13.914062 685.003906 17.628906 M 689.335938 5.25 C 685.003906 7.109375 680.671875 9.582031 676.339844 12.058594 C 675.101562 10.820312 673.867188 9.582031 673.246094 8.34375 C 678.195312 7.109375 683.765625 5.871094 689.335938 5.25 M 741.933594 136.433594 C 732.03125 130.867188 731.414062 122.820312 732.03125 120.347656 C 732.652344 117.253906 734.507812 118.492188 735.746094 118.492188 C 742.550781 118.492188 749.359375 116.632812 758.019531 107.351562 C 767.921875 97.453125 771.015625 75.175781 755.546875 60.941406 C 739.457031 45.472656 722.132812 47.949219 710.992188 62.179688 C 708.519531 65.273438 702.949219 67.128906 698.617188 67.128906 C 691.191406 67.128906 696.140625 72.699219 696.140625 73.9375 C 696.140625 75.175781 694.90625 75.792969 694.285156 75.792969 C 691.808594 75.175781 693.046875 78.886719 693.046875 79.507812 C 693.046875 80.125 691.808594 81.363281 691.808594 81.363281 C 688.714844 81.363281 689.335938 83.839844 689.953125 85.074219 C 689.953125 85.695312 689.953125 86.933594 688.714844 87.550781 C 687.480469 88.167969 686.859375 90.644531 686.859375 92.5 C 686.859375 95.59375 689.953125 98.070312 694.90625 101.78125 C 699.855469 105.496094 700.472656 109.207031 700.472656 111.683594 C 700.472656 114.160156 701.09375 118.492188 701.710938 120.964844 C 702.949219 124.058594 702.949219 130.246094 696.140625 130.246094 C 687.480469 130.867188 672.628906 137.054688 671.390625 137.671875 C 666.441406 139.53125 660.253906 140.148438 655.300781 138.910156 C 652.828125 137.054688 650.351562 135.199219 647.875 132.722656 C 646.640625 129.628906 648.496094 125.914062 650.351562 123.441406 C 653.445312 126.535156 657.15625 125.914062 659.632812 125.914062 C 662.109375 125.914062 673.246094 124.058594 675.101562 123.441406 C 676.960938 122.820312 677.578125 122.820312 678.195312 123.441406 C 682.527344 125.296875 688.714844 125.296875 691.191406 117.253906 C 693.667969 108.589844 688.097656 111.066406 686.859375 111.683594 C 686.242188 112.300781 685.003906 111.683594 685.621094 111.066406 C 686.859375 109.207031 685.003906 109.207031 684.386719 109.207031 C 681.910156 109.207031 678.816406 111.683594 678.195312 112.300781 C 676.960938 112.921875 676.339844 112.921875 675.722656 112.921875 C 672.628906 111.066406 663.347656 113.539062 660.253906 108.589844 C 660.253906 107.351562 657.777344 86.933594 656.539062 83.21875 C 656.539062 82.601562 655.921875 81.363281 657.15625 80.125 C 659.632812 76.414062 665.820312 80.125 669.535156 80.125 C 673.867188 80.125 674.484375 78.269531 675.722656 77.03125 C 676.960938 75.792969 677.578125 76.414062 678.195312 75.792969 C 678.816406 75.175781 678.195312 74.554688 678.195312 73.9375 C 678.195312 73.320312 678.816406 73.9375 679.433594 73.320312 C 680.054688 72.699219 679.433594 71.460938 679.433594 70.84375 C 680.671875 68.988281 683.148438 70.222656 681.910156 66.511719 C 681.292969 64.035156 682.527344 61.5625 683.765625 60.324219 C 685.621094 57.847656 693.667969 46.710938 680.054688 34.953125 C 667.058594 23.816406 653.445312 25.050781 644.78125 34.335938 C 636.121094 43.617188 640.449219 57.230469 641.070312 60.941406 C 641.6875 64.65625 639.214844 67.75 636.121094 68.988281 C 633.644531 70.222656 628.074219 73.9375 624.363281 77.03125 C 624.980469 47.328125 642.925781 21.339844 670.152344 10.820312 C 671.390625 12.058594 672.628906 13.914062 673.867188 15.152344 C 670.773438 17.628906 663.964844 23.195312 663.964844 23.195312 C 663.964844 23.195312 664.582031 23.195312 665.820312 23.816406 C 666.441406 23.816406 667.679688 24.433594 667.679688 24.433594 C 667.679688 24.433594 673.246094 19.484375 676.339844 17.628906 C 678.195312 19.484375 680.671875 20.722656 683.148438 21.957031 C 681.910156 24.433594 678.195312 30.621094 678.195312 30.621094 C 678.195312 30.621094 678.816406 31.242188 679.433594 31.242188 C 680.054688 31.859375 680.671875 31.859375 680.671875 31.859375 C 680.671875 31.859375 684.386719 25.050781 685.621094 22.578125 C 688.714844 23.816406 691.8125 24.433594 694.90625 24.433594 L 694.90625 36.808594 C 693.046875 36.808594 688.714844 36.808594 686.859375 36.191406 L 685.621094 36.191406 L 686.242188 37.429688 C 686.859375 38.046875 686.859375 38.667969 687.480469 39.285156 C 688.714844 39.285156 693.046875 39.285156 694.90625 39.285156 L 694.90625 62.179688 L 698 62.179688 L 698 56.609375 C 702.949219 56.609375 706.660156 55.992188 710.992188 55.375 L 715.324219 51.660156 L 712.847656 51.660156 C 707.898438 52.28125 703.566406 52.898438 699.855469 52.898438 C 699.855469 52.898438 698.617188 52.898438 698 52.898438 L 698 38.667969 C 703.566406 38.667969 709.753906 38.046875 715.324219 36.191406 C 716.5625 39.902344 719.65625 49.1875 719.65625 49.1875 L 722.75 47.949219 C 722.75 47.949219 719.65625 38.667969 718.417969 34.953125 C 723.367188 33.714844 727.699219 31.242188 732.03125 29.382812 C 735.746094 33.714844 738.839844 38.667969 741.3125 43.617188 C 738.839844 44.855469 735.125 46.089844 735.125 46.089844 C 738.21875 46.710938 740.695312 47.328125 740.695312 47.328125 C 740.695312 47.328125 741.933594 46.710938 742.550781 46.710938 C 742.550781 47.328125 743.171875 48.566406 743.171875 48.566406 L 747.5 50.421875 L 746.882812 49.1875 C 746.882812 49.1875 745.644531 46.089844 745.027344 45.472656 C 749.359375 43.617188 753.691406 41.140625 758.019531 38.046875 C 766.066406 49.804688 769.777344 64.035156 769.777344 78.269531 C 771.015625 101.78125 759.257812 122.820312 741.933594 136.433594 " fill-opacity="1" fill-rule="nonzero"/><path fill="#000000" d="M 613.84375 21.957031 L 612.605469 23.195312 C 608.273438 26.910156 597.753906 37.429688 599.609375 49.1875 C 599.609375 49.1875 599.609375 49.804688 599.609375 49.804688 C 599.609375 49.804688 600.230469 52.28125 600.230469 52.28125 L 601.464844 51.042969 C 607.65625 45.472656 612.605469 35.570312 614.460938 24.433594 L 615.082031 21.339844 Z M 613.84375 21.957031 " fill-opacity="1" fill-rule="nonzero"/><path fill="#000000" d="M 592.804688 41.761719 L 592.183594 42.996094 C 591.566406 44.855469 590.328125 49.1875 589.710938 54.136719 C 588.472656 61.5625 589.089844 72.699219 595.277344 80.742188 C 595.277344 80.742188 595.898438 81.980469 595.898438 81.980469 L 596.515625 83.21875 L 597.753906 78.269531 C 598.992188 69.605469 597.136719 51.660156 594.042969 43.617188 L 592.804688 41.140625 Z M 592.804688 41.761719 " fill-opacity="1" fill-rule="nonzero"/><path fill="#000000" d="M 585.378906 72.699219 L 585.378906 73.9375 C 584.757812 81.363281 585.378906 100.546875 600.847656 111.066406 C 600.847656 111.066406 602.703125 112.300781 602.703125 112.300781 L 602.703125 109.828125 C 602.703125 102.402344 594.042969 80.742188 587.851562 73.320312 L 585.996094 70.84375 Z M 585.378906 72.699219 " fill-opacity="1" fill-rule="nonzero"/><path fill="#000000" d="M 587.851562 106.734375 L 587.851562 107.972656 C 590.328125 119.109375 600.230469 136.433594 616.316406 142.003906 L 618.792969 142.625 L 618.175781 140.148438 C 615.082031 132.105469 599.609375 112.921875 589.710938 106.734375 L 587.851562 105.496094 Z M 587.851562 106.734375 " fill-opacity="1" fill-rule="nonzero"/><path fill="#000000" d="M 620.648438 38.667969 L 618.792969 39.285156 C 607.035156 46.710938 601.464844 55.375 601.464844 66.511719 L 601.464844 68.988281 L 603.324219 67.75 C 609.511719 62.179688 618.175781 48.566406 620.03125 41.140625 L 620.648438 38.046875 Z M 620.648438 38.667969 " fill-opacity="1" fill-rule="nonzero"/><path fill="#000000" d="M 613.222656 62.179688 L 612.605469 63.417969 C 609.511719 66.511719 599.609375 77.03125 600.230469 90.027344 C 600.230469 91.882812 600.847656 94.359375 601.464844 96.214844 L 602.085938 98.070312 L 603.324219 96.214844 C 608.273438 89.40625 614.460938 72.082031 613.84375 64.035156 L 613.84375 61.5625 Z M 613.222656 62.179688 " fill-opacity="1" fill-rule="nonzero"/><path fill="#000000" d="M 613.84375 85.074219 L 613.222656 86.3125 C 608.273438 93.738281 605.796875 101.164062 605.796875 108.589844 C 605.796875 113.539062 607.65625 118.492188 610.75 123.441406 L 611.984375 125.296875 L 612.605469 123.441406 C 614.460938 119.109375 616.316406 106.113281 616.316406 95.59375 C 616.316406 91.882812 615.699219 88.789062 615.082031 86.933594 L 614.460938 84.457031 Z M 613.84375 85.074219 " fill-opacity="1" fill-rule="nonzero"/><path fill="#000000" d="M 619.410156 109.207031 L 618.792969 110.445312 C 617.554688 115.394531 616.316406 119.726562 616.9375 124.679688 C 616.9375 134.578125 621.886719 142.625 630.550781 148.191406 L 631.789062 148.8125 L 632.40625 146.953125 C 632.40625 146.953125 632.40625 145.097656 632.40625 145.097656 C 632.40625 137.054688 626.21875 116.015625 621.269531 109.828125 L 620.03125 107.972656 Z M 619.410156 109.207031 " fill-opacity="1" fill-rule="nonzero"/><path fill="#000000" d="M 602.703125 141.386719 L 603.324219 142.625 C 609.511719 153.144531 620.648438 167.375 641.070312 163.664062 L 642.925781 163.664062 L 641.6875 162.425781 C 637.976562 156.855469 613.222656 142.625 604.5625 141.386719 L 602.085938 140.765625 Z M 602.703125 141.386719 " fill-opacity="1" fill-rule="nonzero"/><path fill="#000000" d="M 633.023438 168.613281 L 629.929688 169.230469 L 633.023438 170.46875 C 646.019531 176.039062 662.109375 177.277344 672.007812 174.183594 C 675.722656 172.945312 677.578125 171.085938 680.054688 168.613281 C 696.761719 170.46875 712.230469 184.082031 721.511719 195.21875 C 721.511719 195.21875 722.132812 195.839844 722.132812 195.839844 L 722.75 195.839844 C 723.988281 195.21875 725.226562 193.984375 725.84375 193.363281 L 726.464844 192.746094 L 725.84375 192.125 C 716.5625 179.75 701.710938 172.324219 701.09375 171.707031 C 687.480469 165.519531 663.964844 160.566406 633.023438 168.613281 " fill-opacity="1" fill-rule="nonzero"/><path fill="#000000" d="M 633.644531 133.960938 L 633.644531 135.199219 C 635.5 147.574219 640.449219 163.664062 661.488281 161.804688 L 662.726562 161.804688 L 662.109375 160.566406 C 660.871094 155 641.6875 138.910156 634.882812 134.578125 L 633.023438 133.339844 Z M 633.644531 133.960938 " fill-opacity="1" fill-rule="nonzero"/><path fill="#000000" d="M 779.679688 20.722656 L 780.296875 23.816406 C 782.15625 34.953125 787.105469 44.855469 793.292969 50.421875 L 794.53125 51.660156 C 794.53125 51.660156 795.148438 49.1875 795.148438 49.1875 C 795.148438 49.1875 795.148438 48.566406 795.148438 48.566406 C 797.003906 36.808594 786.484375 26.289062 782.15625 22.578125 L 780.917969 21.339844 Z M 779.679688 20.722656 " fill-opacity="1" fill-rule="nonzero"/><path fill="#000000" d="M 801.335938 40.523438 L 800.097656 42.996094 C 797.003906 51.042969 795.769531 68.988281 796.386719 77.648438 L 797.625 82.601562 L 798.242188 81.980469 C 798.242188 81.980469 798.863281 80.742188 798.863281 80.742188 C 805.667969 72.699219 805.667969 62.179688 804.429688 54.136719 C 803.8125 48.566406 802.574219 44.855469 801.957031 42.996094 L 801.335938 41.761719 Z M 801.335938 40.523438 " fill-opacity="1" fill-rule="nonzero"/><path fill="#000000" d="M 809.382812 71.460938 L 807.523438 73.9375 C 801.335938 81.980469 792.671875 103.019531 792.671875 110.445312 L 792.671875 112.921875 C 792.671875 112.921875 794.53125 111.683594 794.53125 111.683594 C 810 101.78125 810.617188 82.601562 810 74.554688 L 810 73.320312 Z M 809.382812 71.460938 " fill-opacity="1" fill-rule="nonzero"/><path fill="#000000" d="M 806.90625 105.496094 L 804.429688 106.734375 C 794.53125 112.921875 779.058594 132.105469 775.964844 140.148438 L 775.347656 142.625 L 777.824219 142.003906 C 793.910156 137.054688 804.429688 119.109375 806.289062 107.972656 L 806.289062 106.734375 Z M 806.90625 105.496094 " fill-opacity="1" fill-rule="nonzero"/><path fill="#000000" d="M 774.109375 37.429688 L 774.730469 40.523438 C 777.203125 48.566406 784.628906 62.179688 791.4375 67.75 L 793.292969 68.988281 L 793.292969 66.511719 C 793.910156 55.375 788.34375 46.710938 776.585938 39.285156 L 775.347656 38.667969 Z M 774.109375 37.429688 " fill-opacity="1" fill-rule="nonzero"/><path fill="#000000" d="M 780.917969 61.5625 L 780.917969 64.035156 C 780.296875 72.082031 787.105469 90.027344 791.4375 96.214844 L 792.671875 98.070312 L 793.292969 96.214844 C 793.910156 93.738281 794.53125 91.882812 794.53125 90.027344 C 795.148438 77.03125 785.25 66.511719 782.152344 63.417969 L 781.535156 62.800781 Z M 780.917969 61.5625 " fill-opacity="1" fill-rule="nonzero"/><path fill="#000000" d="M 780.296875 83.839844 L 779.679688 86.3125 C 779.058594 88.167969 778.441406 91.261719 778.441406 94.976562 C 778.441406 105.496094 779.679688 118.492188 782.15625 122.820312 L 782.773438 124.679688 L 784.011719 122.820312 C 787.105469 118.492188 788.960938 113.539062 788.960938 107.972656 C 788.960938 101.164062 786.484375 93.121094 781.535156 85.695312 L 780.917969 84.457031 Z M 780.296875 83.839844 " fill-opacity="1" fill-rule="nonzero"/><path fill="#000000" d="M 774.730469 107.972656 L 773.492188 109.828125 C 768.539062 116.015625 762.351562 137.054688 762.351562 145.097656 C 762.351562 145.097656 762.351562 146.335938 762.351562 146.953125 L 762.972656 148.8125 C 762.972656 148.8125 764.210938 148.191406 764.210938 148.191406 C 772.871094 142.625 777.203125 134.578125 777.824219 124.679688 C 777.824219 120.347656 777.203125 115.394531 775.964844 110.445312 L 775.347656 109.207031 Z M 774.730469 107.972656 " fill-opacity="1" fill-rule="nonzero"/><path fill="#000000" d="M 792.671875 140.148438 C 792.671875 140.148438 790.199219 140.765625 790.199219 140.765625 C 781.535156 142.003906 756.785156 156.238281 753.070312 161.804688 L 751.832031 163.042969 L 753.691406 163.042969 C 774.109375 166.757812 785.25 152.523438 791.4375 142.003906 L 792.054688 140.765625 Z M 792.671875 140.148438 " fill-opacity="1" fill-rule="nonzero"/><path fill="#000000" d="M 694.285156 171.707031 C 693.667969 171.707031 678.816406 179.75 669.535156 192.125 L 668.914062 192.746094 L 669.535156 193.363281 C 670.152344 193.984375 672.007812 195.21875 672.628906 195.839844 L 673.246094 195.839844 C 673.246094 195.839844 673.867188 195.21875 673.867188 195.21875 C 683.148438 184.082031 698.617188 169.851562 715.324219 168.613281 C 717.800781 171.085938 720.273438 172.945312 723.367188 174.183594 C 732.652344 177.277344 749.359375 176.039062 762.351562 170.46875 L 765.445312 169.230469 L 762.351562 168.613281 C 730.792969 160.566406 707.28125 165.519531 694.285156 171.707031 " fill-opacity="1" fill-rule="nonzero"/><path fill="#000000" d="M 761.117188 132.722656 L 759.257812 133.960938 C 752.453125 138.292969 733.886719 154.378906 732.03125 159.949219 L 731.414062 161.1875 L 732.652344 161.1875 C 753.070312 163.042969 758.019531 146.953125 760.496094 134.578125 L 760.496094 133.339844 Z M 761.117188 132.722656 " fill-opacity="1" fill-rule="nonzero"/><path fill="#000000" d="M 238.855469 8.964844 L 264.84375 8.964844 L 264.84375 32.476562 L 238.855469 32.476562 Z M 241.328125 59.703125 L 262.988281 59.703125 L 262.988281 174.800781 L 241.328125 174.800781 Z M 241.328125 59.703125 " fill-opacity="1" fill-rule="nonzero"/><path fill="#000000" d="M 77.347656 59.703125 L 99.007812 59.703125 L 99.007812 174.800781 L 77.96875 174.800781 L 77.96875 158.09375 L 77.347656 158.09375 C 68.6875 172.324219 53.835938 178.511719 37.746094 178.511719 C 13.613281 178.511719 0 159.949219 0 137.054688 L 0 59.703125 L 21.65625 59.703125 L 21.65625 127.773438 C 21.65625 147.574219 25.988281 162.425781 47.027344 162.425781 C 55.691406 162.425781 68.066406 158.09375 72.398438 145.71875 C 76.730469 135.199219 76.730469 121.585938 76.730469 118.492188 L 76.730469 59.703125 Z M 77.347656 59.703125 " fill-opacity="1" fill-rule="nonzero"/><path fill="#000000" d="M 142.324219 76.414062 C 150.367188 62.179688 165.835938 55.992188 177.59375 55.992188 C 185.636719 55.992188 220.910156 57.847656 220.910156 94.976562 L 220.910156 174.183594 L 199.25 174.183594 L 199.25 101.78125 C 199.25 82.601562 191.207031 72.699219 172.644531 72.699219 C 172.644531 72.699219 160.886719 72.082031 151.605469 81.363281 C 148.511719 84.457031 142.324219 89.40625 142.324219 112.300781 L 142.324219 174.800781 L 120.664062 174.800781 L 120.664062 59.703125 L 142.324219 59.703125 Z M 142.324219 76.414062 " fill-opacity="1" fill-rule="nonzero"/><path fill="#000000" d="M 353.949219 96.214844 C 352.710938 81.980469 345.90625 72.082031 330.433594 72.082031 C 310.015625 72.082031 301.972656 90.027344 301.972656 116.632812 C 301.972656 143.242188 310.015625 161.1875 330.433594 161.1875 C 344.667969 161.1875 353.332031 151.90625 354.570312 135.199219 L 376.226562 135.199219 C 374.371094 161.1875 355.1875 176.65625 329.816406 176.65625 C 293.308594 176.65625 278.457031 150.667969 278.457031 117.253906 C 278.457031 83.839844 295.164062 55.992188 331.671875 55.992188 C 355.804688 55.992188 373.75 71.460938 374.988281 96.214844 Z M 353.949219 96.214844 " fill-opacity="1" fill-rule="nonzero"/><path fill="#000000" d="M 408.402344 120.964844 C 406.546875 140.765625 415.210938 161.804688 436.867188 161.804688 C 453.574219 161.804688 462.238281 155 464.714844 138.292969 L 487.609375 138.292969 C 483.894531 164.28125 464.09375 177.277344 436.867188 177.277344 C 400.359375 177.277344 385.507812 151.285156 385.507812 117.871094 C 385.507812 84.457031 402.214844 56.609375 438.722656 56.609375 C 472.757812 57.230469 488.847656 78.886719 488.847656 110.445312 L 488.847656 120.964844 Z M 466.570312 106.113281 C 467.1875 86.933594 458.527344 72.082031 437.488281 72.082031 C 419.542969 72.082031 409.023438 87.550781 409.023438 106.113281 Z M 466.570312 106.113281 " fill-opacity="1" fill-rule="nonzero"/><path fill="#000000" d="M 513.597656 173.5625 L 513.597656 74.554688 L 493.796875 74.554688 L 493.796875 59.703125 L 513.597656 59.703125 L 513.597656 34.953125 C 514.21875 10.203125 533.398438 3.394531 549.488281 3.394531 C 554.4375 3.394531 560.007812 4.632812 564.957031 5.871094 L 564.957031 23.816406 C 561.246094 23.816406 557.53125 23.195312 553.820312 23.195312 C 541.445312 23.195312 534.636719 26.289062 535.257812 38.667969 L 535.257812 59.703125 L 561.863281 59.703125 L 561.863281 74.554688 L 535.257812 74.554688 L 535.257812 173.5625 Z M 513.597656 173.5625 " fill-opacity="1" fill-rule="nonzero"/></svg>