<svg xmlns="http://www.w3.org/2000/svg" xmlns:xlink="http://www.w3.org/1999/xlink" width="1080" zoomAndPan="magnify" viewBox="0 0 810 611.999999" height="816" preserveAspectRatio="xMidYMid meet" version="1.0"><defs><clipPath id="ac09aad0a7"><path d="M 2.578125 461 L 145 461 L 145 587 L 2.578125 587 Z M 2.578125 461 " clip-rule="nonzero"/></clipPath><clipPath id="32d1bcb5fd"><path d="M 666 463 L 807.328125 463 L 807.328125 590 L 666 590 Z M 666 463 " clip-rule="nonzero"/></clipPath><clipPath id="78806a08d9"><path d="M 141 3.027344 L 664 3.027344 L 664 371 L 141 371 Z M 141 3.027344 " clip-rule="nonzero"/></clipPath></defs><g clip-path="url(#ac09aad0a7)"><path fill="#000000" d="M 73.671875 461.722656 C 121.960938 461.722656 144.496094 492.507812 144.496094 521.789062 L 144.496094 586.574219 L 113.910156 586.574219 L 113.910156 521.789062 C 113.910156 503.339844 103.179688 473.414062 73.671875 473.414062 C 44.160156 473.414062 33.324219 503.234375 33.324219 521.789062 L 33.324219 586.574219 L 2.847656 586.574219 L 2.847656 521.789062 C 2.847656 492.292969 25.273438 461.722656 73.671875 461.722656 " fill-opacity="1" fill-rule="nonzero"/></g><path fill="#000000" d="M 494.324219 588.824219 C 445.925781 588.824219 423.5 558.042969 423.5 528.652344 L 423.5 463.761719 L 453.976562 463.761719 L 453.976562 528.652344 C 453.976562 547.101562 464.707031 577.027344 494.324219 577.027344 C 523.941406 577.027344 534.5625 547.210938 534.5625 528.652344 L 534.5625 463.761719 L 565.148438 463.761719 L 565.148438 528.652344 C 565.148438 558.148438 542.71875 588.824219 494.324219 588.824219 " fill-opacity="1" fill-rule="nonzero"/><path fill="#000000" d="M 267.902344 577.886719 C 260.710938 583.464844 252.234375 587.109375 243.21875 588.398438 C 212.421875 593.222656 169.285156 572.953125 167.566406 528.007812 C 165.957031 481.996094 211.242188 462.582031 240.859375 463.332031 C 290.863281 464.726562 308.679688 502.375 308.679688 523.828125 L 308.679688 586.679688 L 277.878906 586.679688 L 277.878906 524.148438 C 277.878906 510.527344 271.765625 475.453125 240 474.808594 C 208.34375 474.164062 199.117188 502.695312 199.007812 524.148438 C 199.007812 537.769531 201.90625 571.449219 237.53125 573.488281 C 248.476562 574.132812 263.929688 571.128906 268.007812 567.375 Z M 267.902344 577.886719 " fill-opacity="1" fill-rule="nonzero"/><path fill="#000000" d="M 404.71875 605.128906 C 395.597656 608.027344 385.832031 608.238281 376.605469 605.773438 C 362.332031 602.019531 338.402344 595.582031 338.402344 546.136719 L 338.402344 409.703125 L 369.199219 409.703125 L 369.199219 463.976562 L 397.636719 463.976562 L 397.636719 483.066406 L 369.199219 483.066406 C 369.199219 483.066406 369.953125 521.464844 369.199219 552.464844 C 368.558594 580.136719 377.035156 589.46875 383.042969 592.6875 C 389.804688 595.476562 397.316406 595.90625 404.398438 594.082031 Z M 404.71875 605.128906 " fill-opacity="1" fill-rule="nonzero"/><path fill="#000000" d="M 594.011719 517.820312 C 594.011719 487.464844 609.789062 466.011719 637.152344 463.226562 C 656.683594 461.292969 663.65625 464.832031 663.65625 464.832031 L 663.65625 477.167969 C 656.574219 475.453125 649.171875 475.667969 642.195312 477.703125 C 629.855469 481.566406 624.703125 500.550781 624.703125 506.988281 L 624.703125 587.109375 L 593.90625 587.109375 Z M 594.011719 517.820312 " fill-opacity="1" fill-rule="nonzero"/><g clip-path="url(#32d1bcb5fd)"><path fill="#000000" d="M 766.996094 577.886719 C 759.804688 583.464844 751.328125 587.109375 742.316406 588.398438 C 711.515625 593.222656 668.378906 572.953125 666.769531 528.007812 C 664.945312 481.886719 710.335938 462.582031 739.847656 463.4375 C 789.746094 464.832031 807.664062 502.375 807.664062 523.828125 L 807.664062 586.574219 L 776.867188 586.574219 L 776.867188 524.039062 C 776.867188 510.417969 770.644531 475.34375 738.988281 474.703125 C 707.332031 474.058594 698.101562 502.589844 698.101562 524.039062 C 698.101562 537.664062 701.109375 571.34375 736.628906 573.378906 C 747.574219 574.023438 763.132812 571.019531 767.101562 567.265625 Z M 766.996094 577.886719 " fill-opacity="1" fill-rule="nonzero"/></g><g clip-path="url(#78806a08d9)"><path fill="#000000" d="M 386.90625 55.746094 C 375.210938 78.375 361.472656 126.964844 361.472656 126.964844 C 361.472656 126.964844 360.292969 130.613281 357.71875 126.429688 C 356.109375 123.746094 336.578125 97.148438 326.921875 85.242188 C 315.652344 71.511719 265.539062 18.738281 208.023438 48.664062 C 156.191406 75.800781 176.042969 141.765625 192.03125 166.652344 C 201.691406 181.667969 220.363281 205.265625 225.621094 211.808594 C 226.585938 212.988281 226.265625 213.417969 224.761719 212.988281 C 220.363281 211.808594 208.773438 208.695312 187.742188 203.335938 C 168.746094 198.507812 150.398438 199.152344 144.925781 207.410156 C 141.0625 213.632812 138.699219 222.535156 146.320312 236.585938 C 161.558594 264.042969 203.515625 307.589844 272.300781 321.855469 C 273.695312 321.855469 273.480469 323.25 272.300781 325.289062 C 268.867188 330.867188 269.296875 337.945312 273.265625 342.988281 C 283.566406 355.320312 294.941406 359.828125 340.550781 367.65625 C 404.074219 378.597656 426.394531 357.039062 428.972656 354.25 C 429.1875 354.140625 429.507812 354.140625 429.722656 354.25 C 462.558594 361.972656 497.113281 358.753906 528.019531 345.132812 C 572.230469 326.683594 589.078125 309.308594 589.722656 298.902344 C 590.363281 288.5 566.863281 290.535156 560.105469 288.820312 C 557.957031 288.285156 558.601562 287.320312 560.105469 286.566406 C 563.214844 284.636719 571.050781 281.417969 577.273438 278.09375 C 583.496094 274.769531 648.3125 242.269531 661.082031 187.246094 C 673.851562 132.222656 624.058594 131.683594 597.234375 143.269531 C 570.40625 154.746094 545.1875 167.292969 539.5 169.976562 C 538.535156 170.40625 538.320312 169.976562 538.75 169.117188 C 545.832031 151.847656 551.625 134.042969 556.027344 115.808594 C 561.605469 89.640625 559.03125 18.203125 488.207031 4.902344 C 483.054688 3.9375 477.90625 3.507812 472.648438 3.507812 C 436.589844 3.617188 403.539062 23.78125 386.90625 55.746094 M 389.695312 167.9375 C 395.277344 152.277344 397.207031 144.125 406.4375 113.878906 C 417.917969 76.125 442.816406 46.519531 482.949219 58.425781 C 529.949219 72.800781 519.003906 120.101562 511.386719 139.621094 C 505.160156 155.175781 500.441406 171.050781 490.351562 196.792969 C 482.304688 217.707031 499.582031 218.242188 508.808594 216.207031 C 519.328125 213.84375 549.910156 198.078125 569.117188 189.070312 C 583.390625 182.527344 609.679688 166.652344 624.597656 182.097656 C 639.511719 197.542969 622.773438 224.25 604.851562 240.230469 C 586.929688 256.214844 539.394531 276.164062 524.691406 282.0625 C 509.992188 287.960938 504.515625 296.328125 511.707031 300.832031 C 518.898438 305.339844 539.929688 308.984375 546.261719 309.84375 C 551.519531 310.488281 556.667969 311.773438 556.667969 315.421875 C 556.667969 320.03125 544.328125 329.363281 515.355469 339.125 C 495.824219 345.238281 475.328125 347.277344 455.046875 345.347656 C 429.722656 340.625 425.753906 336.550781 413.949219 341.054688 C 405.148438 344.59375 404.398438 351.566406 391.734375 356.609375 C 379.074219 361.648438 360.1875 360.578125 345.699219 358.109375 C 331.214844 355.644531 306.101562 353.285156 303.527344 341.804688 C 302.453125 337.195312 307.496094 334.296875 311.683594 329.472656 C 315.867188 324.644531 319.515625 315.957031 301.382812 312.09375 C 296.550781 311.128906 246.222656 303.085938 215.105469 287.425781 C 183.984375 271.765625 171.964844 246.882812 174.972656 238.085938 C 177.652344 231.007812 184.734375 230.363281 194.285156 231.972656 C 205.339844 234.117188 253.519531 247.203125 268.222656 247.417969 C 274.339844 247.417969 278.847656 246.238281 280.992188 242.589844 C 286.679688 232.617188 269.1875 220.601562 254.703125 203.121094 C 233.882812 178.449219 194.179688 137.046875 223.902344 100.042969 C 243.648438 75.375 282.710938 91.570312 298.914062 110.339844 C 311.253906 124.820312 332.929688 154.316406 349.5625 174.265625 C 354.285156 180.917969 361.796875 185.207031 369.953125 185.851562 C 378.320312 185.851562 385.832031 179.738281 390.125 167.402344 " fill-opacity="1" fill-rule="nonzero"/></g></svg>