<svg xmlns="http://www.w3.org/2000/svg" xmlns:xlink="http://www.w3.org/1999/xlink" width="1080" zoomAndPan="magnify" viewBox="0 0 810 633.000003" height="844" preserveAspectRatio="xMidYMid meet" version="1.0"><path fill="#000000" d="M 680.898438 51 C 637.0625 73.949219 563.1875 56.449219 531.511719 47.195312 L 524.753906 29.386719 C 524.753906 29.386719 412.753906 -23.8125 239.039062 18.058594 C 55.070312 62.289062 2.742188 153.597656 2.742188 153.597656 L 146.640625 532.957031 C 146.640625 532.957031 215.21875 452.9375 391.425781 410.390625 C 529.347656 377.273438 618.816406 391.554688 651.914062 399.648438 L 658.128906 415.664062 C 658.128906 415.664062 783.933594 443.027344 808.71875 382.542969 Z M 680.898438 51 " fill-opacity="1" fill-rule="nonzero"/><path fill="#ffffff" d="M 441.804688 284.433594 L 414.371094 284.433594 L 410.238281 307.863281 L 368.28125 307.863281 L 402.800781 154.429688 L 453.988281 154.429688 L 488.351562 307.863281 L 446.289062 307.863281 Z M 428.523438 187.984375 L 428.085938 187.984375 L 418.703125 250.921875 L 437.339844 250.921875 Z M 428.523438 187.984375 " fill-opacity="1" fill-rule="nonzero"/><path fill="#ffffff" d="M 488.15625 154.429688 L 569.949219 154.429688 L 569.949219 189.253906 L 528.976562 189.253906 L 528.976562 216.574219 L 564.699219 216.574219 L 564.699219 250.046875 L 528.976562 250.046875 L 528.976562 307.863281 L 488.15625 307.863281 Z M 488.15625 154.429688 " fill-opacity="1" fill-rule="nonzero"/><path fill="#ffffff" d="M 634.589844 192.273438 C 634.589844 185.820312 631.898438 179.847656 624.964844 179.847656 C 618.925781 179.847656 615.601562 185.207031 615.601562 191.441406 C 615.601562 221.914062 676.394531 206.273438 676.394531 261.046875 C 676.394531 296.683594 660.6875 310.878906 622.996094 310.878906 C 591.738281 310.878906 574.585938 299.722656 574.585938 265.992188 L 574.585938 261.859375 L 614.136719 261.859375 L 614.136719 268.988281 C 614.136719 276.515625 617.265625 282.550781 624.394531 282.550781 C 631.921875 282.550781 634.394531 275.617188 634.394531 268.988281 C 634.394531 259.101562 630.9375 256.980469 625.664062 253.785156 C 620.394531 250.589844 612.78125 247.574219 605.410156 243.65625 C 583.359375 232.019531 575.984375 223.664062 575.984375 200.890625 C 575.984375 179.605469 582.199219 167.96875 591.5625 160.902344 C 598.539062 155.761719 608.863281 151.519531 624.679688 151.519531 C 665.914062 151.519531 672.894531 173 672.894531 198.484375 L 634.589844 198.484375 Z M 314.597656 336.714844 C 287.691406 339.144531 241.882812 313.265625 200.714844 272.203125 C 158.824219 230.226562 132.988281 184.132812 136.421875 157.183594 L 136.140625 157.445312 C 126.558594 167.050781 123.144531 172.804688 122.402344 180.679688 C 120.804688 194.21875 127.980469 214.191406 141.847656 236.308594 C 127.34375 259.078125 119.953125 279.796875 121.855469 293.621094 C 122.03125 295.109375 123.210938 303.289062 135.789062 315.867188 C 137.625 317.707031 140.644531 320.222656 140.644531 320.222656 C 145.019531 324.09375 150.335938 326.761719 156.046875 327.988281 C 156.21875 327.964844 156.375 327.964844 156.546875 327.988281 L 156.8125 327.988281 C 169.105469 329.847656 188.859375 323.457031 209.792969 310.96875 C 212.375 313.046875 214.976562 315.101562 217.535156 317.179688 C 217.207031 317.378906 216.464844 317.878906 216.464844 317.878906 C 194.523438 331.222656 173.765625 339.078125 158.867188 338.203125 C 162.257812 341.59375 165.976562 344.613281 169.957031 347.28125 C 171.425781 348.394531 173.019531 349.269531 174.75 349.90625 C 176.238281 350.628906 177.878906 351.042969 179.539062 351.128906 C 193.191406 353.207031 213.839844 345.902344 236.765625 331.464844 C 259.539062 345.96875 280.253906 353.339844 293.925781 351.394531 C 296.179688 351.4375 298.410156 350.824219 300.3125 349.644531 C 301.296875 349.226562 302.214844 348.722656 303.113281 348.132812 C 307.859375 345.070312 312.257812 341.503906 316.214844 337.503906 C 316.542969 337.109375 316.917969 336.738281 317.308594 336.386719 C 316.128906 336.386719 315.230469 336.582031 314.53125 336.671875 M 145.875 310.488281 L 145.875 312.347656 C 144.1875 312.367188 142.503906 312.28125 140.820312 312.039062 L 140.1875 312.039062 C 138.894531 311.800781 137.625 311.472656 136.402344 311.054688 L 136.402344 310.769531 C 136.402344 296.550781 142.964844 278.046875 155.585938 257.132812 L 156.242188 256.082031 C 158.320312 258.6875 160.375 261.355469 162.585938 264 C 151.734375 282.222656 145.875 298.828125 146.027344 310.660156 M 191.570312 296.136719 C 183.785156 300.796875 175.601562 304.734375 167.113281 307.925781 L 165.234375 308.628906 L 165.933594 306.703125 C 169.105469 298.214844 173.066406 290.011719 177.722656 282.222656 L 178.25 281.390625 C 180.328125 283.644531 182.644531 286.03125 184.964844 288.347656 C 187.285156 290.667969 189.929688 293.25 192.488281 295.609375 Z M 191.570312 296.136719 " fill-opacity="1" fill-rule="nonzero"/><path fill="#ffffff" d="M 331.859375 236.417969 C 345.902344 214.105469 353.164062 193.914062 351.566406 180.304688 C 350.539062 172.367188 347.433594 166.632812 337.828125 157.03125 C 337.523438 156.769531 337.238281 156.484375 336.953125 156.199219 C 336.953125 157.03125 337.21875 157.863281 337.28125 158.386719 L 337.28125 158.804688 C 339.753906 185.820312 313.855469 231.558594 272.835938 272.578125 C 269.535156 275.878906 266.164062 279.117188 262.710938 282.289062 L 262.511719 282.464844 C 259.996094 280.625 257.4375 278.789062 254.921875 276.796875 C 255.140625 276.558594 255.402344 276.339844 255.644531 276.121094 C 259.210938 272.839844 262.664062 269.535156 265.992188 266.296875 C 305.214844 227.054688 330.609375 183.039062 327.699219 159.21875 C 327.699219 159.085938 327.699219 158.933594 327.699219 158.804688 C 326.496094 149.679688 322.167969 141.257812 315.449219 134.980469 L 314.574219 134.0625 C 302.433594 122.335938 293.511719 122.097656 291.804688 122.097656 C 278.195312 120.871094 258.683594 128.023438 236.875 141.628906 C 214.453125 127.542969 194.261719 120.238281 180.632812 121.855469 C 179.234375 122.050781 170.089844 122.863281 157.359375 135.59375 C 155.695312 137.234375 154.140625 138.960938 152.699219 140.820312 C 145.152344 150.207031 145.546875 157.382812 145.546875 157.382812 C 141.9375 181.050781 167.355469 225.390625 207.144531 265.160156 C 246.324219 304.40625 290.382812 329.800781 314.226562 326.871094 C 315.933594 326.71875 328.074219 324.378906 335.53125 318.011719 C 336.714844 316.960938 337.917969 315.933594 339.140625 314.644531 C 346.777344 307.007812 351.566406 298.671875 351.566406 293.445312 C 353.316406 279.730469 345.902344 258.90625 331.683594 236.351562 M 295.71875 191.484375 C 293.402344 189.054688 291.058594 186.648438 288.761719 184.332031 C 286.464844 182.011719 284.105469 179.714844 281.761719 177.507812 L 282.464844 177.089844 C 290.230469 172.476562 298.386719 168.582031 306.855469 165.386719 L 308.078125 164.882812 C 304.863281 174.160156 300.683594 183.085938 295.652344 191.507812 M 256.386719 155.675781 L 257.65625 154.84375 C 277.914062 142.570312 295.871094 136.050781 309.980469 135.703125 C 310.726562 137.890625 311.183594 140.164062 311.382812 142.460938 C 311.359375 142.613281 311.359375 142.746094 311.382812 142.898438 L 311.382812 144.804688 C 299.480469 144.648438 282.636719 150.710938 264 161.800781 C 261.398438 159.722656 258.792969 157.664062 256.191406 155.585938 Z M 161.929688 145.328125 L 161.558594 145.328125 C 161.578125 143.949219 161.667969 142.570312 161.84375 141.191406 C 162.082031 139.332031 162.585938 137.539062 163.351562 135.832031 C 190.9375 136.050781 233.898438 161.320312 272.992188 200.453125 C 276.292969 203.734375 279.640625 207.191406 282.902344 210.800781 L 283.164062 211.0625 C 281.324219 213.621094 279.464844 216.136719 277.476562 218.675781 C 277.257812 218.480469 276.710938 217.824219 276.710938 217.824219 C 273.40625 214.277344 270.058594 210.714844 266.648438 207.367188 C 228.671875 169.214844 186.605469 144.34375 161.929688 145.328125 M 179.101562 190.871094 L 178.160156 191.8125 L 177.550781 190.695312 C 172.976562 182.953125 169.082031 174.859375 165.910156 166.460938 L 165.429688 165.101562 C 174.878906 168.320312 183.957031 172.539062 192.488281 177.726562 L 191.703125 178.445312 C 189.253906 180.789062 187.019531 182.953125 184.898438 185.097656 C 183.148438 186.847656 181.246094 188.726562 179.191406 190.960938 M 197.347656 217.867188 L 196.558594 218.71875 C 194.480469 216.183594 192.644531 213.621094 190.804688 211.105469 L 191.089844 210.886719 C 194.371094 207.300781 197.675781 203.824219 201 200.542969 C 204.324219 197.261719 207.582031 194.066406 211.039062 190.871094 L 211.542969 190.390625 C 214.082031 192.25 216.597656 194.085938 219.132812 196.101562 L 219.003906 196.101562 L 218.105469 196.933594 C 214.5625 200.148438 211.171875 203.472656 207.757812 206.796875 C 204.347656 210.101562 200.605469 214.105469 197.214844 217.824219 M 239.433594 259.890625 C 239.433594 259.890625 238.1875 260.9375 237.027344 261.96875 C 232.542969 257.984375 228.101562 253.785156 223.707031 249.367188 C 222.589844 248.292969 221.496094 247.113281 220.402344 245.976562 C 219.308594 244.839844 218.675781 244.269531 217.910156 243.394531 C 216.027344 241.46875 214.101562 239.390625 212.222656 237.292969 L 211.609375 236.636719 L 212.222656 236 C 216.113281 231.734375 220.007812 227.621094 223.878906 223.773438 C 227.753906 219.921875 232.171875 215.765625 236.570312 211.742188 L 237.203125 211.152344 L 237.835938 211.742188 C 242.125 215.679688 246.28125 219.636719 250.132812 223.511719 C 253.980469 227.382812 258.117188 231.625 262.074219 235.933594 L 262.535156 236.527344 C 258.398438 241.074219 254.242188 245.625 249.671875 250.046875 C 246.457031 253.28125 243.023438 256.585938 239.433594 259.890625 M 281.71875 295.085938 L 282.398438 294.453125 C 284.628906 292.242188 286.683594 290.316406 288.609375 288.4375 C 290.535156 286.554688 292.746094 284.300781 294.996094 281.875 L 295.894531 280.910156 L 296.507812 282.003906 C 301.167969 289.792969 305.148438 297.996094 308.339844 306.503906 L 308.757812 307.707031 C 299.351562 304.472656 290.339844 300.25 281.851562 295.109375 M 335.511719 310.003906 C 333.9375 310.355469 332.359375 310.617188 330.742188 310.769531 C 330.042969 310.816406 329.363281 310.816406 328.664062 310.769531 L 328.664062 310.53125 C 328.664062 298.609375 322.605469 281.917969 311.578125 263.433594 L 311.425781 263.234375 C 313.503906 260.609375 315.558594 258.050781 317.636719 255.425781 L 317.769531 255.625 L 318.558594 256.957031 C 330.980469 277.191406 337.4375 295.238281 337.699219 309.328125 C 337 309.589844 336.277344 309.785156 335.53125 309.917969 " fill-opacity="1" fill-rule="nonzero"/><path fill="#000000" d="M 370.25 470.503906 L 386.328125 470.503906 L 386.328125 532.28125 L 370.25 532.28125 Z M 370.25 470.503906 " fill-opacity="1" fill-rule="nonzero"/><path fill="#000000" d="M 392.605469 485.53125 L 407.722656 485.53125 L 407.722656 491.285156 L 407.875 491.285156 C 409.777344 486.800781 414.304688 484 419.183594 484.351562 C 426.007812 484.351562 431.367188 487 431.367188 497.039062 L 431.367188 532.238281 L 415.769531 532.238281 L 415.769531 501.4375 C 415.769531 497.585938 414.742188 495.921875 412.007812 495.921875 C 409.273438 495.921875 408.246094 497.585938 408.246094 501.4375 L 408.246094 532.28125 L 392.628906 532.28125 Z M 434.671875 485.53125 L 439.855469 485.53125 L 439.855469 471.730469 L 455.476562 471.730469 L 455.476562 485.53125 L 461.578125 485.53125 L 461.578125 496.078125 L 455.476562 496.078125 L 455.476562 518.238281 C 455.476562 520.992188 456.65625 521.910156 459.148438 521.910156 L 461.601562 521.910156 L 461.601562 532.257812 C 458.777344 532.585938 455.957031 532.761719 453.113281 532.804688 C 443.597656 532.804688 439.878906 531.1875 439.878906 520.949219 L 439.878906 496.097656 L 434.691406 496.097656 Z M 487.566406 503.121094 L 479.011719 503.121094 L 479.011719 501.042969 C 479.011719 496.121094 480.085938 493.890625 483.257812 493.890625 C 486.429688 493.890625 487.566406 496.121094 487.566406 501.042969 Z M 502.070312 511.609375 L 502.070312 506.816406 C 502.070312 489.820312 495.855469 484.351562 483.320312 484.351562 C 469.257812 484.351562 463.394531 491.109375 463.394531 508.9375 C 463.394531 526.769531 468.226562 533.503906 483.320312 533.503906 C 496.207031 533.503906 501.480469 527.140625 501.675781 515.894531 L 487.652344 515.894531 C 487.652344 522.328125 486.054688 523.988281 483.257812 523.988281 C 481.179688 523.988281 479.011719 522.722656 479.011719 517.777344 L 479.011719 511.695312 Z M 506.09375 485.53125 L 521.121094 485.53125 L 521.121094 493.015625 L 521.277344 493.015625 C 523.027344 487.414062 527.183594 484.351562 531.777344 484.351562 L 534.3125 484.351562 L 534.3125 498.855469 C 533.023438 498.570312 531.710938 498.4375 530.398438 498.460938 C 524.820312 498.460938 521.605469 500.648438 521.605469 506.75 L 521.605469 532.214844 L 506.09375 532.214844 Z M 559.40625 503.886719 C 559.535156 501.304688 559.207031 498.746094 558.398438 496.296875 C 557.71875 495.003906 556.320312 494.261719 554.875 494.390625 C 551.3125 494.390625 550.261719 497.476562 550.261719 508.894531 C 550.261719 520.316406 551.332031 523.398438 554.875 523.398438 C 557.765625 523.398438 559.425781 521.5625 559.425781 515.699219 L 559.425781 512.679688 L 573.382812 512.679688 C 573.382812 519.988281 572.332031 525.105469 569.25 528.472656 C 566.164062 531.84375 561.328125 533.394531 554.746094 533.394531 C 542.800781 533.394531 534.554688 529.722656 534.554688 509.617188 C 534.554688 487.523438 543.808594 484.242188 555.554688 484.242188 C 569.402344 484.242188 573.25 492.050781 573.25 503.777344 Z M 577.648438 485.53125 L 593.265625 485.53125 L 593.265625 516.378906 C 593.265625 520.25 594.230469 521.890625 597.007812 521.890625 C 599.785156 521.890625 600.816406 520.226562 600.816406 516.378906 L 600.816406 485.53125 L 616.390625 485.53125 L 616.390625 532.28125 L 601.316406 532.28125 L 601.316406 526.527344 L 601.121094 526.527344 C 599.304688 531.035156 594.777344 533.855469 589.921875 533.503906 C 583.09375 533.503906 577.671875 530.816406 577.671875 520.753906 L 577.671875 485.53125 Z M 577.648438 485.53125 " fill-opacity="1" fill-rule="nonzero"/><path fill="#000000" d="M 622.863281 470.503906 L 638.484375 470.503906 L 638.484375 532.28125 L 622.863281 532.28125 Z M 622.863281 470.503906 " fill-opacity="1" fill-rule="nonzero"/><path fill="#000000" d="M 641.960938 485.53125 L 647.125 485.53125 L 647.125 471.730469 L 662.808594 471.730469 L 662.808594 485.53125 L 669.023438 485.53125 L 669.023438 496.078125 L 662.808594 496.078125 L 662.808594 518.238281 C 662.808594 520.992188 664.011719 521.910156 666.550781 521.910156 L 668.933594 521.910156 L 668.933594 532.257812 C 666.113281 532.585938 663.289062 532.761719 660.445312 532.804688 C 650.886719 532.804688 647.167969 531.1875 647.167969 520.949219 L 647.167969 496.097656 L 642.003906 496.097656 Z M 672.214844 485.53125 L 687.789062 485.53125 L 687.789062 516.378906 C 687.789062 520.25 688.820312 521.890625 691.640625 521.890625 C 694.460938 521.890625 695.316406 520.226562 695.316406 516.378906 L 695.316406 485.53125 L 710.890625 485.53125 L 710.890625 532.28125 L 695.949219 532.28125 L 695.949219 526.527344 L 695.839844 526.527344 C 693.9375 531.035156 689.386719 533.832031 684.507812 533.503906 C 677.683594 533.503906 672.324219 530.816406 672.324219 520.753906 Z M 716.777344 485.53125 L 731.847656 485.53125 L 731.847656 493.015625 L 732.042969 493.015625 C 733.792969 487.414062 737.996094 484.351562 742.390625 484.351562 L 744.90625 484.351562 L 744.90625 498.855469 C 743.636719 498.59375 742.324219 498.4375 741.011719 498.460938 C 735.433594 498.460938 732.308594 500.648438 732.308594 506.75 L 732.308594 532.214844 L 716.644531 532.214844 Z M 763.71875 523.070312 C 761.421875 523.070312 759.871094 521.125 759.871094 517.929688 C 759.871094 514.738281 760.636719 513.007812 763.085938 511.871094 C 765.535156 510.734375 767.570312 510.953125 768.445312 509.792969 L 768.597656 509.792969 L 768.597656 515.414062 C 768.597656 520.535156 767.242188 523.113281 763.71875 523.113281 M 784.566406 532.347656 C 783.320312 529.152344 782.816406 525.71875 783.101562 522.304688 L 783.101562 499.359375 C 783.101562 487.261719 775.488281 484.4375 764.660156 484.4375 C 757.507812 484.4375 746.65625 486.734375 746.65625 500.078125 L 760.15625 500.078125 C 760.15625 495.203125 761.664062 493.867188 764.59375 493.867188 C 767.527344 493.867188 768.554688 495.355469 768.554688 498.15625 C 768.554688 500.953125 767.328125 502.441406 763.960938 503.164062 L 757.75 504.695312 C 747.792969 507.035156 744.730469 511.082031 744.730469 519.769531 C 744.730469 527.753906 748.429688 533.527344 757.75 533.527344 C 762.277344 533.703125 766.453125 531.144531 768.335938 527.03125 L 768.488281 527.03125 C 768.640625 528.800781 768.949219 530.574219 769.40625 532.28125 Z M 784.566406 532.347656 " fill-opacity="1" fill-rule="nonzero"/><path fill="#000000" d="M 790.234375 470.503906 L 805.808594 470.503906 L 805.808594 532.28125 L 790.234375 532.28125 Z M 790.234375 470.503906 " fill-opacity="1" fill-rule="nonzero"/><path fill="#000000" d="M 386.347656 565.488281 L 389.324219 565.488281 C 393.457031 565.488281 395.535156 567.828125 395.535156 572.96875 C 395.535156 578.109375 393.457031 580.515625 389.324219 580.515625 L 386.347656 580.515625 Z M 370.25 615.582031 L 386.328125 615.582031 L 386.328125 592.066406 L 391.925781 592.066406 C 404.941406 592.066406 412.160156 585.480469 412.160156 572.902344 C 412.160156 562.050781 406.605469 553.847656 394.332031 553.847656 L 370.25 553.847656 Z M 415.269531 568.898438 L 430.382812 568.898438 L 430.382812 576.273438 L 430.582031 576.273438 C 432.332031 570.671875 436.488281 567.675781 440.929688 567.675781 L 443.464844 567.675781 L 443.464844 582.179688 C 442.195312 581.960938 440.90625 581.851562 439.617188 581.851562 C 434.015625 581.851562 430.886719 583.929688 430.886719 590.140625 L 430.886719 615.601562 L 415.203125 615.601562 Z M 460.375 592.285156 C 460.375 580.472656 461.207031 577.648438 464.664062 577.648438 C 468.117188 577.648438 469.015625 580.472656 469.015625 592.285156 C 469.015625 604.097656 468.226562 606.789062 464.664062 606.789062 C 461.117188 606.765625 460.375 603.964844 460.375 592.285156 M 484.589844 592.285156 C 484.589844 578.832031 482.972656 567.695312 464.664062 567.695312 C 447.097656 567.695312 444.757812 579.945312 444.757812 592.152344 C 444.757812 605.714844 446.398438 616.828125 464.664062 616.828125 C 482.292969 616.804688 484.589844 604.511719 484.589844 592.285156 M 504.015625 591.015625 C 504.015625 581.304688 505.570312 579.289062 508.542969 579.289062 C 511.519531 579.289062 512.855469 581.367188 512.855469 591.015625 C 512.855469 600.664062 511.386719 602.71875 508.542969 602.71875 C 505.699219 602.71875 504.015625 600.816406 504.015625 591.015625 M 513.335938 575.332031 C 512.089844 570.671875 507.800781 567.5 502.988281 567.675781 C 493.886719 567.675781 488.484375 573.210938 488.484375 591.257812 C 488.484375 610.679688 495.902344 614.289062 502.15625 614.289062 C 506.859375 614.617188 511.191406 611.730469 512.699219 607.269531 L 512.898438 607.269531 L 512.898438 616.257812 C 512.898438 621.421875 510.492188 622.011719 508.152344 622.011719 C 506.292969 622.277344 504.585938 620.960938 504.324219 619.125 C 504.277344 618.882812 504.277344 618.644531 504.300781 618.402344 L 490.234375 618.402344 C 490.476562 629.035156 498.371094 631.550781 508.390625 631.550781 C 519.371094 631.550781 527.925781 627.679688 527.925781 614.992188 L 527.925781 569.03125 L 513.421875 569.03125 Z M 534.027344 568.898438 L 549.101562 568.898438 L 549.101562 576.273438 L 549.253906 576.273438 C 551.003906 570.671875 555.160156 567.675781 559.753906 567.675781 L 562.25 567.675781 L 562.25 582.179688 C 560.980469 581.960938 559.6875 581.851562 558.398438 581.851562 C 552.820312 581.851562 549.671875 583.929688 549.671875 590.140625 L 549.671875 615.601562 L 534.050781 615.601562 Z M 581.804688 606.371094 C 579.464844 606.371094 577.933594 604.402344 577.933594 601.296875 C 577.933594 598.191406 578.765625 596.308594 581.214844 595.085938 C 583.664062 593.859375 585.65625 594.1875 586.53125 593.007812 L 586.53125 598.738281 C 586.53125 603.878906 585.195312 606.460938 581.695312 606.460938 M 602.519531 615.691406 C 601.253906 613.328125 601.054688 610.003906 601.054688 605.648438 L 601.054688 582.660156 C 601.054688 570.605469 593.507812 567.761719 582.417969 567.761719 C 575.328125 567.761719 564.546875 570.058594 564.546875 583.335938 L 578.019531 583.335938 C 578.019531 578.546875 579.53125 577.300781 582.503906 577.300781 C 585.128906 577.300781 586.398438 578.65625 586.398438 581.433594 C 586.398438 584.210938 585.21875 585.765625 581.890625 586.507812 L 575.679688 588.019531 C 565.726562 590.359375 562.664062 594.363281 562.664062 603.046875 C 562.664062 611.097656 566.339844 616.851562 575.636719 616.851562 C 580.164062 617.070312 584.386719 614.507812 586.265625 610.375 C 586.464844 612.148438 586.8125 613.898438 587.25 615.625 Z M 630.957031 584.804688 C 630.957031 580.886719 629.929688 579.289062 627.152344 579.289062 C 624.375 579.289062 623.347656 580.886719 623.347656 584.804688 L 623.347656 615.582031 L 607.726562 615.582031 L 607.726562 568.898438 L 622.800781 568.898438 L 622.800781 574.609375 L 623.019531 574.609375 C 624.898438 570.101562 629.425781 567.304688 634.304688 567.675781 C 640.695312 567.675781 643.800781 570.058594 645.746094 574.828125 C 647.824219 570.234375 652.527344 567.367188 657.558594 567.675781 C 664.382812 567.675781 669.765625 570.367188 669.765625 580.382812 L 669.765625 615.582031 L 654.125 615.582031 L 654.125 584.804688 C 654.125 580.886719 653.097656 579.289062 650.339844 579.289062 C 647.585938 579.289062 646.535156 580.886719 646.535156 584.804688 L 646.535156 615.582031 L 630.914062 615.582031 L 630.914062 584.804688 Z M 687.460938 601.121094 C 687.351562 602.742188 687.769531 604.335938 688.621094 605.695312 C 689.367188 606.742188 690.589844 607.355469 691.882812 607.355469 C 694.15625 607.53125 696.148438 605.824219 696.320312 603.550781 C 696.320312 603.484375 696.320312 603.441406 696.320312 603.375 C 696.320312 595.085938 673.769531 600.007812 673.769531 582.289062 C 673.769531 573.996094 679.804688 567.695312 692.40625 567.695312 C 704.023438 567.695312 709.929688 572.640625 709.929688 582.398438 L 696.410156 582.398438 C 696.410156 578.4375 694.835938 577.210938 692.273438 577.210938 C 690.304688 577.015625 688.554688 578.4375 688.335938 580.40625 C 688.316406 580.558594 688.316406 580.691406 688.316406 580.84375 C 688.316406 588.542969 710.871094 583.359375 710.871094 601.230469 C 710.871094 610.265625 703.824219 616.851562 692.230469 616.851562 C 679.148438 616.851562 673.855469 611.335938 673.855469 601.144531 Z M 687.460938 601.121094 " fill-opacity="1" fill-rule="nonzero"/></svg>