<svg xmlns="http://www.w3.org/2000/svg" xmlns:xlink="http://www.w3.org/1999/xlink" width="1080" zoomAndPan="magnify" viewBox="0 0 810 203.249992" height="271" preserveAspectRatio="xMidYMid meet" version="1.0"><defs><clipPath id="4bf05c59b7"><path d="M 2.125 0 L 205 0 L 205 202.503906 L 2.125 202.503906 Z M 2.125 0 " clip-rule="nonzero"/></clipPath><clipPath id="e86a8ebb22"><path d="M 224 0 L 807.652344 0 L 807.652344 202.503906 L 224 202.503906 Z M 224 0 " clip-rule="nonzero"/></clipPath></defs><g clip-path="url(#4bf05c59b7)"><path fill="#000000" d="M 204.203125 202.296875 L 2.125 202.296875 L 2.125 0.214844 L 204.203125 0.214844 L 204.203125 202.296875 " fill-opacity="1" fill-rule="nonzero"/></g><g clip-path="url(#e86a8ebb22)"><path fill="#000000" d="M 807.839844 202.296875 L 224.925781 202.296875 L 224.925781 0.214844 L 807.839844 0.214844 L 807.839844 202.296875 " fill-opacity="1" fill-rule="nonzero"/></g><path fill="#ffffff" d="M 103.378906 153.675781 C 90.203125 153.675781 79.84375 149.800781 72.574219 142.167969 C 62.5625 131.648438 62.507812 118.125 62.589844 115.632812 L 62.589844 30.890625 L 79.636719 30.890625 L 79.625 116.222656 C 79.628906 116.230469 79.425781 124.742188 85.027344 130.527344 C 88.949219 134.578125 95.125 136.628906 103.378906 136.628906 C 111.582031 136.628906 117.65625 134.605469 121.433594 130.609375 C 126.824219 124.90625 126.414062 116.441406 126.410156 116.359375 L 126.390625 115.800781 L 126.390625 48.359375 L 143.4375 30.890625 L 143.4375 115.542969 C 143.582031 118.335938 143.707031 131.667969 134.019531 142.105469 C 126.890625 149.78125 116.582031 153.675781 103.378906 153.675781 " fill-opacity="1" fill-rule="nonzero"/><path fill="#ffffff" d="M 103.464844 172.597656 C 83.972656 172.597656 68.667969 166.921875 57.972656 155.734375 C 42.722656 139.78125 42.824219 118.335938 42.898438 115.660156 L 42.898438 48.359375 L 59.945312 30.890625 L 59.9375 116.183594 C 59.933594 116.304688 59.480469 132.757812 70.40625 144.070312 C 77.757812 151.6875 88.878906 155.550781 103.464844 155.550781 C 117.792969 155.550781 128.691406 151.746094 135.855469 144.25 C 146.644531 132.949219 146.011719 116.398438 146.007812 116.230469 L 145.996094 115.800781 L 145.996094 30.890625 L 163.042969 30.890625 L 163.042969 115.621094 C 163.144531 118.511719 163.386719 139.949219 148.34375 155.851562 C 137.835938 166.960938 122.734375 172.597656 103.464844 172.597656 " fill-opacity="1" fill-rule="nonzero"/><path fill="#ffffff" d="M 365.433594 42.980469 L 365.433594 106.828125 C 365.433594 110.4375 365.332031 114.058594 365.132812 117.667969 C 364.929688 121.28125 364.453125 124.800781 363.699219 128.207031 C 362.949219 131.625 361.765625 134.910156 360.164062 138.074219 C 358.554688 141.234375 356.347656 144.171875 353.535156 146.878906 C 351.128906 149.191406 348.441406 151.144531 345.484375 152.75 C 342.519531 154.359375 339.40625 155.664062 336.148438 156.667969 C 332.882812 157.671875 329.523438 158.398438 326.054688 158.847656 C 322.59375 159.300781 319.207031 159.53125 315.894531 159.53125 C 312.582031 159.53125 309.191406 159.300781 305.730469 158.847656 C 302.265625 158.398438 298.902344 157.671875 295.640625 156.667969 C 292.378906 155.664062 289.265625 154.359375 286.304688 152.75 C 283.34375 151.144531 280.660156 149.191406 278.25 146.878906 C 275.4375 144.171875 273.230469 141.234375 271.625 138.074219 C 270.015625 134.910156 268.839844 131.625 268.085938 128.207031 C 267.332031 124.800781 266.855469 121.28125 266.65625 117.667969 C 266.453125 114.058594 266.355469 110.4375 266.355469 106.828125 L 266.355469 42.980469 L 295.867188 42.980469 L 295.867188 102.757812 C 295.867188 106.476562 296.015625 110.167969 296.320312 113.828125 C 296.621094 117.492188 297.421875 120.804688 298.726562 123.765625 C 300.03125 126.730469 302.039062 129.109375 304.75 130.921875 C 307.460938 132.722656 311.175781 133.628906 315.894531 133.628906 C 320.613281 133.628906 324.324219 132.722656 327.035156 130.921875 C 329.75 129.109375 331.75 126.730469 333.0625 123.765625 C 334.363281 120.804688 335.167969 117.492188 335.46875 113.828125 C 335.769531 110.167969 335.917969 106.476562 335.917969 102.757812 L 335.917969 42.980469 L 365.433594 42.980469 " fill-opacity="1" fill-rule="nonzero"/><path fill="#ffffff" d="M 380.550781 42.980469 L 425.726562 42.980469 C 431.851562 42.980469 437.445312 43.714844 442.515625 45.167969 C 447.582031 46.621094 451.925781 48.855469 455.539062 51.863281 C 459.148438 54.878906 461.960938 58.742188 463.972656 63.460938 C 465.976562 68.179688 466.984375 73.800781 466.984375 80.324219 C 466.984375 93.773438 463.515625 103.5625 456.59375 109.691406 C 449.667969 115.808594 439.726562 118.875 426.777344 118.875 L 410.066406 118.875 L 410.066406 156.515625 L 380.550781 156.515625 Z M 410.066406 95.078125 L 415.035156 95.078125 C 417.746094 95.078125 420.351562 95.007812 422.867188 94.855469 C 425.375 94.707031 427.632812 94.203125 429.644531 93.347656 C 431.644531 92.5 433.253906 91.144531 434.457031 89.285156 C 435.664062 87.425781 436.269531 84.742188 436.269531 81.230469 C 436.269531 77.613281 435.683594 74.828125 434.535156 72.871094 C 433.382812 70.914062 431.851562 69.484375 429.941406 68.578125 C 428.03125 67.675781 425.773438 67.148438 423.164062 67 C 420.550781 66.847656 417.84375 66.773438 415.035156 66.773438 L 410.066406 66.773438 L 410.066406 95.078125 " fill-opacity="1" fill-rule="nonzero"/><path fill="#ffffff" d="M 607.53125 67.980469 L 607.53125 86.949219 L 647.960938 86.949219 L 647.960938 111.949219 L 607.53125 111.949219 L 607.53125 131.519531 L 657.195312 131.519531 L 657.195312 156.515625 L 578.015625 156.515625 L 578.015625 42.980469 L 657.195312 42.980469 L 657.195312 67.980469 L 607.53125 67.980469 " fill-opacity="1" fill-rule="nonzero"/><path fill="#ffffff" d="M 676.453125 42.980469 L 721.628906 42.980469 C 727.75 42.980469 733.347656 43.714844 738.414062 45.167969 C 743.484375 46.621094 747.828125 48.855469 751.441406 51.863281 C 755.050781 54.878906 757.863281 58.742188 759.875 63.460938 C 761.878906 68.179688 762.886719 73.800781 762.886719 80.324219 C 762.886719 93.773438 759.417969 103.5625 752.496094 109.691406 C 745.570312 115.808594 735.632812 118.875 722.679688 118.875 L 705.96875 118.875 L 705.96875 156.515625 L 676.453125 156.515625 Z M 705.96875 95.078125 L 710.9375 95.078125 C 713.648438 95.078125 716.257812 95.007812 718.765625 94.855469 C 721.273438 94.707031 723.535156 94.203125 725.542969 93.347656 C 727.546875 92.5 729.15625 91.144531 730.359375 89.285156 C 731.566406 87.425781 732.167969 84.742188 732.167969 81.230469 C 732.167969 77.613281 731.589844 74.828125 730.4375 72.871094 C 729.28125 70.914062 727.75 69.484375 725.847656 68.578125 C 723.933594 67.675781 721.679688 67.148438 719.066406 67 C 716.453125 66.847656 713.746094 66.773438 710.9375 66.773438 L 705.96875 66.773438 L 705.96875 95.078125 " fill-opacity="1" fill-rule="nonzero"/><path fill="#ffffff" d="M 538.746094 156.515625 L 568.238281 156.515625 L 512.644531 42.980469 L 457.054688 156.515625 L 486.402344 156.515625 L 492.910156 142.449219 L 532.273438 142.449219 Z M 502.574219 121.5625 L 512.644531 99.800781 L 522.664062 121.5625 Z M 502.574219 121.5625 " fill-opacity="1" fill-rule="nonzero"/></svg>