<svg xmlns="http://www.w3.org/2000/svg" xmlns:xlink="http://www.w3.org/1999/xlink" width="1080" zoomAndPan="magnify" viewBox="0 0 810 152.249993" height="203" preserveAspectRatio="xMidYMid meet" version="1.0"><defs><clipPath id="19e54c5b94"><path d="M 127 0.140625 L 425 0.140625 L 425 151.503906 L 127 151.503906 Z M 127 0.140625 " clip-rule="nonzero"/></clipPath><clipPath id="8a4fb8ae5f"><path d="M 480 45 L 686 45 L 686 151.503906 L 480 151.503906 Z M 480 45 " clip-rule="nonzero"/></clipPath></defs><path fill="#000000" d="M 9.734375 96.667969 C 4.730469 94.230469 2.226562 89.800781 2.226562 83.382812 C 2.226562 76.964844 4.792969 72.472656 9.929688 69.90625 C 53.953125 43.851562 79.238281 28.832031 85.785156 24.855469 C 92.332031 20.875 96.246094 18.695312 97.53125 18.308594 C 98.941406 17.667969 100.609375 17.347656 102.535156 17.347656 C 106 17.347656 109.597656 20.492188 113.316406 26.78125 C 115.757812 30.757812 116.976562 33.777344 116.976562 35.828125 C 116.976562 37.753906 116.527344 39.421875 115.628906 40.835938 C 114.472656 42.886719 111.839844 45.261719 107.734375 47.957031 C 69.484375 70.550781 49.589844 82.359375 48.050781 83.382812 L 107.734375 118.808594 C 110.171875 120.222656 111.90625 121.378906 112.933594 122.277344 C 115.757812 124.585938 117.167969 127.089844 117.167969 129.785156 C 117.167969 132.351562 116.011719 135.496094 113.703125 139.21875 C 111.519531 142.8125 109.53125 145.378906 107.734375 146.917969 C 105.9375 148.460938 104.074219 149.230469 102.152344 149.230469 C 99.585938 149.230469 96.246094 148.011719 92.140625 145.570312 Z M 800.054688 69.90625 C 805.191406 72.472656 807.757812 76.964844 807.757812 83.382812 C 807.757812 89.800781 805.253906 94.230469 800.25 96.667969 L 718.039062 145.570312 C 711.492188 149.808594 706.226562 150.257812 702.25 146.917969 C 700.453125 145.378906 698.589844 143.070312 696.667969 139.988281 C 694.097656 135.753906 692.816406 132.671875 692.816406 130.746094 C 692.816406 128.820312 693.199219 127.152344 693.972656 125.742188 C 695.382812 123.558594 698.140625 121.25 702.25 118.808594 L 762.128906 83.382812 L 702.441406 47.957031 C 700.132812 46.546875 698.398438 45.390625 697.242188 44.492188 C 694.417969 42.054688 693.007812 39.421875 693.007812 36.597656 C 693.007812 34.03125 694.097656 30.953125 696.28125 27.359375 C 700.261719 20.683594 703.984375 17.347656 707.449219 17.347656 C 710.527344 17.347656 713.996094 18.566406 717.84375 21.003906 Z M 800.054688 69.90625 " fill-opacity="1" fill-rule="nonzero"/><g clip-path="url(#19e54c5b94)"><path fill="#000000" d="M 127.75 17.347656 C 127.75 14.394531 127.8125 12.210938 127.941406 10.800781 C 128.199219 9.261719 128.773438 7.527344 129.671875 5.601562 C 131.472656 2.136719 136.476562 0.402344 144.691406 0.402344 C 152.519531 0.402344 157.398438 2.136719 159.324219 5.601562 C 160.351562 7.527344 160.929688 9.261719 161.054688 10.800781 C 161.3125 12.339844 161.441406 14.585938 161.441406 17.539062 L 161.441406 106.679688 C 161.441406 111.300781 161.824219 114.253906 162.597656 115.535156 C 163.367188 116.691406 165.035156 117.269531 167.601562 117.269531 C 170.296875 117.269531 172.09375 117.398438 172.992188 117.65625 C 173.890625 117.78125 174.984375 118.296875 176.265625 119.195312 C 178.832031 120.863281 180.117188 125.421875 180.117188 132.863281 C 180.117188 140.949219 178.832031 145.890625 176.265625 147.691406 C 172.929688 150 164.972656 150.386719 152.390625 148.84375 C 142.507812 147.5625 136.089844 144.289062 133.140625 139.027344 C 129.546875 132.738281 127.75 122.726562 127.75 108.992188 Z M 190.734375 65.09375 C 190.734375 62.140625 190.796875 59.960938 190.929688 58.546875 C 191.183594 57.007812 191.761719 55.273438 192.660156 53.347656 C 194.457031 50.011719 199.460938 48.34375 207.679688 48.34375 C 213.839844 48.34375 218.203125 49.433594 220.769531 51.617188 C 222.953125 53.414062 224.105469 56.171875 224.234375 59.894531 C 224.363281 61.179688 224.429688 63.039062 224.429688 65.480469 L 224.429688 132.863281 C 224.429688 135.816406 224.300781 138.0625 224.042969 139.601562 C 223.914062 141.015625 223.335938 142.683594 222.308594 144.609375 C 220.640625 147.945312 215.699219 149.613281 207.484375 149.613281 C 199.398438 149.613281 194.457031 147.882812 192.660156 144.417969 C 191.761719 142.492188 191.183594 140.824219 190.929688 139.410156 C 190.796875 138 190.734375 135.753906 190.734375 132.671875 Z M 222.308594 29.476562 C 221.410156 31.273438 219.742188 32.554688 217.304688 33.328125 C 214.863281 34.097656 211.59375 34.480469 207.484375 34.480469 C 203.503906 34.480469 200.296875 34.097656 197.859375 33.328125 C 195.417969 32.554688 193.6875 31.207031 192.660156 29.28125 C 191.761719 27.359375 191.183594 25.6875 190.929688 24.277344 C 190.796875 22.738281 190.734375 20.492188 190.734375 17.539062 C 190.734375 14.585938 190.796875 12.40625 190.929688 10.992188 C 191.183594 9.453125 191.761719 7.785156 192.660156 5.988281 C 194.457031 2.519531 199.460938 0.789062 207.679688 0.789062 C 215.765625 0.789062 220.640625 2.519531 222.308594 5.988281 C 223.335938 7.910156 223.914062 9.644531 224.042969 11.183594 C 224.300781 12.597656 224.429688 14.777344 224.429688 17.730469 C 224.429688 20.683594 224.300781 22.929688 224.042969 24.46875 C 223.914062 25.882812 223.335938 27.550781 222.308594 29.476562 Z M 299.492188 98.785156 L 325.097656 119.964844 C 328.308594 122.660156 330.296875 124.714844 331.066406 126.125 C 331.964844 127.539062 332.414062 128.886719 332.414062 130.167969 C 332.414062 133.25 330.425781 137.421875 326.445312 142.683594 C 322.082031 148.074219 318.230469 150.769531 314.894531 150.769531 C 312.070312 150.769531 308.15625 148.910156 303.152344 145.1875 L 301.226562 143.839844 C 298.273438 141.402344 293.714844 137.164062 287.554688 131.132812 C 281.394531 124.972656 276.710938 120.605469 273.5 118.039062 L 273.5 132.863281 C 273.5 135.816406 273.371094 138.0625 273.117188 139.601562 C 272.988281 141.015625 272.410156 142.683594 271.382812 144.609375 C 269.714844 147.945312 264.773438 149.613281 256.558594 149.613281 C 248.472656 149.613281 243.53125 147.882812 241.734375 144.417969 C 240.835938 142.492188 240.257812 140.824219 240 139.410156 C 239.871094 137.871094 239.808594 135.625 239.808594 132.671875 L 239.808594 17.347656 C 239.808594 14.394531 239.871094 12.210938 240 10.800781 C 240.257812 9.261719 240.835938 7.527344 241.734375 5.601562 C 243.53125 2.136719 248.535156 0.402344 256.75 0.402344 C 262.910156 0.402344 267.277344 1.496094 269.84375 3.675781 C 272.023438 5.472656 273.179688 8.296875 273.308594 12.148438 C 273.4375 13.304688 273.5 15.101562 273.5 17.539062 L 273.5 78.570312 C 275.8125 76.644531 279.277344 73.371094 283.898438 68.753906 C 288.644531 64.132812 292.175781 60.859375 294.488281 58.933594 L 296.796875 57.394531 C 301.289062 53.925781 305.140625 52.195312 308.347656 52.195312 C 311.558594 52.195312 315.214844 54.824219 319.324219 60.089844 C 323.558594 65.222656 325.675781 69.265625 325.675781 72.21875 C 325.675781 75.167969 323.300781 78.636719 318.554688 82.613281 Z M 343.800781 140.566406 C 341.363281 139.027344 340.140625 136.585938 340.140625 133.25 C 340.140625 129.914062 342.582031 124.84375 347.457031 118.039062 C 348.871094 115.859375 351.117188 114.765625 354.195312 114.765625 C 357.40625 114.765625 361.707031 116.371094 367.097656 119.582031 C 372.488281 122.660156 377.363281 124.199219 381.726562 124.199219 C 389.558594 124.199219 393.472656 122.660156 393.472656 119.582031 C 393.472656 117.140625 389.171875 115.34375 380.574219 114.1875 C 372.488281 113.035156 364.464844 110.019531 356.507812 105.140625 C 352.785156 102.828125 349.703125 99.234375 347.265625 94.359375 C 344.828125 89.351562 343.605469 83.449219 343.605469 76.644531 C 343.605469 56.367188 357.535156 46.226562 385.386719 46.226562 C 394.5 46.226562 403.871094 48.40625 413.496094 52.773438 C 417.988281 54.824219 420.234375 57.394531 420.234375 60.472656 C 420.234375 63.554688 418.824219 67.339844 416 71.832031 C 413.175781 76.324219 410.289062 78.570312 407.335938 78.570312 C 405.792969 78.570312 402.90625 77.609375 398.671875 75.683594 C 394.566406 73.757812 390.070312 72.796875 385.195312 72.796875 C 377.621094 72.796875 373.835938 74.207031 373.835938 77.03125 C 373.835938 80.882812 378.199219 83.382812 386.925781 84.539062 C 395.398438 85.4375 403.613281 87.875 411.570312 91.855469 C 415.292969 93.652344 418.375 96.796875 420.8125 101.289062 C 423.378906 105.652344 424.664062 111.171875 424.664062 117.847656 C 424.664062 124.519531 423.378906 130.234375 420.8125 134.984375 C 418.375 139.601562 414.910156 143.070312 410.414062 145.378906 C 402.203125 149.359375 391.871094 151.347656 379.417969 151.347656 C 367.097656 151.347656 355.222656 147.753906 343.800781 140.566406 Z M 343.800781 140.566406 " fill-opacity="1" fill-rule="nonzero"/></g><path fill="#000000" d="M 467.070312 117.847656 C 469.253906 120.03125 470.34375 124.519531 470.34375 131.324219 L 470.34375 132.09375 C 470.34375 135.175781 470.214844 137.484375 469.957031 139.027344 C 469.828125 140.4375 469.1875 142.171875 468.03125 144.222656 C 466.105469 147.945312 461.230469 149.808594 453.398438 149.808594 C 445.699219 149.808594 440.566406 148.585938 437.996094 146.148438 C 435.558594 143.710938 434.339844 139.089844 434.339844 132.289062 L 434.339844 131.515625 C 434.339844 128.566406 434.402344 126.320312 434.53125 124.777344 C 434.789062 123.238281 435.429688 121.503906 436.457031 119.582031 C 438.382812 115.730469 443.195312 113.804688 450.898438 113.804688 C 458.726562 113.804688 464.117188 115.152344 467.070312 117.847656 Z M 467.070312 117.847656 " fill-opacity="1" fill-rule="nonzero"/><g clip-path="url(#8a4fb8ae5f)"><path fill="#000000" d="M 514.683594 98.980469 C 514.683594 104.371094 516.480469 108.605469 520.074219 111.6875 C 523.667969 114.640625 527.453125 116.113281 531.433594 116.113281 C 535.539062 116.113281 539.328125 114.960938 542.792969 112.648438 C 546.386719 110.210938 549.273438 108.992188 551.457031 108.992188 C 555.308594 108.992188 559.992188 112.390625 565.511719 119.195312 C 568.464844 122.917969 569.941406 126.253906 569.941406 129.207031 C 569.941406 134.085938 566.410156 138.640625 559.351562 142.875 C 552.035156 148.011719 543.050781 150.578125 532.398438 150.578125 C 520.460938 150.578125 508.972656 146.277344 497.933594 137.679688 C 492.671875 133.570312 488.371094 128.117188 485.035156 121.3125 C 481.695312 114.382812 480.027344 106.808594 480.027344 98.59375 C 480.027344 90.25 481.695312 82.742188 485.035156 76.066406 C 488.371094 69.265625 492.671875 63.808594 497.933594 59.703125 C 508.585938 51.230469 519.945312 46.996094 532.011719 46.996094 C 536.886719 46.996094 541.636719 47.703125 546.257812 49.113281 C 550.878906 50.398438 554.28125 51.679688 556.464844 52.964844 L 559.542969 54.890625 C 561.855469 56.429688 563.648438 57.648438 564.933594 58.546875 C 568.269531 61.113281 569.941406 64.066406 569.941406 67.402344 C 569.941406 70.613281 568.59375 74.269531 565.898438 78.378906 C 561.277344 85.4375 556.847656 88.96875 552.613281 88.96875 C 550.171875 88.96875 546.707031 87.554688 542.214844 84.730469 C 539.90625 82.550781 536.566406 81.460938 532.203125 81.460938 C 527.96875 81.460938 523.988281 83 520.265625 86.078125 C 516.542969 89.160156 514.683594 93.460938 514.683594 98.980469 Z M 579.488281 98.980469 C 579.488281 83.578125 584.878906 70.871094 595.664062 60.859375 C 606.445312 50.847656 618.765625 45.839844 632.628906 45.839844 C 646.492188 45.839844 658.746094 50.847656 669.402344 60.859375 C 680.054688 70.742188 685.382812 83.382812 685.382812 98.785156 C 685.382812 109.441406 682.621094 118.9375 677.101562 127.28125 C 671.585938 135.496094 664.84375 141.59375 656.886719 145.570312 C 649.058594 149.421875 640.90625 151.347656 632.4375 151.347656 C 623.964844 151.347656 615.75 149.292969 607.792969 145.1875 C 599.832031 140.949219 593.09375 134.789062 587.574219 126.703125 C 582.183594 118.488281 579.488281 109.25 579.488281 98.980469 Z M 619.730469 112.839844 C 623.835938 115.921875 628.007812 117.460938 632.242188 117.460938 C 636.480469 117.460938 640.714844 115.859375 644.949219 112.648438 C 649.1875 109.441406 651.304688 104.691406 651.304688 98.402344 C 651.304688 92.113281 649.3125 87.425781 645.335938 84.347656 C 641.355469 81.265625 637.054688 79.726562 632.4375 79.726562 C 627.816406 79.726562 623.515625 81.332031 619.535156 84.539062 C 615.558594 87.75 613.566406 92.496094 613.566406 98.785156 C 613.566406 104.949219 615.621094 109.632812 619.730469 112.839844 Z M 619.730469 112.839844 " fill-opacity="1" fill-rule="nonzero"/></g></svg>