<svg xmlns="http://www.w3.org/2000/svg" xmlns:xlink="http://www.w3.org/1999/xlink" width="1080" zoomAndPan="magnify" viewBox="0 0 810 274.499992" height="366" preserveAspectRatio="xMidYMid meet" version="1.0"><defs><clipPath id="17f4458f71"><path d="M 0.738281 0 L 77 0 L 77 76 L 0.738281 76 Z M 0.738281 0 " clip-rule="nonzero"/></clipPath><clipPath id="6b0c0495bb"><path d="M 289 82 L 469 82 L 469 274 L 289 274 Z M 289 82 " clip-rule="nonzero"/></clipPath></defs><g clip-path="url(#17f4458f71)"><path fill="#000000" d="M 76.675781 37.972656 C 76.675781 39.214844 76.617188 40.453125 76.492188 41.6875 C 76.371094 42.925781 76.191406 44.152344 75.949219 45.367188 C 75.707031 46.585938 75.402344 47.789062 75.042969 48.976562 C 74.683594 50.167969 74.265625 51.332031 73.789062 52.480469 C 73.3125 53.628906 72.78125 54.75 72.195312 55.84375 C 71.613281 56.9375 70.972656 58.003906 70.28125 59.035156 C 69.59375 60.066406 68.851562 61.0625 68.066406 62.023438 C 67.277344 62.984375 66.445312 63.902344 65.566406 64.78125 C 64.6875 65.660156 63.765625 66.492188 62.804688 67.277344 C 61.847656 68.066406 60.847656 68.804688 59.816406 69.496094 C 58.78125 70.183594 57.71875 70.824219 56.621094 71.410156 C 55.527344 71.992188 54.40625 72.523438 53.257812 73 C 52.109375 73.472656 50.941406 73.890625 49.75 74.253906 C 48.5625 74.613281 47.359375 74.914062 46.140625 75.15625 C 44.921875 75.398438 43.695312 75.582031 42.457031 75.703125 C 41.222656 75.824219 39.980469 75.886719 38.738281 75.886719 C 37.496094 75.886719 36.257812 75.824219 35.019531 75.703125 C 33.785156 75.582031 32.554688 75.398438 31.335938 75.15625 C 30.121094 74.914062 28.914062 74.613281 27.726562 74.253906 C 26.539062 73.890625 25.367188 73.472656 24.222656 73 C 23.074219 72.523438 21.953125 71.992188 20.855469 71.410156 C 19.757812 70.824219 18.695312 70.183594 17.664062 69.496094 C 16.628906 68.804688 15.632812 68.066406 14.671875 67.277344 C 13.710938 66.492188 12.792969 65.660156 11.914062 64.78125 C 11.035156 63.902344 10.203125 62.984375 9.414062 62.023438 C 8.625 61.0625 7.886719 60.066406 7.195312 59.035156 C 6.503906 58.003906 5.867188 56.9375 5.28125 55.84375 C 4.695312 54.75 4.164062 53.628906 3.6875 52.480469 C 3.214844 51.332031 2.796875 50.167969 2.433594 48.976562 C 2.074219 47.789062 1.773438 46.585938 1.53125 45.367188 C 1.289062 44.152344 1.105469 42.925781 0.984375 41.6875 C 0.863281 40.453125 0.800781 39.214844 0.800781 37.972656 C 0.800781 36.730469 0.863281 35.492188 0.984375 34.257812 C 1.105469 33.019531 1.289062 31.792969 1.53125 30.574219 C 1.773438 29.359375 2.074219 28.15625 2.433594 26.96875 C 2.796875 25.777344 3.214844 24.609375 3.6875 23.464844 C 4.164062 22.316406 4.695312 21.195312 5.28125 20.101562 C 5.867188 19.003906 6.503906 17.941406 7.195312 16.910156 C 7.886719 15.875 8.625 14.878906 9.414062 13.921875 C 10.203125 12.960938 11.035156 12.042969 11.914062 11.164062 C 12.792969 10.285156 13.710938 9.453125 14.671875 8.664062 C 15.632812 7.878906 16.628906 7.140625 17.664062 6.449219 C 18.695312 5.757812 19.757812 5.121094 20.855469 4.535156 C 21.953125 3.949219 23.074219 3.421875 24.222656 2.945312 C 25.367188 2.46875 26.539062 2.050781 27.726562 1.691406 C 28.914062 1.332031 30.121094 1.03125 31.335938 0.789062 C 32.554688 0.546875 33.785156 0.363281 35.019531 0.242188 C 36.257812 0.121094 37.496094 0.0585938 38.738281 0.0585938 C 39.980469 0.0585938 41.222656 0.121094 42.457031 0.242188 C 43.695312 0.363281 44.921875 0.546875 46.140625 0.789062 C 47.359375 1.03125 48.5625 1.332031 49.75 1.691406 C 50.941406 2.050781 52.109375 2.46875 53.257812 2.945312 C 54.40625 3.421875 55.527344 3.949219 56.621094 4.535156 C 57.71875 5.121094 58.78125 5.757812 59.816406 6.449219 C 60.847656 7.140625 61.847656 7.878906 62.804688 8.664062 C 63.765625 9.453125 64.6875 10.285156 65.566406 11.164062 C 66.445312 12.042969 67.277344 12.960938 68.066406 13.921875 C 68.851562 14.878906 69.59375 15.875 70.28125 16.910156 C 70.972656 17.941406 71.613281 19.003906 72.195312 20.101562 C 72.78125 21.195312 73.3125 22.316406 73.789062 23.464844 C 74.265625 24.609375 74.683594 25.777344 75.042969 26.96875 C 75.402344 28.15625 75.707031 29.359375 75.949219 30.574219 C 76.191406 31.792969 76.371094 33.019531 76.492188 34.257812 C 76.617188 35.492188 76.675781 36.730469 76.675781 37.972656 Z M 76.675781 37.972656 " fill-opacity="1" fill-rule="nonzero"/></g><g clip-path="url(#6b0c0495bb)"><path fill="#000000" d="M 445.179688 101.40625 C 454.242188 108.304688 461.957031 116.796875 468.320312 126.886719 C 469.25 128.351562 468.960938 129.519531 467.449219 130.390625 L 419.8125 157.960938 C 419.636719 158.0625 419.449219 158.132812 419.246094 158.164062 C 419.046875 158.199219 418.847656 158.195312 418.648438 158.15625 C 418.449219 158.113281 418.261719 158.039062 418.09375 157.929688 C 417.921875 157.824219 417.777344 157.6875 417.65625 157.523438 C 407.242188 143.585938 393.78125 138.3125 377.277344 141.691406 C 364.945312 144.21875 353.832031 154.585938 350.105469 166.691406 C 339.253906 201.992188 377.976562 229.84375 408.222656 209.003906 C 412.164062 206.28125 414.910156 202.753906 417.765625 198.988281 C 417.886719 198.824219 418.035156 198.691406 418.207031 198.582031 C 418.378906 198.472656 418.5625 198.398438 418.761719 198.359375 C 418.960938 198.320312 419.160156 198.316406 419.359375 198.347656 C 419.558594 198.382812 419.746094 198.449219 419.921875 198.550781 L 467.90625 226.273438 C 468.167969 226.421875 468.386719 226.613281 468.566406 226.855469 C 468.746094 227.09375 468.871094 227.359375 468.941406 227.652344 C 469.011719 227.945312 469.019531 228.242188 468.96875 228.539062 C 468.917969 228.835938 468.8125 229.109375 468.648438 229.363281 C 447.699219 261.332031 417.664062 276.335938 378.542969 274.375 C 356.753906 273.265625 333.042969 262.902344 317.398438 246.960938 C 279.351562 208.21875 279.789062 144.394531 320.253906 107.089844 C 353.855469 76.144531 408.898438 73.839844 445.179688 101.40625 Z M 445.179688 101.40625 " fill-opacity="1" fill-rule="nonzero"/></g><path fill="#000000" d="M 158.785156 101.863281 C 174.363281 82.875 205 78.28125 227.25 85.183594 C 261.503906 95.808594 273.359375 127.582031 273.46875 161.007812 C 273.570312 197.753906 273.578125 233.402344 273.488281 267.953125 C 273.488281 268.183594 273.441406 268.402344 273.351562 268.613281 C 273.265625 268.824219 273.140625 269.007812 272.976562 269.171875 C 272.816406 269.332031 272.632812 269.457031 272.421875 269.542969 C 272.210938 269.628906 271.996094 269.671875 271.769531 269.671875 L 214.566406 269.542969 C 214.363281 269.542969 214.164062 269.503906 213.976562 269.425781 C 213.785156 269.347656 213.617188 269.238281 213.472656 269.097656 C 213.328125 268.953125 213.21875 268.789062 213.136719 268.601562 C 213.058594 268.414062 213.019531 268.21875 213.019531 268.019531 C 212.789062 238.300781 212.824219 207.378906 213.128906 175.25 C 213.21875 165.378906 212.148438 158.0625 209.925781 153.300781 C 205.539062 143.9375 197.113281 139.390625 184.648438 139.667969 C 171.867188 139.945312 163.222656 145.460938 158.71875 156.21875 C 156.640625 161.167969 155.644531 168.289062 155.734375 177.582031 C 156.007812 209.054688 156.015625 239.191406 155.753906 267.996094 C 155.753906 268.214844 155.714844 268.425781 155.628906 268.628906 C 155.542969 268.832031 155.425781 269.011719 155.269531 269.167969 C 155.113281 269.320312 154.933594 269.441406 154.734375 269.523438 C 154.53125 269.609375 154.320312 269.652344 154.097656 269.652344 L 96.832031 269.585938 C 96.628906 269.585938 96.429688 269.546875 96.242188 269.46875 C 96.050781 269.390625 95.882812 269.277344 95.738281 269.132812 C 95.59375 268.988281 95.480469 268.820312 95.402344 268.632812 C 95.324219 268.441406 95.285156 268.246094 95.285156 268.039062 L 95.285156 88.472656 C 95.285156 88.328125 95.3125 88.1875 95.367188 88.054688 C 95.425781 87.921875 95.503906 87.804688 95.605469 87.703125 C 95.707031 87.601562 95.824219 87.519531 95.957031 87.464844 C 96.09375 87.410156 96.230469 87.382812 96.375 87.382812 L 154.230469 87.382812 C 155.289062 87.382812 155.855469 87.914062 155.929688 88.972656 C 156.160156 92.675781 156.082031 96.542969 155.691406 100.578125 C 155.328125 104.410156 156.359375 104.839844 158.785156 101.863281 Z M 158.785156 101.863281 " fill-opacity="1" fill-rule="nonzero"/><path fill="#000000" d="M 9.058594 86.925781 L 67.722656 86.925781 C 67.917969 86.925781 68.105469 86.964844 68.289062 87.039062 C 68.46875 87.113281 68.628906 87.21875 68.769531 87.359375 C 68.90625 87.5 69.015625 87.660156 69.089844 87.839844 C 69.164062 88.019531 69.203125 88.210938 69.203125 88.40625 L 69.203125 268.671875 C 69.203125 268.867188 69.164062 269.054688 69.089844 269.238281 C 69.015625 269.417969 68.90625 269.578125 68.769531 269.71875 C 68.628906 269.855469 68.46875 269.964844 68.289062 270.039062 C 68.105469 270.113281 67.917969 270.152344 67.722656 270.152344 L 9.058594 270.152344 C 8.863281 270.152344 8.675781 270.113281 8.492188 270.039062 C 8.3125 269.964844 8.152344 269.855469 8.011719 269.71875 C 7.875 269.578125 7.765625 269.417969 7.691406 269.238281 C 7.617188 269.054688 7.578125 268.867188 7.578125 268.671875 L 7.578125 88.40625 C 7.578125 88.210938 7.617188 88.019531 7.691406 87.839844 C 7.765625 87.660156 7.875 87.5 8.011719 87.359375 C 8.152344 87.21875 8.3125 87.113281 8.492188 87.039062 C 8.675781 86.964844 8.863281 86.925781 9.058594 86.925781 Z M 9.058594 86.925781 " fill-opacity="1" fill-rule="nonzero"/><path fill="#000000" d="M 539.226562 179.082031 C 537.25 175.597656 536.261719 175.859375 536.261719 179.867188 L 536.328125 226.1875 C 536.328125 226.394531 536.289062 226.59375 536.207031 226.785156 C 536.128906 226.976562 536.011719 227.148438 535.863281 227.292969 C 535.714844 227.441406 535.542969 227.554688 535.347656 227.632812 C 535.152344 227.714844 534.949219 227.753906 534.738281 227.753906 L 512.535156 227.753906 C 512.324219 227.753906 512.121094 227.714844 511.925781 227.632812 C 511.730469 227.550781 511.558594 227.4375 511.410156 227.289062 C 511.257812 227.140625 511.144531 226.96875 511.0625 226.773438 C 510.984375 226.578125 510.941406 226.375 510.941406 226.164062 L 510.941406 129.976562 C 510.941406 129.765625 510.984375 129.5625 511.066406 129.371094 C 511.148438 129.175781 511.265625 129.003906 511.414062 128.851562 C 511.566406 128.703125 511.742188 128.589844 511.9375 128.507812 C 512.136719 128.429688 512.339844 128.386719 512.554688 128.386719 L 533.886719 128.476562 C 534.667969 128.472656 535.398438 128.667969 536.074219 129.058594 C 536.753906 129.445312 537.289062 129.976562 537.679688 130.652344 C 544.898438 143.050781 552.492188 155.839844 560.453125 169.023438 C 560.625 169.328125 560.871094 169.550781 561.191406 169.699219 C 561.414062 169.808594 561.640625 169.832031 561.878906 169.761719 C 562.117188 169.695312 562.304688 169.558594 562.433594 169.347656 L 586.097656 129.542969 C 586.289062 129.226562 586.542969 128.976562 586.867188 128.792969 C 587.1875 128.609375 587.535156 128.519531 587.90625 128.519531 L 610.65625 128.476562 C 610.84375 128.476562 611.019531 128.511719 611.191406 128.582031 C 611.363281 128.652344 611.511719 128.753906 611.644531 128.882812 C 611.773438 129.015625 611.875 129.164062 611.945312 129.335938 C 612.015625 129.507812 612.050781 129.683594 612.050781 129.867188 L 612.09375 225.726562 C 612.09375 226 612.042969 226.265625 611.9375 226.515625 C 611.832031 226.769531 611.683594 226.992188 611.488281 227.183594 C 611.292969 227.375 611.070312 227.523438 610.816406 227.625 C 610.5625 227.726562 610.296875 227.777344 610.023438 227.773438 L 588.648438 227.710938 C 588.386719 227.710938 588.132812 227.660156 587.894531 227.558594 C 587.652344 227.457031 587.4375 227.3125 587.253906 227.128906 C 587.070312 226.941406 586.929688 226.726562 586.832031 226.484375 C 586.730469 226.242188 586.683594 225.988281 586.6875 225.726562 L 586.863281 177.210938 C 586.867188 177.027344 586.8125 176.871094 586.699219 176.734375 C 586.585938 176.597656 586.4375 176.511719 586.257812 176.472656 C 586.074219 176.4375 585.890625 176.460938 585.710938 176.542969 C 585.535156 176.621094 585.394531 176.742188 585.292969 176.90625 L 563.414062 213.183594 C 563.152344 213.632812 562.769531 213.933594 562.261719 214.078125 C 561.171875 214.398438 560.355469 214.128906 559.820312 213.273438 C 552.542969 201.847656 545.675781 190.449219 539.226562 179.082031 Z M 539.226562 179.082031 " fill-opacity="1" fill-rule="nonzero"/><path fill="#000000" d="M 679.1875 154.78125 L 679.230469 226.097656 C 679.230469 226.3125 679.191406 226.519531 679.109375 226.714844 C 679.027344 226.914062 678.910156 227.085938 678.761719 227.238281 C 678.609375 227.390625 678.433594 227.503906 678.238281 227.585938 C 678.039062 227.667969 677.832031 227.710938 677.621094 227.710938 L 655.242188 227.753906 C 655.027344 227.753906 654.820312 227.710938 654.625 227.632812 C 654.425781 227.550781 654.25 227.433594 654.101562 227.28125 C 653.949219 227.128906 653.832031 226.957031 653.75 226.757812 C 653.667969 226.5625 653.628906 226.355469 653.628906 226.140625 L 653.648438 154.867188 C 653.648438 154.652344 653.609375 154.449219 653.527344 154.25 C 653.445312 154.054688 653.328125 153.878906 653.175781 153.730469 C 653.027344 153.578125 652.851562 153.460938 652.65625 153.378906 C 652.457031 153.296875 652.25 153.257812 652.039062 153.257812 L 630.835938 153.234375 C 630.621094 153.234375 630.414062 153.195312 630.21875 153.113281 C 630.019531 153.03125 629.847656 152.914062 629.695312 152.761719 C 629.542969 152.613281 629.425781 152.4375 629.34375 152.238281 C 629.261719 152.042969 629.222656 151.835938 629.222656 151.625 L 629.289062 130.128906 C 629.289062 129.917969 629.328125 129.710938 629.410156 129.511719 C 629.492188 129.316406 629.609375 129.140625 629.761719 128.992188 C 629.910156 128.839844 630.085938 128.722656 630.285156 128.640625 C 630.480469 128.558594 630.6875 128.519531 630.902344 128.519531 L 702.265625 128.453125 C 702.480469 128.453125 702.683594 128.492188 702.882812 128.574219 C 703.078125 128.65625 703.253906 128.773438 703.40625 128.925781 C 703.554688 129.078125 703.671875 129.25 703.753906 129.449219 C 703.835938 129.644531 703.878906 129.851562 703.878906 130.066406 L 703.898438 151.667969 C 703.898438 151.878906 703.859375 152.085938 703.777344 152.285156 C 703.695312 152.480469 703.578125 152.65625 703.425781 152.804688 C 703.277344 152.957031 703.101562 153.074219 702.902344 153.15625 C 702.707031 153.238281 702.5 153.277344 702.285156 153.277344 L 680.800781 153.167969 C 680.585938 153.167969 680.382812 153.210938 680.183594 153.292969 C 679.988281 153.375 679.8125 153.492188 679.660156 153.640625 C 679.507812 153.792969 679.394531 153.964844 679.3125 154.164062 C 679.230469 154.363281 679.1875 154.566406 679.1875 154.78125 Z M 679.1875 154.78125 " fill-opacity="1" fill-rule="nonzero"/><path fill="#000000" d="M 764.957031 162.730469 L 780.996094 129.238281 C 781.109375 129.003906 781.273438 128.816406 781.496094 128.679688 C 781.714844 128.542969 781.953125 128.472656 782.214844 128.476562 L 807.578125 128.410156 C 807.699219 128.410156 807.8125 128.421875 807.929688 128.453125 C 808.042969 128.480469 808.152344 128.523438 808.253906 128.582031 C 808.359375 128.640625 808.453125 128.710938 808.535156 128.792969 C 808.621094 128.875 808.695312 128.964844 808.753906 129.066406 C 808.816406 129.167969 808.863281 129.277344 808.894531 129.390625 C 808.925781 129.503906 808.945312 129.617188 808.945312 129.738281 C 808.949219 129.855469 808.933594 129.972656 808.90625 130.085938 C 808.878906 130.199219 808.835938 130.308594 808.777344 130.414062 L 776.484375 189.753906 C 776.371094 189.957031 776.3125 190.175781 776.308594 190.40625 L 776.398438 226.425781 C 776.398438 226.605469 776.363281 226.777344 776.292969 226.941406 C 776.226562 227.105469 776.128906 227.253906 776 227.378906 C 775.875 227.507812 775.726562 227.605469 775.5625 227.671875 C 775.398438 227.742188 775.226562 227.773438 775.046875 227.773438 L 752.296875 227.730469 C 752.117188 227.730469 751.945312 227.699219 751.777344 227.628906 C 751.613281 227.558594 751.46875 227.460938 751.339844 227.335938 C 751.214844 227.210938 751.117188 227.0625 751.046875 226.898438 C 750.980469 226.734375 750.945312 226.5625 750.945312 226.382812 L 750.902344 189.949219 C 750.898438 189.71875 750.839844 189.5 750.726562 189.296875 L 718.671875 130.347656 C 718.617188 130.246094 718.578125 130.136719 718.550781 130.023438 C 718.523438 129.910156 718.511719 129.792969 718.515625 129.679688 C 718.519531 129.5625 718.539062 129.445312 718.570312 129.335938 C 718.605469 129.222656 718.652344 129.117188 718.710938 129.019531 C 718.773438 128.917969 718.84375 128.828125 718.925781 128.746094 C 719.011719 128.664062 719.105469 128.597656 719.207031 128.539062 C 719.308594 128.480469 719.414062 128.4375 719.527344 128.410156 C 719.640625 128.378906 719.753906 128.367188 719.871094 128.367188 L 745.367188 128.539062 C 745.625 128.539062 745.867188 128.609375 746.085938 128.746094 C 746.308594 128.882812 746.472656 129.070312 746.585938 129.300781 L 762.515625 162.730469 C 762.628906 162.964844 762.792969 163.152344 763.015625 163.292969 C 763.234375 163.429688 763.476562 163.5 763.738281 163.5 C 763.996094 163.5 764.238281 163.429688 764.457031 163.292969 C 764.679688 163.152344 764.84375 162.964844 764.957031 162.730469 Z M 764.957031 162.730469 " fill-opacity="1" fill-rule="nonzero"/></svg>