<svg xmlns="http://www.w3.org/2000/svg" xmlns:xlink="http://www.w3.org/1999/xlink" width="1080" zoomAndPan="magnify" viewBox="0 0 810 733.499983" height="978" preserveAspectRatio="xMidYMid meet" version="1.0"><defs><clipPath id="57ac27ffd6"><path d="M 3 0.140625 L 133 0.140625 L 133 153 L 3 153 Z M 3 0.140625 " clip-rule="nonzero"/></clipPath><clipPath id="812beb9d25"><path d="M 149 0.140625 L 287 0.140625 L 287 153 L 149 153 Z M 149 0.140625 " clip-rule="nonzero"/></clipPath><clipPath id="fd5c81ed14"><path d="M 304 0.140625 L 394 0.140625 L 394 150 L 304 150 Z M 304 0.140625 " clip-rule="nonzero"/></clipPath><clipPath id="b7cdf33792"><path d="M 672 174 L 809.722656 174 L 809.722656 327 L 672 327 Z M 672 174 " clip-rule="nonzero"/></clipPath><clipPath id="55e216b4df"><path d="M 0.277344 610 L 33 610 L 33 659 L 0.277344 659 Z M 0.277344 610 " clip-rule="nonzero"/></clipPath></defs><g clip-path="url(#57ac27ffd6)"><path fill="#000000" d="M 61.320312 0.140625 L 76.972656 0.140625 C 88.195312 1.015625 98.085938 3.554688 106.644531 7.757812 C 122.351562 15.496094 132.597656 28.949219 132.992188 46.953125 C 133 47.605469 132.679688 47.929688 132.027344 47.929688 L 87.609375 47.929688 C 87.078125 47.929688 86.804688 47.664062 86.796875 47.132812 C 86.601562 33.554688 76.292969 28.980469 64.570312 30.890625 C 61.113281 31.464844 58.132812 32.96875 55.632812 35.40625 C 50.730469 40.179688 50.351562 47.808594 55.84375 52.445312 C 57.972656 54.25 60.402344 55.605469 63.144531 56.507812 C 69.050781 58.476562 75.40625 60.066406 82.207031 61.28125 C 104.191406 65.210938 129.425781 75.398438 132.359375 100.957031 C 134.203125 117.082031 128.535156 129.847656 115.355469 139.261719 C 107.980469 144.519531 99.808594 148.070312 90.828125 149.917969 C 64.089844 155.410156 33.5625 151.800781 15.144531 130.984375 C 7.902344 122.796875 4.0625 113.46875 3.632812 103.003906 C 3.613281 102.410156 3.894531 102.113281 4.476562 102.113281 L 45.765625 102.113281 C 46.457031 102.113281 46.8125 102.464844 46.832031 103.167969 C 47.050781 111.546875 51.195312 117.136719 59.261719 119.9375 C 67.746094 122.886719 81.980469 123.097656 87.039062 113.703125 C 89.761719 108.664062 88.257812 102.613281 83.199219 99.632812 C 79.710938 97.5625 75.976562 96.023438 72.003906 95.011719 C 64.570312 93.105469 57.386719 91.257812 50.441406 89.472656 C 31.304688 84.535156 11.140625 72.765625 8.6875 52.097656 C 5.632812 26.347656 23.628906 8.132812 47.3125 2.550781 C 51.90625 1.464844 56.578125 0.664062 61.320312 0.140625 Z M 61.320312 0.140625 " fill-opacity="1" fill-rule="nonzero"/></g><g clip-path="url(#812beb9d25)"><path fill="#000000" d="M 212.332031 0.140625 L 226.824219 0.140625 C 232.929688 0.996094 236.914062 1.652344 238.769531 2.113281 C 268.050781 9.339844 283.851562 33.390625 285.925781 62.335938 C 286.578125 71.476562 286.765625 80.738281 286.484375 90.117188 C 286.464844 90.589844 286.21875 90.828125 285.746094 90.828125 L 197.03125 90.828125 C 196.167969 90.828125 195.851562 91.238281 196.082031 92.0625 C 200.105469 106.460938 208.785156 114.507812 222.128906 116.203125 C 235.71875 117.9375 247.472656 114.476562 257.382812 105.816406 C 258.722656 104.660156 259.5625 103.214844 260.8125 101.996094 C 261.265625 101.554688 261.691406 101.574219 262.09375 102.054688 L 282.148438 125.714844 C 282.285156 125.875 282.355469 126.0625 282.363281 126.273438 C 282.367188 126.484375 282.308594 126.675781 282.179688 126.84375 C 273 139.382812 257.425781 147.300781 242.441406 150.324219 C 227.042969 153.445312 212.019531 152.769531 197.375 148.292969 C 170.863281 140.179688 151.996094 117.152344 149.601562 89.199219 C 147.917969 69.394531 149.664062 47.914062 160.359375 30.605469 C 171.636719 12.375 188.960938 2.21875 212.332031 0.140625 Z M 197.285156 62.046875 L 241.644531 61.65625 C 241.757812 61.652344 241.851562 61.609375 241.933594 61.527344 C 242.011719 61.445312 242.050781 61.347656 242.050781 61.234375 L 242.035156 58.570312 C 242.027344 57.808594 241.988281 57.050781 241.910156 56.292969 C 241.835938 55.539062 241.726562 54.789062 241.582031 54.042969 C 241.441406 53.296875 241.261719 52.5625 241.050781 51.835938 C 240.839844 51.109375 240.597656 50.394531 240.324219 49.695312 C 240.046875 48.992188 239.742188 48.308594 239.402344 47.640625 C 239.066406 46.972656 238.699219 46.324219 238.300781 45.695312 C 237.90625 45.066406 237.480469 44.457031 237.027344 43.875 C 236.578125 43.289062 236.101562 42.730469 235.597656 42.195312 C 235.09375 41.664062 234.570312 41.15625 234.019531 40.679688 C 233.472656 40.199219 232.902344 39.753906 232.316406 39.335938 C 231.726562 38.917969 231.121094 38.53125 230.496094 38.179688 C 229.871094 37.828125 229.234375 37.507812 228.578125 37.222656 C 227.925781 36.9375 227.261719 36.6875 226.585938 36.472656 C 225.910156 36.257812 225.226562 36.078125 224.535156 35.9375 C 223.84375 35.792969 223.148438 35.6875 222.445312 35.621094 C 221.742188 35.550781 221.042969 35.519531 220.335938 35.527344 L 218.109375 35.558594 C 217.40625 35.5625 216.707031 35.609375 216.007812 35.6875 C 215.308594 35.769531 214.613281 35.886719 213.925781 36.042969 C 213.234375 36.195312 212.554688 36.386719 211.882812 36.613281 C 211.214844 36.839844 210.554688 37.101562 209.90625 37.398438 C 209.257812 37.695312 208.628906 38.027344 208.011719 38.390625 C 207.394531 38.753906 206.792969 39.148438 206.210938 39.578125 C 205.632812 40.003906 205.070312 40.460938 204.53125 40.949219 C 203.992188 41.4375 203.476562 41.949219 202.984375 42.492188 C 202.492188 43.035156 202.023438 43.601562 201.582031 44.195312 C 201.140625 44.785156 200.726562 45.398438 200.34375 46.035156 C 199.957031 46.667969 199.601562 47.324219 199.277344 47.996094 C 198.949219 48.671875 198.65625 49.359375 198.394531 50.066406 C 198.128906 50.769531 197.898438 51.488281 197.703125 52.214844 C 197.503906 52.945312 197.339844 53.683594 197.207031 54.429688 C 197.078125 55.175781 196.980469 55.929688 196.917969 56.6875 C 196.855469 57.445312 196.828125 58.203125 196.835938 58.960938 L 196.847656 61.625 C 196.847656 61.746094 196.890625 61.847656 196.976562 61.929688 C 197.0625 62.011719 197.167969 62.050781 197.285156 62.046875 Z M 197.285156 62.046875 " fill-opacity="1" fill-rule="nonzero"/></g><g clip-path="url(#fd5c81ed14)"><path fill="#000000" d="M 376.417969 0.140625 L 386.980469 0.140625 L 392.234375 1.257812 C 392.46875 1.304688 392.691406 1.394531 392.898438 1.523438 C 393.101562 1.648438 393.28125 1.808594 393.433594 1.996094 C 393.582031 2.1875 393.699219 2.398438 393.777344 2.625 C 393.855469 2.855469 393.890625 3.089844 393.886719 3.332031 L 393.269531 43.398438 C 393.269531 43.535156 393.238281 43.667969 393.183594 43.792969 C 393.125 43.917969 393.046875 44.027344 392.945312 44.121094 C 392.839844 44.210938 392.722656 44.28125 392.59375 44.328125 C 392.460938 44.371094 392.328125 44.386719 392.1875 44.378906 C 378.660156 43.324219 361.507812 40.796875 352.238281 53.710938 C 351.074219 55.335938 350.492188 57.089844 350.492188 58.976562 C 350.492188 87.183594 350.496094 117.089844 350.507812 148.699219 C 350.507812 149.25 350.226562 149.527344 349.664062 149.527344 L 304.976562 149.527344 C 304.726562 149.527344 304.597656 149.402344 304.597656 149.148438 L 304.597656 3.527344 C 304.597656 3.027344 304.851562 2.777344 305.351562 2.777344 L 346.851562 2.777344 C 347.441406 2.777344 347.765625 3.066406 347.8125 3.648438 L 349.078125 19.347656 C 349.179688 20.683594 349.539062 20.757812 350.160156 19.574219 C 355.800781 8.777344 364.550781 2.300781 376.417969 0.140625 Z M 376.417969 0.140625 " fill-opacity="1" fill-rule="nonzero"/></g><path fill="#000000" d="M 76.308594 270.976562 C 69.226562 268.757812 62.5625 266.980469 56.3125 265.648438 C 36.269531 261.359375 11.261719 249.890625 8.65625 226.378906 C 7.042969 211.871094 11.460938 199.847656 21.914062 190.316406 C 35.277344 178.125 53 174.347656 70.96875 174.675781 C 99.75 175.203125 132.011719 187.90625 133.003906 221.515625 C 133.023438 222.191406 132.699219 222.527344 132.027344 222.527344 L 87.59375 222.527344 C 87.363281 222.527344 87.164062 222.441406 87.003906 222.277344 C 86.839844 222.113281 86.761719 221.914062 86.765625 221.683594 C 86.871094 212.710938 81.9375 206.644531 73.222656 205.425781 C 66.859375 204.523438 60.570312 205.367188 55.816406 209.808594 C 50.625 214.667969 50.339844 222.464844 56.027344 227.191406 C 62.253906 232.371094 73.449219 234.265625 81.574219 235.726562 C 104.21875 239.804688 129.800781 249.902344 132.449219 276.378906 C 135.21875 304.058594 113.371094 320.300781 88.664062 324.980469 C 75.148438 327.550781 61.832031 327.4375 48.710938 324.648438 C 26.113281 319.816406 4.476562 302.476562 3.648438 277.433594 C 3.644531 277.234375 3.710938 277.066406 3.84375 276.921875 C 3.980469 276.78125 4.144531 276.710938 4.339844 276.710938 L 45.777344 276.710938 C 46.441406 276.710938 46.78125 277.042969 46.800781 277.703125 C 47.09375 286.3125 51.375 291.960938 59.652344 294.652344 C 66.917969 297.015625 78.128906 297.4375 84.269531 291.914062 C 88.964844 287.683594 90.046875 280.351562 85.277344 275.898438 C 83 273.769531 80.011719 272.128906 76.308594 270.976562 Z M 76.308594 270.976562 " fill-opacity="1" fill-rule="nonzero"/><path fill="#000000" d="M 197.042969 265.421875 C 196.160156 265.421875 195.839844 265.847656 196.082031 266.703125 C 200.132812 281.128906 208.832031 289.167969 222.171875 290.8125 C 235.855469 292.488281 247.515625 289.09375 257.15625 280.625 C 258.585938 279.359375 259.503906 277.898438 260.828125 276.574219 C 261.269531 276.144531 261.691406 276.164062 262.09375 276.636719 L 282.148438 300.324219 C 282.285156 300.484375 282.359375 300.671875 282.367188 300.878906 C 282.375 301.085938 282.316406 301.273438 282.195312 301.441406 C 279.035156 305.785156 275.285156 309.492188 270.941406 312.5625 C 251.949219 326.003906 228.207031 329.480469 205.472656 324.980469 C 174.671875 318.882812 152.234375 294.921875 149.558594 263.328125 C 148.1875 247.042969 149.316406 229.238281 155.742188 214.292969 C 168.589844 184.386719 195.644531 172.675781 227.242188 174.949219 C 261.851562 177.460938 283.457031 202.613281 285.910156 236.765625 C 286.554688 245.65625 286.742188 254.964844 286.484375 264.699219 C 286.472656 265.179688 286.226562 265.421875 285.746094 265.421875 Z M 197.285156 236.644531 L 241.644531 236.253906 C 241.757812 236.25 241.851562 236.207031 241.933594 236.125 C 242.011719 236.042969 242.050781 235.945312 242.050781 235.832031 L 242.035156 233.210938 C 242.027344 232.449219 241.988281 231.6875 241.910156 230.929688 C 241.835938 230.171875 241.726562 229.421875 241.582031 228.675781 C 241.441406 227.925781 241.261719 227.191406 241.050781 226.460938 C 240.84375 225.734375 240.597656 225.019531 240.324219 224.316406 C 240.046875 223.617188 239.742188 222.929688 239.40625 222.261719 C 239.066406 221.589844 238.699219 220.941406 238.304688 220.308594 C 237.90625 219.679688 237.484375 219.070312 237.03125 218.484375 C 236.582031 217.898438 236.105469 217.339844 235.601562 216.804688 C 235.101562 216.269531 234.574219 215.765625 234.027344 215.285156 C 233.480469 214.804688 232.910156 214.359375 232.320312 213.9375 C 231.734375 213.519531 231.125 213.132812 230.503906 212.78125 C 229.878906 212.425781 229.242188 212.105469 228.589844 211.820312 C 227.9375 211.535156 227.273438 211.285156 226.597656 211.070312 C 225.921875 210.855469 225.238281 210.675781 224.546875 210.53125 C 223.855469 210.390625 223.160156 210.285156 222.457031 210.214844 C 221.757812 210.148438 221.054688 210.117188 220.351562 210.125 L 218.09375 210.152344 C 217.390625 210.160156 216.691406 210.203125 215.992188 210.285156 C 215.292969 210.367188 214.601562 210.484375 213.910156 210.636719 C 213.222656 210.792969 212.542969 210.984375 211.875 211.210938 C 211.203125 211.4375 210.542969 211.699219 209.898438 211.996094 C 209.25 212.296875 208.617188 212.625 208.003906 212.992188 C 207.386719 213.355469 206.785156 213.753906 206.207031 214.179688 C 205.625 214.609375 205.066406 215.066406 204.527344 215.554688 C 203.988281 216.042969 203.472656 216.558594 202.980469 217.101562 C 202.488281 217.644531 202.019531 218.210938 201.578125 218.804688 C 201.136719 219.398438 200.726562 220.011719 200.339844 220.648438 C 199.957031 221.285156 199.601562 221.941406 199.273438 222.617188 C 198.949219 223.292969 198.65625 223.980469 198.390625 224.6875 C 198.128906 225.394531 197.898438 226.113281 197.699219 226.84375 C 197.503906 227.574219 197.339844 228.3125 197.207031 229.0625 C 197.078125 229.808594 196.980469 230.5625 196.917969 231.324219 C 196.855469 232.082031 196.828125 232.839844 196.835938 233.601562 L 196.847656 236.222656 C 196.847656 236.339844 196.890625 236.441406 196.976562 236.527344 C 197.0625 236.609375 197.167969 236.648438 197.285156 236.644531 Z M 197.285156 236.644531 " fill-opacity="1" fill-rule="nonzero"/><g clip-path="url(#b7cdf33792)"><path fill="#000000" d="M 718.976562 266.550781 C 724.0625 284.902344 736.703125 293.011719 756.90625 290.875 C 767.550781 289.738281 776.527344 284.988281 783.839844 276.621094 C 784.234375 276.167969 784.625 276.167969 785.015625 276.621094 L 804.683594 299.890625 C 805.304688 300.632812 805.308594 301.378906 804.695312 302.132812 C 787.332031 323.460938 758.125 329.722656 731.570312 325.550781 C 701.007812 320.765625 678.167969 299.121094 673.007812 268.355469 C 671.699219 260.574219 672.074219 252.476562 672.195312 244.742188 C 672.675781 213.207031 690.371094 184.6875 722 177.054688 C 735.269531 173.863281 748.410156 173.765625 761.421875 176.753906 C 776.710938 180.277344 788.636719 188.410156 797.203125 201.152344 C 803.050781 209.84375 806.6875 219.796875 808.113281 231.015625 C 809.417969 241.269531 809.816406 252.507812 809.316406 264.730469 C 809.296875 265.191406 809.050781 265.421875 808.578125 265.421875 L 719.832031 265.421875 C 719.050781 265.421875 718.765625 265.796875 718.976562 266.550781 Z M 720.164062 236.644531 L 764.523438 236.253906 C 764.636719 236.25 764.730469 236.207031 764.808594 236.125 C 764.886719 236.042969 764.929688 235.945312 764.929688 235.832031 L 764.914062 233.242188 C 764.90625 232.480469 764.867188 231.71875 764.789062 230.957031 C 764.714844 230.199219 764.605469 229.445312 764.460938 228.699219 C 764.316406 227.949219 764.140625 227.210938 763.929688 226.484375 C 763.71875 225.753906 763.476562 225.039062 763.203125 224.335938 C 762.925781 223.632812 762.621094 222.945312 762.28125 222.277344 C 761.945312 221.605469 761.578125 220.953125 761.183594 220.324219 C 760.785156 219.691406 760.363281 219.082031 759.910156 218.496094 C 759.460938 217.910156 758.980469 217.351562 758.480469 216.8125 C 757.976562 216.277344 757.453125 215.769531 756.90625 215.292969 C 756.355469 214.8125 755.789062 214.363281 755.199219 213.945312 C 754.609375 213.523438 754.003906 213.136719 753.382812 212.785156 C 752.757812 212.429688 752.121094 212.109375 751.464844 211.824219 C 750.8125 211.535156 750.148438 211.285156 749.476562 211.070312 C 748.800781 210.855469 748.117188 210.675781 747.425781 210.53125 C 746.734375 210.390625 746.039062 210.285156 745.335938 210.214844 C 744.636719 210.148438 743.933594 210.117188 743.230469 210.125 L 740.972656 210.152344 C 740.269531 210.160156 739.570312 210.203125 738.871094 210.285156 C 738.171875 210.367188 737.476562 210.484375 736.789062 210.640625 C 736.101562 210.792969 735.421875 210.984375 734.75 211.210938 C 734.082031 211.441406 733.421875 211.703125 732.777344 212 C 732.128906 212.296875 731.496094 212.628906 730.878906 212.996094 C 730.261719 213.359375 729.664062 213.757812 729.082031 214.183594 C 728.503906 214.613281 727.941406 215.074219 727.402344 215.5625 C 726.863281 216.050781 726.347656 216.566406 725.855469 217.109375 C 725.363281 217.652344 724.898438 218.222656 724.457031 218.816406 C 724.015625 219.410156 723.601562 220.023438 723.21875 220.664062 C 722.832031 221.300781 722.476562 221.957031 722.152344 222.632812 C 721.828125 223.308594 721.53125 224 721.269531 224.707031 C 721.007812 225.414062 720.777344 226.132812 720.578125 226.863281 C 720.378906 227.597656 720.214844 228.335938 720.085938 229.085938 C 719.953125 229.835938 719.859375 230.589844 719.796875 231.351562 C 719.734375 232.109375 719.707031 232.871094 719.710938 233.632812 L 719.726562 236.222656 C 719.726562 236.339844 719.769531 236.441406 719.855469 236.527344 C 719.941406 236.609375 720.042969 236.648438 720.164062 236.644531 Z M 720.164062 236.644531 " fill-opacity="1" fill-rule="nonzero"/></g><path fill="#000000" d="M 353.066406 339.097656 C 350.761719 360.710938 336.542969 376.546875 314.96875 381.347656 C 303.351562 383.9375 290.738281 383.875 277.125 381.167969 C 276.796875 381.101562 276.527344 380.941406 276.316406 380.683594 C 276.101562 380.425781 275.996094 380.128906 275.996094 379.796875 L 276.011719 346.730469 C 276.011719 346.105469 276.316406 345.863281 276.929688 345.992188 C 290.546875 348.835938 307.546875 348.054688 307.5625 329.707031 C 307.632812 276.433594 307.640625 225.9375 307.578125 178.214844 C 307.578125 177.980469 307.660156 177.78125 307.824219 177.617188 C 307.988281 177.453125 308.1875 177.371094 308.421875 177.371094 L 352.855469 177.371094 C 352.992188 177.371094 353.121094 177.398438 353.246094 177.449219 C 353.371094 177.503906 353.480469 177.578125 353.578125 177.675781 C 353.675781 177.773438 353.75 177.886719 353.800781 178.011719 C 353.851562 178.140625 353.878906 178.273438 353.878906 178.410156 C 353.867188 225.601562 353.871094 273.949219 353.894531 323.460938 C 353.894531 328.699219 353.617188 333.910156 353.066406 339.097656 Z M 353.066406 339.097656 " fill-opacity="1" fill-rule="nonzero"/><path fill="#000000" d="M 465.421875 309.566406 C 456.84375 319.683594 446.460938 325.386719 432.753906 326.515625 C 412.09375 328.199219 392.261719 321.757812 383.699219 301.695312 C 380.210938 293.507812 378.449219 284.929688 378.417969 275.957031 C 378.328125 243.207031 378.304688 210.484375 378.34375 177.792969 C 378.34375 177.511719 378.484375 177.371094 378.765625 177.371094 L 423.441406 177.371094 C 423.972656 177.371094 424.238281 177.640625 424.238281 178.183594 C 424.207031 209.160156 424.210938 240.804688 424.253906 273.113281 C 424.265625 287.984375 434.769531 292.875 447.800781 290.828125 C 455.152344 289.664062 460.585938 286.253906 464.097656 280.59375 C 464.347656 280.203125 464.472656 279.769531 464.472656 279.300781 L 464.472656 177.746094 C 464.472656 177.496094 464.597656 177.371094 464.847656 177.371094 L 509.988281 177.371094 C 510.492188 177.371094 510.742188 177.621094 510.742188 178.125 L 510.742188 323.371094 C 510.742188 323.871094 510.492188 324.121094 509.988281 324.121094 L 468.476562 324.121094 C 467.871094 324.121094 467.546875 323.828125 467.496094 323.234375 L 466.339844 309.855469 C 466.257812 309.039062 465.953125 308.945312 465.421875 309.566406 Z M 465.421875 309.566406 " fill-opacity="1" fill-rule="nonzero"/><path fill="#000000" d="M 617.03125 177.371094 L 664.488281 177.371094 C 664.570312 177.371094 664.644531 177.390625 664.710938 177.425781 C 664.78125 177.464844 664.839844 177.515625 664.886719 177.578125 C 664.933594 177.640625 664.960938 177.710938 664.972656 177.789062 C 664.984375 177.867188 664.980469 177.945312 664.957031 178.019531 L 617.394531 323.777344 C 617.320312 324.003906 617.164062 324.117188 616.925781 324.121094 L 570.808594 324.121094 C 570.570312 324.117188 570.414062 324.003906 570.34375 323.777344 L 522.792969 178.019531 C 522.769531 177.945312 522.765625 177.867188 522.777344 177.789062 C 522.789062 177.710938 522.820312 177.640625 522.863281 177.578125 C 522.910156 177.515625 522.96875 177.464844 523.039062 177.425781 C 523.109375 177.390625 523.183594 177.371094 523.261719 177.371094 L 570.839844 177.371094 C 571.097656 177.371094 571.257812 177.496094 571.320312 177.746094 L 593.257812 266.820312 C 593.320312 267.070312 593.480469 267.195312 593.738281 267.195312 C 593.996094 267.195312 594.160156 267.070312 594.222656 266.820312 L 616.550781 177.746094 C 616.613281 177.496094 616.773438 177.371094 617.03125 177.371094 Z M 617.03125 177.371094 " fill-opacity="1" fill-rule="nonzero"/><path fill="#000000" d="M 11.546875 511.121094 C 11.757812 517.53125 19.371094 518.480469 24.203125 516.929688 C 29.753906 515.125 27.769531 508.515625 23.523438 507.070312 C 15.054688 504.195312 2.878906 501.171875 2.699219 490.441406 C 2.597656 484.921875 5.296875 481.015625 10.792969 478.730469 C 21.449219 474.273438 36.992188 477.269531 37.730469 491.476562 C 37.75 491.828125 37.582031 492 37.230469 491.988281 L 28.128906 491.914062 C 28.027344 491.914062 27.9375 491.878906 27.863281 491.804688 C 27.785156 491.734375 27.746094 491.644531 27.738281 491.539062 C 27.195312 485.035156 20.425781 483.785156 15.578125 485.96875 C 14.285156 486.550781 13.402344 487.589844 12.929688 489.085938 C 11.816406 492.636719 16.273438 495.136719 19.039062 495.886719 C 26.039062 497.785156 35.335938 501.1875 37.230469 508.757812 C 39.25 516.808594 35.003906 523.132812 26.851562 524.96875 C 16.347656 527.316406 2.398438 523.914062 1.269531 511.300781 C 1.191406 510.4375 1.582031 510.007812 2.445312 510.007812 L 10.386719 510.007812 C 11.128906 510.007812 11.515625 510.378906 11.546875 511.121094 Z M 11.546875 511.121094 " fill-opacity="1" fill-rule="nonzero"/><path fill="#000000" d="M 102.550781 485.625 C 88.257812 482.523438 89.023438 500.3125 90.46875 509.179688 C 91.371094 514.628906 94.726562 517.683594 100.355469 517.261719 C 105.441406 516.890625 108.085938 514.21875 108.296875 509.253906 C 108.308594 509.003906 108.4375 508.878906 108.691406 508.878906 L 118.167969 508.90625 C 118.46875 508.90625 118.605469 509.058594 118.574219 509.359375 C 117.410156 518.550781 112.578125 523.828125 104.070312 525.191406 C 91.984375 527.140625 84.257812 522.632812 80.898438 511.675781 C 79.554688 507.320312 79.222656 502.125 79.90625 496.082031 C 80.949219 486.84375 84.996094 480.875 92.046875 478.1875 C 103.890625 473.671875 117.355469 479.648438 118.453125 493.496094 C 118.464844 493.664062 118.390625 493.75 118.230469 493.75 L 108.675781 493.855469 C 108.433594 493.855469 108.308594 493.730469 108.296875 493.480469 C 108.167969 489.042969 106.253906 486.425781 102.550781 485.625 Z M 102.550781 485.625 " fill-opacity="1" fill-rule="nonzero"/><path fill="#000000" d="M 54.609375 516.78125 L 75.347656 516.765625 C 75.496094 516.765625 75.621094 516.816406 75.730469 516.921875 C 75.835938 517.027344 75.886719 517.15625 75.886719 517.304688 L 75.886719 524.515625 C 75.886719 524.664062 75.835938 524.792969 75.730469 524.898438 C 75.621094 525.003906 75.496094 525.058594 75.347656 525.058594 L 44.453125 525.058594 C 44.304688 525.058594 44.175781 525.003906 44.070312 524.898438 C 43.964844 524.792969 43.914062 524.664062 43.914062 524.515625 L 43.914062 478.1875 C 43.914062 478.039062 43.964844 477.910156 44.070312 477.804688 C 44.175781 477.699219 44.304688 477.644531 44.453125 477.644531 L 75.347656 477.628906 C 75.496094 477.628906 75.625 477.683594 75.730469 477.789062 C 75.835938 477.894531 75.886719 478.023438 75.886719 478.171875 L 75.886719 485.382812 C 75.886719 485.53125 75.835938 485.660156 75.730469 485.765625 C 75.621094 485.871094 75.496094 485.925781 75.347656 485.925781 L 54.609375 485.925781 C 54.460938 485.925781 54.332031 485.976562 54.226562 486.082031 C 54.121094 486.1875 54.070312 486.316406 54.070312 486.464844 L 54.085938 495.917969 C 54.085938 496.066406 54.136719 496.195312 54.242188 496.300781 C 54.347656 496.40625 54.476562 496.460938 54.625 496.460938 L 71.960938 496.460938 C 72.109375 496.460938 72.238281 496.511719 72.34375 496.617188 C 72.449219 496.722656 72.5 496.851562 72.5 497 L 72.5 504.195312 C 72.5 504.347656 72.449219 504.472656 72.34375 504.578125 C 72.238281 504.683594 72.109375 504.738281 71.960938 504.738281 L 54.609375 504.738281 C 54.460938 504.738281 54.332031 504.792969 54.226562 504.898438 C 54.121094 505.003906 54.070312 505.128906 54.070312 505.28125 L 54.070312 516.238281 C 54.070312 516.386719 54.121094 516.515625 54.226562 516.621094 C 54.332031 516.726562 54.460938 516.78125 54.609375 516.78125 Z M 54.609375 516.78125 " fill-opacity="1" fill-rule="nonzero"/><path fill="#000000" d="M 134.570312 508.878906 L 134.570312 524.679688 C 134.570312 524.933594 134.445312 525.058594 134.195312 525.058594 L 124.789062 525.058594 C 124.539062 525.058594 124.414062 524.933594 124.414062 524.679688 L 124.414062 478.472656 C 124.414062 477.960938 124.667969 477.699219 125.179688 477.691406 C 133.425781 477.5625 140.3125 477.601562 145.839844 477.8125 C 153.558594 478.113281 159.5625 483.261719 159.757812 491.34375 C 159.917969 497.714844 157.496094 502.179688 152.492188 504.738281 C 152.355469 504.808594 152.238281 504.902344 152.140625 505.019531 C 152.042969 505.136719 151.96875 505.269531 151.925781 505.417969 C 151.878906 505.5625 151.863281 505.714844 151.878906 505.867188 C 151.894531 506.019531 151.9375 506.167969 152.007812 506.304688 C 155.308594 512.433594 158.542969 518.585938 161.714844 524.757812 C 161.75 524.816406 161.746094 524.878906 161.707031 524.9375 C 161.667969 525 161.609375 525.027344 161.535156 525.027344 L 151.136719 525.074219 C 150.90625 525.074219 150.734375 524.972656 150.625 524.773438 L 142.242188 508.5625 C 141.972656 508.019531 141.53125 507.75 140.921875 507.75 L 135.699219 507.75 C 134.945312 507.75 134.570312 508.125 134.570312 508.878906 Z M 134.554688 486.480469 L 134.585938 498.882812 C 134.585938 499.046875 134.640625 499.183594 134.757812 499.296875 C 134.871094 499.414062 135.011719 499.46875 135.171875 499.46875 L 143.160156 499.457031 C 143.589844 499.453125 144.011719 499.410156 144.429688 499.328125 C 144.847656 499.242188 145.253906 499.121094 145.648438 498.957031 C 146.042969 498.792969 146.417969 498.59375 146.769531 498.355469 C 147.125 498.121094 147.453125 497.851562 147.753906 497.550781 C 148.054688 497.246094 148.324219 496.921875 148.558594 496.566406 C 148.796875 496.210938 148.996094 495.839844 149.15625 495.445312 C 149.320312 495.054688 149.441406 494.648438 149.523438 494.230469 C 149.609375 493.8125 149.648438 493.394531 149.648438 492.96875 L 149.648438 492.335938 C 149.644531 491.910156 149.605469 491.488281 149.519531 491.074219 C 149.433594 490.65625 149.3125 490.253906 149.148438 489.859375 C 148.980469 489.46875 148.78125 489.09375 148.542969 488.742188 C 148.304688 488.390625 148.035156 488.0625 147.734375 487.765625 C 147.429688 487.464844 147.101562 487.195312 146.746094 486.960938 C 146.390625 486.726562 146.015625 486.527344 145.621094 486.367188 C 145.226562 486.203125 144.820312 486.082031 144.398438 486 C 143.980469 485.917969 143.558594 485.878906 143.132812 485.878906 L 135.140625 485.894531 C 134.980469 485.894531 134.839844 485.953125 134.726562 486.066406 C 134.613281 486.179688 134.554688 486.320312 134.554688 486.480469 Z M 134.554688 486.480469 " fill-opacity="1" fill-rule="nonzero"/><path fill="#000000" d="M 176.703125 486.464844 L 176.703125 495.902344 C 176.703125 496.054688 176.753906 496.179688 176.859375 496.285156 C 176.964844 496.390625 177.09375 496.445312 177.242188 496.445312 L 194.96875 496.460938 C 195.117188 496.460938 195.246094 496.511719 195.351562 496.617188 C 195.457031 496.722656 195.511719 496.851562 195.511719 497 L 195.511719 504.195312 C 195.511719 504.347656 195.457031 504.472656 195.351562 504.578125 C 195.246094 504.683594 195.117188 504.738281 194.96875 504.738281 L 177.242188 504.738281 C 177.09375 504.738281 176.964844 504.792969 176.859375 504.898438 C 176.753906 505.003906 176.703125 505.128906 176.703125 505.28125 L 176.703125 516.238281 C 176.703125 516.386719 176.753906 516.515625 176.859375 516.621094 C 176.964844 516.726562 177.09375 516.78125 177.242188 516.78125 L 197.976562 516.78125 C 198.128906 516.78125 198.253906 516.832031 198.359375 516.9375 C 198.464844 517.042969 198.519531 517.171875 198.519531 517.320312 L 198.519531 524.515625 C 198.519531 524.664062 198.464844 524.792969 198.359375 524.898438 C 198.253906 525.003906 198.128906 525.058594 197.976562 525.058594 L 167.085938 525.058594 C 166.9375 525.058594 166.808594 525.003906 166.703125 524.898438 C 166.597656 524.792969 166.542969 524.664062 166.542969 524.515625 L 166.542969 478.1875 C 166.542969 478.039062 166.597656 477.910156 166.703125 477.804688 C 166.808594 477.699219 166.9375 477.644531 167.085938 477.644531 L 197.992188 477.628906 C 198.140625 477.628906 198.269531 477.683594 198.375 477.789062 C 198.480469 477.894531 198.535156 478.023438 198.535156 478.171875 L 198.488281 485.382812 C 198.488281 485.53125 198.4375 485.660156 198.332031 485.765625 C 198.226562 485.871094 198.097656 485.925781 197.949219 485.925781 L 177.242188 485.925781 C 177.09375 485.925781 176.964844 485.976562 176.859375 486.082031 C 176.753906 486.1875 176.703125 486.316406 176.703125 486.464844 Z M 176.703125 486.464844 " fill-opacity="1" fill-rule="nonzero"/><path fill="#000000" d="M 215.265625 485.925781 L 202.070312 485.925781 C 201.917969 485.925781 201.785156 485.871094 201.675781 485.761719 C 201.566406 485.652344 201.511719 485.519531 201.511719 485.367188 L 201.542969 478.203125 C 201.542969 478.050781 201.597656 477.917969 201.707031 477.808594 C 201.816406 477.699219 201.945312 477.644531 202.101562 477.644531 L 239.71875 477.628906 C 239.871094 477.628906 240.003906 477.683594 240.109375 477.792969 C 240.21875 477.902344 240.273438 478.035156 240.273438 478.1875 L 240.273438 485.367188 C 240.273438 485.519531 240.21875 485.652344 240.109375 485.761719 C 240.003906 485.871094 239.871094 485.925781 239.71875 485.925781 L 226.535156 485.9375 C 226.382812 485.9375 226.25 485.992188 226.144531 486.101562 C 226.035156 486.210938 225.980469 486.34375 225.980469 486.496094 L 225.980469 524.515625 C 225.980469 524.667969 225.925781 524.800781 225.816406 524.910156 C 225.707031 525.019531 225.578125 525.074219 225.421875 525.074219 L 216.378906 525.058594 C 216.226562 525.058594 216.09375 525.003906 215.984375 524.894531 C 215.878906 524.785156 215.824219 524.65625 215.824219 524.5 L 215.824219 486.480469 C 215.824219 486.328125 215.769531 486.195312 215.660156 486.085938 C 215.550781 485.976562 215.421875 485.925781 215.265625 485.925781 Z M 215.265625 485.925781 " fill-opacity="1" fill-rule="nonzero"/><path fill="#000000" d="M 251.515625 515.679688 L 248.445312 524.667969 C 248.34375 524.949219 248.144531 525.089844 247.84375 525.085938 L 238.421875 525.074219 C 238.320312 525.070312 238.222656 525.046875 238.128906 525 C 238.039062 524.949219 237.964844 524.882812 237.90625 524.796875 C 237.847656 524.710938 237.8125 524.617188 237.800781 524.515625 C 237.789062 524.410156 237.800781 524.3125 237.835938 524.214844 L 255.035156 478.066406 C 255.136719 477.796875 255.332031 477.664062 255.621094 477.660156 L 264.199219 477.628906 C 264.488281 477.632812 264.683594 477.769531 264.785156 478.039062 L 282.03125 524.199219 C 282.066406 524.296875 282.078125 524.398438 282.066406 524.503906 C 282.054688 524.609375 282.015625 524.703125 281.957031 524.789062 C 281.894531 524.875 281.820312 524.941406 281.726562 524.988281 C 281.632812 525.035156 281.53125 525.058594 281.425781 525.058594 L 272.023438 525.058594 C 271.714844 525.058594 271.515625 524.914062 271.421875 524.621094 L 268.457031 515.726562 C 268.363281 515.433594 268.160156 515.289062 267.855469 515.289062 L 252.117188 515.257812 C 251.816406 515.257812 251.613281 515.398438 251.515625 515.679688 Z M 254.582031 506.363281 C 254.558594 506.4375 254.554688 506.511719 254.566406 506.585938 C 254.578125 506.664062 254.605469 506.730469 254.648438 506.792969 C 254.695312 506.855469 254.75 506.90625 254.816406 506.941406 C 254.886719 506.976562 254.957031 506.996094 255.035156 506.996094 L 264.753906 506.996094 C 264.832031 506.996094 264.90625 506.976562 264.972656 506.941406 C 265.039062 506.90625 265.097656 506.855469 265.140625 506.792969 C 265.1875 506.730469 265.214844 506.664062 265.226562 506.585938 C 265.238281 506.511719 265.230469 506.4375 265.207031 506.363281 L 260.347656 491.839844 C 260.269531 491.628906 260.117188 491.523438 259.894531 491.523438 C 259.671875 491.523438 259.523438 491.628906 259.445312 491.839844 Z M 254.582031 506.363281 " fill-opacity="1" fill-rule="nonzero"/><path fill="#000000" d="M 296.324219 508.695312 L 296.324219 524.289062 C 296.324219 524.792969 296.078125 525.042969 295.585938 525.042969 L 286.933594 525.085938 C 286.421875 525.085938 286.167969 524.832031 286.167969 524.320312 L 286.167969 478.683594 C 286.167969 477.902344 286.558594 477.527344 287.339844 477.554688 C 291.402344 477.734375 295.386719 477.742188 299.289062 477.570312 C 308.421875 477.179688 319.960938 478.15625 321.363281 489.445312 C 322.253906 496.652344 319.835938 501.789062 314.109375 504.859375 C 313.882812 504.980469 313.730469 505.164062 313.652344 505.40625 C 313.578125 505.648438 313.597656 505.882812 313.71875 506.109375 L 323.484375 524.667969 C 323.503906 524.707031 323.515625 524.753906 323.515625 524.800781 C 323.511719 524.847656 323.5 524.890625 323.476562 524.933594 C 323.453125 524.972656 323.421875 525.003906 323.382812 525.027344 C 323.34375 525.046875 323.304688 525.058594 323.257812 525.058594 L 312.875 525.058594 C 312.65625 525.058594 312.496094 524.960938 312.394531 524.773438 L 303.984375 508.457031 C 303.730469 507.984375 303.339844 507.75 302.808594 507.75 L 297.273438 507.75 C 296.640625 507.75 296.324219 508.066406 296.324219 508.695312 Z M 296.308594 486.421875 L 296.339844 499.003906 C 296.339844 499.140625 296.386719 499.253906 296.484375 499.351562 C 296.582031 499.445312 296.699219 499.488281 296.835938 499.484375 L 305.019531 499.457031 C 305.441406 499.453125 305.859375 499.410156 306.269531 499.324219 C 306.683594 499.242188 307.082031 499.117188 307.472656 498.953125 C 307.859375 498.789062 308.226562 498.589844 308.578125 498.351562 C 308.925781 498.117188 309.25 497.847656 309.542969 497.546875 C 309.839844 497.246094 310.105469 496.921875 310.335938 496.566406 C 310.570312 496.214844 310.765625 495.84375 310.925781 495.449219 C 311.082031 495.058594 311.203125 494.65625 311.285156 494.242188 C 311.363281 493.824219 311.402344 493.40625 311.402344 492.984375 L 311.402344 492.320312 C 311.398438 491.898438 311.355469 491.480469 311.273438 491.066406 C 311.1875 490.648438 311.0625 490.246094 310.902344 489.859375 C 310.738281 489.46875 310.539062 489.097656 310.304688 488.746094 C 310.066406 488.394531 309.800781 488.074219 309.503906 487.773438 C 309.203125 487.476562 308.878906 487.210938 308.527344 486.976562 C 308.175781 486.746094 307.804688 486.546875 307.414062 486.386719 C 307.027344 486.226562 306.625 486.109375 306.210938 486.027344 C 305.796875 485.945312 305.382812 485.90625 304.960938 485.910156 L 296.773438 485.9375 C 296.644531 485.941406 296.535156 485.992188 296.445312 486.085938 C 296.355469 486.179688 296.308594 486.289062 296.308594 486.421875 Z M 296.308594 486.421875 " fill-opacity="1" fill-rule="nonzero"/><path fill="#000000" d="M 329.578125 477.644531 L 338.664062 477.644531 C 338.816406 477.644531 338.941406 477.699219 339.046875 477.804688 C 339.15625 477.910156 339.207031 478.039062 339.207031 478.1875 L 339.207031 524.515625 C 339.207031 524.664062 339.15625 524.792969 339.046875 524.898438 C 338.941406 525.003906 338.816406 525.058594 338.664062 525.058594 L 329.578125 525.058594 C 329.429688 525.058594 329.300781 525.003906 329.195312 524.898438 C 329.089844 524.792969 329.035156 524.664062 329.035156 524.515625 L 329.035156 478.1875 C 329.035156 478.039062 329.089844 477.910156 329.195312 477.804688 C 329.300781 477.699219 329.429688 477.644531 329.578125 477.644531 Z M 329.578125 477.644531 " fill-opacity="1" fill-rule="nonzero"/><path fill="#000000" d="M 374.445312 515.273438 L 358.707031 515.273438 C 358.488281 515.277344 358.34375 515.382812 358.273438 515.589844 L 355.125 524.742188 C 355.054688 524.949219 354.910156 525.054688 354.691406 525.058594 L 344.894531 525.058594 C 344.820312 525.058594 344.746094 525.039062 344.679688 525.003906 C 344.609375 524.96875 344.554688 524.917969 344.511719 524.855469 C 344.46875 524.792969 344.441406 524.722656 344.433594 524.648438 C 344.421875 524.570312 344.429688 524.496094 344.457031 524.425781 L 361.746094 477.945312 C 361.828125 477.738281 361.976562 477.636719 362.199219 477.644531 L 370.984375 477.660156 C 371.199219 477.660156 371.347656 477.761719 371.421875 477.960938 L 388.800781 524.425781 C 388.828125 524.496094 388.839844 524.570312 388.828125 524.648438 C 388.820312 524.722656 388.792969 524.792969 388.75 524.855469 C 388.707031 524.917969 388.648438 524.96875 388.582031 525.003906 C 388.515625 525.039062 388.441406 525.058594 388.367188 525.058594 L 378.644531 525.074219 C 378.425781 525.070312 378.28125 524.964844 378.207031 524.757812 L 374.882812 515.574219 C 374.808594 515.375 374.660156 515.273438 374.445312 515.273438 Z M 361.296875 506.363281 C 361.273438 506.4375 361.265625 506.511719 361.277344 506.585938 C 361.289062 506.664062 361.316406 506.730469 361.363281 506.792969 C 361.40625 506.855469 361.460938 506.90625 361.53125 506.941406 C 361.597656 506.976562 361.671875 506.996094 361.746094 506.996094 L 371.46875 506.996094 C 371.542969 506.996094 371.617188 506.976562 371.683594 506.941406 C 371.753906 506.90625 371.808594 506.855469 371.855469 506.792969 C 371.898438 506.730469 371.925781 506.664062 371.9375 506.585938 C 371.949219 506.511719 371.941406 506.4375 371.917969 506.363281 L 367.058594 491.871094 C 366.980469 491.660156 366.832031 491.554688 366.609375 491.554688 C 366.382812 491.554688 366.234375 491.660156 366.15625 491.871094 Z M 361.296875 506.363281 " fill-opacity="1" fill-rule="nonzero"/><path fill="#000000" d="M 3.210938 544.640625 C 3.210938 544.40625 3.292969 544.203125 3.457031 544.039062 C 3.621094 543.871094 3.820312 543.785156 4.054688 543.78125 L 18.378906 543.734375 C 19.066406 543.734375 19.75 543.765625 20.433594 543.828125 C 21.117188 543.894531 21.796875 543.992188 22.46875 544.125 C 23.144531 544.253906 23.808594 544.417969 24.464844 544.613281 C 25.125 544.8125 25.769531 545.039062 26.40625 545.296875 C 27.039062 545.558594 27.660156 545.847656 28.269531 546.167969 C 28.875 546.488281 29.464844 546.839844 30.035156 547.21875 C 30.609375 547.597656 31.160156 548 31.691406 548.433594 C 32.226562 548.867188 32.734375 549.324219 33.222656 549.804688 C 33.707031 550.289062 34.171875 550.792969 34.609375 551.320312 C 35.046875 551.847656 35.457031 552.398438 35.839844 552.964844 C 36.222656 553.53125 36.578125 554.117188 36.902344 554.722656 C 37.230469 555.324219 37.523438 555.941406 37.789062 556.574219 C 38.054688 557.203125 38.289062 557.847656 38.488281 558.5 C 38.691406 559.15625 38.859375 559.820312 38.996094 560.488281 C 39.132812 561.160156 39.234375 561.835938 39.304688 562.519531 C 39.375 563.199219 39.410156 563.882812 39.414062 564.566406 L 39.445312 570.316406 C 39.445312 571 39.414062 571.683594 39.351562 572.367188 C 39.285156 573.046875 39.1875 573.726562 39.054688 574.398438 C 38.925781 575.070312 38.761719 575.734375 38.5625 576.390625 C 38.367188 577.046875 38.136719 577.691406 37.878906 578.324219 C 37.617188 578.957031 37.324219 579.574219 37.003906 580.179688 C 36.683594 580.785156 36.332031 581.375 35.953125 581.945312 C 35.574219 582.515625 35.167969 583.066406 34.734375 583.597656 C 34.300781 584.128906 33.839844 584.636719 33.359375 585.121094 C 32.875 585.609375 32.367188 586.070312 31.839844 586.503906 C 31.308594 586.941406 30.761719 587.351562 30.191406 587.734375 C 29.621094 588.117188 29.035156 588.46875 28.429688 588.792969 C 27.828125 589.121094 27.207031 589.414062 26.574219 589.679688 C 25.941406 589.941406 25.296875 590.175781 24.640625 590.375 C 23.984375 590.578125 23.320312 590.746094 22.648438 590.882812 C 21.972656 591.019531 21.296875 591.121094 20.613281 591.191406 C 19.929688 591.261719 19.246094 591.296875 18.558594 591.296875 L 4.234375 591.34375 C 3.996094 591.347656 3.789062 591.265625 3.617188 591.097656 C 3.445312 590.929688 3.363281 590.726562 3.363281 590.484375 Z M 13.398438 552.554688 L 13.488281 582.507812 C 13.488281 582.652344 13.539062 582.773438 13.644531 582.875 C 13.746094 582.976562 13.871094 583.023438 14.015625 583.019531 L 18.46875 583.003906 C 19.179688 583.003906 19.882812 582.921875 20.582031 582.769531 C 21.277344 582.613281 21.957031 582.386719 22.613281 582.085938 C 23.269531 581.785156 23.890625 581.414062 24.480469 580.980469 C 25.070312 580.542969 25.617188 580.050781 26.117188 579.496094 C 26.617188 578.941406 27.066406 578.339844 27.457031 577.691406 C 27.851562 577.039062 28.179688 576.355469 28.449219 575.632812 C 28.71875 574.910156 28.921875 574.167969 29.058594 573.402344 C 29.195312 572.636719 29.261719 571.863281 29.257812 571.085938 L 29.226562 563.859375 C 29.222656 563.082031 29.152344 562.308594 29.007812 561.542969 C 28.867188 560.78125 28.660156 560.039062 28.382812 559.320312 C 28.109375 558.601562 27.773438 557.917969 27.375 557.269531 C 26.976562 556.625 26.527344 556.027344 26.019531 555.476562 C 25.515625 554.929688 24.96875 554.4375 24.375 554.007812 C 23.78125 553.578125 23.15625 553.214844 22.496094 552.917969 C 21.839844 552.621094 21.160156 552.398438 20.460938 552.25 C 19.765625 552.101562 19.058594 552.027344 18.347656 552.03125 L 13.894531 552.042969 C 13.757812 552.046875 13.640625 552.101562 13.542969 552.199219 C 13.445312 552.300781 13.398438 552.417969 13.398438 552.554688 Z M 13.398438 552.554688 " fill-opacity="1" fill-rule="nonzero"/><path fill="#000000" d="M 56.328125 552.691406 L 56.328125 562.128906 C 56.328125 562.277344 56.378906 562.40625 56.484375 562.511719 C 56.589844 562.617188 56.71875 562.671875 56.867188 562.671875 L 74.21875 562.6875 C 74.367188 562.6875 74.496094 562.738281 74.601562 562.84375 C 74.707031 562.949219 74.757812 563.078125 74.757812 563.226562 L 74.757812 570.421875 C 74.757812 570.570312 74.707031 570.699219 74.601562 570.804688 C 74.496094 570.910156 74.367188 570.964844 74.21875 570.964844 L 56.867188 570.964844 C 56.71875 570.964844 56.589844 571.015625 56.484375 571.121094 C 56.378906 571.230469 56.328125 571.355469 56.328125 571.507812 L 56.328125 582.464844 C 56.328125 582.613281 56.378906 582.742188 56.484375 582.847656 C 56.589844 582.953125 56.71875 583.003906 56.867188 583.003906 L 77.601562 583.003906 C 77.753906 583.003906 77.878906 583.058594 77.984375 583.164062 C 78.089844 583.269531 78.144531 583.398438 78.144531 583.546875 L 78.144531 590.742188 C 78.144531 590.890625 78.089844 591.019531 77.984375 591.125 C 77.878906 591.230469 77.753906 591.285156 77.601562 591.285156 L 46.710938 591.285156 C 46.5625 591.285156 46.433594 591.230469 46.328125 591.125 C 46.222656 591.019531 46.171875 590.890625 46.171875 590.742188 L 46.171875 544.414062 C 46.171875 544.265625 46.222656 544.136719 46.328125 544.03125 C 46.433594 543.925781 46.5625 543.871094 46.710938 543.871094 L 77.601562 543.855469 C 77.753906 543.855469 77.878906 543.910156 77.984375 544.015625 C 78.089844 544.121094 78.144531 544.25 78.144531 544.398438 L 78.144531 551.609375 C 78.144531 551.757812 78.089844 551.886719 77.984375 551.992188 C 77.878906 552.097656 77.753906 552.148438 77.601562 552.148438 L 56.867188 552.148438 C 56.71875 552.148438 56.589844 552.203125 56.484375 552.308594 C 56.378906 552.414062 56.328125 552.542969 56.328125 552.691406 Z M 56.328125 552.691406 " fill-opacity="1" fill-rule="nonzero"/><path fill="#000000" d="M 110.734375 582.988281 L 130.207031 583.003906 C 130.378906 583.003906 130.523438 583.066406 130.644531 583.1875 C 130.761719 583.304688 130.824219 583.453125 130.824219 583.621094 L 130.792969 590.667969 C 130.792969 590.835938 130.734375 590.980469 130.613281 591.101562 C 130.492188 591.222656 130.347656 591.285156 130.175781 591.285156 L 100.578125 591.296875 C 100.410156 591.296875 100.261719 591.238281 100.144531 591.117188 C 100.023438 590.996094 99.960938 590.851562 99.960938 590.679688 L 99.960938 544.488281 C 99.960938 544.320312 100.023438 544.171875 100.144531 544.050781 C 100.261719 543.933594 100.410156 543.871094 100.578125 543.871094 L 109.503906 543.828125 C 109.671875 543.828125 109.816406 543.886719 109.9375 544.007812 C 110.058594 544.128906 110.117188 544.273438 110.117188 544.445312 L 110.117188 582.375 C 110.117188 582.542969 110.179688 582.6875 110.300781 582.808594 C 110.421875 582.929688 110.566406 582.988281 110.734375 582.988281 Z M 110.734375 582.988281 " fill-opacity="1" fill-rule="nonzero"/><path fill="#000000" d="M 146.351562 581.816406 L 143.238281 590.953125 C 143.164062 591.171875 143.015625 591.28125 142.785156 591.285156 L 132.976562 591.296875 C 132.898438 591.296875 132.824219 591.28125 132.753906 591.242188 C 132.683594 591.207031 132.625 591.15625 132.582031 591.09375 C 132.535156 591.027344 132.507812 590.957031 132.5 590.878906 C 132.488281 590.800781 132.496094 590.726562 132.523438 590.652344 L 149.796875 544.1875 C 149.875 543.976562 150.023438 543.871094 150.25 543.871094 L 159.019531 543.871094 C 159.246094 543.871094 159.394531 543.976562 159.472656 544.1875 L 176.898438 590.667969 C 176.925781 590.738281 176.933594 590.816406 176.921875 590.894531 C 176.914062 590.972656 176.882812 591.042969 176.839844 591.109375 C 176.792969 591.171875 176.738281 591.222656 176.667969 591.257812 C 176.597656 591.296875 176.523438 591.3125 176.445312 591.3125 L 166.589844 591.269531 C 166.359375 591.265625 166.210938 591.15625 166.136719 590.9375 L 163.082031 581.863281 C 163.011719 581.644531 162.863281 581.53125 162.632812 581.53125 L 146.804688 581.484375 C 146.574219 581.488281 146.421875 581.597656 146.351562 581.816406 Z M 149.390625 572.53125 C 149.363281 572.609375 149.359375 572.691406 149.371094 572.773438 C 149.382812 572.859375 149.414062 572.933594 149.464844 573.003906 C 149.511719 573.070312 149.574219 573.125 149.648438 573.164062 C 149.722656 573.203125 149.804688 573.222656 149.886719 573.222656 L 159.488281 573.222656 C 159.570312 573.222656 159.652344 573.203125 159.726562 573.164062 C 159.800781 573.125 159.863281 573.070312 159.914062 573.003906 C 159.960938 572.933594 159.992188 572.859375 160.003906 572.773438 C 160.019531 572.691406 160.011719 572.609375 159.984375 572.53125 L 155.183594 558.1875 C 155.101562 557.953125 154.9375 557.835938 154.6875 557.835938 C 154.441406 557.835938 154.273438 557.953125 154.191406 558.1875 Z M 149.390625 572.53125 " fill-opacity="1" fill-rule="nonzero"/><g clip-path="url(#55e216b4df)"><path fill="#000000" d="M 0.277344 646.070312 L 0.277344 643.195312 L 9.605469 643.253906 C 10.097656 643.253906 10.367188 643.507812 10.417969 644.007812 C 11.171875 652.84375 22.050781 651.550781 22.078125 643.121094 C 22.101562 632.535156 22.105469 621.757812 22.09375 610.789062 C 22.09375 610.328125 22.324219 610.097656 22.789062 610.097656 L 31.574219 610.082031 C 32.046875 610.082031 32.277344 610.320312 32.265625 610.789062 C 32.214844 620.453125 32.226562 630.847656 32.296875 641.976562 C 32.371094 654.09375 23.148438 659.765625 11.9375 657.765625 C 5.367188 656.601562 1.480469 652.703125 0.277344 646.070312 Z M 0.277344 646.070312 " fill-opacity="1" fill-rule="nonzero"/></g><path fill="#000000" d="M 49.855469 642.082031 C 49.765625 652.4375 65.882812 653.160156 66.015625 641.71875 C 66.136719 632.277344 66.15625 621.929688 66.078125 610.667969 C 66.066406 610.289062 66.253906 610.097656 66.632812 610.097656 L 75.796875 610.097656 C 76.078125 610.097656 76.21875 610.238281 76.21875 610.519531 C 76.328125 621.144531 76.3125 631.671875 76.171875 642.097656 C 75.992188 655.492188 63.445312 660.113281 51.84375 657.375 C 43.28125 655.355469 39.550781 648.765625 39.683594 640.109375 C 39.855469 629.753906 39.859375 619.929688 39.699219 610.640625 C 39.691406 610.289062 39.859375 610.113281 40.210938 610.113281 L 49.496094 610.066406 C 49.609375 610.066406 49.703125 610.105469 49.78125 610.1875 C 49.863281 610.265625 49.902344 610.363281 49.902344 610.472656 C 49.972656 620.980469 49.957031 631.515625 49.855469 642.082031 Z M 49.855469 642.082031 " fill-opacity="1" fill-rule="nonzero"/><path fill="#000000" d="M 101.859375 643.40625 L 111.640625 610.457031 C 111.710938 610.210938 111.878906 610.085938 112.136719 610.082031 L 122.351562 610.097656 C 122.4375 610.097656 122.515625 610.117188 122.589844 610.15625 C 122.664062 610.195312 122.726562 610.25 122.777344 610.316406 C 122.824219 610.386719 122.855469 610.460938 122.871094 610.546875 C 122.882812 610.628906 122.875 610.710938 122.847656 610.789062 L 106.71875 657.132812 C 106.632812 657.363281 106.46875 657.480469 106.222656 657.480469 L 96.515625 657.523438 C 96.265625 657.523438 96.097656 657.402344 96.019531 657.164062 L 79.921875 610.789062 C 79.894531 610.710938 79.886719 610.628906 79.898438 610.546875 C 79.910156 610.460938 79.941406 610.386719 79.992188 610.316406 C 80.042969 610.25 80.101562 610.195312 80.179688 610.15625 C 80.253906 610.117188 80.332031 610.097656 80.417969 610.097656 L 90.589844 610.082031 C 90.847656 610.085938 91.011719 610.210938 91.085938 610.457031 L 100.835938 643.40625 C 100.863281 643.523438 100.925781 643.621094 101.023438 643.695312 C 101.117188 643.769531 101.226562 643.808594 101.347656 643.808594 C 101.46875 643.808594 101.578125 643.769531 101.671875 643.695312 C 101.765625 643.621094 101.828125 643.523438 101.859375 643.40625 Z M 101.859375 643.40625 " fill-opacity="1" fill-rule="nonzero"/><path fill="#000000" d="M 137.746094 649.214844 L 158.480469 649.230469 C 158.628906 649.230469 158.757812 649.285156 158.863281 649.390625 C 158.96875 649.496094 159.019531 649.625 159.019531 649.773438 L 159.019531 656.96875 C 159.019531 657.117188 158.96875 657.246094 158.863281 657.351562 C 158.757812 657.457031 158.628906 657.507812 158.480469 657.507812 L 127.589844 657.507812 C 127.4375 657.507812 127.3125 657.457031 127.207031 657.351562 C 127.101562 657.246094 127.046875 657.117188 127.046875 656.96875 L 127.046875 610.640625 C 127.046875 610.488281 127.101562 610.363281 127.207031 610.257812 C 127.3125 610.152344 127.4375 610.097656 127.589844 610.097656 L 158.480469 610.097656 C 158.628906 610.097656 158.757812 610.152344 158.863281 610.257812 C 158.96875 610.363281 159.019531 610.488281 159.019531 610.640625 L 159.019531 617.835938 C 159.019531 617.984375 158.96875 618.113281 158.863281 618.21875 C 158.757812 618.324219 158.628906 618.375 158.480469 618.375 L 137.746094 618.375 C 137.59375 618.375 137.46875 618.429688 137.363281 618.535156 C 137.257812 618.640625 137.203125 618.769531 137.203125 618.917969 L 137.21875 628.371094 C 137.21875 628.519531 137.269531 628.648438 137.378906 628.753906 C 137.484375 628.859375 137.609375 628.910156 137.761719 628.910156 L 155.09375 628.910156 C 155.242188 628.910156 155.371094 628.964844 155.476562 629.070312 C 155.582031 629.175781 155.636719 629.304688 155.636719 629.453125 L 155.652344 636.664062 C 155.652344 636.8125 155.597656 636.941406 155.492188 637.046875 C 155.386719 637.152344 155.257812 637.207031 155.109375 637.207031 L 137.761719 637.191406 C 137.609375 637.191406 137.484375 637.242188 137.378906 637.347656 C 137.269531 637.453125 137.21875 637.582031 137.21875 637.730469 L 137.203125 648.675781 C 137.203125 648.824219 137.257812 648.953125 137.363281 649.058594 C 137.46875 649.164062 137.59375 649.214844 137.746094 649.214844 Z M 137.746094 649.214844 " fill-opacity="1" fill-rule="nonzero"/><path fill="#000000" d="M 173.976562 657.496094 L 164.785156 657.523438 C 164.648438 657.523438 164.53125 657.476562 164.433594 657.378906 C 164.335938 657.28125 164.289062 657.164062 164.289062 657.027344 L 164.289062 610.59375 C 164.289062 610.457031 164.335938 610.339844 164.433594 610.242188 C 164.53125 610.144531 164.648438 610.097656 164.785156 610.097656 L 174.128906 610.097656 C 174.320312 610.09375 174.464844 610.171875 174.566406 610.339844 L 191.929688 638.890625 C 192.058594 639.101562 192.246094 639.171875 192.484375 639.105469 C 192.722656 639.039062 192.84375 638.882812 192.847656 638.636719 L 192.890625 610.59375 C 192.890625 610.457031 192.941406 610.339844 193.039062 610.242188 C 193.132812 610.144531 193.25 610.097656 193.386719 610.097656 L 202.535156 610.097656 C 202.675781 610.097656 202.789062 610.144531 202.886719 610.242188 C 202.984375 610.339844 203.035156 610.457031 203.035156 610.59375 L 203.035156 656.996094 C 203.035156 657.132812 202.984375 657.25 202.886719 657.347656 C 202.789062 657.445312 202.675781 657.496094 202.535156 657.496094 L 193.175781 657.507812 C 192.984375 657.511719 192.839844 657.433594 192.742188 657.269531 L 175.316406 628.597656 C 175.191406 628.363281 175.003906 628.285156 174.75 628.351562 C 174.496094 628.421875 174.375 628.589844 174.382812 628.851562 L 174.472656 656.996094 C 174.472656 657.132812 174.425781 657.25 174.328125 657.347656 C 174.230469 657.445312 174.113281 657.496094 173.976562 657.496094 Z M 173.976562 657.496094 " fill-opacity="1" fill-rule="nonzero"/><path fill="#000000" d="M 231.621094 618.933594 L 231.621094 656.9375 C 231.621094 657.089844 231.566406 657.222656 231.460938 657.332031 C 231.351562 657.441406 231.21875 657.496094 231.066406 657.496094 L 222.023438 657.523438 C 221.867188 657.523438 221.738281 657.46875 221.628906 657.359375 C 221.519531 657.253906 221.464844 657.121094 221.464844 656.96875 L 221.464844 618.933594 C 221.464844 618.777344 221.410156 618.648438 221.300781 618.539062 C 221.195312 618.429688 221.0625 618.375 220.910156 618.375 L 207.714844 618.375 C 207.558594 618.375 207.429688 618.320312 207.320312 618.210938 C 207.210938 618.105469 207.15625 617.972656 207.15625 617.820312 L 207.171875 610.65625 C 207.171875 610.5 207.226562 610.371094 207.335938 610.261719 C 207.441406 610.152344 207.574219 610.097656 207.726562 610.097656 L 245.359375 610.097656 C 245.515625 610.097656 245.644531 610.152344 245.753906 610.261719 C 245.863281 610.371094 245.917969 610.5 245.917969 610.65625 L 245.917969 617.835938 C 245.917969 617.988281 245.863281 618.117188 245.753906 618.226562 C 245.644531 618.335938 245.515625 618.390625 245.359375 618.390625 L 232.179688 618.375 C 232.023438 618.375 231.894531 618.429688 231.785156 618.539062 C 231.675781 618.648438 231.621094 618.777344 231.621094 618.933594 Z M 231.621094 618.933594 " fill-opacity="1" fill-rule="nonzero"/><path fill="#000000" d="M 260.601562 640.710938 C 260.601562 645 262.136719 648.960938 266.878906 649.789062 C 272.519531 650.765625 276.824219 647.742188 276.792969 642.082031 C 276.753906 630.664062 276.742188 620.242188 276.761719 610.820312 C 276.773438 610.339844 277.019531 610.097656 277.5 610.097656 L 286.210938 610.097656 C 286.714844 610.085938 286.960938 610.332031 286.949219 610.835938 C 286.839844 620.367188 286.859375 630.46875 287.011719 641.132812 C 287.128906 649.742188 282.632812 655.855469 274.054688 657.601562 C 265.734375 659.300781 255.394531 657.238281 252.011719 648.660156 C 250.886719 645.828125 250.34375 642.421875 250.386719 638.4375 C 250.457031 628.183594 250.464844 618.96875 250.414062 610.789062 C 250.414062 610.328125 250.648438 610.097656 251.109375 610.097656 L 259.925781 610.066406 C 260.367188 610.066406 260.585938 610.292969 260.585938 610.746094 C 260.578125 620.527344 260.582031 630.515625 260.601562 640.710938 Z M 260.601562 640.710938 " fill-opacity="1" fill-rule="nonzero"/><path fill="#000000" d="M 294.503906 610.773438 C 294.503906 610.546875 294.585938 610.355469 294.746094 610.195312 C 294.910156 610.035156 295.101562 609.957031 295.332031 609.960938 L 309.851562 610.007812 C 310.546875 610.011719 311.238281 610.046875 311.929688 610.117188 C 312.621094 610.1875 313.304688 610.292969 313.984375 610.429688 C 314.667969 610.566406 315.339844 610.738281 316.003906 610.941406 C 316.664062 611.148438 317.316406 611.382812 317.957031 611.652344 C 318.597656 611.917969 319.226562 612.21875 319.835938 612.546875 C 320.449219 612.878906 321.042969 613.238281 321.617188 613.625 C 322.191406 614.015625 322.75 614.429688 323.285156 614.871094 C 323.820312 615.316406 324.332031 615.785156 324.820312 616.277344 C 325.308594 616.769531 325.773438 617.285156 326.210938 617.824219 C 326.652344 618.363281 327.0625 618.921875 327.445312 619.5 C 327.828125 620.082031 328.183594 620.679688 328.507812 621.292969 C 328.835938 621.90625 329.128906 622.535156 329.390625 623.179688 C 329.65625 623.820312 329.886719 624.476562 330.085938 625.140625 C 330.285156 625.808594 330.449219 626.480469 330.585938 627.164062 C 330.71875 627.84375 330.816406 628.53125 330.882812 629.222656 C 330.949219 629.917969 330.980469 630.609375 330.976562 631.304688 L 330.945312 636.421875 C 330.945312 637.117188 330.90625 637.8125 330.835938 638.503906 C 330.765625 639.195312 330.664062 639.878906 330.523438 640.5625 C 330.386719 641.242188 330.214844 641.914062 330.011719 642.578125 C 329.808594 643.246094 329.570312 643.898438 329.304688 644.539062 C 329.035156 645.179688 328.738281 645.804688 328.40625 646.417969 C 328.078125 647.03125 327.71875 647.625 327.332031 648.199219 C 326.945312 648.777344 326.527344 649.332031 326.085938 649.867188 C 325.644531 650.40625 325.175781 650.917969 324.683594 651.40625 C 324.191406 651.898438 323.675781 652.359375 323.136719 652.800781 C 322.597656 653.238281 322.039062 653.652344 321.460938 654.035156 C 320.882812 654.417969 320.285156 654.773438 319.671875 655.097656 C 319.058594 655.425781 318.433594 655.71875 317.789062 655.984375 C 317.148438 656.246094 316.492188 656.476562 315.828125 656.675781 C 315.164062 656.878906 314.488281 657.042969 313.808594 657.175781 C 313.125 657.308594 312.441406 657.410156 311.75 657.476562 C 311.058594 657.539062 310.363281 657.570312 309.671875 657.570312 L 295.148438 657.523438 C 294.929688 657.519531 294.742188 657.4375 294.585938 657.28125 C 294.429688 657.125 294.351562 656.933594 294.351562 656.710938 Z M 304.644531 619.007812 L 304.554688 648.539062 C 304.554688 648.742188 304.625 648.917969 304.769531 649.066406 C 304.914062 649.210938 305.085938 649.289062 305.292969 649.292969 L 309.476562 649.304688 C 310.210938 649.308594 310.941406 649.234375 311.664062 649.082031 C 312.386719 648.929688 313.089844 648.703125 313.773438 648.398438 C 314.457031 648.097656 315.101562 647.726562 315.71875 647.285156 C 316.332031 646.847656 316.902344 646.34375 317.425781 645.785156 C 317.949219 645.222656 318.414062 644.613281 318.828125 643.953125 C 319.238281 643.289062 319.585938 642.59375 319.871094 641.859375 C 320.15625 641.125 320.375 640.367188 320.519531 639.585938 C 320.667969 638.804688 320.742188 638.015625 320.746094 637.21875 L 320.773438 630.445312 C 320.777344 629.648438 320.710938 628.859375 320.570312 628.078125 C 320.429688 627.296875 320.21875 626.539062 319.9375 625.800781 C 319.660156 625.0625 319.316406 624.363281 318.910156 623.699219 C 318.503906 623.035156 318.039062 622.421875 317.519531 621.855469 C 317 621.289062 316.4375 620.785156 315.824219 620.339844 C 315.214844 619.894531 314.566406 619.519531 313.886719 619.210938 C 313.207031 618.902344 312.507812 618.671875 311.785156 618.511719 C 311.0625 618.355469 310.332031 618.273438 309.59375 618.269531 L 305.414062 618.253906 C 305.203125 618.25 305.019531 618.324219 304.871094 618.46875 C 304.71875 618.617188 304.644531 618.796875 304.644531 619.007812 Z M 304.644531 619.007812 " fill-opacity="1" fill-rule="nonzero"/><path fill="#000000" d="M 200.324219 664.386719 L 191.867188 673.839844 C 191.765625 673.949219 191.640625 674.003906 191.492188 674.003906 L 184.464844 674.109375 C 184.253906 674.113281 184.097656 674.023438 183.996094 673.839844 C 183.894531 673.65625 183.898438 673.476562 184.015625 673.296875 L 190.03125 663.769531 C 190.136719 663.613281 190.28125 663.53125 190.46875 663.53125 L 199.933594 663.515625 C 200.160156 663.515625 200.316406 663.621094 200.410156 663.828125 C 200.5 664.03125 200.472656 664.21875 200.324219 664.386719 Z M 200.324219 664.386719 " fill-opacity="1" fill-rule="nonzero"/><path fill="#000000" d="M 35.003906 719.703125 C 34.59375 720.082031 34.609375 720.449219 35.050781 720.800781 L 41.777344 726.160156 C 42.035156 726.359375 42.042969 726.566406 41.792969 726.777344 L 35.96875 731.921875 C 35.867188 732.015625 35.746094 732.0625 35.609375 732.0625 C 35.472656 732.066406 35.351562 732.023438 35.246094 731.9375 L 26.1875 724.652344 C 25.796875 724.332031 25.351562 724.191406 24.847656 724.230469 C 4.714844 725.511719 -0.941406 708.082031 2.535156 691.707031 C 4.148438 684.160156 8.320312 679.136719 15.054688 676.640625 C 22.15625 674.003906 31.726562 675.949219 36.660156 681.890625 C 39.941406 685.847656 41.710938 690.417969 41.972656 695.605469 C 42.4375 704.800781 42.105469 713.152344 35.003906 719.703125 Z M 22 716.375 C 22.683594 716.371094 23.359375 716.265625 24.027344 716.054688 C 24.699219 715.839844 25.347656 715.527344 25.976562 715.113281 C 26.605469 714.699219 27.203125 714.191406 27.769531 713.59375 C 28.335938 712.992188 28.855469 712.3125 29.335938 711.546875 C 29.816406 710.785156 30.246094 709.957031 30.621094 709.058594 C 30.996094 708.164062 31.316406 707.21875 31.574219 706.222656 C 31.832031 705.226562 32.023438 704.203125 32.152344 703.144531 C 32.28125 702.089844 32.34375 701.023438 32.34375 699.949219 C 32.339844 698.871094 32.269531 697.804688 32.132812 696.75 C 31.992188 695.695312 31.792969 694.671875 31.527344 693.679688 C 31.265625 692.683594 30.941406 691.742188 30.558594 690.847656 C 30.175781 689.953125 29.742188 689.128906 29.257812 688.367188 C 28.769531 687.609375 28.242188 686.933594 27.671875 686.335938 C 27.105469 685.738281 26.503906 685.238281 25.871094 684.828125 C 25.238281 684.417969 24.585938 684.109375 23.917969 683.902344 C 23.246094 683.695312 22.570312 683.589844 21.886719 683.59375 C 21.203125 683.597656 20.527344 683.703125 19.859375 683.914062 C 19.191406 684.128906 18.542969 684.441406 17.914062 684.855469 C 17.285156 685.269531 16.6875 685.777344 16.121094 686.375 C 15.554688 686.976562 15.03125 687.65625 14.550781 688.421875 C 14.070312 689.183594 13.644531 690.011719 13.269531 690.910156 C 12.890625 691.804688 12.574219 692.75 12.316406 693.746094 C 12.058594 694.742188 11.867188 695.765625 11.734375 696.820312 C 11.605469 697.878906 11.542969 698.945312 11.546875 700.019531 C 11.550781 701.097656 11.621094 702.164062 11.757812 703.21875 C 11.894531 704.273438 12.097656 705.296875 12.359375 706.289062 C 12.625 707.285156 12.949219 708.226562 13.332031 709.121094 C 13.714844 710.015625 14.148438 710.839844 14.632812 711.601562 C 15.117188 712.359375 15.644531 713.035156 16.214844 713.632812 C 16.785156 714.230469 17.386719 714.730469 18.019531 715.140625 C 18.652344 715.550781 19.300781 715.859375 19.972656 716.066406 C 20.640625 716.273438 21.320312 716.378906 22 716.375 Z M 22 716.375 " fill-opacity="1" fill-rule="nonzero"/><path fill="#000000" d="M 372.285156 705.949219 C 372.285156 706.546875 372.253906 707.140625 372.195312 707.734375 C 372.132812 708.328125 372.046875 708.917969 371.929688 709.503906 C 371.8125 710.089844 371.664062 710.667969 371.492188 711.238281 C 371.316406 711.808594 371.113281 712.371094 370.886719 712.921875 C 370.65625 713.472656 370.402344 714.011719 370.117188 714.539062 C 369.835938 715.0625 369.527344 715.574219 369.195312 716.070312 C 368.863281 716.566406 368.507812 717.042969 368.128906 717.503906 C 367.75 717.964844 367.347656 718.40625 366.925781 718.828125 C 366.503906 719.25 366.058594 719.648438 365.597656 720.027344 C 365.136719 720.40625 364.65625 720.757812 364.160156 721.089844 C 363.664062 721.421875 363.152344 721.726562 362.625 722.007812 C 362.097656 722.289062 361.558594 722.542969 361.007812 722.769531 C 360.457031 722.996094 359.894531 723.195312 359.324219 723.367188 C 358.75 723.539062 358.171875 723.683594 357.585938 723.800781 C 357 723.914062 356.410156 724.003906 355.816406 724.058594 C 355.222656 724.117188 354.628906 724.144531 354.03125 724.144531 L 350.992188 724.140625 C 350.394531 724.136719 349.800781 724.109375 349.207031 724.046875 C 348.613281 723.988281 348.023438 723.898438 347.4375 723.78125 C 346.851562 723.664062 346.273438 723.519531 345.703125 723.34375 C 345.132812 723.171875 344.574219 722.96875 344.019531 722.738281 C 343.46875 722.511719 342.933594 722.253906 342.40625 721.972656 C 341.878906 721.6875 341.371094 721.382812 340.875 721.050781 C 340.378906 720.71875 339.898438 720.359375 339.441406 719.980469 C 338.980469 719.601562 338.539062 719.199219 338.117188 718.777344 C 337.695312 718.355469 337.296875 717.914062 336.917969 717.449219 C 336.539062 716.988281 336.1875 716.507812 335.855469 716.011719 C 335.523438 715.515625 335.21875 715.003906 334.9375 714.476562 C 334.660156 713.949219 334.40625 713.410156 334.175781 712.859375 C 333.949219 712.304688 333.75 711.742188 333.578125 711.171875 C 333.40625 710.601562 333.261719 710.023438 333.144531 709.4375 C 333.03125 708.851562 332.945312 708.261719 332.886719 707.667969 C 332.828125 707.074219 332.800781 706.476562 332.800781 705.878906 L 332.824219 694.078125 C 332.824219 693.484375 332.855469 692.886719 332.914062 692.292969 C 332.972656 691.699219 333.0625 691.109375 333.179688 690.523438 C 333.296875 689.9375 333.441406 689.359375 333.617188 688.789062 C 333.789062 688.21875 333.992188 687.65625 334.222656 687.105469 C 334.453125 686.554688 334.707031 686.015625 334.988281 685.492188 C 335.273438 684.964844 335.578125 684.453125 335.910156 683.957031 C 336.242188 683.464844 336.601562 682.984375 336.980469 682.523438 C 337.359375 682.0625 337.757812 681.621094 338.183594 681.199219 C 338.605469 680.777344 339.046875 680.378906 339.507812 680 C 339.972656 679.625 340.449219 679.269531 340.949219 678.9375 C 341.445312 678.609375 341.957031 678.300781 342.484375 678.023438 C 343.007812 677.742188 343.550781 677.488281 344.101562 677.261719 C 344.652344 677.03125 345.214844 676.832031 345.785156 676.660156 C 346.355469 676.488281 346.933594 676.34375 347.519531 676.230469 C 348.105469 676.113281 348.695312 676.027344 349.289062 675.96875 C 349.882812 675.910156 350.480469 675.882812 351.078125 675.882812 L 354.117188 675.890625 C 354.710938 675.890625 355.308594 675.921875 355.902344 675.980469 C 356.496094 676.039062 357.085938 676.128906 357.671875 676.246094 C 358.253906 676.363281 358.832031 676.507812 359.402344 676.683594 C 359.976562 676.859375 360.535156 677.058594 361.085938 677.289062 C 361.636719 677.519531 362.175781 677.773438 362.703125 678.058594 C 363.226562 678.339844 363.738281 678.648438 364.234375 678.980469 C 364.730469 679.3125 365.207031 679.667969 365.667969 680.046875 C 366.128906 680.425781 366.570312 680.828125 366.992188 681.25 C 367.414062 681.671875 367.8125 682.117188 368.191406 682.578125 C 368.566406 683.039062 368.921875 683.519531 369.253906 684.015625 C 369.582031 684.515625 369.886719 685.027344 370.167969 685.554688 C 370.449219 686.078125 370.703125 686.621094 370.929688 687.171875 C 371.15625 687.722656 371.359375 688.285156 371.53125 688.855469 C 371.703125 689.429688 371.847656 690.007812 371.960938 690.59375 C 372.078125 691.179688 372.164062 691.769531 372.222656 692.363281 C 372.277344 692.957031 372.304688 693.550781 372.304688 694.148438 Z M 352.597656 716.359375 C 353.28125 716.359375 353.957031 716.253906 354.628906 716.042969 C 355.296875 715.832031 355.949219 715.519531 356.578125 715.105469 C 357.210938 714.691406 357.808594 714.1875 358.378906 713.585938 C 358.945312 712.988281 359.46875 712.308594 359.953125 711.546875 C 360.433594 710.785156 360.863281 709.957031 361.242188 709.058594 C 361.621094 708.164062 361.941406 707.21875 362.199219 706.226562 C 362.460938 705.230469 362.65625 704.203125 362.785156 703.148438 C 362.917969 702.09375 362.984375 701.027344 362.980469 699.949219 C 362.980469 698.875 362.910156 697.808594 362.777344 696.753906 C 362.640625 695.699219 362.441406 694.671875 362.179688 693.679688 C 361.914062 692.6875 361.59375 691.742188 361.210938 690.847656 C 360.828125 689.953125 360.394531 689.125 359.910156 688.367188 C 359.425781 687.605469 358.898438 686.925781 358.332031 686.332031 C 357.761719 685.734375 357.160156 685.230469 356.527344 684.820312 C 355.894531 684.410156 355.242188 684.097656 354.574219 683.890625 C 353.902344 683.679688 353.222656 683.578125 352.539062 683.578125 C 351.855469 683.578125 351.179688 683.6875 350.507812 683.898438 C 349.839844 684.109375 349.1875 684.417969 348.558594 684.832031 C 347.925781 685.246094 347.328125 685.75 346.761719 686.351562 C 346.191406 686.949219 345.667969 687.628906 345.1875 688.390625 C 344.703125 689.152344 344.273438 689.984375 343.894531 690.878906 C 343.515625 691.773438 343.199219 692.71875 342.9375 693.714844 C 342.679688 694.707031 342.484375 695.734375 342.351562 696.789062 C 342.21875 697.84375 342.15625 698.910156 342.15625 699.988281 C 342.160156 701.0625 342.226562 702.128906 342.363281 703.183594 C 342.496094 704.238281 342.695312 705.265625 342.960938 706.257812 C 343.222656 707.253906 343.546875 708.195312 343.925781 709.089844 C 344.308594 709.984375 344.742188 710.8125 345.226562 711.570312 C 345.710938 712.332031 346.238281 713.011719 346.808594 713.609375 C 347.378906 714.203125 347.976562 714.707031 348.609375 715.121094 C 349.242188 715.53125 349.894531 715.839844 350.566406 716.046875 C 351.238281 716.257812 351.914062 716.359375 352.597656 716.359375 Z M 352.597656 716.359375 " fill-opacity="1" fill-rule="nonzero"/><path fill="#000000" d="M 61.609375 714.6875 C 67.101562 718.03125 74.667969 715.878906 74.714844 708.429688 C 74.792969 697.722656 74.804688 687.265625 74.742188 677.0625 C 74.742188 676.859375 74.816406 676.683594 74.960938 676.539062 C 75.105469 676.394531 75.277344 676.324219 75.480469 676.324219 L 84.222656 676.308594 C 84.753906 676.308594 85.011719 676.574219 84.992188 677.105469 C 84.808594 684.109375 84.808594 691.316406 84.992188 698.71875 C 85.171875 705.855469 84.910156 710.617188 84.207031 713.003906 C 81.257812 722.90625 70.800781 725.78125 61.414062 723.839844 C 52.21875 721.945312 48.277344 715.230469 48.367188 706.199219 C 48.457031 696.71875 48.46875 686.996094 48.398438 677.03125 C 48.398438 676.550781 48.636719 676.308594 49.117188 676.308594 L 57.90625 676.324219 C 58.359375 676.324219 58.582031 676.550781 58.582031 677 C 58.59375 687.214844 58.589844 697.246094 58.570312 707.089844 C 58.570312 709.917969 58.929688 713.0625 61.609375 714.6875 Z M 61.609375 714.6875 " fill-opacity="1" fill-rule="nonzero"/><path fill="#000000" d="M 102.59375 703.941406 L 102.609375 714.898438 C 102.609375 715.050781 102.664062 715.175781 102.769531 715.285156 C 102.875 715.390625 103.003906 715.441406 103.152344 715.441406 L 123.871094 715.457031 C 124.019531 715.457031 124.148438 715.511719 124.253906 715.617188 C 124.359375 715.722656 124.414062 715.847656 124.414062 716 L 124.414062 723.195312 C 124.414062 723.34375 124.359375 723.472656 124.253906 723.578125 C 124.148438 723.683594 124.019531 723.734375 123.871094 723.734375 L 92.980469 723.734375 C 92.832031 723.734375 92.703125 723.683594 92.597656 723.578125 C 92.492188 723.472656 92.4375 723.34375 92.4375 723.195312 L 92.4375 676.867188 C 92.4375 676.714844 92.492188 676.589844 92.597656 676.480469 C 92.703125 676.375 92.832031 676.324219 92.980469 676.324219 L 123.871094 676.324219 C 124.019531 676.324219 124.148438 676.375 124.253906 676.480469 C 124.359375 676.589844 124.414062 676.714844 124.414062 676.867188 L 124.414062 684.058594 C 124.414062 684.210938 124.359375 684.335938 124.253906 684.441406 C 124.148438 684.550781 124.019531 684.601562 123.871094 684.601562 L 103.136719 684.601562 C 102.988281 684.601562 102.859375 684.65625 102.753906 684.761719 C 102.648438 684.867188 102.59375 684.992188 102.59375 685.144531 L 102.609375 694.597656 C 102.609375 694.746094 102.664062 694.875 102.769531 694.980469 C 102.875 695.085938 103.003906 695.136719 103.152344 695.136719 L 120.488281 695.136719 C 120.636719 695.136719 120.761719 695.191406 120.871094 695.296875 C 120.976562 695.402344 121.027344 695.53125 121.027344 695.679688 L 121.042969 702.890625 C 121.042969 703.039062 120.988281 703.167969 120.882812 703.273438 C 120.777344 703.378906 120.652344 703.429688 120.5 703.429688 L 103.136719 703.402344 C 102.988281 703.402344 102.859375 703.453125 102.753906 703.558594 C 102.648438 703.664062 102.59375 703.792969 102.59375 703.941406 Z M 102.59375 703.941406 " fill-opacity="1" fill-rule="nonzero"/><path fill="#000000" d="M 139.835938 707.375 L 139.835938 722.96875 C 139.835938 723.46875 139.589844 723.71875 139.097656 723.71875 L 130.449219 723.765625 C 129.9375 723.765625 129.679688 723.507812 129.679688 722.996094 L 129.679688 677.363281 C 129.679688 676.609375 130.054688 676.242188 130.808594 676.261719 C 135.753906 676.394531 141.035156 676.382812 146.652344 676.234375 C 157.710938 675.949219 166.378906 680.882812 164.859375 693.136719 C 164.257812 697.953125 161.859375 701.378906 157.667969 703.414062 C 157.542969 703.476562 157.4375 703.554688 157.347656 703.660156 C 157.257812 703.761719 157.191406 703.878906 157.152344 704.007812 C 157.109375 704.140625 157.09375 704.273438 157.105469 704.410156 C 157.113281 704.546875 157.152344 704.679688 157.214844 704.800781 L 166.949219 723.296875 C 166.976562 723.339844 166.988281 723.386719 166.984375 723.433594 C 166.984375 723.480469 166.96875 723.527344 166.945312 723.570312 C 166.917969 723.609375 166.882812 723.644531 166.835938 723.667969 C 166.792969 723.691406 166.746094 723.703125 166.695312 723.707031 L 156.386719 723.75 C 156.164062 723.75 156.003906 723.648438 155.90625 723.449219 L 147.527344 707.222656 C 147.398438 706.980469 147.214844 706.785156 146.976562 706.640625 C 146.738281 706.5 146.480469 706.425781 146.203125 706.425781 L 140.769531 706.425781 C 140.148438 706.425781 139.835938 706.742188 139.835938 707.375 Z M 139.820312 685.070312 L 139.851562 697.652344 C 139.851562 697.785156 139.898438 697.898438 139.992188 697.992188 C 140.085938 698.085938 140.199219 698.132812 140.332031 698.132812 L 148.457031 698.117188 C 148.882812 698.117188 149.304688 698.074219 149.71875 697.992188 C 150.136719 697.90625 150.542969 697.78125 150.933594 697.621094 C 151.324219 697.457031 151.699219 697.253906 152.050781 697.019531 C 152.402344 696.78125 152.730469 696.511719 153.027344 696.210938 C 153.328125 695.910156 153.597656 695.582031 153.832031 695.230469 C 154.066406 694.875 154.265625 694.5 154.425781 694.109375 C 154.589844 693.714844 154.710938 693.3125 154.792969 692.894531 C 154.875 692.476562 154.914062 692.054688 154.914062 691.628906 L 154.914062 691.027344 C 154.914062 690.605469 154.871094 690.183594 154.785156 689.765625 C 154.703125 689.351562 154.578125 688.945312 154.414062 688.554688 C 154.25 688.160156 154.050781 687.789062 153.816406 687.433594 C 153.578125 687.082031 153.308594 686.757812 153.007812 686.457031 C 152.707031 686.15625 152.378906 685.890625 152.027344 685.652344 C 151.671875 685.417969 151.296875 685.21875 150.90625 685.058594 C 150.511719 684.898438 150.109375 684.773438 149.691406 684.691406 C 149.273438 684.609375 148.851562 684.570312 148.429688 684.570312 L 140.304688 684.585938 C 140.171875 684.585938 140.054688 684.632812 139.960938 684.726562 C 139.867188 684.820312 139.820312 684.933594 139.820312 685.070312 Z M 139.820312 685.070312 " fill-opacity="1" fill-rule="nonzero"/><path fill="#000000" d="M 181.96875 685.128906 L 181.984375 694.609375 C 181.984375 694.757812 182.035156 694.878906 182.136719 694.984375 C 182.238281 695.085938 182.363281 695.136719 182.507812 695.136719 L 200.25 695.136719 C 200.394531 695.136719 200.519531 695.1875 200.621094 695.292969 C 200.726562 695.394531 200.777344 695.519531 200.777344 695.664062 L 200.792969 702.902344 C 200.792969 703.050781 200.738281 703.175781 200.636719 703.277344 C 200.535156 703.378906 200.410156 703.429688 200.265625 703.429688 L 182.496094 703.414062 C 182.347656 703.414062 182.226562 703.46875 182.121094 703.570312 C 182.019531 703.671875 181.96875 703.796875 181.96875 703.941406 L 181.96875 714.929688 C 181.96875 715.074219 182.019531 715.199219 182.121094 715.300781 C 182.226562 715.40625 182.347656 715.457031 182.496094 715.457031 L 203.257812 715.441406 C 203.40625 715.441406 203.527344 715.492188 203.632812 715.597656 C 203.734375 715.699219 203.785156 715.824219 203.785156 715.96875 L 203.785156 723.207031 C 203.785156 723.355469 203.734375 723.476562 203.632812 723.582031 C 203.527344 723.683594 203.40625 723.734375 203.257812 723.734375 L 172.335938 723.734375 C 172.191406 723.734375 172.066406 723.683594 171.964844 723.582031 C 171.863281 723.476562 171.8125 723.355469 171.8125 723.207031 L 171.8125 676.851562 C 171.8125 676.703125 171.863281 676.582031 171.964844 676.476562 C 172.066406 676.375 172.191406 676.324219 172.335938 676.324219 L 203.257812 676.308594 C 203.40625 676.308594 203.527344 676.359375 203.632812 676.460938 C 203.734375 676.566406 203.785156 676.691406 203.785156 676.835938 L 203.785156 684.074219 C 203.785156 684.21875 203.734375 684.34375 203.632812 684.449219 C 203.527344 684.550781 203.40625 684.601562 203.257812 684.601562 L 182.496094 684.601562 C 182.347656 684.601562 182.226562 684.652344 182.121094 684.757812 C 182.019531 684.859375 181.96875 684.984375 181.96875 685.128906 Z M 181.96875 685.128906 " fill-opacity="1" fill-rule="nonzero"/><path fill="#000000" d="M 231.246094 685.128906 L 231.246094 723.195312 C 231.246094 723.339844 231.195312 723.464844 231.09375 723.566406 C 230.988281 723.667969 230.863281 723.71875 230.71875 723.71875 L 221.617188 723.75 C 221.472656 723.75 221.347656 723.699219 221.242188 723.597656 C 221.140625 723.492188 221.089844 723.367188 221.089844 723.222656 L 221.089844 685.128906 C 221.089844 684.984375 221.039062 684.859375 220.933594 684.757812 C 220.832031 684.652344 220.707031 684.601562 220.5625 684.601562 L 207.335938 684.601562 C 207.191406 684.601562 207.066406 684.550781 206.964844 684.449219 C 206.863281 684.34375 206.808594 684.21875 206.808594 684.074219 L 206.78125 676.851562 C 206.78125 676.703125 206.832031 676.582031 206.933594 676.476562 C 207.039062 676.375 207.160156 676.324219 207.308594 676.324219 L 245.015625 676.308594 C 245.160156 676.308594 245.285156 676.359375 245.386719 676.460938 C 245.488281 676.566406 245.539062 676.691406 245.539062 676.835938 L 245.527344 684.089844 C 245.527344 684.234375 245.472656 684.359375 245.371094 684.460938 C 245.269531 684.566406 245.144531 684.617188 245 684.617188 L 231.773438 684.601562 C 231.628906 684.601562 231.503906 684.652344 231.402344 684.757812 C 231.296875 684.859375 231.246094 684.984375 231.246094 685.128906 Z M 231.246094 685.128906 " fill-opacity="1" fill-rule="nonzero"/><path fill="#000000" d="M 256.75 714.375 L 253.800781 723.269531 C 253.707031 723.558594 253.507812 723.707031 253.199219 723.707031 L 243.71875 723.75 C 243.613281 723.753906 243.515625 723.730469 243.421875 723.683594 C 243.328125 723.632812 243.25 723.566406 243.191406 723.480469 C 243.132812 723.394531 243.09375 723.300781 243.082031 723.195312 C 243.070312 723.089844 243.082031 722.992188 243.117188 722.890625 L 260.300781 676.730469 C 260.40625 676.460938 260.601562 676.324219 260.886719 676.324219 L 269.464844 676.308594 C 269.753906 676.308594 269.949219 676.445312 270.050781 676.714844 L 287.296875 722.878906 C 287.332031 722.976562 287.34375 723.078125 287.332031 723.179688 C 287.320312 723.285156 287.28125 723.378906 287.222656 723.464844 C 287.164062 723.550781 287.085938 723.617188 286.992188 723.667969 C 286.898438 723.714844 286.800781 723.738281 286.695312 723.734375 L 277.246094 723.734375 C 276.945312 723.730469 276.75 723.582031 276.65625 723.296875 L 273.753906 714.433594 C 273.660156 714.148438 273.464844 714.003906 273.167969 713.996094 L 257.351562 713.9375 C 257.046875 713.9375 256.84375 714.082031 256.75 714.375 Z M 259.867188 705.054688 C 259.839844 705.128906 259.835938 705.203125 259.847656 705.28125 C 259.859375 705.355469 259.886719 705.425781 259.929688 705.488281 C 259.976562 705.550781 260.03125 705.597656 260.101562 705.632812 C 260.167969 705.667969 260.238281 705.6875 260.316406 705.6875 L 270.035156 705.6875 C 270.113281 705.6875 270.1875 705.667969 270.253906 705.632812 C 270.320312 705.597656 270.378906 705.550781 270.421875 705.488281 C 270.46875 705.425781 270.496094 705.355469 270.507812 705.28125 C 270.519531 705.203125 270.511719 705.128906 270.488281 705.054688 L 265.628906 690.53125 C 265.550781 690.324219 265.398438 690.21875 265.175781 690.21875 C 264.953125 690.21875 264.804688 690.324219 264.726562 690.53125 Z M 259.867188 705.054688 " fill-opacity="1" fill-rule="nonzero"/><path fill="#000000" d="M 301.589844 707.554688 L 301.589844 723.359375 C 301.589844 723.609375 301.464844 723.734375 301.214844 723.734375 L 291.808594 723.734375 C 291.558594 723.734375 291.433594 723.609375 291.433594 723.359375 L 291.433594 677.378906 C 291.433594 676.726562 291.757812 676.394531 292.410156 676.382812 C 300.957031 676.183594 307.980469 676.238281 313.476562 676.550781 C 328.328125 677.378906 331.699219 696.882812 319.570312 703.402344 C 318.890625 703.773438 318.730469 704.304688 319.089844 704.996094 L 328.765625 723.359375 C 328.8125 723.441406 328.8125 723.519531 328.765625 723.601562 C 328.71875 723.679688 328.648438 723.722656 328.554688 723.71875 L 318.171875 723.75 C 317.941406 723.75 317.777344 723.648438 317.675781 723.449219 L 309.277344 707.238281 C 309 706.695312 308.550781 706.425781 307.941406 706.425781 L 302.71875 706.425781 C 301.964844 706.425781 301.589844 706.800781 301.589844 707.554688 Z M 301.621094 685.113281 L 301.558594 697.515625 C 301.554688 697.679688 301.613281 697.824219 301.726562 697.941406 C 301.839844 698.058594 301.980469 698.117188 302.148438 698.117188 L 310.167969 698.148438 C 310.589844 698.148438 311.011719 698.109375 311.429688 698.03125 C 311.84375 697.949219 312.25 697.828125 312.640625 697.667969 C 313.035156 697.507812 313.40625 697.3125 313.761719 697.078125 C 314.117188 696.84375 314.445312 696.578125 314.746094 696.277344 C 315.046875 695.980469 315.316406 695.65625 315.554688 695.304688 C 315.792969 694.953125 315.992188 694.582031 316.160156 694.191406 C 316.324219 693.800781 316.449219 693.398438 316.535156 692.980469 C 316.621094 692.566406 316.664062 692.144531 316.667969 691.722656 L 316.667969 691.089844 C 316.671875 690.664062 316.632812 690.242188 316.550781 689.824219 C 316.472656 689.40625 316.351562 689 316.191406 688.605469 C 316.03125 688.210938 315.832031 687.835938 315.597656 687.480469 C 315.363281 687.125 315.097656 686.796875 314.796875 686.492188 C 314.5 686.191406 314.175781 685.921875 313.820312 685.683594 C 313.46875 685.445312 313.097656 685.242188 312.703125 685.078125 C 312.3125 684.914062 311.90625 684.789062 311.492188 684.703125 C 311.074219 684.617188 310.652344 684.574219 310.226562 684.570312 L 302.207031 684.542969 C 302.046875 684.542969 301.910156 684.597656 301.796875 684.707031 C 301.683594 684.820312 301.625 684.953125 301.621094 685.113281 Z M 301.621094 685.113281 " fill-opacity="1" fill-rule="nonzero"/></svg>